<svg id="svg" version="1.1" xmlns="http://www.w3.org/2000/svg" xmlns:xlink="http://www.w3.org/1999/xlink" width="400" height="400" viewBox="0, 0, 400,400"><g id="svgg"><path id="path0" d="M267.600 12.147 L 267.600 24.294 265.991 25.358 L 264.382 26.423 253.349 26.387 C 247.280 26.368,242.214 26.453,242.090 26.577 C 241.966 26.700,241.504 26.486,241.064 26.101 C 240.473 25.584,240.342 25.557,240.566 26.000 C 240.733 26.330,240.539 26.210,240.135 25.733 C 239.629 25.135,239.051 24.907,238.278 25.000 C 237.347 25.112,237.237 25.038,237.629 24.565 C 238.036 24.075,236.394 24.010,225.751 24.098 C 215.029 24.187,213.414 24.279,213.506 24.800 C 213.579 25.215,213.425 25.161,213.006 24.624 C 212.569 24.063,212.398 24.008,212.394 24.424 C 212.389 24.910,212.327 24.906,212.000 24.400 C 211.787 24.070,211.612 23.980,211.612 24.200 C 211.612 24.420,211.787 24.870,212.000 25.200 C 212.262 25.605,212.390 25.637,212.394 25.297 C 212.399 24.897,212.561 24.894,213.184 25.283 C 213.750 25.636,213.833 25.858,213.484 26.080 C 213.128 26.306,213.151 26.389,213.570 26.394 C 213.965 26.398,213.842 26.727,213.170 27.465 C 212.636 28.050,212.425 28.399,212.700 28.241 C 213.095 28.013,213.200 30.391,213.200 39.576 C 213.200 48.430,213.085 51.176,212.718 51.100 C 212.453 51.045,212.228 51.270,212.218 51.600 C 212.208 51.930,211.990 52.200,211.733 52.200 C 211.477 52.200,211.124 52.342,210.950 52.516 C 210.776 52.690,205.602 52.809,199.453 52.781 C 187.749 52.726,186.867 52.857,187.855 54.503 C 188.024 54.785,187.830 54.740,187.407 54.400 C 186.717 53.845,186.679 53.867,186.893 54.700 C 187.021 55.194,186.957 55.703,186.751 55.830 C 186.532 55.965,186.392 60.718,186.413 67.287 C 186.440 75.858,186.329 78.617,185.943 78.956 C 185.654 79.210,185.684 79.058,186.012 78.600 C 186.582 77.805,186.580 77.805,185.679 78.575 C 185.180 79.001,184.858 79.575,184.964 79.851 C 185.243 80.577,163.406 80.648,162.454 79.924 C 162.094 79.650,161.914 79.565,162.054 79.734 C 162.396 80.148,160.305 82.290,159.800 82.043 C 159.580 81.935,159.630 82.130,159.911 82.478 C 160.647 83.387,160.589 105.247,159.851 104.964 C 159.575 104.858,159.001 105.180,158.575 105.679 C 157.805 106.580,157.805 106.582,158.600 106.012 C 159.040 105.697,159.205 105.661,158.967 105.933 C 158.642 106.303,155.620 106.426,146.844 106.425 L 135.154 106.424 135.403 107.312 C 135.601 108.018,135.564 108.077,135.223 107.600 C 134.856 107.086,134.674 107.144,133.962 108.000 C 133.505 108.550,133.264 108.747,133.427 108.438 C 133.631 108.052,133.569 107.972,133.227 108.183 C 132.869 108.404,132.852 108.612,133.165 108.925 C 133.674 109.434,133.792 130.800,133.285 130.800 C 133.112 130.800,132.942 131.180,132.907 131.645 C 132.827 132.698,132.698 132.827,131.645 132.907 C 131.180 132.942,130.800 133.112,130.800 133.285 C 130.800 133.792,109.434 133.674,108.925 133.165 C 108.612 132.852,108.404 132.869,108.183 133.227 C 107.972 133.569,108.052 133.631,108.438 133.427 C 108.747 133.264,108.550 133.505,108.000 133.962 C 107.144 134.674,107.086 134.856,107.600 135.223 C 108.077 135.564,108.018 135.601,107.312 135.403 L 106.424 135.154 106.425 146.844 C 106.426 155.620,106.303 158.642,105.933 158.967 C 105.661 159.205,105.697 159.040,106.012 158.600 C 106.582 157.805,106.580 157.805,105.679 158.575 C 105.180 159.001,104.858 159.575,104.964 159.851 C 105.247 160.589,83.387 160.647,82.478 159.911 C 82.130 159.630,81.935 159.580,82.043 159.800 C 82.290 160.305,80.148 162.396,79.734 162.054 C 79.565 161.914,79.657 162.102,79.938 162.471 C 80.333 162.989,80.421 165.785,80.325 174.761 C 80.217 184.822,80.281 186.402,80.800 186.544 C 81.251 186.667,81.227 186.719,80.700 186.754 C 79.898 186.807,79.750 187.832,80.500 188.136 C 80.876 188.289,80.852 188.444,80.400 188.763 C 79.882 189.130,79.896 189.189,80.500 189.194 C 80.885 189.197,81.200 188.998,81.200 188.751 C 81.200 188.428,81.357 188.433,81.763 188.769 C 82.170 189.107,85.431 189.203,93.566 189.118 C 99.748 189.053,104.622 189.061,104.397 189.135 C 103.794 189.335,103.869 237.872,104.474 238.246 C 104.738 238.409,104.813 238.344,104.655 238.089 C 104.508 237.851,104.557 237.550,104.765 237.422 C 104.983 237.287,105.077 237.709,104.988 238.413 C 104.885 239.226,105.029 239.713,105.414 239.861 C 105.734 239.983,105.905 240.230,105.794 240.410 C 105.683 240.589,105.856 240.999,106.177 241.320 C 106.499 241.642,106.670 241.997,106.557 242.110 C 106.444 242.223,106.367 247.246,106.387 253.272 L 106.423 264.229 105.303 265.301 L 104.183 266.374 93.291 266.487 C 86.224 266.560,82.397 266.460,82.394 266.200 C 82.390 265.980,82.213 266.070,82.000 266.400 C 81.695 266.871,81.611 266.882,81.606 266.451 C 81.601 266.024,81.475 266.006,81.036 266.370 C 80.590 266.741,80.347 266.659,79.870 265.979 L 79.268 265.119 78.650 266.260 C 78.129 267.220,78.025 267.274,77.988 266.600 L 77.944 265.800 77.600 266.600 C 77.169 267.604,77.086 290.800,77.514 290.800 C 77.687 290.800,77.829 291.160,77.829 291.600 C 77.829 292.426,77.369 292.698,77.133 292.011 C 76.992 291.599,55.698 291.369,55.292 291.775 C 55.168 291.899,55.277 292.000,55.533 292.000 C 55.790 292.000,55.979 292.135,55.953 292.300 C 55.752 293.572,55.987 293.600,66.958 293.600 L 77.915 293.600 77.860 294.500 L 77.804 295.400 66.902 295.288 C 52.416 295.138,52.270 294.430,66.700 294.313 L 77.400 294.225 66.400 293.996 C 54.535 293.750,55.038 293.786,55.400 293.200 C 55.536 292.980,55.457 292.800,55.224 292.800 C 54.668 292.800,54.674 293.891,55.231 294.077 C 55.469 294.156,55.291 294.556,54.831 294.972 C 54.370 295.389,54.000 295.518,54.000 295.262 C 54.000 295.008,53.730 294.800,53.400 294.800 C 53.070 294.800,52.800 294.991,52.800 295.224 C 52.800 295.457,52.975 295.539,53.188 295.407 C 53.402 295.275,53.671 295.580,53.787 296.084 C 54.125 297.553,54.230 318.401,53.900 318.400 C 53.735 318.400,53.600 313.360,53.600 307.200 C 53.600 295.983,53.573 295.752,52.300 295.953 C 52.135 295.979,52.000 295.809,52.000 295.576 C 52.000 295.343,51.865 295.236,51.700 295.338 C 51.048 295.740,51.575 317.200,52.236 317.200 C 52.572 317.200,52.748 317.361,52.626 317.558 C 52.504 317.755,52.685 318.024,53.028 318.155 C 53.370 318.287,53.544 318.566,53.415 318.776 C 53.284 318.987,53.547 319.087,54.002 319.000 C 54.813 318.843,54.812 318.860,53.934 320.093 C 53.444 320.781,53.238 321.224,53.476 321.077 C 53.716 320.928,54.002 321.164,54.117 321.605 C 54.232 322.043,54.162 322.300,53.963 322.177 C 53.749 322.045,53.600 326.570,53.600 333.189 C 53.600 343.524,53.656 344.446,54.300 344.685 C 54.685 344.828,55.298 345.279,55.661 345.689 C 56.279 346.384,57.074 346.430,67.743 346.382 C 74.025 346.354,79.352 346.447,79.582 346.589 C 79.984 346.837,80.158 346.564,80.037 345.870 C 80.006 345.689,80.168 345.656,80.397 345.798 C 80.626 345.939,80.709 346.223,80.583 346.428 C 80.241 346.981,80.894 346.855,81.759 346.200 C 82.387 345.725,82.431 345.519,82.010 345.013 C 81.664 344.595,81.645 344.400,81.951 344.400 C 82.198 344.400,82.400 344.535,82.400 344.700 C 82.400 344.865,87.440 345.000,93.600 345.000 C 99.760 345.000,104.800 344.865,104.800 344.700 C 104.800 344.535,104.665 344.421,104.500 344.447 C 104.335 344.473,99.385 344.473,93.500 344.447 L 82.800 344.400 82.800 333.600 L 82.800 322.800 94.000 322.800 C 101.200 322.800,105.200 322.657,105.200 322.400 C 105.200 322.180,105.481 322.000,105.824 322.000 C 106.167 322.000,106.336 322.180,106.200 322.400 C 106.064 322.620,106.244 322.800,106.600 322.800 C 106.956 322.800,107.136 322.620,107.000 322.400 C 106.864 322.180,107.078 321.992,107.476 321.983 C 110.853 321.904,131.437 322.097,133.000 322.223 C 134.109 322.312,134.771 322.239,134.486 322.060 C 134.171 321.861,134.084 321.439,134.261 320.968 C 134.516 320.290,134.471 320.264,133.879 320.745 C 133.511 321.045,133.326 321.495,133.469 321.745 C 133.611 321.995,133.574 322.060,133.386 321.888 C 132.872 321.421,132.812 320.412,133.305 320.512 C 134.005 320.655,134.863 318.696,134.281 318.281 C 133.909 318.017,133.913 317.893,134.300 317.736 C 134.683 317.581,134.800 314.981,134.800 306.647 C 134.800 298.713,134.930 295.630,135.280 295.280 C 135.896 294.664,158.221 294.587,158.600 295.200 C 158.736 295.420,159.117 295.600,159.447 295.600 C 159.791 295.600,159.928 295.407,159.768 295.148 C 159.607 294.887,159.697 294.766,159.981 294.860 C 160.352 294.984,160.485 297.709,160.521 306.012 L 160.570 317.000 160.692 306.511 C 160.807 296.525,160.851 296.001,161.607 295.597 C 162.147 295.307,162.400 295.304,162.400 295.586 C 162.400 295.861,166.020 296.000,173.194 296.000 L 183.987 296.000 184.106 306.700 L 184.225 317.400 184.213 306.584 L 184.200 295.767 185.274 294.725 C 185.865 294.151,186.450 293.783,186.574 293.908 C 186.698 294.032,186.800 293.797,186.800 293.387 C 186.800 292.835,186.917 292.757,187.249 293.089 C 187.702 293.542,188.932 293.337,188.636 292.858 C 188.548 292.716,193.670 292.650,200.019 292.712 L 211.562 292.824 212.757 294.018 L 213.952 295.213 214.011 306.907 C 214.043 313.338,214.064 318.936,214.056 319.347 C 214.043 320.077,214.057 320.077,214.651 319.347 C 214.986 318.936,215.155 318.809,215.028 319.064 C 214.213 320.701,214.799 320.796,226.343 320.890 L 237.400 320.980 226.600 321.200 L 215.800 321.420 226.220 321.510 C 236.381 321.598,238.787 321.361,238.797 320.271 C 238.801 319.846,239.846 318.801,240.271 318.797 C 241.361 318.787,241.598 316.381,241.510 306.220 L 241.420 295.800 241.200 306.600 L 240.980 317.400 240.896 306.600 C 240.848 300.332,240.971 295.548,241.191 295.200 C 241.510 294.695,243.344 294.581,252.785 294.477 C 259.805 294.400,264.000 294.206,264.000 293.959 C 264.000 293.742,264.226 293.617,264.502 293.680 C 264.778 293.744,265.415 293.385,265.917 292.883 C 266.419 292.381,267.021 292.089,267.254 292.234 C 267.543 292.412,267.539 292.233,267.240 291.675 C 266.678 290.625,266.641 269.664,267.200 268.800 C 267.413 268.470,267.591 268.357,267.594 268.549 C 267.597 268.741,267.868 268.676,268.196 268.404 C 268.523 268.132,268.704 267.769,268.598 267.597 C 268.038 266.691,290.015 266.352,291.675 267.240 C 292.233 267.539,292.412 267.543,292.234 267.254 C 292.089 267.021,292.381 266.419,292.883 265.917 C 293.385 265.415,293.744 264.778,293.680 264.502 C 293.617 264.226,293.745 264.000,293.965 264.000 C 294.219 264.000,294.407 259.922,294.482 252.817 C 294.630 238.798,292.961 240.377,307.500 240.502 C 313.715 240.556,318.800 240.452,318.800 240.271 C 318.800 239.846,319.846 238.800,320.271 238.800 C 320.452 238.800,320.556 233.715,320.502 227.500 C 320.377 212.968,318.824 214.630,332.664 214.482 C 342.101 214.380,343.786 214.272,344.329 213.728 C 344.723 213.334,345.019 213.257,345.109 213.526 C 345.206 213.817,345.574 213.838,346.227 213.590 C 346.762 213.386,347.203 213.350,347.206 213.510 C 347.209 213.669,347.387 213.530,347.600 213.200 C 347.931 212.687,347.989 212.702,347.994 213.300 C 347.997 213.685,348.191 214.000,348.424 214.000 C 348.657 214.000,348.736 213.820,348.600 213.600 C 348.464 213.380,348.555 213.200,348.802 213.200 C 349.048 213.200,349.218 212.885,349.179 212.500 C 349.140 212.115,349.129 206.715,349.154 200.500 L 349.200 189.200 361.609 189.200 L 374.017 189.200 374.480 188.185 C 374.734 187.626,375.140 187.245,375.382 187.338 C 375.889 187.532,375.909 186.024,375.411 185.218 C 375.185 184.851,375.228 184.770,375.544 184.966 C 375.899 185.185,375.987 182.498,375.906 173.927 C 375.835 166.345,375.662 162.624,375.383 162.672 C 375.154 162.712,374.940 162.395,374.908 161.968 C 374.875 161.541,374.568 160.911,374.225 160.567 C 373.556 159.899,373.383 159.419,373.933 159.759 C 374.117 159.872,374.267 159.719,374.267 159.418 C 374.267 159.110,373.957 158.931,373.556 159.008 C 373.076 159.101,372.917 158.960,373.065 158.575 C 373.185 158.261,373.490 158.120,373.742 158.261 C 374.019 158.416,374.002 158.304,373.700 157.979 C 371.849 155.985,373.312 134.122,375.467 131.569 C 376.107 130.810,376.258 109.007,375.626 108.616 C 374.359 107.833,373.975 103.996,374.087 93.233 C 374.149 87.317,374.065 82.559,373.900 82.661 C 373.413 82.963,373.554 82.442,374.244 81.389 C 374.598 80.848,374.780 80.125,374.649 79.782 C 374.511 79.424,374.577 79.262,374.805 79.403 C 375.025 79.539,375.200 79.204,375.200 78.647 C 375.200 78.097,375.380 77.536,375.600 77.400 C 375.851 77.245,376.000 73.079,376.000 66.225 C 376.000 54.656,375.922 54.165,374.124 54.461 C 373.726 54.526,373.187 54.447,372.928 54.283 C 372.668 54.120,372.370 54.125,372.266 54.293 C 372.162 54.462,366.885 54.512,360.539 54.404 L 349.000 54.207 360.000 53.988 L 371.000 53.768 359.799 53.784 C 348.571 53.800,346.235 53.498,347.533 52.200 C 347.680 52.053,347.620 51.970,347.400 52.014 C 347.180 52.058,346.820 52.074,346.600 52.048 C 346.341 52.017,346.241 47.902,346.318 40.335 C 346.410 31.125,346.326 28.600,345.918 28.341 C 345.574 28.123,345.556 28.010,345.863 28.006 C 346.139 28.002,346.234 27.652,346.100 27.137 C 345.932 26.495,346.008 26.358,346.399 26.599 C 346.749 26.816,346.827 26.768,346.634 26.455 C 346.475 26.198,346.198 26.078,346.018 26.189 C 345.838 26.300,345.445 26.078,345.145 25.696 C 344.664 25.081,344.674 25.058,345.237 25.497 C 345.587 25.770,345.986 25.881,346.123 25.743 C 346.261 25.606,345.946 25.158,345.423 24.747 C 344.447 23.979,323.388 23.545,322.655 24.278 C 322.362 24.572,321.567 24.772,320.134 24.914 C 319.435 24.984,319.358 25.111,319.734 25.577 C 320.099 26.028,320.087 26.086,319.682 25.842 C 319.393 25.669,318.874 25.767,318.506 26.066 C 318.036 26.447,317.933 26.457,318.147 26.100 C 318.384 25.705,316.159 25.600,307.537 25.600 C 298.401 25.600,296.348 25.494,294.913 24.946 L 293.200 24.291 293.200 12.146 L 293.200 0.000 280.400 0.000 L 267.600 0.000 267.600 12.147 M185.200 24.504 C 185.200 24.855,184.885 25.224,184.500 25.324 C 183.844 25.496,183.845 25.510,184.513 25.554 C 185.236 25.601,185.906 24.573,185.449 24.116 C 185.312 23.979,185.200 24.153,185.200 24.504 M345.531 24.491 C 345.787 24.747,346.166 24.747,346.622 24.491 C 347.213 24.161,347.152 24.100,346.231 24.100 C 345.520 24.100,345.276 24.236,345.531 24.491 M194.500 24.699 C 197.525 24.767,202.475 24.767,205.500 24.699 C 208.525 24.631,206.050 24.575,200.000 24.575 C 193.950 24.575,191.475 24.631,194.500 24.699 M184.400 40.081 C 184.290 46.175,184.338 51.023,184.507 50.854 C 184.675 50.685,184.765 45.699,184.706 39.773 L 184.599 29.000 184.400 40.081 M375.430 53.467 C 375.289 53.834,375.337 54.297,375.537 54.497 C 375.754 54.714,375.900 54.447,375.900 53.830 C 375.900 52.631,375.785 52.542,375.430 53.467 M373.900 186.900 C 373.845 187.175,373.620 187.532,373.400 187.694 C 373.152 187.876,373.190 187.990,373.500 187.994 C 373.775 187.997,374.000 188.150,374.000 188.333 C 374.000 188.517,373.730 188.667,373.400 188.667 C 372.695 188.667,372.643 188.242,373.214 187.174 C 373.683 186.297,374.050 186.151,373.900 186.900 M130.800 200.000 L 130.800 210.800 120.033 210.800 C 111.794 210.800,109.219 210.917,109.065 211.300 C 108.954 211.575,108.849 206.715,108.832 200.500 L 108.800 189.200 119.800 189.200 L 130.800 189.200 130.800 200.000 M322.581 242.906 C 322.474 243.185,322.438 248.180,322.500 254.006 L 322.614 264.600 322.707 253.706 L 322.800 242.813 333.700 242.700 L 344.600 242.587 333.687 242.493 C 325.185 242.421,322.732 242.512,322.581 242.906 M295.200 280.000 C 295.200 286.933,295.343 290.800,295.600 290.800 C 295.857 290.800,296.000 286.933,296.000 280.000 C 296.000 273.067,295.857 269.200,295.600 269.200 C 295.343 269.200,295.200 273.067,295.200 280.000 M52.000 291.304 C 52.000 291.655,51.685 292.024,51.300 292.124 C 50.644 292.296,50.645 292.310,51.313 292.354 C 52.036 292.401,52.706 291.373,52.249 290.916 C 52.112 290.779,52.000 290.953,52.000 291.304 M52.535 292.656 C 51.617 293.614,52.138 294.731,53.287 294.269 C 53.609 294.140,53.540 294.051,53.100 294.032 C 52.715 294.014,52.400 293.826,52.400 293.613 C 52.400 293.399,52.701 293.341,53.069 293.482 C 53.577 293.677,53.677 293.577,53.482 293.069 C 53.341 292.701,53.386 292.400,53.583 292.400 C 53.780 292.400,54.024 292.715,54.124 293.100 C 54.279 293.691,54.314 293.698,54.354 293.149 C 54.439 291.950,53.464 291.686,52.535 292.656 M294.538 295.017 C 294.408 295.357,294.413 295.747,294.551 295.884 C 294.688 296.021,294.800 295.847,294.800 295.496 C 294.800 295.145,295.115 294.776,295.500 294.676 C 296.156 294.504,296.155 294.490,295.487 294.446 C 295.096 294.421,294.668 294.678,294.538 295.017 M55.596 295.805 C 55.289 296.175,55.191 299.799,55.277 307.650 C 55.344 313.871,55.342 318.655,55.271 318.281 C 55.200 317.906,54.975 317.600,54.771 317.600 C 54.552 317.600,54.400 313.164,54.400 306.800 C 54.400 299.867,54.543 296.000,54.800 296.000 C 55.020 296.000,55.179 295.865,55.153 295.700 C 55.046 295.028,55.223 294.767,55.619 295.012 C 55.909 295.191,55.902 295.436,55.596 295.805 M269.200 295.600 C 269.200 295.857,273.067 296.000,280.000 296.000 C 286.933 296.000,290.800 295.857,290.800 295.600 C 290.800 295.343,286.933 295.200,280.000 295.200 C 273.067 295.200,269.200 295.343,269.200 295.600 M77.600 306.800 L 77.600 317.600 66.800 317.600 L 56.000 317.600 56.000 306.800 L 56.000 296.000 66.800 296.000 L 77.600 296.000 77.600 306.800 M134.854 320.738 C 135.194 321.282,135.519 321.433,135.816 321.186 C 136.063 320.981,140.931 320.759,146.633 320.692 L 157.000 320.570 146.120 320.521 C 140.136 320.494,135.037 320.347,134.790 320.194 C 134.512 320.022,134.537 320.230,134.854 320.738 M161.040 321.135 C 160.913 321.341,161.061 321.718,161.369 321.974 C 161.700 322.249,162.023 322.286,162.160 322.065 C 162.287 321.859,162.139 321.482,161.831 321.226 C 161.500 320.951,161.177 320.914,161.040 321.135 M135.443 322.633 C 135.015 323.747,135.164 344.400,135.600 344.400 C 135.857 344.400,136.000 340.400,136.000 333.200 C 136.000 322.293,135.948 321.315,135.443 322.633 M242.581 322.906 C 242.474 323.185,242.438 328.180,242.500 334.006 L 242.614 344.600 242.707 333.706 L 242.800 322.813 253.700 322.700 L 264.600 322.587 253.687 322.493 C 245.185 322.421,242.732 322.512,242.581 322.906 M134.175 333.400 C 134.175 339.340,134.231 341.826,134.299 338.924 C 134.367 336.022,134.367 331.162,134.299 328.124 C 134.231 325.086,134.175 327.460,134.175 333.400 M134.200 344.827 C 133.549 345.085,133.641 345.149,134.700 345.172 C 136.052 345.201,136.358 345.020,135.500 344.698 C 135.225 344.595,134.640 344.653,134.200 344.827 M105.493 345.100 C 104.792 346.459,105.271 349.200,106.209 349.200 C 106.754 349.200,107.200 349.009,107.200 348.776 C 107.200 348.543,107.341 348.440,107.513 348.547 C 107.892 348.780,107.849 346.116,107.468 345.735 C 107.321 345.587,107.200 345.687,107.200 345.957 C 107.200 346.227,106.992 346.319,106.738 346.162 C 106.463 345.991,106.385 346.051,106.545 346.311 C 106.692 346.549,106.643 346.850,106.435 346.978 C 105.979 347.260,105.445 345.774,105.798 345.204 C 105.935 344.982,105.957 344.800,105.847 344.800 C 105.737 344.800,105.578 344.935,105.493 345.100 M82.800 346.604 C 82.800 347.146,84.165 347.217,94.026 347.187 C 102.529 347.162,105.213 347.039,105.093 346.677 C 104.823 345.866,82.800 345.794,82.800 346.604 M131.685 347.673 C 131.901 348.293,132.277 348.800,132.519 348.800 C 132.819 348.800,132.806 348.646,132.480 348.320 C 132.216 348.056,132.000 347.586,132.000 347.276 C 132.000 346.866,132.191 346.920,132.700 347.475 C 133.085 347.894,133.243 348.004,133.051 347.719 C 132.625 347.085,133.260 347.020,133.875 347.635 C 134.188 347.948,134.387 347.945,134.585 347.625 C 134.741 347.372,134.630 347.228,134.330 347.290 C 134.038 347.351,133.831 347.218,133.868 346.995 C 133.906 346.772,133.342 346.580,132.614 346.567 C 131.335 346.546,131.305 346.582,131.685 347.673 M211.102 346.666 C 211.379 346.777,211.503 347.033,211.379 347.234 C 211.016 347.821,211.456 347.655,212.000 347.000 C 212.419 346.495,212.348 346.405,211.549 346.432 C 211.027 346.449,210.826 346.554,211.102 346.666 M82.526 348.500 C 82.501 348.995,82.568 349.175,82.674 348.900 C 82.822 348.517,85.383 348.400,93.600 348.400 C 101.812 348.400,104.381 348.517,104.535 348.900 C 104.646 349.175,104.751 348.995,104.768 348.500 L 104.800 347.600 93.685 347.600 L 82.570 347.600 82.526 348.500 M106.629 348.209 C 106.205 348.529,105.760 348.694,105.641 348.574 C 105.390 348.323,106.406 347.609,107.000 347.619 C 107.220 347.622,107.053 347.888,106.629 348.209 M120.100 347.900 C 110.781 347.996,109.200 348.099,109.200 348.606 C 109.200 349.679,130.635 349.475,130.916 348.400 C 131.031 347.960,131.097 347.642,131.063 347.693 C 131.028 347.745,126.095 347.838,120.100 347.900 M24.176 359.800 C 24.176 365.960,24.232 368.424,24.299 365.276 C 24.367 362.127,24.367 357.087,24.299 354.076 C 24.231 351.064,24.176 353.640,24.176 359.800 M24.884 359.876 C 24.838 365.858,24.935 370.837,25.100 370.939 C 25.265 371.041,25.354 367.857,25.298 363.862 C 25.106 350.304,24.968 348.969,24.884 359.876 M24.475 374.648 C 24.847 374.758,25.242 375.153,25.352 375.525 C 25.499 376.014,25.532 375.981,25.472 375.405 C 25.425 374.938,25.062 374.575,24.595 374.528 C 24.019 374.468,23.986 374.501,24.475 374.648 M34.500 375.099 C 37.525 375.167,42.475 375.167,45.500 375.099 C 48.525 375.031,46.050 374.975,40.000 374.975 C 33.950 374.975,31.475 375.031,34.500 375.099 M34.700 375.899 C 37.835 375.967,42.965 375.967,46.100 375.899 C 49.235 375.832,46.670 375.776,40.400 375.776 C 34.130 375.776,31.565 375.832,34.700 375.899 " stroke="none" fill="#f4e4d4" fill-rule="evenodd"></path><path id="path1" d="M237.200 12.224 C 237.200 21.896,237.304 24.385,237.700 24.147 C 238.072 23.923,238.066 24.011,237.678 24.490 C 237.219 25.057,237.292 25.118,238.278 25.000 C 239.051 24.907,239.629 25.135,240.135 25.733 C 240.539 26.210,240.733 26.330,240.566 26.000 C 240.342 25.557,240.473 25.584,241.064 26.101 C 241.504 26.486,241.966 26.700,242.090 26.577 C 242.214 26.453,247.280 26.368,253.349 26.387 L 264.382 26.423 265.991 25.358 L 267.600 24.294 267.600 12.147 L 267.600 0.000 252.400 0.000 L 237.200 0.000 237.200 12.224 M293.200 12.146 L 293.200 24.291 294.913 24.946 C 296.348 25.494,298.401 25.600,307.537 25.600 C 316.159 25.600,318.384 25.705,318.147 26.100 C 317.933 26.457,318.036 26.447,318.506 26.066 C 318.874 25.767,319.393 25.669,319.682 25.842 C 320.087 26.086,320.099 26.028,319.734 25.577 C 319.358 25.111,319.435 24.984,320.134 24.914 C 322.830 24.647,322.589 25.835,322.706 12.262 L 322.812 0.000 308.006 0.000 L 293.200 0.000 293.200 12.146 M185.600 24.637 C 185.600 24.988,185.240 25.369,184.800 25.484 C 183.946 25.708,183.603 28.000,184.424 28.000 C 184.657 28.000,184.719 27.792,184.562 27.538 C 184.385 27.252,184.452 27.185,184.738 27.362 C 185.394 27.767,185.310 28.400,184.600 28.400 C 184.079 28.400,184.012 29.882,184.090 39.700 L 184.181 51.000 184.403 40.000 L 184.626 29.000 184.613 39.910 L 184.600 50.820 171.220 50.910 L 157.841 51.000 157.660 52.200 C 157.561 52.860,157.412 58.750,157.328 65.289 L 157.177 77.177 145.289 77.328 C 138.750 77.412,132.860 77.561,132.200 77.660 L 131.000 77.841 130.888 90.799 C 130.826 97.926,130.726 103.808,130.664 103.869 C 130.603 103.931,125.220 103.995,118.702 104.012 C 109.904 104.035,106.802 104.166,106.658 104.521 C 106.513 104.879,106.455 104.873,106.432 104.500 C 106.391 103.863,105.110 103.850,104.480 104.480 C 103.853 105.107,103.865 106.279,104.500 106.535 C 104.864 106.682,104.870 106.745,104.521 106.768 C 104.162 106.792,104.035 109.761,104.012 118.676 C 103.995 125.208,103.931 130.603,103.869 130.664 C 103.808 130.726,97.926 130.826,90.799 130.888 L 77.841 131.000 77.660 132.200 C 77.561 132.860,77.412 138.750,77.328 145.289 L 77.177 157.177 65.289 157.328 C 58.750 157.412,52.860 157.561,52.200 157.660 L 51.000 157.841 50.909 171.602 C 50.840 182.122,50.934 185.437,51.309 185.676 C 51.609 185.866,51.631 185.990,51.366 185.994 C 51.126 185.997,50.947 186.671,50.966 187.500 L 51.000 189.000 65.400 189.092 C 78.754 189.178,82.485 188.942,80.500 188.136 C 79.762 187.837,79.893 186.887,80.700 186.676 C 81.201 186.545,81.229 186.480,80.800 186.447 C 80.278 186.407,80.216 184.881,80.325 174.771 C 80.423 165.623,80.338 163.003,79.925 162.494 C 79.636 162.138,79.580 161.935,79.800 162.043 C 80.305 162.290,82.396 160.148,82.054 159.734 C 81.914 159.565,82.094 159.650,82.454 159.924 C 83.406 160.648,105.243 160.577,104.964 159.851 C 104.858 159.575,105.180 159.001,105.679 158.575 C 106.580 157.805,106.582 157.805,106.012 158.600 C 105.697 159.040,105.661 159.205,105.933 158.967 C 106.303 158.642,106.426 155.620,106.425 146.844 L 106.424 135.154 107.312 135.403 C 108.018 135.601,108.077 135.564,107.600 135.223 C 107.086 134.856,107.144 134.674,108.000 133.962 C 108.550 133.505,108.747 133.264,108.438 133.427 C 108.052 133.631,107.972 133.569,108.183 133.227 C 108.404 132.869,108.612 132.852,108.925 133.165 C 109.434 133.674,130.800 133.792,130.800 133.285 C 130.800 133.112,131.180 132.942,131.645 132.907 C 132.698 132.827,132.827 132.698,132.907 131.645 C 132.942 131.180,133.112 130.800,133.285 130.800 C 133.792 130.800,133.674 109.434,133.165 108.925 C 132.852 108.612,132.869 108.404,133.227 108.183 C 133.569 107.972,133.631 108.052,133.427 108.438 C 133.264 108.747,133.505 108.550,133.962 108.000 C 134.674 107.144,134.856 107.086,135.223 107.600 C 135.564 108.077,135.601 108.018,135.403 107.312 L 135.154 106.424 146.844 106.425 C 155.620 106.426,158.642 106.303,158.967 105.933 C 159.205 105.661,159.040 105.697,158.600 106.012 C 157.805 106.582,157.805 106.580,158.575 105.679 C 159.001 105.180,159.575 104.858,159.851 104.964 C 160.577 105.243,160.648 83.406,159.924 82.454 C 159.650 82.094,159.565 81.914,159.734 82.054 C 160.148 82.396,162.290 80.305,162.043 79.800 C 161.935 79.580,162.130 79.630,162.478 79.911 C 163.387 80.647,185.247 80.589,184.964 79.851 C 184.858 79.575,185.180 79.001,185.679 78.575 C 186.580 77.805,186.582 77.805,186.012 78.600 C 185.684 79.058,185.654 79.210,185.943 78.956 C 186.329 78.617,186.440 75.858,186.413 67.287 C 186.392 60.718,186.532 55.965,186.751 55.830 C 186.957 55.703,187.021 55.194,186.893 54.700 C 186.679 53.867,186.717 53.845,187.407 54.400 C 187.830 54.740,188.024 54.785,187.855 54.503 C 186.867 52.857,187.749 52.726,199.453 52.781 C 205.602 52.809,210.776 52.690,210.950 52.516 C 211.124 52.342,211.477 52.200,211.733 52.200 C 211.990 52.200,212.208 51.930,212.218 51.600 C 212.228 51.270,212.453 51.045,212.718 51.100 C 213.085 51.176,213.200 48.430,213.200 39.576 C 213.200 30.391,213.095 28.013,212.700 28.241 C 212.425 28.399,212.618 28.069,213.129 27.508 C 213.819 26.749,213.922 26.432,213.529 26.275 C 213.119 26.111,213.130 26.056,213.576 26.032 C 213.997 26.009,213.943 25.847,213.379 25.434 C 212.865 25.058,212.518 25.009,212.346 25.287 C 212.200 25.523,211.969 25.334,211.817 24.853 C 211.459 23.725,188.400 23.476,188.400 24.600 C 188.400 25.310,187.767 25.394,187.362 24.738 C 187.185 24.452,187.252 24.385,187.538 24.562 C 187.792 24.719,188.000 24.657,188.000 24.424 C 188.000 24.191,187.460 24.000,186.800 24.000 C 185.969 24.000,185.600 24.196,185.600 24.637 M345.675 24.850 C 346.510 25.636,346.136 26.195,345.237 25.503 C 344.658 25.058,344.658 25.086,345.239 25.807 C 346.157 26.945,346.467 27.999,345.887 28.006 C 345.528 28.011,345.536 28.098,345.918 28.341 C 346.326 28.600,346.410 31.125,346.318 40.335 C 346.241 47.902,346.341 52.017,346.600 52.048 C 346.820 52.074,347.180 52.058,347.400 52.014 C 347.620 51.970,347.680 52.053,347.533 52.200 C 346.235 53.498,348.571 53.800,359.799 53.784 L 371.000 53.768 360.000 53.988 L 349.000 54.207 360.539 54.404 C 366.885 54.512,372.162 54.462,372.266 54.293 C 372.370 54.125,372.668 54.120,372.928 54.283 C 373.187 54.447,373.726 54.526,374.124 54.461 C 374.522 54.395,375.152 54.571,375.524 54.852 C 376.096 55.283,376.123 55.275,375.700 54.801 C 375.118 54.148,375.029 53.447,375.571 53.782 C 375.797 53.922,375.947 48.447,375.955 39.832 C 375.967 26.786,375.913 25.638,375.284 25.473 C 374.653 25.307,374.654 25.289,375.300 25.246 C 376.102 25.193,376.226 24.587,375.524 24.153 C 375.262 23.991,374.977 24.070,374.890 24.329 C 374.804 24.588,374.433 24.797,374.067 24.794 C 373.539 24.789,373.513 24.716,373.944 24.443 C 374.256 24.245,369.087 24.069,361.808 24.030 C 352.618 23.980,348.974 24.090,348.565 24.429 C 348.223 24.713,348.000 24.738,348.000 24.491 C 348.000 24.268,347.567 24.111,347.038 24.142 C 346.509 24.174,346.160 24.335,346.262 24.500 C 346.364 24.665,346.293 24.800,346.104 24.800 C 345.915 24.800,345.585 24.665,345.372 24.500 C 345.158 24.335,345.294 24.493,345.675 24.850 M205.500 24.699 C 202.475 24.767,197.525 24.767,194.500 24.699 C 191.475 24.631,193.950 24.575,200.000 24.575 C 206.050 24.575,208.525 24.631,205.500 24.699 M375.467 77.467 C 375.320 77.613,375.200 78.164,375.200 78.690 C 375.200 79.219,375.023 79.538,374.805 79.403 C 374.577 79.262,374.511 79.424,374.649 79.782 C 374.780 80.125,374.598 80.848,374.244 81.389 C 373.554 82.442,373.413 82.963,373.900 82.661 C 374.065 82.559,374.149 87.317,374.087 93.233 C 373.975 103.996,374.359 107.833,375.626 108.616 C 376.258 109.007,376.107 130.810,375.467 131.569 C 373.312 134.122,371.849 155.985,373.700 157.979 C 374.002 158.304,374.019 158.416,373.742 158.261 C 373.490 158.120,373.185 158.261,373.065 158.575 C 372.917 158.960,373.076 159.101,373.556 159.008 C 373.957 158.931,374.267 159.110,374.267 159.418 C 374.267 159.719,374.117 159.872,373.933 159.759 C 373.383 159.419,373.556 159.899,374.225 160.567 C 374.568 160.911,374.876 161.544,374.908 161.975 C 374.965 162.734,375.355 162.759,387.484 162.789 L 400.000 162.820 400.000 120.010 L 400.000 77.200 387.867 77.200 C 381.193 77.200,375.613 77.320,375.467 77.467 M375.600 186.600 C 375.600 186.930,375.432 187.200,375.227 187.200 C 375.022 187.200,374.741 187.557,374.602 187.993 C 374.400 188.630,374.246 188.689,373.820 188.293 C 373.528 188.022,373.404 187.710,373.544 187.600 C 373.685 187.490,373.848 187.130,373.906 186.800 C 373.979 186.385,373.825 186.439,373.406 186.976 C 372.742 187.827,372.577 188.985,373.172 188.617 C 373.377 188.491,373.658 188.570,373.796 188.793 C 374.179 189.413,374.800 189.278,374.800 188.576 C 374.800 188.233,374.983 188.066,375.207 188.204 C 375.430 188.342,375.509 188.623,375.383 188.828 C 375.256 189.032,375.332 189.200,375.551 189.200 C 375.771 189.200,375.940 188.480,375.928 187.600 C 375.916 186.720,375.837 186.000,375.753 186.000 C 375.669 186.000,375.600 186.270,375.600 186.600 M108.832 200.500 C 108.849 206.715,108.954 211.575,109.065 211.300 C 109.219 210.917,111.794 210.800,120.033 210.800 L 130.800 210.800 130.800 200.000 L 130.800 189.200 119.800 189.200 L 108.800 189.200 108.832 200.500 M347.646 213.167 C 347.621 213.478,347.491 213.625,347.359 213.492 C 347.226 213.360,346.698 213.411,346.186 213.606 C 345.574 213.838,345.204 213.811,345.109 213.526 C 345.019 213.257,344.723 213.334,344.329 213.728 C 343.786 214.272,342.101 214.380,332.664 214.482 C 318.824 214.630,320.377 212.968,320.502 227.500 C 320.556 233.715,320.452 238.800,320.271 238.800 C 319.846 238.800,318.800 239.846,318.800 240.271 C 318.800 240.452,313.715 240.556,307.500 240.502 C 292.961 240.377,294.630 238.798,294.482 252.817 C 294.407 259.922,294.219 264.000,293.965 264.000 C 293.745 264.000,293.617 264.226,293.680 264.502 C 293.744 264.778,293.385 265.415,292.883 265.917 C 292.381 266.419,292.089 267.021,292.234 267.254 C 292.412 267.543,292.233 267.539,291.675 267.240 C 290.625 266.678,269.664 266.641,268.800 267.200 C 268.470 267.413,268.357 267.591,268.549 267.594 C 268.741 267.597,268.676 267.868,268.404 268.196 C 268.132 268.523,267.769 268.704,267.597 268.598 C 266.691 268.038,266.352 290.015,267.240 291.675 C 267.539 292.233,267.543 292.412,267.254 292.234 C 267.021 292.089,266.419 292.381,265.917 292.883 C 265.415 293.385,264.778 293.744,264.502 293.680 C 264.226 293.617,264.000 293.742,264.000 293.959 C 264.000 294.206,259.805 294.400,252.785 294.477 C 243.344 294.581,241.510 294.695,241.191 295.200 C 240.971 295.548,240.848 300.332,240.896 306.600 L 240.980 317.400 241.200 306.600 L 241.420 295.800 241.510 306.220 C 241.598 316.381,241.361 318.787,240.271 318.797 C 240.091 318.799,239.686 319.057,239.371 319.371 C 239.057 319.686,238.799 320.091,238.797 320.271 C 238.787 321.361,236.381 321.598,226.220 321.510 L 215.800 321.420 226.600 321.200 L 237.400 320.980 226.343 320.890 C 214.799 320.796,214.213 320.701,215.028 319.064 C 215.155 318.809,214.986 318.936,214.651 319.347 C 214.057 320.077,214.043 320.077,214.056 319.347 C 214.064 318.936,214.043 313.338,214.011 306.907 L 213.952 295.213 212.757 294.018 L 211.562 292.824 200.019 292.712 C 193.670 292.650,188.548 292.716,188.636 292.858 C 188.932 293.337,187.702 293.542,187.249 293.089 C 186.917 292.757,186.800 292.835,186.800 293.387 C 186.800 293.797,186.698 294.032,186.574 293.908 C 186.450 293.783,185.865 294.152,185.274 294.727 L 184.200 295.772 184.219 308.954 C 184.239 323.295,184.319 323.792,186.393 322.497 C 187.360 321.893,187.733 321.861,187.394 322.410 C 187.071 322.932,188.100 322.736,188.494 322.200 C 188.676 321.952,188.790 321.990,188.794 322.300 C 188.799 322.688,191.270 322.800,199.800 322.800 L 210.800 322.800 210.800 333.757 C 210.800 343.823,210.857 344.736,211.500 344.986 C 212.160 345.242,212.158 345.288,211.467 345.796 C 210.772 346.308,210.780 346.343,211.633 346.468 C 212.498 346.595,212.504 346.623,211.789 347.200 C 211.361 347.546,211.174 347.588,211.347 347.300 C 211.512 347.025,211.457 346.800,211.224 346.800 C 210.648 346.800,210.687 348.127,211.280 348.720 C 211.544 348.984,212.129 349.197,212.580 349.194 C 213.182 349.189,213.258 349.098,212.866 348.850 C 212.437 348.577,212.456 348.464,212.966 348.268 C 213.357 348.118,213.600 348.238,213.600 348.581 C 213.600 349.042,215.675 349.145,225.800 349.183 C 235.493 349.219,238.001 349.123,238.006 348.714 C 238.010 348.385,238.118 348.349,238.306 348.615 C 238.673 349.132,241.229 349.326,241.894 348.887 C 242.525 348.470,243.114 345.759,242.490 346.144 C 242.251 346.292,241.939 346.226,241.798 345.997 C 241.656 345.768,241.746 345.630,241.998 345.690 C 242.332 345.770,242.475 342.668,242.528 334.200 L 242.600 322.600 254.200 322.528 C 262.668 322.475,265.770 322.332,265.690 321.998 C 265.630 321.746,265.768 321.656,265.997 321.798 C 266.226 321.939,266.292 322.251,266.144 322.490 C 265.759 323.114,268.470 322.525,268.887 321.894 C 269.326 321.229,269.132 318.673,268.615 318.306 C 268.347 318.116,268.377 318.010,268.700 318.006 C 269.088 318.001,269.200 315.450,269.200 306.600 L 269.200 295.200 279.967 295.200 C 288.213 295.200,290.777 295.317,290.921 295.700 C 291.050 296.045,291.299 295.953,291.726 295.400 C 292.298 294.658,292.363 294.651,292.614 295.300 C 292.955 296.178,294.400 296.229,294.400 295.363 C 294.400 295.012,294.760 294.631,295.200 294.516 C 296.186 294.258,296.253 292.984,295.300 292.614 C 294.651 292.363,294.658 292.298,295.400 291.726 C 295.953 291.299,296.045 291.050,295.700 290.921 C 295.317 290.777,295.200 288.213,295.200 279.967 L 295.200 269.200 306.600 269.200 C 315.450 269.200,318.001 269.088,318.006 268.700 C 318.010 268.377,318.116 268.347,318.306 268.615 C 318.673 269.132,321.229 269.326,321.894 268.887 C 322.525 268.470,323.114 265.759,322.490 266.144 C 322.251 266.292,321.939 266.226,321.798 265.997 C 321.656 265.768,321.746 265.630,321.998 265.690 C 322.332 265.770,322.475 262.668,322.528 254.200 L 322.600 242.600 334.200 242.528 C 342.668 242.475,345.770 242.332,345.690 241.998 C 345.630 241.746,345.768 241.656,345.997 241.798 C 346.226 241.939,346.292 242.251,346.144 242.490 C 345.759 243.114,348.470 242.525,348.887 241.894 C 349.326 241.229,349.132 238.673,348.615 238.306 C 348.350 238.119,348.389 238.010,348.721 238.006 C 349.139 238.001,349.228 235.551,349.171 225.600 C 349.129 218.228,348.949 213.200,348.727 213.200 C 348.521 213.200,348.464 213.380,348.600 213.600 C 348.736 213.820,348.670 214.000,348.453 214.000 C 348.236 214.000,347.976 213.685,347.876 213.300 C 347.762 212.864,347.675 212.814,347.646 213.167 M77.933 238.017 C 77.336 238.659,77.264 240.248,77.253 253.067 C 77.246 261.622,77.383 267.077,77.593 266.600 L 77.944 265.800 77.988 266.600 C 78.025 267.274,78.129 267.220,78.650 266.260 L 79.268 265.119 79.870 265.979 C 80.347 266.659,80.590 266.741,81.036 266.370 C 81.475 266.006,81.601 266.024,81.606 266.451 C 81.611 266.882,81.695 266.871,82.000 266.400 C 82.213 266.070,82.390 265.980,82.394 266.200 C 82.397 266.460,86.224 266.560,93.291 266.487 L 104.183 266.374 105.303 265.301 L 106.423 264.229 106.387 253.272 C 106.367 247.246,106.444 242.223,106.557 242.110 C 106.670 241.997,106.499 241.642,106.177 241.320 C 105.856 240.999,105.683 240.589,105.794 240.410 C 105.905 240.230,105.734 239.983,105.414 239.861 C 105.030 239.714,104.885 239.227,104.986 238.427 L 105.140 237.216 91.870 237.257 C 79.653 237.296,78.547 237.356,77.933 238.017 M50.800 291.400 C 50.800 291.730,51.070 292.000,51.400 292.000 C 51.730 292.000,52.000 291.730,52.000 291.400 C 52.000 291.070,51.730 290.800,51.400 290.800 C 51.070 290.800,50.800 291.070,50.800 291.400 M52.400 291.474 C 52.400 291.804,52.057 292.165,51.638 292.274 C 50.910 292.465,50.873 293.035,50.821 304.720 C 50.791 311.456,50.718 317.016,50.658 317.076 C 50.598 317.135,45.014 317.197,38.249 317.212 C 31.484 317.227,25.511 317.406,24.975 317.610 C 23.959 317.996,23.579 319.595,24.500 319.606 C 24.884 319.611,24.888 319.683,24.519 319.918 C 23.833 320.354,23.842 347.197,24.528 347.206 C 24.826 347.210,24.852 347.321,24.600 347.506 C 24.174 347.819,24.010 371.200,24.433 371.200 C 24.562 371.200,24.667 371.470,24.667 371.800 C 24.667 372.130,24.562 372.400,24.433 372.400 C 23.781 372.401,24.157 374.348,24.844 374.528 C 25.260 374.636,25.600 374.967,25.601 375.263 C 25.601 375.706,30.380 375.818,53.001 375.901 C 74.731 375.981,80.401 375.898,80.406 375.501 C 80.411 375.129,80.500 375.139,80.754 375.539 C 80.942 375.836,81.434 376.014,81.848 375.934 C 82.567 375.795,82.600 375.172,82.600 361.695 L 82.600 347.600 93.700 347.600 L 104.800 347.600 104.841 348.500 C 104.870 349.143,104.972 349.020,105.196 348.072 C 105.369 347.342,105.425 346.417,105.320 346.017 C 105.216 345.617,105.354 345.152,105.627 344.983 C 105.948 344.785,106.022 344.841,105.836 345.142 C 105.456 345.757,105.952 347.277,106.435 346.978 C 106.643 346.850,106.692 346.549,106.545 346.311 C 106.385 346.051,106.463 345.991,106.738 346.162 C 106.992 346.319,107.200 346.227,107.200 345.957 C 107.200 345.687,107.321 345.587,107.468 345.735 C 107.849 346.116,107.892 348.780,107.513 348.547 C 107.341 348.440,107.200 348.543,107.200 348.776 C 107.200 349.009,107.650 349.200,108.200 349.200 C 108.813 349.200,109.200 348.973,109.200 348.612 C 109.200 348.113,110.835 348.008,120.137 347.912 C 130.728 347.804,131.067 347.824,130.874 348.563 C 130.610 349.568,134.314 349.181,135.100 348.121 C 136.066 346.819,135.737 345.204,134.500 345.172 C 133.543 345.147,133.504 345.102,134.200 344.827 C 134.640 344.653,135.180 344.546,135.400 344.590 C 135.620 344.633,135.665 344.593,135.500 344.501 C 135.049 344.249,135.145 323.105,135.600 322.400 C 135.874 321.976,135.990 321.951,135.994 322.316 C 135.999 322.728,138.653 322.808,149.300 322.716 L 162.600 322.600 162.717 309.800 C 162.847 295.682,162.790 294.963,161.597 295.602 C 160.854 295.999,160.807 296.570,160.692 306.511 L 160.570 317.000 160.521 306.012 C 160.485 297.709,160.352 294.984,159.981 294.860 C 159.697 294.766,159.607 294.887,159.768 295.148 C 159.928 295.407,159.791 295.600,159.447 295.600 C 159.117 295.600,158.736 295.420,158.600 295.200 C 158.221 294.587,135.896 294.664,135.280 295.280 C 134.930 295.630,134.800 298.713,134.800 306.647 C 134.800 314.981,134.683 317.581,134.300 317.736 C 133.913 317.893,133.909 318.017,134.281 318.281 C 134.863 318.696,134.005 320.655,133.305 320.512 C 132.812 320.412,132.872 321.421,133.386 321.888 C 133.574 322.060,133.611 321.995,133.469 321.745 C 133.326 321.495,133.511 321.045,133.879 320.745 C 134.471 320.264,134.516 320.290,134.261 320.968 C 134.084 321.439,134.171 321.861,134.486 322.060 C 134.771 322.239,134.109 322.312,133.000 322.223 C 131.437 322.097,110.853 321.904,107.476 321.983 C 107.078 321.992,106.864 322.180,107.000 322.400 C 107.136 322.620,106.956 322.800,106.600 322.800 C 106.244 322.800,106.064 322.620,106.200 322.400 C 106.336 322.180,106.167 322.000,105.824 322.000 C 105.481 322.000,105.200 322.180,105.200 322.400 C 105.200 322.657,101.200 322.800,94.000 322.800 L 82.800 322.800 82.800 333.600 L 82.800 344.400 93.500 344.447 C 99.385 344.473,104.335 344.473,104.500 344.447 C 104.665 344.421,104.800 344.535,104.800 344.700 C 104.800 344.865,99.760 345.000,93.600 345.000 C 87.440 345.000,82.400 344.865,82.400 344.700 C 82.400 344.535,82.198 344.400,81.951 344.400 C 81.645 344.400,81.664 344.595,82.010 345.013 C 82.431 345.519,82.387 345.725,81.759 346.200 C 80.894 346.855,80.241 346.981,80.583 346.428 C 80.709 346.223,80.626 345.939,80.397 345.798 C 80.168 345.656,80.030 345.689,80.090 345.870 C 80.200 346.199,79.867 346.415,79.300 346.383 C 79.135 346.373,73.898 346.381,67.661 346.399 C 57.084 346.431,56.278 346.383,55.661 345.689 C 55.298 345.279,54.685 344.828,54.300 344.685 C 53.656 344.446,53.600 343.524,53.600 333.189 C 53.600 326.570,53.749 322.045,53.963 322.177 C 54.162 322.300,54.232 322.043,54.117 321.605 C 54.002 321.164,53.716 320.928,53.476 321.077 C 53.238 321.224,53.444 320.781,53.934 320.093 C 54.812 318.860,54.813 318.843,54.002 319.000 C 53.547 319.087,53.284 318.987,53.415 318.776 C 53.544 318.566,53.370 318.287,53.028 318.155 C 52.685 318.024,52.504 317.755,52.626 317.558 C 52.748 317.361,52.572 317.200,52.236 317.200 C 51.575 317.200,51.048 295.740,51.700 295.338 C 51.865 295.236,52.000 295.343,52.000 295.576 C 52.000 295.809,52.135 295.979,52.300 295.953 C 53.573 295.752,53.600 295.983,53.600 307.200 C 53.600 313.360,53.735 318.400,53.900 318.400 C 54.230 318.401,54.125 297.553,53.787 296.084 C 53.671 295.580,53.402 295.275,53.188 295.407 C 52.975 295.539,52.800 295.457,52.800 295.224 C 52.800 294.668,53.891 294.674,54.077 295.231 C 54.156 295.469,54.556 295.291,54.972 294.831 C 55.389 294.370,55.518 294.000,55.262 294.000 C 55.008 294.000,54.800 293.730,54.800 293.400 C 54.800 293.070,54.991 292.800,55.224 292.800 C 55.457 292.800,55.536 292.980,55.400 293.200 C 55.038 293.786,54.535 293.750,66.400 293.996 L 77.400 294.225 66.700 294.313 C 52.270 294.430,52.416 295.138,66.902 295.288 L 77.804 295.400 77.860 294.500 L 77.915 293.600 66.958 293.600 C 55.987 293.600,55.752 293.572,55.953 292.300 C 55.979 292.135,55.790 292.000,55.533 292.000 C 55.277 292.000,55.168 291.899,55.292 291.775 C 55.698 291.369,76.992 291.599,77.133 292.011 C 77.371 292.704,77.829 292.423,77.829 291.585 C 77.829 290.780,77.659 290.770,65.114 290.821 C 54.092 290.866,52.400 290.953,52.400 291.474 M54.354 293.149 C 54.314 293.698,54.279 293.691,54.124 293.100 C 54.024 292.715,53.780 292.400,53.583 292.400 C 53.386 292.400,53.341 292.701,53.482 293.069 C 53.677 293.577,53.577 293.677,53.069 293.482 C 52.701 293.341,52.400 293.399,52.400 293.613 C 52.400 293.826,52.715 294.014,53.100 294.032 C 53.540 294.051,53.609 294.140,53.287 294.269 C 52.138 294.731,51.617 293.614,52.535 292.656 C 53.464 291.686,54.439 291.950,54.354 293.149 M55.153 295.076 C 55.127 295.254,55.127 295.535,55.153 295.700 C 55.179 295.865,55.020 296.000,54.800 296.000 C 54.543 296.000,54.400 299.867,54.400 306.800 C 54.400 313.164,54.552 317.600,54.771 317.600 C 54.975 317.600,55.200 317.906,55.271 318.281 C 55.342 318.655,55.344 313.871,55.277 307.650 C 55.191 299.799,55.289 296.175,55.596 295.805 C 55.902 295.436,55.909 295.191,55.619 295.012 C 55.389 294.869,55.179 294.898,55.153 295.076 M56.000 306.800 L 56.000 317.600 66.800 317.600 L 77.600 317.600 77.600 306.800 L 77.600 296.000 66.800 296.000 L 56.000 296.000 56.000 306.800 M146.120 320.521 L 157.000 320.570 146.633 320.692 C 140.931 320.759,136.063 320.981,135.816 321.186 C 135.519 321.433,135.194 321.282,134.854 320.738 C 134.537 320.230,134.512 320.022,134.790 320.194 C 135.037 320.347,140.136 320.494,146.120 320.521 M162.160 322.065 C 162.023 322.286,161.700 322.249,161.369 321.974 C 161.061 321.718,160.913 321.341,161.040 321.135 C 161.177 320.914,161.500 320.951,161.831 321.226 C 162.139 321.482,162.287 321.859,162.160 322.065 M134.299 338.924 C 134.231 341.826,134.175 339.340,134.175 333.400 C 134.175 327.460,134.231 325.086,134.299 328.124 C 134.367 331.162,134.367 336.022,134.299 338.924 M105.093 346.677 C 105.213 347.039,102.529 347.162,94.026 347.187 C 84.165 347.217,82.800 347.146,82.800 346.604 C 82.800 345.794,104.823 345.866,105.093 346.677 M133.868 346.995 C 133.831 347.218,134.038 347.351,134.330 347.290 C 134.630 347.228,134.741 347.372,134.585 347.625 C 134.387 347.945,134.188 347.948,133.875 347.635 C 133.260 347.020,132.625 347.085,133.051 347.719 C 133.243 348.004,133.085 347.894,132.700 347.475 C 132.191 346.920,132.000 346.866,132.000 347.276 C 132.000 347.586,132.216 348.056,132.480 348.320 C 132.806 348.646,132.819 348.800,132.519 348.800 C 132.277 348.800,131.901 348.293,131.685 347.673 C 131.305 346.582,131.335 346.546,132.614 346.567 C 133.342 346.580,133.906 346.772,133.868 346.995 M106.012 347.984 C 105.688 348.189,105.521 348.454,105.641 348.574 C 105.760 348.694,106.205 348.529,106.629 348.209 C 107.473 347.571,106.960 347.385,106.012 347.984 M82.800 348.800 C 82.800 349.057,86.667 349.200,93.600 349.200 C 100.533 349.200,104.400 349.057,104.400 348.800 C 104.400 348.543,100.533 348.400,93.600 348.400 C 86.667 348.400,82.800 348.543,82.800 348.800 M25.298 363.862 C 25.354 367.857,25.265 371.041,25.100 370.939 C 24.935 370.837,24.838 365.858,24.884 359.876 C 24.968 348.969,25.106 350.304,25.298 363.862 M24.092 375.275 C 24.339 376.017,25.200 376.140,25.200 375.433 C 25.200 375.085,24.915 374.800,24.567 374.800 C 24.218 374.800,24.005 375.014,24.092 375.275 M45.500 375.099 C 42.475 375.167,37.525 375.167,34.500 375.099 C 31.475 375.031,33.950 374.975,40.000 374.975 C 46.050 374.975,48.525 375.031,45.500 375.099 " stroke="none" fill="#f4ecdc" fill-rule="evenodd"></path></g></svg>