<svg id="svg" version="1.1" xmlns="http://www.w3.org/2000/svg" xmlns:xlink="http://www.w3.org/1999/xlink" width="400" height="400" viewBox="0, 0, 400,400"><g id="svgg"><path id="path0" d="M0.000 13.400 L 0.000 26.800 12.169 26.800 L 24.338 26.800 25.569 25.569 L 26.800 24.338 26.800 12.169 L 26.800 0.000 13.400 0.000 L 0.000 0.000 0.000 13.400 M319.153 12.300 C 319.127 19.065,319.127 24.735,319.153 24.900 C 319.179 25.065,319.001 25.200,318.757 25.200 C 318.514 25.200,318.401 25.425,318.506 25.700 C 318.752 26.340,319.870 26.331,187.800 26.702 L 81.400 27.000 79.529 28.100 L 77.658 29.200 66.829 29.200 L 56.000 29.200 56.000 40.200 L 56.000 51.200 66.900 51.293 L 77.800 51.386 67.033 51.500 C 56.081 51.615,54.565 51.822,55.776 53.033 C 56.215 53.472,58.604 53.612,67.265 53.705 L 78.200 53.823 66.690 53.889 C 58.421 53.936,55.257 53.831,55.452 53.516 C 55.615 53.252,55.539 53.190,55.262 53.362 C 55.008 53.519,54.800 53.907,54.800 54.224 C 54.800 54.541,54.541 54.800,54.224 54.800 C 53.907 54.800,53.519 55.008,53.362 55.262 C 53.190 55.539,53.252 55.615,53.516 55.452 C 53.831 55.257,53.936 58.421,53.889 66.690 L 53.823 78.200 53.705 67.265 C 53.612 58.604,53.472 56.215,53.033 55.776 C 51.822 54.565,51.615 56.081,51.500 67.033 L 51.386 77.800 51.293 66.900 L 51.200 56.000 40.200 56.000 L 29.200 56.000 29.200 66.806 L 29.200 77.612 28.000 79.738 L 26.800 81.865 26.800 133.246 L 26.800 184.628 27.962 185.314 C 28.982 185.917,30.440 186.000,39.962 186.000 C 48.352 186.000,50.806 186.113,50.825 186.500 C 50.839 186.775,51.044 186.550,51.279 186.000 L 51.708 185.000 51.973 186.000 C 52.222 186.945,52.256 186.956,52.581 186.200 C 52.893 185.476,52.952 185.515,53.205 186.600 C 53.479 187.781,53.488 187.773,53.798 186.068 C 54.011 184.895,54.222 184.507,54.450 184.868 C 54.636 185.160,54.791 156.298,54.794 120.729 C 54.799 62.475,54.862 55.995,55.429 55.429 C 55.998 54.860,67.349 54.809,175.329 54.899 L 294.600 54.999 175.440 55.100 C 88.161 55.174,56.136 55.321,55.740 55.650 C 55.290 56.023,55.216 66.798,55.298 120.349 L 55.396 184.600 55.598 120.200 L 55.800 55.800 189.200 55.779 L 322.600 55.759 322.713 42.600 C 322.775 35.363,322.876 29.391,322.937 29.330 C 322.999 29.268,328.925 29.205,336.106 29.189 L 349.164 29.160 349.190 14.580 L 349.216 -0.000 334.208 -0.000 L 319.200 0.000 319.153 12.300 M370.828 63.932 C 370.790 71.106,370.716 77.018,370.663 77.071 C 370.610 77.123,364.904 77.197,357.984 77.234 C 351.063 77.271,345.040 77.446,344.600 77.623 C 344.160 77.799,344.025 77.956,344.300 77.972 C 344.575 77.987,344.800 78.191,344.800 78.424 C 344.800 78.657,344.642 78.750,344.449 78.630 C 344.016 78.363,343.837 106.634,344.262 108.247 L 344.565 109.400 344.835 108.200 C 344.984 107.540,345.170 124.460,345.250 145.800 L 345.394 184.600 345.600 146.600 L 345.806 108.600 345.950 146.400 C 346.030 167.190,346.232 184.740,346.400 185.400 C 346.637 186.333,346.716 186.405,346.753 185.724 C 346.802 184.811,347.600 183.982,347.600 184.843 C 347.600 185.113,347.735 185.198,347.900 185.033 C 348.065 184.868,348.292 167.603,348.404 146.667 L 348.608 108.600 348.768 147.800 C 348.856 169.360,349.001 186.415,349.089 185.700 L 349.251 184.400 360.025 184.400 L 370.800 184.400 370.800 146.888 L 370.800 109.375 372.500 108.788 C 373.876 108.312,374.390 107.838,375.200 106.301 L 376.200 104.402 388.100 104.401 L 400.000 104.400 400.000 77.581 L 400.000 50.762 385.449 50.826 L 370.897 50.890 370.828 63.932 M104.267 104.267 C 103.806 104.727,103.975 105.200,104.600 105.200 C 104.930 105.200,105.200 104.930,105.200 104.600 C 105.200 103.975,104.727 103.806,104.267 104.267 M105.600 104.713 C 105.600 104.995,105.285 105.355,104.900 105.513 C 103.571 106.058,103.925 109.172,105.296 108.998 L 106.400 108.858 106.400 118.970 C 106.400 129.621,106.118 134.429,105.546 133.527 C 105.363 133.237,105.209 138.451,105.206 145.113 C 105.201 154.833,105.095 157.266,104.667 157.430 C 104.373 157.542,104.133 158.150,104.133 158.779 C 104.133 159.657,104.281 159.868,104.767 159.684 C 105.289 159.487,105.277 159.569,104.700 160.151 C 103.879 160.979,103.794 161.597,104.500 161.606 C 104.874 161.611,104.866 161.697,104.466 161.950 C 103.387 162.635,105.244 162.748,118.164 162.783 C 128.194 162.810,131.200 162.706,131.200 162.329 C 131.200 161.949,131.307 161.947,131.680 162.320 C 131.944 162.584,132.349 162.797,132.580 162.794 C 132.811 162.791,132.730 162.613,132.400 162.400 C 131.887 162.069,131.902 162.011,132.500 162.006 C 132.885 162.003,133.200 162.163,133.200 162.363 C 133.200 163.092,161.422 162.921,162.155 162.188 C 162.721 161.621,162.800 159.986,162.800 148.771 L 162.800 136.000 173.400 136.000 L 184.000 136.000 184.063 147.300 C 184.097 153.515,184.119 159.275,184.110 160.100 C 184.101 160.955,184.289 161.603,184.547 161.606 C 184.796 161.609,184.739 161.777,184.421 161.979 C 183.269 162.707,185.846 162.822,200.800 162.711 C 212.441 162.625,215.811 162.488,215.850 162.100 C 215.878 161.825,215.923 155.732,215.950 148.561 L 216.000 135.522 229.300 135.658 L 242.600 135.795 242.702 120.797 C 242.804 105.769,242.695 103.289,241.979 104.421 C 241.726 104.820,241.610 104.844,241.606 104.500 C 241.597 103.794,240.979 103.879,240.151 104.700 C 239.569 105.277,239.487 105.289,239.684 104.767 C 239.868 104.281,239.657 104.133,238.779 104.133 C 238.150 104.133,237.542 104.373,237.430 104.667 C 237.266 105.093,235.017 105.200,226.189 105.200 C 219.795 105.200,215.246 105.351,215.374 105.558 C 215.496 105.755,215.306 106.027,214.953 106.163 C 214.432 106.363,214.404 106.523,214.804 107.005 C 215.076 107.332,215.164 107.600,215.000 107.600 C 214.836 107.600,214.926 107.870,215.200 108.200 C 215.601 108.684,215.592 108.800,215.149 108.800 C 214.694 108.800,214.619 110.716,214.712 119.979 C 214.821 130.863,214.803 131.170,214.012 131.594 C 213.565 131.833,213.200 131.925,213.200 131.800 C 213.200 131.675,212.841 131.764,212.403 131.998 C 211.543 132.459,188.400 132.795,188.400 132.347 C 188.400 132.207,188.051 132.002,187.623 131.890 C 186.880 131.696,186.845 131.219,186.802 120.544 C 186.777 114.415,186.711 108.818,186.656 108.107 C 186.601 107.397,186.745 106.742,186.978 106.653 C 187.210 106.564,186.950 106.302,186.400 106.071 C 185.519 105.701,185.495 105.642,186.200 105.578 C 186.766 105.527,186.649 105.416,185.800 105.200 C 185.140 105.032,184.926 104.873,185.324 104.847 C 185.722 104.821,185.936 104.620,185.800 104.400 C 185.493 103.903,160.957 103.903,159.800 104.400 C 159.134 104.686,159.234 104.757,160.400 104.825 L 161.800 104.905 160.400 105.200 C 159.567 105.375,159.324 105.529,159.800 105.579 C 160.456 105.648,160.399 105.736,159.483 106.070 C 158.585 106.398,158.458 106.588,158.832 107.039 C 159.088 107.348,159.164 107.600,159.000 107.600 C 158.836 107.600,158.926 107.870,159.200 108.200 C 159.612 108.696,159.569 108.805,158.949 108.832 C 158.528 108.849,158.419 108.951,158.700 109.065 C 159.478 109.379,159.421 130.800,158.643 130.800 C 158.336 130.800,157.982 131.070,157.855 131.400 C 157.503 132.319,136.920 132.289,135.136 131.367 C 134.463 131.019,134.025 130.916,134.162 131.139 C 134.300 131.362,134.230 131.658,134.007 131.796 C 133.783 131.934,133.600 131.767,133.600 131.424 C 133.600 131.081,133.465 130.821,133.300 130.847 C 133.135 130.873,132.505 130.873,131.900 130.847 L 130.800 130.800 130.800 120.025 L 130.800 109.251 132.100 109.089 C 133.054 108.971,119.206 108.798,108.979 108.800 C 108.857 108.800,108.751 114.695,108.741 121.900 C 108.729 132.038,108.629 134.593,108.300 133.200 C 107.921 131.595,107.847 131.509,107.612 132.400 C 107.096 134.368,106.800 129.676,106.800 119.504 L 106.800 109.520 108.154 108.166 L 109.507 106.813 120.654 106.700 L 131.800 106.587 120.329 106.493 L 108.858 106.400 108.997 105.300 C 109.131 104.245,109.065 104.200,107.368 104.200 C 106.197 104.200,105.600 104.373,105.600 104.713 M220.724 104.699 C 223.873 104.767,228.913 104.767,231.924 104.699 C 234.936 104.631,232.360 104.576,226.200 104.576 C 220.040 104.576,217.576 104.632,220.724 104.699 M106.800 105.600 C 106.800 105.820,106.575 105.955,106.300 105.900 C 106.025 105.845,105.845 106.025,105.900 106.300 C 105.955 106.575,105.820 106.800,105.600 106.800 C 105.058 106.800,105.096 106.264,105.680 105.680 C 106.264 105.096,106.800 105.058,106.800 105.600 M242.032 106.961 C 241.676 107.391,241.683 107.561,242.063 107.688 C 242.403 107.801,242.357 107.931,241.919 108.099 C 241.542 108.244,241.308 108.150,241.351 107.872 C 241.444 107.262,241.983 106.400,242.273 106.400 C 242.397 106.400,242.288 106.652,242.032 106.961 M108.400 107.351 C 108.400 107.434,108.130 107.726,107.800 108.000 C 107.309 108.408,107.200 108.380,107.200 107.849 C 107.200 107.492,107.470 107.200,107.800 107.200 C 108.130 107.200,108.400 107.268,108.400 107.351 M240.699 125.500 C 240.631 128.525,240.575 126.050,240.575 120.000 C 240.575 113.950,240.631 111.475,240.699 114.500 C 240.767 117.525,240.767 122.475,240.699 125.500 M141.300 131.499 C 144.325 131.567,149.275 131.567,152.300 131.499 C 155.325 131.431,152.850 131.375,146.800 131.375 C 140.750 131.375,138.275 131.431,141.300 131.499 M104.577 145.600 C 104.577 152.090,104.632 154.745,104.699 151.500 C 104.766 148.255,104.766 142.945,104.699 139.700 C 104.632 136.455,104.577 139.110,104.577 145.600 M232.124 135.099 C 229.222 135.167,224.362 135.167,221.324 135.099 C 218.286 135.031,220.660 134.975,226.600 134.975 C 232.540 134.975,235.026 135.031,232.124 135.099 M264.600 157.612 C 264.160 157.795,264.025 157.956,264.300 157.972 C 264.575 157.987,264.800 158.191,264.800 158.424 C 264.800 158.657,264.639 158.748,264.443 158.627 C 264.237 158.499,264.110 163.834,264.143 171.303 L 264.200 184.200 253.632 184.087 C 245.372 183.999,242.992 184.086,242.738 184.487 C 242.551 184.781,242.410 184.815,242.406 184.567 C 242.403 184.328,241.868 184.133,241.218 184.133 C 240.567 184.133,240.139 184.301,240.266 184.507 C 240.393 184.712,240.127 184.682,239.675 184.440 C 238.653 183.893,238.278 183.879,238.600 184.400 C 238.736 184.620,238.657 184.800,238.424 184.800 C 238.191 184.800,237.987 184.575,237.972 184.300 C 237.932 183.599,237.262 185.242,237.228 186.124 C 237.210 186.600,237.371 186.744,237.700 186.547 C 238.088 186.314,238.095 186.376,237.734 186.824 C 237.405 187.230,237.253 190.827,237.219 198.982 C 237.192 205.352,237.124 210.610,237.067 210.666 C 237.011 210.723,231.091 210.792,223.912 210.820 L 210.859 210.871 210.930 224.492 C 210.998 237.660,211.027 238.127,211.800 238.556 C 212.831 239.128,213.207 239.665,212.912 240.143 C 212.782 240.352,212.865 240.407,213.096 240.264 C 213.327 240.121,213.627 240.292,213.761 240.644 C 213.896 240.995,214.247 241.191,214.541 241.078 C 214.922 240.932,215.022 241.149,214.891 241.837 C 214.758 242.533,214.886 242.800,215.353 242.800 C 215.933 242.800,216.000 243.921,216.000 253.600 L 216.000 264.400 226.667 264.400 C 232.533 264.400,237.249 264.485,237.145 264.588 C 237.041 264.692,231.868 264.793,225.649 264.812 C 214.047 264.849,213.200 264.916,213.200 265.800 C 213.200 266.083,212.955 266.409,212.655 266.524 C 211.581 266.936,187.775 266.823,188.400 266.409 C 188.730 266.191,188.797 266.009,188.549 266.006 C 188.301 266.003,187.874 266.270,187.600 266.600 C 186.934 267.403,186.401 267.359,186.394 266.500 C 186.390 266.078,186.271 265.971,186.094 266.229 C 185.481 267.125,183.913 267.248,173.619 267.212 C 162.760 267.175,162.373 267.119,162.438 265.600 C 162.455 265.191,162.527 265.159,162.665 265.500 C 162.819 265.882,165.338 266.000,173.353 266.000 C 180.371 266.000,183.984 266.144,184.275 266.435 C 184.588 266.748,184.798 266.727,185.026 266.358 C 185.208 266.063,185.142 265.781,184.868 265.689 C 184.608 265.603,184.497 265.367,184.621 265.166 C 184.755 264.949,180.320 264.762,173.724 264.707 L 162.600 264.613 173.500 264.500 L 184.400 264.387 184.400 253.594 C 184.400 246.898,184.547 242.800,184.787 242.800 C 185.001 242.800,185.090 242.575,184.985 242.300 C 184.881 242.025,185.328 241.445,185.977 241.011 C 186.786 240.471,187.007 240.125,186.679 239.917 C 186.354 239.710,186.426 239.610,186.900 239.606 C 189.150 239.586,189.219 239.129,189.189 224.397 L 189.162 210.811 159.986 210.811 L 130.811 210.811 130.811 238.205 C 130.811 259.681,130.918 265.601,131.306 265.606 C 131.631 265.610,131.656 265.713,131.380 265.906 C 131.149 266.068,130.969 266.830,130.980 267.600 L 131.000 269.000 146.700 269.078 C 157.005 269.130,162.400 269.019,162.400 268.755 C 162.400 268.534,162.250 268.445,162.067 268.559 C 161.883 268.672,161.733 268.513,161.733 268.205 C 161.733 267.739,163.608 267.640,172.867 267.612 C 180.622 267.589,184.000 267.711,184.000 268.013 C 184.000 268.252,184.225 268.318,184.500 268.159 C 184.775 268.001,184.884 268.002,184.742 268.161 C 184.600 268.319,179.605 268.433,173.642 268.413 C 166.451 268.389,162.800 268.515,162.800 268.788 C 162.800 269.060,166.398 269.200,173.400 269.200 L 184.000 269.200 184.000 280.367 C 184.000 288.926,184.117 291.580,184.500 291.735 C 184.900 291.896,184.900 291.943,184.500 291.968 C 183.724 292.017,183.859 294.400,184.637 294.400 C 184.988 294.400,185.369 294.760,185.484 295.200 C 185.758 296.248,187.856 296.327,188.124 295.300 C 188.255 294.799,188.320 294.771,188.353 295.200 C 188.410 295.927,211.163 296.122,211.694 295.400 C 211.876 295.152,211.990 295.190,211.994 295.500 C 212.005 296.376,214.279 296.106,214.516 295.200 C 214.631 294.760,215.012 294.400,215.363 294.400 C 216.141 294.400,216.261 292.172,215.500 291.865 C 215.225 291.754,215.180 291.649,215.400 291.632 C 215.659 291.612,215.759 287.665,215.682 280.400 L 215.564 269.200 226.482 269.137 C 232.487 269.102,237.743 269.105,238.162 269.143 C 238.581 269.181,239.238 268.928,239.622 268.580 C 240.152 268.100,240.393 268.065,240.622 268.436 C 240.815 268.747,240.757 268.820,240.462 268.638 C 240.208 268.481,240.000 268.538,240.000 268.764 C 240.000 269.431,268.195 269.329,268.750 268.660 C 269.047 268.303,269.155 264.088,269.092 255.369 L 269.000 242.600 281.218 242.600 C 295.537 242.600,295.314 242.653,295.737 239.130 C 296.189 235.365,296.045 214.605,295.563 214.123 C 295.247 213.807,295.252 213.451,295.580 212.837 C 295.946 212.153,295.915 211.942,295.417 211.751 C 294.681 211.469,294.583 210.757,295.300 210.900 C 296.036 211.047,296.238 158.798,295.503 158.332 C 295.122 158.090,295.145 158.005,295.600 157.981 C 295.963 157.962,295.857 157.811,295.333 157.600 C 294.233 157.156,265.674 157.168,264.600 157.612 M125.500 160.699 C 122.475 160.767,117.525 160.767,114.500 160.699 C 111.475 160.631,113.950 160.575,120.000 160.575 C 126.050 160.575,128.525 160.631,125.500 160.699 M108.088 161.946 C 107.923 162.376,107.804 162.411,107.688 162.063 C 107.557 161.672,107.382 161.676,106.861 162.083 C 106.286 162.533,106.264 162.518,106.694 161.967 C 107.335 161.143,108.403 161.128,108.088 161.946 M374.257 188.100 L 373.272 189.400 372.980 213.883 C 372.684 238.736,372.771 240.800,374.115 240.800 C 374.345 240.800,374.419 240.914,374.280 241.053 C 374.141 241.192,374.454 241.642,374.977 242.053 C 375.856 242.745,376.817 242.800,387.963 242.800 L 400.000 242.800 400.000 214.800 L 400.000 186.800 387.620 186.800 L 375.241 186.800 374.257 188.100 M0.000 216.009 L 0.000 242.817 27.893 242.709 L 55.786 242.600 55.860 240.897 C 55.902 239.945,55.773 239.293,55.567 239.420 C 55.365 239.545,55.200 239.467,55.200 239.247 C 55.200 239.027,55.380 238.736,55.600 238.600 C 56.187 238.237,56.088 237.719,55.379 237.447 C 54.974 237.292,54.858 237.370,55.045 237.673 C 55.232 237.975,55.116 238.053,54.711 237.898 C 54.158 237.686,54.154 237.786,54.671 238.821 C 55.089 239.661,55.135 240.179,54.837 240.691 C 54.454 241.349,54.423 241.342,54.406 240.600 C 54.391 239.957,54.316 239.914,54.020 240.381 C 53.818 240.700,53.725 241.079,53.814 241.222 C 54.027 241.568,52.148 242.414,51.843 242.110 C 51.713 241.980,51.794 241.648,52.023 241.372 C 52.291 241.049,52.300 240.785,52.047 240.629 C 51.832 240.496,51.542 240.570,51.404 240.793 C 51.090 241.301,28.446 241.343,27.647 240.838 C 27.204 240.557,27.244 240.440,27.847 240.249 C 28.589 240.014,28.868 219.117,28.185 214.943 C 27.967 213.605,26.263 211.463,25.100 211.065 C 24.457 210.844,24.400 209.952,24.400 200.013 L 24.400 189.200 12.200 189.200 L 0.000 189.200 0.000 216.009 M242.293 213.300 C 242.142 213.694,244.499 213.776,253.451 213.688 C 260.814 213.615,264.800 213.716,264.800 213.975 C 264.800 214.195,265.100 214.260,265.466 214.119 C 265.949 213.934,266.042 214.009,265.804 214.394 C 265.587 214.745,265.631 214.828,265.935 214.640 C 266.188 214.484,266.843 214.807,267.397 215.360 L 268.400 216.364 268.400 226.958 C 268.400 234.271,268.263 237.638,267.957 237.826 C 267.648 238.017,267.678 238.201,268.054 238.433 C 268.476 238.694,268.488 238.872,268.110 239.250 C 267.732 239.628,267.570 239.588,267.370 239.067 C 267.230 238.700,266.947 238.400,266.743 238.400 C 266.530 238.400,266.548 238.729,266.786 239.174 C 267.377 240.279,267.334 240.327,265.990 240.049 C 265.325 239.912,259.762 239.890,253.628 240.000 C 247.494 240.110,242.547 240.084,242.635 239.942 C 242.850 239.596,241.618 239.141,241.188 239.407 C 240.738 239.685,240.752 239.918,240.457 226.660 C 240.214 215.734,240.239 215.099,240.933 214.728 C 241.644 214.348,241.644 214.320,240.933 213.788 C 240.247 213.275,240.258 213.254,241.100 213.467 C 241.631 213.600,242.000 213.510,242.000 213.247 C 242.000 213.001,242.109 212.800,242.243 212.800 C 242.376 212.800,242.399 213.025,242.293 213.300 M317.936 238.020 C 317.349 238.646,317.266 240.178,317.221 251.245 C 317.193 258.130,317.126 263.807,317.072 263.861 C 317.018 263.915,311.085 263.993,303.887 264.034 L 290.800 264.108 290.800 277.454 L 290.800 290.800 277.455 290.800 L 264.111 290.800 264.155 293.195 C 264.184 294.707,264.385 295.662,264.700 295.783 C 265.261 295.998,265.456 316.994,264.900 317.339 C 264.735 317.441,264.651 312.646,264.713 306.683 C 264.775 300.720,264.735 295.931,264.625 296.042 C 264.515 296.152,264.408 301.077,264.387 306.987 L 264.350 317.731 265.575 318.246 C 266.717 318.727,266.968 318.657,266.846 317.896 C 266.819 317.728,267.158 317.817,267.599 318.092 C 268.039 318.367,268.400 318.684,268.400 318.796 C 268.399 319.429,291.417 318.763,291.900 318.116 C 292.272 317.619,292.400 314.633,292.400 306.495 C 292.400 296.779,292.476 295.467,293.071 294.871 C 293.663 294.279,295.148 294.185,305.763 294.075 C 322.426 293.902,320.800 295.506,320.800 279.239 C 320.800 270.001,320.900 268.035,321.407 267.312 C 322.103 266.318,343.854 265.866,345.617 266.809 C 346.397 267.227,346.420 267.610,346.389 279.865 C 346.371 286.809,346.435 292.568,346.531 292.664 C 346.627 292.760,346.322 293.270,345.853 293.796 L 345.000 294.754 333.600 294.783 C 323.317 294.810,322.150 294.880,321.688 295.499 C 321.295 296.027,321.202 298.789,321.288 307.488 C 321.372 315.993,321.281 318.837,320.920 318.975 C 320.627 319.088,320.513 318.895,320.626 318.480 C 320.729 318.106,320.584 318.250,320.306 318.800 L 319.800 319.800 307.873 319.694 C 294.452 319.575,293.515 319.725,293.045 322.074 C 292.540 324.599,292.766 344.400,293.300 344.406 C 293.689 344.411,293.692 344.481,293.313 344.722 C 293.022 344.907,292.884 345.642,292.972 346.544 C 293.072 347.577,292.941 348.125,292.559 348.271 C 290.497 349.062,293.334 349.225,307.300 349.118 L 322.600 349.000 322.664 346.800 C 322.699 345.590,322.744 339.695,322.764 333.700 L 322.800 322.800 333.520 322.800 C 341.542 322.800,344.376 322.674,344.779 322.300 C 345.210 321.900,345.261 321.900,345.035 322.300 C 344.853 322.622,345.018 322.800,345.496 322.800 C 345.905 322.800,346.482 322.575,346.779 322.300 C 347.212 321.898,347.259 321.904,347.016 322.331 C 346.791 322.727,346.994 322.828,347.815 322.731 C 349.018 322.588,349.651 320.535,348.682 319.919 C 348.325 319.692,348.322 319.611,348.669 319.606 C 349.015 319.602,349.149 316.551,349.182 307.920 C 349.206 301.496,349.274 296.192,349.333 296.134 C 349.391 296.076,355.370 295.977,362.619 295.914 L 375.800 295.800 375.913 281.623 C 376.026 267.516,375.933 265.628,375.185 266.811 C 374.875 267.301,374.811 267.278,374.806 266.676 C 374.803 266.278,374.631 266.057,374.425 266.185 C 374.218 266.312,373.864 266.098,373.637 265.708 C 373.410 265.319,373.219 265.215,373.212 265.478 C 373.196 266.100,347.856 266.016,347.232 265.392 C 346.974 265.134,346.810 260.715,346.788 253.439 C 346.759 243.922,346.651 241.794,346.173 241.316 C 345.854 240.997,345.695 240.570,345.820 240.368 C 345.945 240.165,345.876 240.000,345.667 240.000 C 345.458 240.000,345.174 239.550,345.036 239.000 C 344.898 238.450,344.598 238.000,344.369 238.000 C 344.140 238.000,344.068 237.814,344.208 237.587 C 344.722 236.756,318.719 237.185,317.936 238.020 M51.000 242.000 C 50.673 242.530,28.820 242.530,28.000 242.000 C 27.605 241.745,31.478 241.610,39.324 241.606 C 47.172 241.602,51.163 241.737,51.000 242.000 M80.306 264.275 C 77.614 264.586,77.600 264.658,77.600 278.489 L 77.600 290.800 66.500 290.856 C 52.034 290.929,53.022 290.856,51.869 291.937 L 50.870 292.874 50.838 305.900 C 50.816 314.931,50.943 319.090,51.252 319.463 C 51.580 319.858,51.579 320.000,51.249 320.000 C 50.545 320.000,50.709 322.280,51.433 322.557 C 52.436 322.942,52.872 322.842,52.547 322.300 C 52.322 321.925,52.407 321.930,52.888 322.319 C 53.320 322.670,53.613 322.702,53.789 322.418 C 53.965 322.133,54.289 322.127,54.798 322.399 C 55.246 322.639,59.902 322.800,66.374 322.800 L 77.200 322.800 77.252 333.500 C 77.281 339.385,77.286 344.920,77.264 345.800 C 77.242 346.680,77.308 347.791,77.411 348.268 L 77.599 349.136 92.767 349.182 C 106.325 349.223,110.292 348.988,107.654 348.298 C 106.881 348.096,106.725 346.679,107.363 345.655 C 107.551 345.353,107.546 344.997,107.351 344.855 C 107.158 344.715,107.000 339.341,107.000 332.914 C 107.000 318.127,108.675 319.854,94.087 319.600 C 78.698 319.332,80.284 321.074,80.468 304.644 C 80.541 298.130,80.454 292.800,80.276 292.800 C 80.098 292.800,80.045 292.650,80.159 292.467 C 80.272 292.283,80.958 292.206,81.682 292.295 C 82.436 292.387,82.802 292.316,82.538 292.128 C 82.284 291.948,87.133 291.842,93.315 291.892 C 102.773 291.970,104.658 291.891,105.209 291.392 C 105.794 290.862,105.860 290.882,105.832 291.583 C 105.814 292.014,105.945 292.367,106.122 292.366 C 106.299 292.365,106.749 292.692,107.122 293.091 C 107.495 293.490,107.665 293.642,107.500 293.428 C 107.335 293.215,107.206 292.851,107.213 292.620 C 107.220 292.389,107.487 292.545,107.806 292.967 C 108.237 293.536,108.272 293.872,107.944 294.267 C 107.701 294.560,107.659 294.803,107.851 294.806 C 108.043 294.809,107.930 294.987,107.600 295.200 C 107.122 295.509,107.203 295.595,108.000 295.625 C 108.550 295.646,108.775 295.754,108.500 295.865 C 108.118 296.019,108.000 298.579,108.000 306.757 C 108.000 314.685,108.129 317.620,108.500 318.116 C 108.989 318.771,132.192 319.432,131.788 318.780 C 131.713 318.659,132.019 318.331,132.468 318.051 C 132.917 317.770,133.172 317.722,133.035 317.943 C 132.899 318.164,132.990 318.470,133.238 318.624 C 133.486 318.777,133.831 318.673,134.004 318.393 C 134.178 318.113,134.607 317.994,134.960 318.129 C 135.333 318.272,135.595 318.171,135.589 317.887 C 135.583 317.619,135.630 311.406,135.693 304.080 L 135.809 290.760 134.804 290.822 C 134.252 290.857,128.274 290.866,121.521 290.842 L 109.242 290.800 109.121 278.214 C 109.011 266.763,108.936 265.563,108.286 264.914 C 107.589 264.217,85.221 263.706,80.306 264.275 M105.076 266.300 C 104.975 266.685,104.893 266.370,104.893 265.600 C 104.893 264.830,104.975 264.515,105.076 264.900 C 105.176 265.285,105.176 265.915,105.076 266.300 M215.600 267.062 C 215.600 267.206,215.240 266.998,214.800 266.600 C 214.360 266.202,214.000 265.724,214.000 265.538 C 214.000 265.352,214.360 265.560,214.800 266.000 C 215.240 266.440,215.600 266.918,215.600 267.062 M107.290 266.900 C 107.135 267.492,107.012 267.546,106.751 267.134 C 106.272 266.378,106.319 266.133,106.945 266.133 C 107.286 266.133,107.415 266.421,107.290 266.900 M232.124 267.099 C 229.222 267.167,224.362 267.167,221.324 267.099 C 218.286 267.031,220.660 266.975,226.600 266.975 C 232.540 266.975,235.026 267.031,232.124 267.099 M232.124 267.899 C 229.222 267.967,224.362 267.967,221.324 267.899 C 218.286 267.831,220.660 267.775,226.600 267.775 C 232.540 267.775,235.026 267.831,232.124 267.899 M108.306 280.227 L 108.199 291.000 108.000 279.919 C 107.890 273.825,107.938 268.977,108.107 269.146 C 108.275 269.315,108.365 274.301,108.306 280.227 M184.699 285.500 C 184.631 288.525,184.575 286.050,184.575 280.000 C 184.575 273.950,184.631 271.475,184.699 274.500 C 184.767 277.525,184.767 282.475,184.699 285.500 M51.169 290.967 C 50.577 291.612,50.997 292.346,51.630 291.773 C 52.054 291.389,52.400 291.044,52.400 291.005 C 52.400 290.936,51.231 290.899,51.169 290.967 M135.099 312.124 C 135.031 315.026,134.975 312.540,134.975 306.600 C 134.975 300.660,135.031 298.286,135.099 301.324 C 135.167 304.362,135.167 309.222,135.099 312.124 M159.102 317.457 C 159.379 317.573,159.503 317.833,159.379 318.034 C 159.255 318.235,159.316 318.400,159.516 318.400 C 159.724 318.400,159.912 323.819,159.957 331.100 C 160.001 338.085,160.217 344.481,160.437 345.314 L 160.838 346.828 173.819 346.784 C 180.959 346.759,186.800 346.611,186.800 346.456 C 186.800 346.300,187.347 345.849,188.015 345.455 L 189.230 344.737 189.180 331.198 C 189.142 320.844,189.014 317.614,188.635 317.469 C 187.952 317.207,158.478 317.195,159.102 317.457 M211.162 317.676 C 210.735 317.980,210.792 318.018,211.400 317.837 C 212.131 317.618,212.142 317.643,211.520 318.129 C 210.550 318.885,210.410 344.800,211.376 344.800 C 211.702 344.800,212.326 345.183,212.762 345.651 C 213.202 346.124,213.821 346.401,214.152 346.274 C 214.480 346.148,214.808 346.225,214.881 346.444 C 214.966 346.699,219.526 346.832,227.519 346.812 L 240.023 346.780 239.911 358.990 C 239.850 365.706,239.922 371.200,240.072 371.200 C 240.222 371.200,240.189 371.740,240.000 372.400 C 239.794 373.120,239.805 373.600,240.028 373.600 C 240.233 373.600,240.400 373.870,240.400 374.200 C 240.400 374.530,240.715 374.813,241.100 374.828 C 241.712 374.853,241.703 374.894,241.029 375.158 C 239.253 375.854,242.203 376.022,255.468 375.980 L 269.210 375.937 269.105 362.268 L 269.000 348.600 268.094 348.471 C 267.596 348.401,267.283 348.189,267.400 348.000 C 267.683 347.542,266.132 347.071,265.542 347.436 C 265.252 347.615,265.184 347.549,265.362 347.262 C 265.575 346.916,262.457 346.800,252.997 346.800 L 240.347 346.800 240.433 333.258 C 240.481 325.810,240.379 319.490,240.208 319.214 C 240.029 318.923,240.130 318.563,240.449 318.361 C 240.752 318.169,240.820 318.007,240.600 318.000 C 240.380 317.993,240.470 317.809,240.800 317.591 C 241.202 317.326,236.494 317.208,226.562 317.235 C 217.385 317.260,211.510 317.428,211.162 317.676 M338.924 320.699 C 336.022 320.767,331.162 320.767,328.124 320.699 C 325.086 320.631,327.460 320.575,333.400 320.575 C 339.340 320.575,341.826 320.631,338.924 320.699 M133.200 347.661 C 132.430 348.114,131.740 348.647,131.666 348.845 C 131.592 349.043,131.367 349.103,131.166 348.979 C 130.947 348.844,130.800 354.232,130.800 362.345 L 130.800 375.937 144.700 375.947 C 152.345 375.952,158.960 375.798,159.400 375.606 C 160.139 375.283,160.124 375.252,159.200 375.203 L 158.200 375.149 159.190 374.754 C 159.999 374.431,160.072 374.290,159.590 373.986 C 159.261 373.777,159.203 373.610,159.460 373.606 C 159.722 373.603,159.885 373.083,159.837 372.400 C 159.792 371.740,159.854 371.200,159.977 371.200 C 160.488 371.201,159.806 348.045,159.281 347.519 C 158.273 346.512,134.939 346.639,133.200 347.661 M188.700 373.476 C 188.315 373.576,188.000 373.836,188.000 374.053 C 188.000 374.270,187.832 374.344,187.628 374.217 C 187.423 374.091,187.136 374.181,186.989 374.417 C 186.817 374.696,186.514 374.592,186.132 374.124 C 185.807 373.726,185.641 373.602,185.763 373.850 C 185.885 374.097,185.538 374.635,184.992 375.045 L 184.000 375.790 184.000 387.895 L 184.000 400.000 200.000 400.000 L 216.000 400.000 216.000 387.800 C 216.000 379.480,215.865 375.600,215.576 375.600 C 215.343 375.600,215.264 375.420,215.400 375.200 C 215.536 374.980,215.287 374.800,214.847 374.800 C 214.407 374.800,213.934 374.617,213.796 374.393 C 213.658 374.170,213.376 374.091,213.170 374.219 C 212.963 374.346,212.685 374.165,212.550 373.815 C 212.370 373.346,212.171 373.292,211.789 373.609 C 211.429 373.908,211.192 373.911,211.012 373.619 C 210.756 373.205,190.240 373.073,188.700 373.476 " stroke="none" fill="#f4ecdc" fill-rule="evenodd"></path><path id="path1" d="M26.800 12.169 L 26.800 24.338 25.569 25.569 L 24.338 26.800 12.169 26.800 L 0.000 26.800 0.000 108.000 L 0.000 189.200 12.200 189.200 L 24.400 189.200 24.400 200.013 C 24.400 209.952,24.457 210.844,25.100 211.065 C 26.263 211.463,27.967 213.605,28.185 214.943 C 28.868 219.117,28.589 240.014,27.847 240.249 C 27.244 240.440,27.204 240.557,27.647 240.838 C 28.446 241.343,51.090 241.301,51.404 240.793 C 51.542 240.570,51.832 240.496,52.047 240.629 C 52.297 240.783,52.280 241.063,52.000 241.400 C 51.759 241.691,51.707 242.019,51.886 242.129 C 52.265 242.364,53.935 241.540,53.974 241.100 C 53.988 240.935,54.013 240.575,54.028 240.300 C 54.044 240.025,54.211 240.160,54.400 240.600 C 54.589 241.040,54.756 241.164,54.772 240.876 C 54.787 240.588,54.968 240.456,55.172 240.583 C 55.377 240.709,55.675 240.602,55.834 240.345 C 55.995 240.084,55.952 239.983,55.735 240.116 C 55.522 240.248,55.074 239.753,54.739 239.016 C 54.202 237.831,54.201 237.702,54.732 237.906 C 55.119 238.054,55.230 237.972,55.045 237.673 C 54.858 237.370,54.974 237.292,55.379 237.447 C 55.939 237.662,56.000 228.779,56.000 146.843 L 56.000 56.001 174.300 55.900 L 292.600 55.799 174.200 55.600 L 55.800 55.402 175.200 55.200 L 294.600 54.998 175.329 54.899 C 67.349 54.809,55.998 54.860,55.429 55.429 C 54.862 55.995,54.799 62.475,54.794 120.729 C 54.791 156.298,54.636 185.160,54.450 184.868 C 54.222 184.507,54.011 184.895,53.798 186.068 C 53.488 187.773,53.479 187.781,53.205 186.600 C 52.952 185.515,52.893 185.476,52.581 186.200 C 52.256 186.956,52.222 186.945,51.973 186.000 L 51.708 185.000 51.279 186.000 C 51.044 186.550,50.839 186.775,50.825 186.500 C 50.806 186.113,48.352 186.000,39.962 186.000 C 30.440 186.000,28.982 185.917,27.962 185.314 L 26.800 184.628 26.800 133.246 L 26.800 81.865 28.000 79.738 L 29.200 77.612 29.200 66.806 L 29.200 56.000 40.200 56.000 L 51.200 56.000 51.293 66.900 L 51.386 77.800 51.500 67.033 C 51.615 56.081,51.822 54.565,53.033 55.776 C 53.472 56.215,53.612 58.604,53.705 67.265 L 53.823 78.200 53.889 66.690 C 53.936 58.421,53.831 55.257,53.516 55.452 C 53.252 55.615,53.190 55.539,53.362 55.262 C 53.519 55.008,53.907 54.800,54.224 54.800 C 54.541 54.800,54.800 54.541,54.800 54.224 C 54.800 53.907,55.008 53.519,55.262 53.362 C 55.539 53.190,55.615 53.252,55.452 53.516 C 55.257 53.831,58.421 53.936,66.690 53.889 L 78.200 53.823 67.265 53.705 C 58.604 53.612,56.215 53.472,55.776 53.033 C 54.565 51.822,56.081 51.615,67.033 51.500 L 77.800 51.386 66.900 51.293 L 56.000 51.200 56.000 40.200 L 56.000 29.200 66.829 29.200 L 77.658 29.200 79.529 28.100 L 81.400 27.000 187.800 26.702 C 319.870 26.331,318.752 26.340,318.506 25.700 C 318.401 25.425,318.504 25.200,318.736 25.200 C 319.022 25.200,319.168 21.145,319.189 12.600 L 319.220 0.000 173.010 0.000 L 26.800 0.000 26.800 12.169 M55.600 120.100 L 55.400 184.600 55.297 120.600 C 55.206 63.411,55.252 55.600,55.687 55.600 C 55.749 55.600,55.710 84.625,55.600 120.100 M105.200 104.504 C 105.200 104.855,104.885 105.224,104.500 105.324 C 103.844 105.496,103.845 105.510,104.513 105.554 C 105.236 105.601,105.906 104.573,105.449 104.116 C 105.312 103.979,105.200 104.153,105.200 104.504 M109.149 104.300 C 109.121 104.465,109.055 105.005,109.004 105.500 L 108.909 106.400 120.355 106.493 L 131.800 106.587 120.654 106.700 L 109.507 106.813 108.154 108.166 L 106.800 109.520 106.800 119.504 C 106.800 129.676,107.096 134.368,107.612 132.400 C 107.847 131.509,107.921 131.595,108.300 133.200 C 108.629 134.593,108.729 132.038,108.741 121.900 C 108.751 114.695,108.857 108.800,108.979 108.800 C 119.206 108.798,133.054 108.971,132.100 109.089 L 130.800 109.251 130.800 120.025 L 130.800 130.800 131.900 130.847 C 132.505 130.873,133.135 130.873,133.300 130.847 C 133.465 130.821,133.600 131.081,133.600 131.424 C 133.600 131.767,133.783 131.934,134.007 131.796 C 134.230 131.658,134.300 131.362,134.162 131.139 C 134.025 130.916,134.463 131.019,135.136 131.367 C 136.920 132.289,157.503 132.319,157.855 131.400 C 157.982 131.070,158.336 130.800,158.643 130.800 C 159.421 130.800,159.478 109.379,158.700 109.065 C 158.419 108.951,158.528 108.849,158.949 108.832 C 159.569 108.805,159.612 108.696,159.200 108.200 C 158.926 107.870,158.836 107.600,159.000 107.600 C 159.164 107.600,159.088 107.348,158.832 107.039 C 158.458 106.588,158.585 106.398,159.483 106.070 C 160.399 105.736,160.456 105.648,159.800 105.579 C 159.324 105.529,159.567 105.375,160.400 105.200 L 161.800 104.905 160.400 104.825 C 159.234 104.757,159.134 104.686,159.800 104.400 C 160.258 104.203,149.613 104.044,134.900 104.028 C 120.765 104.013,109.177 104.135,109.149 104.300 M185.800 104.400 C 185.936 104.620,185.722 104.821,185.324 104.847 C 184.926 104.873,185.140 105.032,185.800 105.200 C 186.649 105.416,186.766 105.527,186.200 105.578 C 185.495 105.642,185.519 105.701,186.400 106.071 C 186.950 106.302,187.210 106.564,186.978 106.653 C 186.745 106.742,186.601 107.397,186.656 108.107 C 186.711 108.818,186.777 114.415,186.802 120.544 C 186.845 131.219,186.880 131.696,187.623 131.890 C 188.051 132.002,188.400 132.207,188.400 132.347 C 188.400 132.795,211.543 132.459,212.403 131.998 C 212.841 131.764,213.200 131.675,213.200 131.800 C 213.200 131.925,213.565 131.833,214.012 131.594 C 214.803 131.170,214.821 130.863,214.712 119.979 C 214.619 110.716,214.694 108.800,215.149 108.800 C 215.592 108.800,215.601 108.684,215.200 108.200 C 214.926 107.870,214.836 107.600,215.000 107.600 C 215.164 107.600,215.086 107.345,214.827 107.032 C 214.455 106.584,214.507 106.376,215.078 106.044 C 215.475 105.813,215.620 105.578,215.400 105.522 C 215.180 105.465,220.025 105.325,226.167 105.210 C 234.593 105.051,237.375 104.877,237.500 104.500 C 237.632 104.103,232.277 104.000,211.610 104.000 C 194.340 104.000,185.636 104.135,185.800 104.400 M231.924 104.699 C 228.913 104.767,223.873 104.767,220.724 104.699 C 217.576 104.632,220.040 104.576,226.200 104.576 C 232.360 104.576,234.936 104.631,231.924 104.699 M375.200 106.301 C 374.390 107.838,373.876 108.312,372.500 108.788 L 370.800 109.375 370.800 146.888 L 370.800 184.400 360.025 184.400 L 349.251 184.400 349.089 185.700 C 349.001 186.415,348.856 169.360,348.768 147.800 L 348.608 108.600 348.404 146.667 C 348.292 167.603,348.065 184.868,347.900 185.033 C 347.735 185.198,347.600 185.113,347.600 184.843 C 347.600 183.982,346.802 184.811,346.753 185.724 C 346.716 186.405,346.637 186.333,346.400 185.400 C 346.232 184.740,346.030 167.190,345.950 146.400 L 345.806 108.600 345.600 146.600 L 345.394 184.600 345.237 145.800 C 345.151 124.460,344.996 107.540,344.893 108.200 C 344.727 109.260,344.667 109.306,344.380 108.600 C 344.200 108.160,344.044 137.095,344.032 172.900 C 344.017 214.665,344.148 238.000,344.397 238.000 C 344.610 238.000,344.898 238.450,345.036 239.000 C 345.174 239.550,345.458 240.000,345.667 240.000 C 345.876 240.000,345.945 240.165,345.820 240.368 C 345.695 240.570,345.854 240.997,346.173 241.316 C 346.651 241.794,346.759 243.922,346.788 253.439 C 346.810 260.715,346.974 265.134,347.232 265.392 C 347.856 266.016,373.196 266.100,373.212 265.478 C 373.219 265.215,373.410 265.319,373.637 265.708 C 373.864 266.098,374.218 266.312,374.425 266.185 C 374.631 266.057,374.814 266.278,374.832 266.676 C 374.850 267.100,374.947 267.192,375.066 266.898 C 375.177 266.621,375.433 266.497,375.634 266.621 C 375.852 266.756,376.000 262.000,376.000 254.853 L 376.000 242.858 375.014 242.082 C 374.471 241.655,374.141 241.192,374.280 241.053 C 374.419 240.914,374.345 240.800,374.115 240.800 C 372.771 240.800,372.684 238.736,372.980 213.883 L 373.272 189.400 374.257 188.100 L 375.241 186.800 387.620 186.800 L 400.000 186.800 400.000 145.600 L 400.000 104.400 388.100 104.401 L 376.200 104.402 375.200 106.301 M105.680 105.680 C 105.096 106.264,105.058 106.800,105.600 106.800 C 105.820 106.800,105.955 106.575,105.900 106.300 C 105.845 106.025,106.025 105.845,106.300 105.900 C 106.575 105.955,106.800 105.820,106.800 105.600 C 106.800 105.058,106.264 105.096,105.680 105.680 M241.735 106.900 C 241.170 107.803,241.255 108.354,241.919 108.099 C 242.357 107.931,242.403 107.801,242.063 107.688 C 241.683 107.561,241.676 107.391,242.032 106.961 C 242.288 106.652,242.397 106.400,242.273 106.400 C 242.149 106.400,241.907 106.625,241.735 106.900 M107.200 107.849 C 107.200 108.380,107.309 108.408,107.800 108.000 C 108.130 107.726,108.400 107.434,108.400 107.351 C 108.400 107.268,108.130 107.200,107.800 107.200 C 107.470 107.200,107.200 107.492,107.200 107.849 M104.500 109.082 C 104.108 109.227,104.000 114.472,104.000 133.467 C 104.000 152.649,104.104 157.632,104.500 157.500 C 104.879 157.374,105.050 154.394,105.209 145.167 C 105.324 138.475,105.483 133.270,105.562 133.600 C 105.974 135.307,106.334 129.018,106.365 119.585 C 106.402 108.239,106.426 108.371,104.500 109.082 M240.575 120.000 C 240.575 126.050,240.631 128.525,240.699 125.500 C 240.767 122.475,240.767 117.525,240.699 114.500 C 240.631 111.475,240.575 113.950,240.575 120.000 M152.300 131.499 C 149.275 131.567,144.325 131.567,141.300 131.499 C 138.275 131.431,140.750 131.375,146.800 131.375 C 152.850 131.375,155.325 131.431,152.300 131.499 M104.699 151.500 C 104.632 154.745,104.577 152.090,104.577 145.600 C 104.577 139.110,104.632 136.455,104.699 139.700 C 104.766 142.945,104.766 148.255,104.699 151.500 M221.324 135.099 C 224.362 135.167,229.222 135.167,232.124 135.099 C 235.026 135.031,232.540 134.975,226.600 134.975 C 220.660 134.975,218.286 135.031,221.324 135.099 M221.300 135.899 C 224.325 135.967,229.275 135.967,232.300 135.899 C 235.325 135.831,232.850 135.775,226.800 135.775 C 220.750 135.775,218.275 135.831,221.300 135.899 M114.500 160.699 C 117.525 160.767,122.475 160.767,125.500 160.699 C 128.525 160.631,126.050 160.575,120.000 160.575 C 113.950 160.575,111.475 160.631,114.500 160.699 M106.694 161.967 C 106.264 162.518,106.286 162.533,106.861 162.083 C 107.382 161.676,107.557 161.672,107.688 162.063 C 107.804 162.411,107.923 162.376,108.088 161.946 C 108.403 161.128,107.335 161.143,106.694 161.967 M131.200 162.445 C 131.200 162.594,131.650 162.689,132.200 162.658 C 132.750 162.626,133.200 162.467,133.200 162.304 C 133.200 162.142,132.750 162.046,132.200 162.092 C 131.650 162.137,131.200 162.296,131.200 162.445 M294.800 211.224 C 294.800 211.384,295.070 211.618,295.400 211.745 C 295.744 211.877,296.000 211.753,296.000 211.454 C 296.000 211.168,295.730 210.933,295.400 210.933 C 295.070 210.933,294.800 211.064,294.800 211.224 M295.586 212.700 C 295.528 212.975,295.462 213.425,295.440 213.700 C 295.418 213.975,295.220 214.332,295.000 214.494 C 294.754 214.675,294.798 214.790,295.113 214.794 C 295.751 214.801,296.128 213.881,295.880 212.923 C 295.777 212.526,295.645 212.425,295.586 212.700 M242.000 213.247 C 242.000 213.510,241.631 213.600,241.100 213.467 C 240.258 213.254,240.247 213.275,240.933 213.788 C 241.644 214.320,241.644 214.348,240.933 214.728 C 240.239 215.099,240.214 215.734,240.457 226.660 C 240.752 239.918,240.738 239.685,241.188 239.407 C 241.618 239.141,242.850 239.596,242.635 239.942 C 242.547 240.084,247.494 240.110,253.628 240.000 C 259.762 239.890,265.325 239.912,265.990 240.049 C 267.334 240.327,267.377 240.279,266.786 239.174 C 266.548 238.729,266.530 238.400,266.743 238.400 C 266.947 238.400,267.230 238.700,267.370 239.067 C 267.570 239.588,267.732 239.628,268.110 239.250 C 268.488 238.872,268.476 238.694,268.054 238.433 C 267.678 238.201,267.648 238.017,267.957 237.826 C 268.263 237.638,268.400 234.271,268.400 226.958 L 268.400 216.364 267.397 215.360 C 266.843 214.807,266.188 214.484,265.935 214.640 C 265.631 214.828,265.587 214.745,265.804 214.394 C 266.042 214.009,265.949 213.934,265.466 214.119 C 265.100 214.260,264.800 214.195,264.800 213.975 C 264.800 213.716,260.814 213.615,253.451 213.688 C 244.499 213.776,242.142 213.694,242.293 213.300 C 242.399 213.025,242.376 212.800,242.243 212.800 C 242.109 212.800,242.000 213.001,242.000 213.247 M188.989 238.035 C 188.843 238.495,188.156 239.118,187.462 239.420 C 186.768 239.722,186.467 239.976,186.794 239.984 C 187.127 239.993,186.820 240.397,186.099 240.900 C 185.389 241.395,184.891 242.025,184.992 242.300 C 185.093 242.575,185.001 242.800,184.787 242.800 C 184.547 242.800,184.400 246.898,184.400 253.594 L 184.400 264.387 173.500 264.500 L 162.600 264.613 173.724 264.707 C 180.320 264.762,184.755 264.949,184.621 265.166 C 184.497 265.367,184.621 265.615,184.898 265.716 C 185.274 265.854,185.286 266.021,184.945 266.385 C 184.625 266.726,184.411 266.741,184.222 266.435 C 184.039 266.140,180.570 266.000,173.410 266.000 C 165.350 266.000,162.819 265.882,162.665 265.500 C 162.527 265.159,162.455 265.191,162.438 265.600 C 162.373 267.119,162.760 267.175,173.619 267.212 C 183.913 267.248,185.481 267.125,186.094 266.229 C 186.271 265.971,186.390 266.078,186.394 266.500 C 186.401 267.359,186.934 267.403,187.600 266.600 C 187.874 266.270,188.301 266.003,188.549 266.006 C 188.797 266.009,188.730 266.191,188.400 266.409 C 187.775 266.823,211.581 266.936,212.655 266.524 C 212.955 266.409,213.200 266.083,213.200 265.800 C 213.200 265.069,214.208 264.776,214.810 265.331 C 215.201 265.692,215.252 265.685,215.035 265.300 C 214.813 264.906,217.155 264.780,226.076 264.707 L 237.400 264.614 226.700 264.500 L 216.000 264.387 216.000 253.593 C 216.000 243.920,215.933 242.800,215.353 242.800 C 214.886 242.800,214.758 242.533,214.891 241.837 C 215.022 241.149,214.922 240.932,214.541 241.078 C 214.247 241.191,213.896 240.995,213.761 240.644 C 213.627 240.292,213.351 240.107,213.148 240.232 C 212.946 240.357,212.806 240.311,212.837 240.130 C 212.983 239.290,212.750 238.800,212.203 238.800 C 211.875 238.800,211.382 238.440,211.107 238.000 C 210.309 236.722,189.395 236.756,188.989 238.035 M28.033 241.994 C 28.380 242.198,33.827 242.417,40.136 242.482 C 46.444 242.547,51.424 242.540,51.201 242.466 C 50.977 242.392,50.897 242.167,51.021 241.966 C 51.156 241.748,46.432 241.605,39.324 241.612 C 31.825 241.620,27.635 241.762,28.033 241.994 M104.893 265.600 C 104.893 266.370,104.975 266.685,105.076 266.300 C 105.176 265.915,105.176 265.285,105.076 264.900 C 104.975 264.515,104.893 264.830,104.893 265.600 M214.000 265.538 C 214.000 265.724,214.360 266.202,214.800 266.600 C 215.240 266.998,215.600 267.206,215.600 267.062 C 215.600 266.918,215.240 266.440,214.800 266.000 C 214.360 265.560,214.000 265.352,214.000 265.538 M106.406 266.367 C 106.428 267.192,107.106 267.602,107.290 266.900 C 107.415 266.421,107.286 266.133,106.945 266.133 C 106.645 266.133,106.403 266.238,106.406 266.367 M321.407 267.312 C 320.900 268.035,320.800 270.001,320.800 279.239 C 320.800 295.506,322.426 293.902,305.763 294.075 C 295.148 294.185,293.663 294.279,293.071 294.871 C 292.476 295.467,292.400 296.779,292.400 306.495 C 292.400 314.633,292.272 317.619,291.900 318.116 C 291.417 318.763,268.399 319.429,268.400 318.796 C 268.400 318.684,268.021 318.356,267.558 318.067 C 267.095 317.778,266.828 317.722,266.965 317.943 C 267.440 318.712,266.585 318.721,265.026 317.963 C 263.261 317.105,242.058 316.787,240.800 317.600 C 240.470 317.813,240.380 317.993,240.600 318.000 C 240.820 318.007,240.752 318.169,240.449 318.361 C 240.130 318.563,240.029 318.923,240.208 319.214 C 240.379 319.490,240.481 325.810,240.433 333.258 L 240.347 346.800 252.997 346.800 C 262.457 346.800,265.575 346.916,265.362 347.262 C 265.184 347.549,265.252 347.615,265.542 347.436 C 266.152 347.059,267.678 347.550,267.382 348.029 C 267.256 348.233,267.513 348.400,267.953 348.400 C 268.393 348.400,268.864 348.580,269.000 348.800 C 269.155 349.051,273.403 349.200,280.419 349.200 C 293.053 349.200,293.225 349.163,292.964 346.468 C 292.883 345.632,293.029 344.902,293.313 344.722 C 293.692 344.481,293.689 344.411,293.300 344.406 C 292.766 344.400,292.540 324.599,293.045 322.074 C 293.515 319.725,294.452 319.575,307.873 319.694 L 319.800 319.800 320.306 318.800 C 320.584 318.250,320.729 318.106,320.626 318.480 C 320.513 318.895,320.627 319.088,320.920 318.975 C 321.281 318.837,321.372 315.993,321.288 307.488 C 321.202 298.789,321.295 296.027,321.688 295.499 C 322.150 294.880,323.317 294.810,333.600 294.783 L 345.000 294.754 345.853 293.796 C 346.322 293.270,346.627 292.760,346.531 292.664 C 346.435 292.568,346.371 286.809,346.389 279.865 C 346.420 267.610,346.397 267.227,345.617 266.809 C 343.854 265.866,322.103 266.318,321.407 267.312 M221.324 267.099 C 224.362 267.167,229.222 267.167,232.124 267.099 C 235.026 267.031,232.540 266.975,226.600 266.975 C 220.660 266.975,218.286 267.031,221.324 267.099 M161.733 268.205 C 161.733 268.513,161.868 268.682,162.033 268.580 C 162.197 268.478,162.423 268.621,162.534 268.898 C 162.694 269.295,162.743 269.293,162.768 268.888 C 162.793 268.485,165.098 268.384,173.642 268.413 C 179.605 268.433,184.600 268.319,184.742 268.161 C 184.884 268.002,184.775 268.001,184.500 268.159 C 184.225 268.318,184.000 268.252,184.000 268.013 C 184.000 267.711,180.622 267.589,172.867 267.612 C 163.608 267.640,161.733 267.739,161.733 268.205 M221.324 267.899 C 224.362 267.967,229.222 267.967,232.124 267.899 C 235.026 267.831,232.540 267.775,226.600 267.775 C 220.660 267.775,218.286 267.831,221.324 267.899 M108.000 279.919 L 108.199 291.000 108.306 280.227 C 108.365 274.301,108.275 269.315,108.107 269.146 C 107.938 268.977,107.890 273.825,108.000 279.919 M184.575 280.000 C 184.575 286.050,184.631 288.525,184.699 285.500 C 184.767 282.475,184.767 277.525,184.699 274.500 C 184.631 271.475,184.575 273.950,184.575 280.000 M215.775 280.000 C 215.775 286.050,215.831 288.525,215.899 285.500 C 215.967 282.475,215.967 277.525,215.899 274.500 C 215.831 271.475,215.775 273.950,215.775 280.000 M51.722 291.367 C 51.765 291.605,51.605 291.765,51.367 291.722 C 51.128 291.679,50.933 291.908,50.933 292.229 C 50.933 292.659,51.181 292.582,51.867 291.937 C 52.968 290.903,52.957 290.933,52.222 290.933 C 51.904 290.933,51.679 291.128,51.722 291.367 M105.206 291.393 C 104.789 291.895,102.987 291.972,93.395 291.893 C 87.169 291.842,82.284 291.948,82.538 292.128 C 82.802 292.316,82.436 292.387,81.682 292.295 C 80.958 292.206,80.272 292.283,80.159 292.467 C 80.045 292.650,80.098 292.800,80.276 292.800 C 80.454 292.800,80.541 298.130,80.468 304.644 C 80.284 321.074,78.698 319.332,94.087 319.600 C 108.675 319.854,107.000 318.127,107.000 332.914 C 107.000 339.341,107.158 344.715,107.351 344.855 C 107.546 344.997,107.551 345.353,107.363 345.655 C 106.725 346.679,106.881 348.096,107.654 348.298 C 108.060 348.404,108.289 348.655,108.165 348.856 C 108.031 349.073,112.731 349.208,119.770 349.188 C 126.276 349.170,131.600 349.014,131.600 348.841 C 131.600 346.907,157.434 345.673,159.281 347.519 C 159.806 348.045,160.488 371.201,159.977 371.200 C 159.854 371.200,159.792 371.740,159.837 372.400 C 159.885 373.083,159.722 373.603,159.460 373.606 C 159.203 373.610,159.261 373.777,159.590 373.986 C 160.072 374.290,159.999 374.431,159.190 374.754 L 158.200 375.149 159.200 375.203 C 160.121 375.252,160.137 375.283,159.400 375.600 C 158.930 375.802,163.810 375.955,171.239 375.972 C 184.593 376.002,186.139 375.775,185.694 373.856 C 185.636 373.605,185.831 373.709,186.128 374.086 C 186.539 374.608,186.779 374.661,187.134 374.306 C 187.390 374.050,187.603 374.011,187.606 374.220 C 187.609 374.429,187.783 374.330,187.991 374.000 C 188.474 373.236,210.109 372.861,211.001 373.601 C 211.386 373.920,211.608 373.911,211.820 373.568 C 212.028 373.232,212.216 373.286,212.480 373.757 C 212.683 374.120,213.006 374.320,213.197 374.202 C 213.388 374.084,213.658 374.170,213.796 374.393 C 213.934 374.617,214.407 374.800,214.847 374.800 C 215.287 374.800,215.548 374.961,215.426 375.158 C 215.304 375.355,215.488 375.625,215.835 375.758 C 216.859 376.151,241.466 376.029,240.842 375.634 C 240.394 375.350,240.433 375.243,241.042 375.087 C 241.700 374.918,241.708 374.887,241.100 374.846 C 240.715 374.821,240.400 374.530,240.400 374.200 C 240.400 373.870,240.233 373.600,240.028 373.600 C 239.805 373.600,239.794 373.120,240.000 372.400 C 240.189 371.740,240.222 371.200,240.072 371.200 C 239.922 371.200,239.850 365.706,239.911 358.990 L 240.023 346.780 227.519 346.812 C 219.526 346.832,214.966 346.699,214.881 346.444 C 214.808 346.225,214.480 346.148,214.152 346.274 C 213.821 346.401,213.202 346.124,212.762 345.651 C 212.326 345.183,211.706 344.800,211.384 344.800 C 211.063 344.800,210.800 344.620,210.800 344.400 C 210.800 343.598,189.720 343.886,188.860 344.700 C 186.596 346.842,187.391 346.733,173.652 346.783 L 160.839 346.830 160.437 345.315 C 160.217 344.482,160.001 338.085,159.957 331.100 C 159.912 323.819,159.724 318.400,159.516 318.400 C 159.316 318.400,159.252 318.239,159.374 318.042 C 159.821 317.318,158.106 317.200,147.174 317.200 L 136.013 317.200 135.894 306.500 L 135.776 295.800 135.700 306.600 C 135.658 312.540,135.618 317.619,135.612 317.887 C 135.605 318.169,135.329 318.271,134.960 318.129 C 134.607 317.994,134.178 318.113,134.004 318.393 C 133.831 318.673,133.486 318.777,133.238 318.624 C 132.990 318.470,132.899 318.164,133.035 317.943 C 133.172 317.722,132.917 317.770,132.468 318.051 C 132.019 318.331,131.713 318.659,131.788 318.780 C 132.192 319.432,108.989 318.771,108.500 318.116 C 108.129 317.620,108.000 314.685,108.000 306.757 C 108.000 298.579,108.118 296.019,108.500 295.865 C 108.775 295.754,108.550 295.646,108.000 295.625 C 107.203 295.595,107.122 295.509,107.600 295.200 C 107.930 294.987,108.043 294.809,107.851 294.806 C 107.659 294.803,107.701 294.560,107.944 294.267 C 108.272 293.872,108.237 293.536,107.806 292.967 C 107.487 292.545,107.220 292.389,107.213 292.620 C 107.206 292.851,107.335 293.215,107.500 293.428 C 107.665 293.642,107.465 293.453,107.055 293.008 C 106.645 292.564,106.195 292.200,106.055 292.200 C 105.915 292.200,105.814 291.885,105.832 291.500 C 105.870 290.649,105.829 290.642,105.206 291.393 M184.475 294.648 C 184.847 294.758,185.242 295.153,185.352 295.525 C 185.499 296.014,185.532 295.981,185.472 295.405 C 185.425 294.938,185.062 294.575,184.595 294.528 C 184.019 294.468,183.986 294.501,184.475 294.648 M214.538 295.017 C 214.408 295.357,214.413 295.747,214.551 295.884 C 214.688 296.021,214.800 295.847,214.800 295.496 C 214.800 295.145,215.115 294.776,215.500 294.676 C 216.156 294.504,216.155 294.490,215.487 294.446 C 215.096 294.421,214.668 294.678,214.538 295.017 M194.500 295.899 C 197.525 295.967,202.475 295.967,205.500 295.899 C 208.525 295.831,206.050 295.775,200.000 295.775 C 193.950 295.775,191.475 295.831,194.500 295.899 M264.094 306.365 C 264.161 313.251,264.346 317.201,264.600 317.200 C 265.243 317.200,265.137 295.912,264.494 295.698 C 264.091 295.564,264.009 297.763,264.094 306.365 M134.975 306.600 C 134.975 312.540,135.031 315.026,135.099 312.124 C 135.167 309.222,135.167 304.362,135.099 301.324 C 135.031 298.286,134.975 300.660,134.975 306.600 M264.699 312.124 C 264.631 315.026,264.575 312.540,264.575 306.600 C 264.575 300.660,264.631 298.286,264.699 301.324 C 264.767 304.362,264.767 309.222,264.699 312.124 M347.497 320.467 C 347.770 320.801,347.860 321.221,347.697 321.401 C 347.533 321.581,347.645 321.586,347.945 321.413 C 348.271 321.224,348.629 321.318,348.839 321.649 C 349.044 321.973,349.190 322.013,349.194 321.746 C 349.197 321.496,348.705 320.970,348.100 320.576 C 347.304 320.058,347.137 320.028,347.497 320.467 M328.124 320.699 C 331.162 320.767,336.022 320.767,338.924 320.699 C 341.826 320.631,339.340 320.575,333.400 320.575 C 327.460 320.575,325.086 320.631,328.124 320.699 " stroke="none" fill="#f4e4d4" fill-rule="evenodd"></path></g></svg>