<svg id="svg" version="1.1" xmlns="http://www.w3.org/2000/svg" xmlns:xlink="http://www.w3.org/1999/xlink" width="400" height="400" viewBox="0, 0, 400,400"><g id="svgg"><path id="path0" d="M0.000 13.600 L 0.000 27.200 11.726 27.200 L 23.453 27.200 25.326 25.326 L 27.200 23.453 27.200 11.726 L 27.200 0.000 13.600 0.000 L 0.000 0.000 0.000 13.600 M373.200 11.751 C 373.200 21.708,373.292 23.578,373.800 24.000 C 374.130 24.274,374.400 24.665,374.400 24.869 C 374.400 25.073,375.003 25.861,375.740 26.620 L 377.081 28.000 388.540 28.000 L 400.000 28.000 400.000 14.000 L 400.000 0.000 386.600 0.000 L 373.200 0.000 373.200 11.751 M80.200 28.993 C 77.522 29.924,76.952 29.967,67.100 29.983 L 56.800 30.000 56.800 40.200 C 56.800 45.810,56.800 50.535,56.799 50.700 C 56.799 50.865,62.244 51.097,68.899 51.215 L 81.000 51.429 68.500 51.415 C 61.625 51.407,56.000 51.535,56.000 51.700 C 56.000 51.865,61.535 52.042,68.300 52.094 L 80.600 52.188 68.545 52.300 C 55.836 52.418,54.762 52.602,56.526 54.366 C 56.838 54.678,56.832 54.800,56.504 54.800 C 56.253 54.800,55.934 54.617,55.796 54.393 C 55.658 54.170,55.374 54.092,55.166 54.221 C 54.957 54.350,54.908 54.651,55.055 54.889 C 55.209 55.139,55.139 55.209,54.889 55.055 C 54.651 54.908,54.350 54.957,54.221 55.166 C 54.092 55.374,54.170 55.658,54.393 55.796 C 54.617 55.934,54.800 56.253,54.800 56.504 C 54.800 56.832,54.678 56.838,54.366 56.526 C 52.602 54.762,52.418 55.836,52.300 68.545 L 52.188 80.600 52.094 68.300 C 52.042 61.535,51.865 56.000,51.700 56.000 C 51.535 56.000,51.407 61.625,51.415 68.500 L 51.429 81.000 51.215 68.899 C 51.097 62.244,50.865 56.799,50.700 56.799 C 50.535 56.800,45.810 56.800,40.200 56.800 L 30.000 56.800 30.000 66.992 C 30.000 76.802,29.963 77.295,29.000 80.162 L 28.000 83.141 28.000 120.200 L 28.000 157.259 29.000 160.238 C 29.963 163.105,30.000 163.598,30.000 173.408 L 30.000 183.600 40.200 183.600 L 50.400 183.600 50.447 184.700 L 50.495 185.800 50.800 184.600 C 50.968 183.940,51.168 178.000,51.244 171.400 L 51.382 159.400 51.600 171.600 L 51.818 183.800 51.988 171.600 L 52.157 159.400 52.379 172.867 C 52.567 184.313,52.789 187.696,53.290 186.767 C 53.339 186.675,53.477 157.260,53.596 121.400 L 53.812 56.200 53.946 119.800 C 54.019 154.780,54.224 183.850,54.400 184.400 C 54.707 185.359,54.722 185.363,54.760 184.500 C 54.782 184.005,54.956 183.600,55.146 183.600 C 55.336 183.600,55.622 195.525,55.781 210.100 C 55.941 224.675,56.230 236.766,56.424 236.969 C 56.633 237.187,56.432 237.514,55.934 237.769 C 55.469 238.006,55.118 238.338,55.153 238.508 C 55.188 238.677,54.871 239.186,54.449 239.640 C 53.332 240.838,53.265 241.563,53.218 252.949 C 53.176 263.226,52.986 264.800,51.786 264.800 C 51.464 264.800,51.200 264.974,51.200 265.187 C 51.200 265.425,47.023 265.618,40.400 265.687 C 31.966 265.775,29.600 265.690,29.600 265.300 C 29.600 265.025,29.420 264.800,29.200 264.800 C 28.980 264.800,28.797 265.025,28.794 265.300 C 28.790 265.633,28.658 265.600,28.400 265.200 C 28.142 264.800,28.010 264.767,28.006 265.100 C 27.999 265.668,27.149 265.603,26.706 265.000 C 26.532 264.763,26.398 264.845,26.378 265.200 C 26.355 265.604,26.232 265.539,26.000 265.000 C 25.706 264.316,25.652 264.301,25.628 264.900 C 25.611 265.324,25.285 265.600,24.800 265.600 C 24.019 265.600,24.000 265.333,24.000 254.176 C 24.000 246.663,24.137 242.837,24.400 243.000 C 24.620 243.136,24.800 243.046,24.800 242.800 C 24.800 242.554,24.980 242.464,25.200 242.600 C 25.420 242.736,25.600 242.556,25.600 242.200 C 25.600 241.844,25.751 241.646,25.935 241.760 C 28.006 243.040,28.248 235.895,27.309 201.200 C 26.885 185.559,28.243 186.800,11.551 186.800 L 0.000 186.800 0.000 215.000 L 0.000 243.200 11.810 243.200 L 23.620 243.200 23.377 269.164 C 23.200 287.967,23.257 295.358,23.581 295.964 C 24.020 296.786,24.251 296.800,37.014 296.800 L 50.000 296.800 50.071 307.400 C 50.160 320.600,50.125 319.745,50.600 320.094 C 50.858 320.283,50.844 320.390,50.560 320.394 C 50.318 320.397,50.138 320.985,50.160 321.700 L 50.200 323.000 63.381 323.114 C 70.630 323.177,76.605 323.271,76.658 323.324 C 76.710 323.377,76.809 329.356,76.877 336.610 L 77.000 349.800 103.378 349.912 C 117.886 349.973,129.800 350.066,129.852 350.119 C 129.905 350.172,129.990 356.017,130.041 363.107 C 130.118 373.814,130.228 376.000,130.690 376.000 C 130.997 376.000,131.124 376.200,130.972 376.445 C 130.771 376.770,137.727 376.820,156.949 376.629 L 183.200 376.367 183.200 388.184 L 183.200 400.000 213.212 400.000 L 243.223 400.000 243.112 388.300 L 243.000 376.600 256.286 376.684 C 269.769 376.769,270.647 376.678,269.534 375.306 C 269.089 374.756,269.089 374.700,269.535 374.968 C 269.927 375.204,270.048 375.038,269.990 374.345 C 269.947 373.825,269.931 368.135,269.956 361.700 L 270.000 350.000 294.967 350.000 C 314.566 350.000,319.977 349.893,320.135 349.500 C 320.296 349.100,320.343 349.100,320.368 349.500 C 320.408 350.121,322.649 350.167,323.028 349.555 C 323.179 349.311,323.054 348.953,322.751 348.761 C 322.384 348.529,322.360 348.410,322.679 348.406 C 323.041 348.402,323.166 345.332,323.189 335.924 C 323.205 329.062,323.271 323.396,323.335 323.332 C 323.398 323.268,328.652 323.203,335.009 323.187 C 342.596 323.169,346.745 323.012,347.084 322.730 C 347.453 322.424,347.600 322.430,347.600 322.751 C 347.600 322.998,347.774 323.200,347.987 323.200 C 348.201 323.200,348.276 322.885,348.155 322.500 C 347.957 321.871,347.996 321.875,348.541 322.540 C 349.337 323.513,350.000 323.055,350.000 321.534 C 350.000 320.546,349.867 320.361,349.300 320.558 C 348.657 320.782,348.654 320.760,349.261 320.286 C 349.845 319.829,349.928 318.454,349.977 308.402 C 350.007 302.150,350.080 296.987,350.138 296.929 C 350.196 296.871,356.174 296.773,363.422 296.711 L 376.600 296.600 376.486 269.900 L 376.373 243.200 388.186 243.200 L 400.000 243.200 400.000 214.600 L 400.000 186.000 388.100 186.006 C 379.414 186.010,375.934 186.146,375.217 186.509 C 373.397 187.430,373.294 188.716,373.002 214.257 L 372.727 238.200 373.749 240.269 C 374.312 241.406,375.093 242.439,375.486 242.563 C 376.156 242.775,376.188 243.504,376.000 254.362 C 375.812 265.259,375.607 267.306,374.834 266.055 C 374.582 265.647,374.456 265.678,374.257 266.196 C 374.023 266.806,373.950 266.807,373.359 266.216 C 372.925 265.782,372.562 265.699,372.246 265.962 C 371.575 266.519,350.920 266.540,349.330 265.985 C 347.630 265.393,347.612 265.259,347.605 253.385 C 347.600 243.822,347.536 242.843,346.813 241.425 C 346.380 240.576,346.121 239.728,346.237 239.541 C 346.352 239.353,346.066 239.200,345.600 239.200 C 345.134 239.200,344.848 239.046,344.964 238.857 C 345.081 238.669,344.867 238.189,344.488 237.791 C 343.843 237.111,343.820 234.769,344.120 200.033 C 344.296 179.665,344.359 139.120,344.259 109.934 C 344.104 64.631,344.160 56.750,344.643 56.060 C 345.011 55.534,345.065 55.164,344.798 54.999 C 344.572 54.859,344.493 54.532,344.623 54.272 C 344.753 54.013,344.593 54.126,344.268 54.524 C 343.893 54.984,343.581 55.093,343.415 54.824 C 343.271 54.591,343.354 54.400,343.600 54.400 C 343.846 54.400,343.931 54.212,343.789 53.982 C 343.647 53.753,343.772 53.268,344.066 52.906 C 344.447 52.436,344.457 52.333,344.100 52.547 C 343.514 52.899,343.426 52.333,343.981 51.780 C 344.221 51.540,339.763 51.407,331.881 51.420 L 319.400 51.440 331.600 51.205 C 338.310 51.076,343.800 50.932,343.800 50.886 C 343.800 50.839,343.749 46.120,343.687 40.400 L 343.574 30.000 333.395 30.000 C 323.599 30.000,323.105 29.962,320.238 29.000 L 317.259 28.000 200.129 28.010 L 83.000 28.021 80.200 28.993 M337.525 52.299 C 334.293 52.366,328.893 52.366,325.525 52.299 C 322.156 52.232,324.800 52.177,331.400 52.177 C 338.000 52.177,340.756 52.232,337.525 52.299 M271.467 53.900 C 231.905 53.956,167.285 53.956,127.867 53.900 C 88.450 53.844,120.820 53.798,199.800 53.798 C 278.780 53.798,311.030 53.844,271.467 53.900 M343.279 146.700 C 343.372 196.145,343.432 236.635,343.413 236.678 C 343.393 236.721,337.416 236.793,330.130 236.838 L 316.882 236.920 316.891 239.760 C 316.896 241.322,316.878 247.343,316.850 253.140 L 316.800 263.681 303.900 263.542 C 296.805 263.466,290.801 263.532,290.559 263.689 C 290.255 263.886,290.092 267.990,290.037 276.876 C 289.993 283.971,289.914 289.820,289.861 289.872 C 289.809 289.924,284.780 289.990,278.685 290.019 C 272.089 290.049,267.508 290.226,267.366 290.455 C 267.217 290.696,266.940 290.682,266.623 290.419 C 265.791 289.729,264.000 290.065,264.000 290.911 C 264.000 291.316,263.842 291.550,263.650 291.431 C 263.453 291.309,263.270 296.765,263.232 303.892 C 263.195 310.864,263.119 316.615,263.063 316.670 C 263.008 316.726,251.091 316.823,236.581 316.886 L 210.200 317.000 210.200 330.566 C 210.200 341.063,210.313 344.170,210.700 344.300 C 210.975 344.391,211.200 344.724,211.200 345.039 C 211.200 345.353,212.010 346.004,213.000 346.485 C 213.990 346.966,214.800 347.487,214.800 347.642 C 214.800 347.798,215.160 347.831,215.600 347.716 C 216.040 347.601,216.400 347.663,216.400 347.853 C 216.400 348.044,221.366 348.200,227.436 348.200 L 238.471 348.200 239.236 349.144 C 240.194 350.329,240.443 370.372,239.500 370.432 C 239.113 370.456,239.110 370.508,239.490 370.661 C 239.857 370.810,239.820 371.102,239.344 371.830 C 238.969 372.402,238.886 372.800,239.141 372.800 C 239.380 372.800,239.472 373.069,239.346 373.398 C 239.219 373.726,238.955 373.896,238.758 373.774 C 238.561 373.652,238.399 373.788,238.397 374.076 C 238.389 375.337,236.349 375.600,226.567 375.600 L 216.893 375.600 216.647 374.700 C 216.455 374.001,216.321 373.923,216.045 374.351 C 215.631 374.993,214.655 374.558,215.055 373.911 C 215.233 373.623,215.134 373.595,214.762 373.828 C 213.943 374.339,213.120 374.302,212.100 373.707 C 211.379 373.286,211.194 373.283,211.168 373.691 C 211.151 373.971,211.061 374.020,210.969 373.800 C 210.607 372.938,186.980 373.861,186.426 374.759 C 186.257 375.031,185.868 375.291,185.560 375.338 C 185.252 375.384,184.765 375.569,184.478 375.749 C 182.974 376.688,160.184 375.940,160.559 374.964 C 160.672 374.668,160.566 374.302,160.322 374.152 C 160.024 373.967,160.098 373.717,160.551 373.386 C 161.115 372.974,161.130 372.859,160.644 372.672 C 160.149 372.482,160.098 372.116,160.382 370.800 C 160.406 370.690,160.414 365.962,160.400 360.294 L 160.376 349.988 161.370 348.994 L 162.364 348.000 173.082 347.932 C 185.624 347.852,185.068 347.874,185.479 347.424 C 185.662 347.223,185.542 347.213,185.200 347.400 C 184.850 347.592,184.737 347.579,184.928 347.369 C 185.109 347.172,185.469 346.995,185.728 346.976 C 186.953 346.888,188.737 345.865,189.210 344.981 L 189.735 344.000 199.968 343.907 L 210.200 343.814 200.100 343.700 L 190.000 343.586 189.960 332.093 C 189.938 325.772,189.893 319.790,189.860 318.800 L 189.800 317.000 163.419 316.886 C 148.909 316.823,136.989 316.723,136.930 316.663 C 136.871 316.604,136.805 310.758,136.783 303.671 C 136.760 295.837,136.598 290.877,136.372 291.017 C 136.167 291.144,136.000 290.997,136.000 290.690 C 136.000 290.228,133.814 290.118,123.107 290.041 C 116.017 289.990,110.173 289.907,110.123 289.856 C 110.072 289.805,110.008 283.967,109.980 276.882 C 109.930 264.350,109.907 264.000,109.141 264.000 C 108.707 264.000,108.465 263.818,108.603 263.595 C 108.763 263.337,107.940 263.211,106.326 263.246 C 104.937 263.277,99.165 263.279,93.500 263.251 L 83.200 263.200 83.200 250.976 C 83.200 241.314,83.095 238.812,82.700 239.035 C 82.300 239.261,82.300 239.210,82.700 238.779 C 83.712 237.688,83.313 236.738,81.900 236.874 C 81.185 236.943,80.468 237.180,80.306 237.400 C 80.120 237.653,80.010 237.627,80.006 237.331 C 80.002 236.983,76.963 236.850,68.321 236.818 C 61.898 236.795,56.622 236.736,56.598 236.688 C 56.574 236.639,56.629 196.145,56.721 146.700 L 56.889 56.800 199.999 56.800 L 343.110 56.800 343.279 146.700 M345.692 69.900 C 345.633 78.439,345.457 83.200,345.200 83.200 C 344.935 83.200,344.800 100.200,344.800 133.400 C 344.800 166.600,344.935 183.600,345.200 183.600 C 345.420 183.600,345.632 184.814,345.671 186.300 L 345.741 189.000 346.000 186.200 L 346.259 183.400 346.395 185.600 L 346.530 187.800 346.765 185.600 C 347.023 183.182,347.661 182.827,348.047 184.884 L 348.295 186.200 348.392 184.800 C 348.483 183.499,348.526 183.556,349.000 185.600 C 349.420 187.411,349.505 176.212,349.479 122.200 C 349.462 85.978,349.327 62.422,349.179 69.600 C 348.890 83.547,348.811 84.712,348.400 81.000 L 348.134 78.600 348.039 81.000 C 347.970 82.752,347.851 83.184,347.600 82.600 L 347.256 81.800 347.136 82.600 C 347.070 83.040,346.919 77.370,346.800 70.000 L 346.584 56.600 346.400 70.000 L 346.216 83.400 346.000 70.000 L 345.784 56.600 345.692 69.900 M350.000 133.400 L 350.000 183.600 360.200 183.600 L 370.400 183.600 370.400 133.400 L 370.400 83.200 360.200 83.200 L 350.000 83.200 350.000 133.400 M104.341 103.468 C 103.686 103.642,103.216 104.741,103.205 106.124 C 103.202 106.522,103.380 106.736,103.600 106.600 C 103.820 106.464,104.000 106.644,104.000 107.000 C 104.000 107.356,103.823 107.538,103.606 107.404 C 103.348 107.244,103.212 125.407,103.212 160.000 C 103.212 194.593,103.348 212.756,103.606 212.596 C 103.823 212.462,104.000 212.528,104.000 212.743 C 104.000 212.958,103.780 213.207,103.512 213.296 C 103.149 213.417,103.124 213.861,103.412 215.029 C 103.832 216.730,105.406 217.391,106.624 216.380 C 107.071 216.009,107.200 216.010,107.200 216.382 C 107.200 216.676,107.706 216.828,108.500 216.773 C 109.215 216.724,114.342 216.710,119.893 216.742 L 129.986 216.800 130.100 226.900 L 130.214 237.000 130.307 226.900 C 130.366 220.495,130.546 216.800,130.800 216.800 C 131.020 216.800,131.200 216.598,131.200 216.351 C 131.200 216.046,130.975 216.069,130.500 216.422 C 130.115 216.708,130.297 216.451,130.904 215.851 C 131.783 214.983,131.926 214.609,131.607 214.013 C 131.319 213.475,131.346 213.218,131.703 213.099 C 132.774 212.743,132.375 189.681,131.267 187.900 L 130.335 186.400 120.201 186.400 C 112.468 186.400,110.019 186.518,109.865 186.900 C 109.754 187.175,109.641 186.680,109.614 185.800 L 109.564 184.200 109.014 185.400 C 108.712 186.060,108.448 186.330,108.426 186.000 C 108.392 185.467,108.345 185.467,108.000 186.000 C 107.655 186.533,107.611 186.533,107.600 186.000 C 107.589 185.467,107.545 185.467,107.200 186.000 C 106.899 186.465,106.800 186.330,106.759 185.400 L 106.705 184.200 106.400 185.400 L 106.095 186.600 105.987 185.200 C 105.885 183.862,105.872 183.852,105.708 184.961 C 105.483 186.474,104.582 187.452,104.239 186.557 C 103.877 185.614,104.032 133.949,104.400 132.800 C 104.707 131.841,104.722 131.837,104.760 132.700 C 104.782 133.195,104.980 133.600,105.200 133.600 C 105.420 133.600,105.626 134.275,105.657 135.100 L 105.714 136.600 105.982 135.000 C 106.244 133.433,106.254 133.424,106.465 134.600 L 106.680 135.800 106.740 134.700 C 106.799 133.615,107.993 133.049,108.006 134.100 C 108.011 134.466,108.105 134.454,108.358 134.055 C 108.617 133.646,108.807 133.796,109.120 134.655 C 109.524 135.764,109.539 135.743,109.615 134.000 C 109.658 133.010,109.775 132.515,109.876 132.900 C 110.044 133.543,110.875 133.600,120.146 133.600 L 130.233 133.600 131.917 131.885 L 133.600 130.170 133.600 120.114 C 133.600 110.874,133.543 110.044,132.900 109.876 C 132.515 109.775,133.010 109.658,134.000 109.615 C 135.743 109.539,135.764 109.524,134.655 109.120 C 133.796 108.807,133.646 108.617,134.055 108.358 C 134.454 108.105,134.466 108.011,134.100 108.006 C 133.104 107.994,133.625 106.849,134.700 106.687 L 135.800 106.520 134.600 106.403 C 133.484 106.295,133.513 106.266,135.000 106.000 L 136.600 105.714 135.100 105.657 C 134.275 105.626,133.600 105.420,133.600 105.200 C 133.600 104.980,133.195 104.782,132.700 104.760 C 131.837 104.722,131.841 104.707,132.800 104.400 C 134.155 103.966,266.390 103.966,267.400 104.400 C 268.084 104.694,268.099 104.748,267.500 104.772 C 267.115 104.787,266.800 104.980,266.800 105.200 C 266.800 105.420,266.125 105.626,265.300 105.657 L 263.800 105.714 265.400 106.000 C 266.872 106.264,266.904 106.295,265.800 106.391 L 264.600 106.495 265.777 106.747 C 267.020 107.014,267.222 107.486,266.334 108.049 C 265.904 108.322,265.917 108.395,266.400 108.426 C 266.730 108.448,266.460 108.712,265.800 109.014 L 264.600 109.564 266.400 109.628 C 267.390 109.664,267.885 109.775,267.500 109.876 C 266.857 110.044,266.800 110.874,266.800 120.114 L 266.800 130.170 268.483 131.885 L 270.167 133.600 280.283 133.600 C 288.093 133.600,290.407 133.714,290.432 134.100 C 290.450 134.375,290.700 134.067,290.987 133.416 C 291.441 132.386,291.535 132.334,291.708 133.016 C 291.903 133.784,291.909 133.783,291.984 133.000 C 292.040 132.418,292.205 132.582,292.589 133.600 L 293.117 135.000 293.440 133.200 C 293.747 131.489,293.775 131.459,293.995 132.600 C 294.158 133.448,294.427 133.766,294.913 133.682 C 295.557 133.572,295.600 135.245,295.600 160.182 C 295.600 177.661,295.463 186.800,295.200 186.800 C 294.980 186.800,294.797 186.575,294.794 186.300 C 294.783 185.380,294.015 186.952,293.963 188.000 C 293.931 188.662,293.775 188.392,293.501 187.200 L 293.088 185.400 292.598 186.563 C 292.266 187.352,292.037 187.545,291.886 187.163 C 291.736 186.783,291.647 186.861,291.614 187.400 C 291.574 188.040,291.454 187.959,291.014 187.000 C 290.712 186.340,290.450 186.025,290.432 186.300 C 290.407 186.686,288.090 186.800,280.268 186.800 L 270.137 186.800 269.234 188.728 C 268.208 190.917,268.039 212.869,269.043 213.515 C 269.287 213.672,269.426 214.160,269.352 214.600 C 269.278 215.040,269.315 215.669,269.434 215.999 C 269.553 216.328,269.678 221.098,269.712 226.599 L 269.774 236.600 269.894 226.700 L 270.014 216.800 280.107 216.737 C 285.658 216.703,290.984 216.685,291.941 216.698 C 293.210 216.716,293.563 216.603,293.241 216.281 C 292.999 216.039,292.800 215.656,292.800 215.431 C 292.800 215.206,293.087 215.432,293.438 215.933 C 294.462 217.394,296.560 217.014,296.722 215.338 C 296.814 214.393,296.617 213.917,295.933 213.438 C 295.432 213.087,295.206 212.800,295.431 212.800 C 295.656 212.800,296.050 213.010,296.308 213.268 C 296.664 213.624,296.778 201.115,296.787 160.501 C 296.796 118.331,296.695 107.218,296.299 107.033 C 295.900 106.847,295.901 106.753,296.300 106.567 C 297.265 106.116,296.894 104.016,295.774 103.590 C 294.441 103.083,293.084 103.089,293.400 103.600 C 293.536 103.820,293.356 104.000,293.000 104.000 C 292.644 104.000,292.463 103.822,292.598 103.603 C 292.760 103.342,261.261 103.207,200.000 103.207 C 138.739 103.207,107.240 103.342,107.402 103.603 C 107.537 103.822,107.356 104.000,107.000 104.000 C 106.644 104.000,106.464 103.820,106.600 103.600 C 106.846 103.201,105.616 103.129,104.341 103.468 M130.072 242.069 C 130.142 242.546,130.470 243.010,130.800 243.099 C 131.258 243.223,131.279 243.175,130.886 242.898 C 130.604 242.699,130.488 242.235,130.629 241.868 C 130.779 241.477,130.690 241.200,130.415 241.200 C 130.156 241.200,130.002 241.591,130.072 242.069 M269.632 241.867 C 269.614 242.343,269.375 242.824,269.100 242.935 C 268.708 243.093,268.711 243.144,269.113 243.168 C 269.720 243.206,270.161 242.240,269.869 241.513 C 269.756 241.231,269.649 241.390,269.632 241.867 M159.800 242.231 C 159.544 242.339,159.443 246.110,159.519 252.735 C 159.611 260.829,159.525 263.165,159.119 263.502 C 158.696 263.853,158.600 261.964,158.600 253.300 C 158.600 244.203,158.513 242.638,158.000 242.468 C 157.504 242.304,157.488 242.376,157.907 242.884 C 158.294 243.353,158.387 245.865,158.300 253.450 L 158.185 263.400 158.093 253.300 C 158.012 244.459,157.922 243.200,157.376 243.200 C 157.033 243.200,156.836 243.065,156.939 242.900 C 157.041 242.735,152.416 242.690,146.662 242.800 L 136.200 242.999 146.500 243.106 L 156.800 243.214 156.800 253.430 C 156.800 260.140,156.937 263.562,157.200 263.400 C 157.420 263.264,157.600 263.343,157.600 263.576 C 157.600 263.809,157.447 264.000,157.261 264.000 C 156.734 264.000,156.789 266.541,157.324 266.922 C 157.689 267.182,157.683 267.308,157.300 267.464 C 157.025 267.575,156.800 267.842,156.800 268.057 C 156.800 268.272,157.025 268.312,157.300 268.147 C 157.657 267.933,157.647 268.036,157.266 268.506 C 156.527 269.417,157.027 270.026,158.426 269.919 C 159.237 269.857,159.600 269.616,159.600 269.139 C 159.600 268.758,159.754 268.352,159.942 268.236 C 160.130 268.119,160.200 268.514,160.096 269.112 C 159.913 270.171,159.925 270.179,160.555 269.400 C 161.156 268.657,161.183 268.654,160.935 269.359 C 160.699 270.034,160.799 270.082,161.835 269.790 C 162.476 269.609,168.490 269.352,175.200 269.219 C 181.910 269.086,186.680 268.913,185.800 268.834 C 184.522 268.720,184.401 268.649,185.200 268.484 L 186.200 268.278 185.200 268.004 C 184.650 267.853,184.245 267.520,184.300 267.265 C 184.355 267.009,184.175 266.797,183.900 266.794 C 183.547 266.790,183.567 266.682,183.966 266.430 C 184.687 265.973,184.628 243.757,183.904 242.884 C 183.350 242.217,161.311 242.231,160.491 242.899 C 160.107 243.211,160.044 243.152,160.234 242.657 C 160.495 241.976,160.468 241.951,159.800 242.231 M238.564 242.951 C 238.447 243.253,238.408 248.468,238.476 254.539 C 238.544 260.609,238.478 265.267,238.328 264.888 C 238.179 264.510,238.003 259.430,237.938 253.600 L 237.821 243.000 237.600 253.200 L 237.379 263.400 237.290 253.300 L 237.200 243.200 227.000 243.200 L 216.800 243.200 216.750 253.400 C 216.695 264.572,216.720 263.992,216.270 264.700 C 216.089 264.985,216.135 265.200,216.376 265.200 C 216.609 265.200,216.755 265.425,216.700 265.700 C 216.623 266.085,218.942 266.248,226.800 266.410 L 237.000 266.621 226.800 266.800 L 216.600 266.979 226.800 267.200 L 237.000 267.421 227.000 267.558 C 221.500 267.633,216.460 267.832,215.800 268.000 L 214.600 268.305 215.800 268.413 C 216.807 268.503,216.711 268.566,215.200 268.806 C 214.210 268.963,218.755 269.071,225.300 269.046 C 235.276 269.007,237.200 269.091,237.200 269.562 C 237.200 269.987,237.400 269.943,238.017 269.384 C 238.733 268.736,238.802 268.729,238.574 269.322 C 238.219 270.249,239.532 270.231,240.257 269.300 C 240.776 268.633,240.790 268.633,240.558 269.300 C 240.361 269.867,240.546 270.000,241.534 270.000 C 243.055 270.000,243.513 269.337,242.540 268.541 C 241.875 267.996,241.871 267.957,242.500 268.155 C 242.885 268.276,243.200 268.201,243.200 267.987 C 243.200 267.774,242.998 267.600,242.751 267.600 C 242.434 267.600,242.443 267.430,242.783 267.020 C 243.048 266.701,243.232 265.846,243.192 265.120 C 243.152 264.394,243.137 259.168,243.159 253.507 L 243.200 243.214 253.300 243.089 L 263.400 242.965 252.000 242.982 L 240.600 243.000 240.400 253.267 C 240.290 258.915,240.110 263.625,240.000 263.735 C 239.817 263.919,239.858 257.202,240.103 246.904 C 240.194 243.058,240.154 242.822,239.450 243.047 C 238.960 243.203,238.795 243.132,238.974 242.843 C 239.124 242.599,239.141 242.400,239.011 242.400 C 238.881 242.400,238.680 242.648,238.564 242.951 M241.994 263.600 C 242.665 263.600,241.973 264.714,241.172 264.923 C 240.597 265.074,240.400 264.918,240.400 264.314 C 240.400 263.709,240.528 263.608,240.900 263.918 C 241.298 264.248,241.397 262.196,241.384 253.867 L 241.368 243.400 241.491 253.500 C 241.564 259.539,241.767 263.600,241.994 263.600 M237.746 264.887 C 237.402 265.443,236.821 264.810,237.073 264.154 C 237.259 263.669,237.381 263.646,237.629 264.047 C 237.804 264.330,237.857 264.708,237.746 264.887 M239.817 265.572 C 239.691 265.777,239.770 266.058,239.993 266.196 C 240.639 266.595,240.468 267.089,239.607 267.314 C 238.932 267.490,238.875 267.408,239.221 266.761 C 239.445 266.342,239.521 266.000,239.390 266.000 C 239.260 266.000,239.264 265.820,239.400 265.600 C 239.536 265.380,239.737 265.200,239.847 265.200 C 239.957 265.200,239.944 265.368,239.817 265.572 M242.180 266.264 C 241.777 266.559,241.256 266.797,241.024 266.794 C 240.791 266.791,240.870 266.613,241.200 266.400 C 241.530 266.187,241.654 266.009,241.476 266.006 C 241.298 266.003,241.259 265.828,241.389 265.617 C 241.519 265.407,241.915 265.346,242.269 265.482 C 242.842 265.702,242.832 265.787,242.180 266.264 M77.426 266.758 C 77.304 266.955,77.474 267.219,77.802 267.346 C 78.131 267.472,78.400 267.851,78.400 268.187 C 78.400 268.524,78.570 268.800,78.778 268.800 C 79.508 268.800,79.318 291.657,78.579 292.711 L 77.939 293.622 66.970 293.587 C 57.501 293.557,56.000 293.471,56.000 292.953 C 56.000 292.623,55.820 292.464,55.599 292.600 C 54.665 293.178,54.400 290.267,54.400 279.420 L 54.400 268.092 55.376 267.453 C 56.195 266.916,58.040 266.795,66.876 266.700 C 72.664 266.637,77.456 266.544,77.524 266.493 C 77.592 266.442,77.548 266.561,77.426 266.758 M241.532 267.839 C 240.810 268.561,237.733 268.869,237.733 268.220 C 237.733 267.970,238.433 267.857,239.466 267.940 C 240.546 268.028,241.200 267.914,241.200 267.640 C 241.200 267.398,241.419 267.200,241.686 267.200 C 242.003 267.200,241.949 267.422,241.532 267.839 M345.843 268.190 C 346.580 269.200,346.649 292.199,345.916 292.652 C 345.633 292.827,345.592 292.737,345.800 292.400 C 346.004 292.070,345.967 291.973,345.699 292.139 C 345.466 292.283,345.377 292.791,345.502 293.268 C 345.680 293.950,345.590 294.082,345.077 293.885 C 344.719 293.747,344.319 293.807,344.189 294.017 C 343.894 294.495,323.617 294.525,322.866 294.049 C 322.572 293.863,322.302 293.552,322.266 293.358 C 322.230 293.164,321.999 293.052,321.754 293.108 C 320.945 293.294,320.991 269.866,321.802 269.055 C 322.159 268.698,322.320 268.194,322.160 267.935 C 321.963 267.617,322.085 267.547,322.534 267.719 C 322.900 267.860,323.200 267.790,323.200 267.564 C 323.200 266.676,345.181 267.284,345.843 268.190 M158.927 268.260 C 159.217 268.550,158.027 269.574,157.400 269.575 C 157.180 269.575,157.319 269.390,157.708 269.163 C 158.098 268.936,158.312 268.582,158.185 268.375 C 157.923 267.952,158.526 267.859,158.927 268.260 M181.500 269.900 C 191.675 269.959,208.325 269.959,218.500 269.900 C 228.675 269.840,220.350 269.792,200.000 269.792 C 179.650 269.792,171.325 269.840,181.500 269.900 M105.200 295.200 C 105.640 295.640,106.259 296.000,106.576 296.000 C 107.491 296.000,107.497 317.646,106.582 318.561 C 106.025 319.118,104.437 319.199,94.271 319.195 C 81.743 319.189,80.955 319.117,80.584 317.951 C 80.451 317.532,80.220 317.264,80.071 317.356 C 79.376 317.788,80.186 296.041,80.896 295.212 C 81.970 293.959,103.948 293.948,105.200 295.200 M307.029 295.600 C 316.431 295.600,317.204 295.547,317.246 294.900 C 317.287 294.292,317.318 294.300,317.487 294.958 C 317.643 295.567,317.750 295.606,318.034 295.158 C 318.330 294.691,318.390 294.698,318.400 295.200 C 318.411 295.733,318.455 295.733,318.800 295.200 C 319.145 294.667,319.189 294.667,319.200 295.200 C 319.211 295.733,319.256 295.733,319.607 295.200 C 319.915 294.732,319.980 294.820,319.901 295.600 C 319.839 296.213,319.989 296.563,320.287 296.504 C 320.658 296.431,320.801 298.939,320.887 307.005 C 320.949 312.832,320.857 317.600,320.683 317.600 C 320.509 317.600,319.969 317.986,319.483 318.459 C 318.997 318.931,318.853 319.173,319.162 318.997 C 319.535 318.784,319.629 318.829,319.442 319.131 C 318.880 320.042,295.252 319.559,294.568 318.624 C 293.087 316.598,293.939 295.600,295.501 295.600 C 295.729 295.600,296.052 295.285,296.219 294.900 C 296.509 294.233,296.532 294.233,296.691 294.900 C 296.845 295.544,297.673 295.600,307.029 295.600 M159.400 317.885 C 160.528 318.304,160.541 318.333,159.624 318.366 C 158.678 318.399,158.672 318.419,159.424 318.987 C 160.186 319.564,160.185 319.575,159.367 319.587 C 158.470 319.601,158.190 320.779,158.961 321.294 C 159.260 321.494,159.234 321.590,158.880 321.594 C 158.548 321.598,158.476 321.805,158.680 322.170 C 159.454 323.547,158.654 345.226,157.807 345.845 C 157.152 346.324,155.152 346.405,146.307 346.312 C 140.418 346.250,135.600 346.296,135.600 346.412 C 135.600 346.639,133.399 347.613,132.400 347.828 C 132.070 347.900,131.440 348.372,131.000 348.879 L 130.200 349.800 118.600 349.591 C 112.220 349.476,107.540 349.328,108.200 349.263 C 109.256 349.158,109.304 349.103,108.600 348.800 C 108.056 348.566,107.992 348.443,108.400 348.416 C 108.896 348.383,108.885 348.308,108.335 347.988 C 107.867 347.714,107.726 347.242,107.860 346.392 C 107.965 345.729,108.084 339.906,108.125 333.454 C 108.184 324.185,108.315 321.584,108.749 321.062 C 109.235 320.476,110.548 320.400,120.225 320.400 C 127.663 320.400,131.239 320.261,131.422 319.965 C 131.569 319.726,132.030 319.619,132.445 319.728 C 132.860 319.836,133.200 319.762,133.200 319.563 C 133.200 319.363,133.448 319.200,133.751 319.200 C 134.054 319.200,134.603 318.795,134.970 318.300 C 135.337 317.805,135.528 317.625,135.395 317.900 C 135.262 318.175,135.331 318.400,135.549 318.400 C 135.768 318.400,136.046 318.085,136.168 317.700 C 136.431 316.868,157.110 317.033,159.400 317.885 M265.044 318.800 C 265.296 318.800,265.724 319.068,265.996 319.396 C 266.268 319.723,266.624 319.909,266.786 319.808 C 266.949 319.708,267.424 319.884,267.841 320.200 C 268.458 320.667,270.712 320.777,279.900 320.787 C 294.505 320.804,292.882 319.107,292.765 334.231 C 292.715 340.708,292.780 346.113,292.909 346.243 C 293.213 346.546,292.784 347.714,292.229 348.094 C 291.956 348.281,292.018 348.400,292.400 348.422 C 292.804 348.445,292.739 348.568,292.200 348.800 C 291.455 349.120,291.469 349.152,292.400 349.263 C 292.950 349.328,288.090 349.476,281.600 349.591 C 270.376 349.790,269.785 349.764,269.497 349.058 C 269.311 348.601,268.958 348.407,268.577 348.554 C 268.173 348.708,268.058 348.630,268.245 348.327 C 268.434 348.021,268.313 347.948,267.886 348.112 C 267.475 348.269,267.161 348.107,267.021 347.665 C 266.899 347.283,266.485 346.935,266.100 346.891 C 265.715 346.848,265.040 346.733,264.600 346.637 C 264.160 346.540,259.199 346.447,253.576 346.431 C 245.421 346.406,243.196 346.285,242.576 345.833 C 241.687 345.183,240.957 323.200,241.797 322.362 C 242.059 322.101,241.991 321.839,241.597 321.589 C 241.240 321.364,241.191 321.210,241.475 321.206 C 242.340 321.195,241.887 319.601,241.015 319.587 C 240.212 319.575,240.212 319.566,240.976 318.987 C 241.745 318.406,241.745 318.400,240.976 318.398 C 240.367 318.396,240.444 318.268,241.333 317.804 C 242.231 317.336,244.637 317.191,252.933 317.107 L 263.400 317.000 263.993 317.900 C 264.319 318.395,264.792 318.800,265.044 318.800 " stroke="none" fill="#f4ecdc" fill-rule="evenodd"></path><path id="path1" d="M27.200 11.726 L 27.200 23.453 25.326 25.326 L 23.453 27.200 11.726 27.200 L 0.000 27.200 0.000 107.000 L 0.000 186.800 11.551 186.800 C 23.987 186.800,25.400 186.999,26.486 188.899 C 27.726 191.071,28.309 238.341,27.122 240.454 C 26.654 241.286,26.120 241.874,25.935 241.760 C 25.751 241.646,25.600 241.844,25.600 242.200 C 25.600 242.556,25.420 242.736,25.200 242.600 C 24.980 242.464,24.800 242.554,24.800 242.800 C 24.800 243.046,24.620 243.136,24.400 243.000 C 24.137 242.837,24.000 246.663,24.000 254.176 C 24.000 265.333,24.019 265.600,24.800 265.600 C 25.285 265.600,25.611 265.324,25.628 264.900 C 25.652 264.301,25.706 264.316,26.000 265.000 C 26.232 265.539,26.355 265.604,26.378 265.200 C 26.398 264.845,26.532 264.763,26.706 265.000 C 27.149 265.603,27.999 265.668,28.006 265.100 C 28.010 264.767,28.142 264.800,28.400 265.200 C 28.658 265.600,28.790 265.633,28.794 265.300 C 28.797 265.025,28.980 264.800,29.200 264.800 C 29.420 264.800,29.600 265.025,29.600 265.300 C 29.600 265.690,31.966 265.775,40.400 265.687 C 47.023 265.618,51.200 265.425,51.200 265.187 C 51.200 264.974,51.464 264.800,51.786 264.800 C 52.986 264.800,53.176 263.226,53.218 252.949 C 53.265 241.563,53.332 240.838,54.449 239.640 C 54.871 239.186,55.188 238.677,55.153 238.508 C 55.118 238.338,55.469 238.006,55.934 237.769 C 56.432 237.514,56.633 237.187,56.424 236.969 C 56.230 236.766,55.941 224.675,55.781 210.100 C 55.622 195.525,55.336 183.600,55.146 183.600 C 54.956 183.600,54.782 184.005,54.760 184.500 C 54.722 185.363,54.707 185.359,54.400 184.400 C 54.224 183.850,54.019 154.780,53.946 119.800 L 53.812 56.200 53.606 121.267 C 53.432 176.293,53.274 188.220,52.739 186.767 C 52.705 186.675,52.560 180.480,52.417 173.000 L 52.157 159.400 51.988 171.600 L 51.818 183.800 51.600 171.600 L 51.382 159.400 51.244 171.400 C 51.168 178.000,50.968 183.940,50.800 184.600 L 50.495 185.800 50.447 184.700 L 50.400 183.600 40.200 183.600 L 30.000 183.600 30.000 173.408 C 30.000 163.598,29.963 163.105,29.000 160.238 L 28.000 157.259 28.000 120.200 L 28.000 83.141 29.000 80.162 C 29.963 77.295,30.000 76.802,30.000 66.992 L 30.000 56.800 40.200 56.800 C 45.810 56.800,50.535 56.800,50.700 56.799 C 50.865 56.799,51.097 62.244,51.215 68.899 L 51.429 81.000 51.415 68.500 C 51.407 61.625,51.535 56.000,51.700 56.000 C 51.865 56.000,52.042 61.535,52.094 68.300 L 52.188 80.600 52.300 68.545 C 52.418 55.836,52.602 54.762,54.366 56.526 C 54.678 56.838,54.800 56.832,54.800 56.504 C 54.800 56.253,54.617 55.934,54.393 55.796 C 54.170 55.658,54.092 55.374,54.221 55.166 C 54.350 54.957,54.651 54.908,54.889 55.055 C 55.139 55.209,55.209 55.139,55.055 54.889 C 54.908 54.651,54.957 54.350,55.166 54.221 C 55.374 54.092,55.658 54.170,55.796 54.393 C 55.934 54.617,56.253 54.800,56.504 54.800 C 56.832 54.800,56.838 54.678,56.526 54.366 C 54.762 52.602,55.836 52.418,68.545 52.300 L 80.600 52.188 68.300 52.094 C 61.535 52.042,56.000 51.865,56.000 51.700 C 56.000 51.535,61.625 51.407,68.500 51.415 L 81.000 51.429 68.899 51.215 C 62.244 51.097,56.799 50.865,56.799 50.700 C 56.800 50.535,56.800 45.810,56.800 40.200 L 56.800 30.000 66.992 30.000 C 76.802 30.000,77.295 29.963,80.162 29.000 L 83.141 28.000 200.200 28.000 L 317.259 28.000 320.238 29.000 C 323.105 29.962,323.599 30.000,333.395 30.000 L 343.574 30.000 343.687 40.400 C 343.749 46.120,343.800 50.839,343.800 50.886 C 343.800 50.932,338.310 51.076,331.600 51.205 L 319.400 51.440 331.881 51.420 C 339.763 51.407,344.221 51.540,343.981 51.780 C 343.426 52.333,343.514 52.899,344.100 52.547 C 344.457 52.333,344.447 52.436,344.066 52.906 C 343.772 53.268,343.647 53.753,343.789 53.982 C 343.931 54.212,343.846 54.400,343.600 54.400 C 343.354 54.400,343.271 54.591,343.415 54.824 C 343.581 55.093,343.893 54.984,344.268 54.524 C 344.593 54.126,344.753 54.013,344.623 54.272 C 344.493 54.532,344.572 54.859,344.798 54.999 C 345.062 55.162,344.991 55.563,344.596 56.126 C 344.051 56.902,344.013 61.067,344.249 93.400 C 344.395 113.420,344.354 153.920,344.158 183.400 C 343.927 217.996,343.726 232.320,343.592 223.800 L 343.384 210.600 343.299 223.600 L 343.214 236.600 344.205 237.541 C 344.751 238.058,345.097 238.643,344.975 238.841 C 344.853 239.038,345.134 239.200,345.600 239.200 C 346.066 239.200,346.352 239.353,346.237 239.541 C 346.121 239.728,346.380 240.576,346.813 241.425 C 347.536 242.843,347.600 243.822,347.605 253.385 C 347.612 265.259,347.630 265.393,349.330 265.985 C 350.920 266.540,371.575 266.519,372.246 265.962 C 372.562 265.699,372.925 265.782,373.359 266.216 C 373.950 266.807,374.023 266.806,374.257 266.196 C 374.456 265.678,374.582 265.647,374.834 266.055 C 375.607 267.305,375.812 265.267,376.000 254.467 L 376.200 243.000 376.410 253.800 L 376.620 264.600 376.710 253.910 L 376.800 243.221 375.687 242.645 C 374.990 242.284,374.222 241.290,373.631 239.983 L 372.688 237.896 372.983 214.102 C 373.297 188.735,373.403 187.427,375.217 186.509 C 375.934 186.146,379.414 186.010,388.100 186.006 L 400.000 186.000 400.000 107.000 L 400.000 28.000 388.540 28.000 L 377.081 28.000 375.740 26.620 C 375.003 25.861,374.400 25.073,374.400 24.869 C 374.400 24.665,374.130 24.274,373.800 24.000 C 373.292 23.578,373.200 21.708,373.200 11.751 L 373.200 0.000 200.200 0.000 L 27.200 0.000 27.200 11.726 M325.525 52.299 C 328.893 52.366,334.293 52.366,337.525 52.299 C 340.756 52.232,338.000 52.177,331.400 52.177 C 324.800 52.177,322.156 52.232,325.525 52.299 M127.867 53.900 C 167.285 53.956,231.905 53.956,271.467 53.900 C 311.030 53.844,278.780 53.798,199.800 53.798 C 120.820 53.798,88.450 53.844,127.867 53.900 M346.400 70.000 L 346.584 56.600 346.800 70.000 C 346.919 77.370,347.070 83.040,347.136 82.600 L 347.256 81.800 347.600 82.600 C 347.851 83.184,347.970 82.752,348.039 81.000 L 348.134 78.600 348.400 81.000 C 348.811 84.712,348.890 83.547,349.179 69.600 C 349.327 62.422,349.462 85.978,349.479 122.200 C 349.505 176.212,349.420 187.411,349.000 185.600 C 348.526 183.556,348.483 183.499,348.392 184.800 L 348.295 186.200 348.047 184.884 C 347.661 182.827,347.023 183.182,346.765 185.600 L 346.530 187.800 346.395 185.600 L 346.259 183.400 346.000 186.200 L 345.741 189.000 345.671 186.300 C 345.632 184.814,345.420 183.600,345.200 183.600 C 344.935 183.600,344.800 166.600,344.800 133.400 C 344.800 100.200,344.935 83.200,345.200 83.200 C 345.457 83.200,345.633 78.439,345.692 69.900 L 345.784 56.600 346.000 70.000 L 346.216 83.400 346.400 70.000 M370.400 133.400 L 370.400 183.600 360.200 183.600 L 350.000 183.600 350.000 133.400 L 350.000 83.200 360.200 83.200 L 370.400 83.200 370.400 133.400 M132.800 104.400 C 131.841 104.707,131.837 104.722,132.700 104.760 C 133.195 104.782,133.600 104.980,133.600 105.200 C 133.600 105.420,134.275 105.626,135.100 105.657 L 136.600 105.714 135.000 105.982 C 133.433 106.244,133.424 106.254,134.600 106.465 L 135.800 106.680 134.700 106.740 C 133.615 106.799,133.049 107.993,134.100 108.006 C 134.466 108.011,134.454 108.105,134.055 108.358 C 133.646 108.617,133.796 108.807,134.655 109.120 C 135.764 109.524,135.743 109.539,134.000 109.615 C 133.010 109.658,132.515 109.775,132.900 109.876 C 133.543 110.044,133.600 110.874,133.600 120.114 L 133.600 130.170 131.917 131.885 L 130.233 133.600 120.146 133.600 C 110.875 133.600,110.044 133.543,109.876 132.900 C 109.775 132.515,109.658 133.010,109.615 134.000 C 109.539 135.743,109.524 135.764,109.120 134.655 C 108.807 133.796,108.617 133.646,108.358 134.055 C 108.105 134.454,108.011 134.466,108.006 134.100 C 107.994 133.104,106.849 133.625,106.687 134.700 L 106.520 135.800 106.403 134.600 C 106.295 133.484,106.266 133.513,106.000 135.000 L 105.714 136.600 105.657 135.100 C 105.626 134.275,105.420 133.600,105.200 133.600 C 104.980 133.600,104.782 133.195,104.760 132.700 C 104.722 131.837,104.707 131.841,104.400 132.800 C 104.032 133.949,103.877 185.614,104.239 186.557 C 104.582 187.452,105.483 186.474,105.708 184.961 C 105.872 183.852,105.885 183.862,105.987 185.200 L 106.095 186.600 106.400 185.400 L 106.705 184.200 106.759 185.400 C 106.800 186.330,106.899 186.465,107.200 186.000 C 107.545 185.467,107.589 185.467,107.600 186.000 C 107.611 186.533,107.655 186.533,108.000 186.000 C 108.345 185.467,108.392 185.467,108.426 186.000 C 108.448 186.330,108.712 186.060,109.014 185.400 L 109.564 184.200 109.614 185.800 C 109.641 186.680,109.754 187.175,109.865 186.900 C 110.019 186.518,112.468 186.400,120.201 186.400 L 130.335 186.400 131.267 187.900 C 132.375 189.681,132.774 212.743,131.703 213.099 C 131.346 213.218,131.319 213.475,131.607 214.013 C 131.917 214.592,131.821 214.935,131.184 215.529 C 130.081 216.556,129.731 236.608,130.800 237.501 C 131.319 237.934,131.303 237.968,130.684 237.752 C 130.072 237.538,129.983 237.713,130.067 238.962 C 130.142 240.080,130.310 240.373,130.783 240.210 C 131.169 240.077,131.109 240.223,130.624 240.599 C 130.186 240.937,130.067 241.200,130.351 241.200 C 130.661 241.200,130.763 241.488,130.615 241.953 C 130.298 242.951,131.444 243.398,131.977 242.483 C 132.350 241.843,132.376 241.844,132.388 242.500 C 132.395 242.885,132.580 243.200,132.800 243.200 C 133.020 243.200,133.200 243.014,133.200 242.786 C 133.200 242.509,133.474 242.519,134.026 242.814 C 134.651 243.148,135.009 243.127,135.502 242.728 C 135.861 242.437,136.046 242.380,135.914 242.600 C 135.688 242.978,139.576 243.000,152.863 242.697 C 155.208 242.644,157.042 242.735,156.939 242.900 C 156.837 243.065,157.033 243.200,157.376 243.200 C 157.922 243.200,158.012 244.459,158.093 253.300 L 158.185 263.400 158.300 253.450 C 158.387 245.865,158.294 243.353,157.907 242.884 C 157.488 242.376,157.504 242.304,158.000 242.468 C 158.513 242.638,158.600 244.203,158.600 253.300 C 158.600 261.964,158.696 263.853,159.119 263.502 C 159.525 263.165,159.611 260.829,159.519 252.740 C 159.422 244.311,159.500 242.370,159.945 242.199 C 160.319 242.056,160.410 242.197,160.235 242.652 C 160.044 243.151,160.107 243.212,160.491 242.899 C 161.311 242.231,183.350 242.217,183.904 242.884 C 184.628 243.757,184.687 265.973,183.966 266.430 C 183.567 266.682,183.547 266.790,183.900 266.794 C 184.175 266.797,184.355 267.009,184.300 267.265 C 184.245 267.520,184.650 267.862,185.200 268.025 L 186.200 268.320 185.200 268.417 C 184.461 268.488,184.618 268.588,185.800 268.800 C 186.680 268.958,182.000 269.115,175.400 269.149 C 168.800 269.184,163.192 269.344,162.938 269.506 C 162.684 269.668,179.289 269.800,199.838 269.800 C 224.479 269.800,237.200 269.664,237.200 269.400 C 237.200 269.141,232.998 269.016,225.300 269.046 C 218.755 269.071,214.210 268.963,215.200 268.806 C 216.711 268.566,216.807 268.503,215.800 268.413 L 214.600 268.305 215.800 268.000 C 216.460 267.832,221.500 267.633,227.000 267.558 L 237.000 267.421 226.800 267.200 L 216.600 266.979 226.800 266.800 L 237.000 266.621 226.800 266.410 C 218.942 266.248,216.623 266.085,216.700 265.700 C 216.755 265.425,216.598 265.200,216.351 265.200 C 216.059 265.200,216.094 264.968,216.451 264.539 C 216.753 264.175,216.955 263.815,216.900 263.739 C 216.845 263.662,216.800 259.010,216.800 253.400 L 216.800 243.200 227.000 243.200 L 237.200 243.200 237.290 253.300 L 237.379 263.400 237.600 253.200 L 237.821 243.000 237.938 253.600 C 238.003 259.430,238.179 264.510,238.328 264.888 C 238.478 265.267,238.544 260.516,238.476 254.332 C 238.384 245.934,238.475 242.975,238.835 242.644 C 239.197 242.311,239.240 242.335,239.009 242.743 C 238.781 243.143,238.897 243.223,239.450 243.047 C 240.154 242.822,240.194 243.058,240.103 246.904 C 239.858 257.202,239.817 263.919,240.000 263.735 C 240.110 263.625,240.290 258.915,240.400 253.267 L 240.600 243.000 253.126 242.938 C 264.597 242.882,265.726 242.815,266.526 242.149 C 267.007 241.749,267.175 241.677,266.900 241.991 C 266.090 242.913,266.316 243.204,267.700 243.024 C 268.415 242.930,269.114 242.842,269.253 242.827 C 269.721 242.777,269.889 240.830,269.442 240.646 C 269.166 240.532,269.193 240.451,269.514 240.432 C 269.903 240.408,269.924 240.206,269.600 239.600 C 269.310 239.058,269.305 238.800,269.586 238.800 C 269.814 238.800,270.000 238.519,270.000 238.176 C 270.000 237.833,269.820 237.664,269.600 237.800 C 269.380 237.936,269.200 237.857,269.200 237.624 C 269.200 237.391,269.335 237.200,269.500 237.200 C 269.828 237.200,269.754 216.889,269.423 215.968 C 269.310 215.656,269.278 215.040,269.352 214.600 C 269.426 214.160,269.287 213.672,269.043 213.515 C 268.039 212.869,268.208 190.917,269.234 188.728 L 270.137 186.800 280.268 186.800 C 288.090 186.800,290.407 186.686,290.432 186.300 C 290.450 186.025,290.712 186.340,291.014 187.000 C 291.454 187.959,291.574 188.040,291.614 187.400 C 291.647 186.861,291.736 186.783,291.886 187.163 C 292.037 187.545,292.266 187.352,292.598 186.563 L 293.088 185.400 293.501 187.200 C 293.775 188.392,293.931 188.662,293.963 188.000 C 294.015 186.952,294.783 185.380,294.794 186.300 C 294.797 186.575,294.980 186.800,295.200 186.800 C 295.463 186.800,295.600 177.661,295.600 160.182 C 295.600 135.245,295.557 133.572,294.913 133.682 C 294.427 133.766,294.158 133.448,293.995 132.600 C 293.775 131.459,293.747 131.489,293.440 133.200 L 293.117 135.000 292.615 133.600 C 292.198 132.438,292.077 132.336,291.903 133.000 L 291.693 133.800 291.628 133.000 C 291.576 132.352,291.460 132.428,291.014 133.400 C 290.712 134.060,290.450 134.375,290.432 134.100 C 290.407 133.714,288.099 133.600,280.315 133.600 L 270.230 133.600 268.515 131.917 L 266.800 130.233 266.800 120.146 C 266.800 110.875,266.857 110.044,267.500 109.876 C 267.885 109.775,267.390 109.664,266.400 109.628 L 264.600 109.564 265.800 109.014 C 266.460 108.712,266.730 108.448,266.400 108.426 C 265.917 108.395,265.904 108.322,266.334 108.049 C 267.222 107.486,267.020 107.014,265.777 106.747 L 264.600 106.495 265.800 106.391 C 266.904 106.295,266.872 106.264,265.400 106.000 L 263.800 105.714 265.300 105.657 C 266.125 105.626,266.800 105.420,266.800 105.200 C 266.800 104.980,267.115 104.787,267.500 104.772 C 268.099 104.748,268.084 104.694,267.400 104.400 C 266.390 103.966,134.155 103.966,132.800 104.400 M56.579 224.000 C 56.579 231.150,56.633 234.075,56.699 230.500 C 56.766 226.925,56.766 221.075,56.699 217.500 C 56.633 213.925,56.579 216.850,56.579 224.000 M23.375 253.600 C 23.375 259.430,23.431 261.815,23.499 258.900 C 23.567 255.985,23.567 251.215,23.499 248.300 C 23.431 245.385,23.375 247.770,23.375 253.600 M241.384 253.867 C 241.397 262.196,241.298 264.248,240.900 263.918 C 240.528 263.608,240.400 263.709,240.400 264.314 C 240.400 264.918,240.597 265.074,241.172 264.923 C 241.973 264.714,242.665 263.600,241.994 263.600 C 241.767 263.600,241.564 259.539,241.491 253.500 L 241.368 243.400 241.384 253.867 M301.276 263.499 C 304.068 263.567,308.748 263.568,311.676 263.499 C 314.604 263.431,312.320 263.375,306.600 263.374 C 300.880 263.374,298.484 263.430,301.276 263.499 M237.073 264.154 C 236.942 264.495,236.995 264.873,237.190 264.994 C 237.700 265.309,238.004 264.654,237.629 264.047 C 237.381 263.646,237.259 263.669,237.073 264.154 M239.400 265.600 C 239.264 265.820,239.260 266.000,239.390 266.000 C 239.521 266.000,239.445 266.342,239.221 266.761 C 238.875 267.408,238.932 267.490,239.607 267.314 C 240.468 267.089,240.639 266.595,239.993 266.196 C 239.770 266.058,239.691 265.777,239.817 265.572 C 239.944 265.368,239.957 265.200,239.847 265.200 C 239.737 265.200,239.536 265.380,239.400 265.600 M241.389 265.617 C 241.259 265.828,241.298 266.003,241.476 266.006 C 241.654 266.009,241.530 266.187,241.200 266.400 C 240.870 266.613,240.791 266.791,241.024 266.794 C 241.962 266.807,242.966 265.749,242.269 265.482 C 241.915 265.346,241.519 265.407,241.389 265.617 M66.876 266.700 C 58.040 266.795,56.195 266.916,55.376 267.453 L 54.400 268.092 54.400 279.420 C 54.400 290.267,54.665 293.178,55.599 292.600 C 55.820 292.464,56.000 292.623,56.000 292.953 C 56.000 293.471,57.501 293.557,66.970 293.587 L 77.939 293.622 78.579 292.711 C 79.318 291.657,79.508 268.800,78.778 268.800 C 78.570 268.800,78.400 268.524,78.400 268.187 C 78.400 267.851,78.131 267.472,77.802 267.346 C 77.474 267.219,77.304 266.955,77.426 266.758 C 77.548 266.561,77.592 266.442,77.524 266.493 C 77.456 266.544,72.664 266.637,66.876 266.700 M241.200 267.640 C 241.200 267.914,240.546 268.028,239.466 267.940 C 238.433 267.857,237.733 267.970,237.733 268.220 C 237.733 268.869,240.810 268.561,241.532 267.839 C 241.949 267.422,242.003 267.200,241.686 267.200 C 241.419 267.200,241.200 267.398,241.200 267.640 M323.200 267.564 C 323.200 267.790,322.900 267.860,322.534 267.719 C 322.085 267.547,321.963 267.617,322.160 267.935 C 322.320 268.194,322.159 268.698,321.802 269.055 C 320.991 269.866,320.945 293.294,321.754 293.108 C 321.999 293.052,322.230 293.164,322.266 293.358 C 322.302 293.552,322.572 293.863,322.866 294.049 C 323.617 294.525,343.894 294.495,344.189 294.017 C 344.319 293.807,344.719 293.747,345.077 293.885 C 345.590 294.082,345.680 293.950,345.502 293.268 C 345.377 292.791,345.466 292.283,345.699 292.139 C 345.967 291.973,346.004 292.070,345.800 292.400 C 345.592 292.737,345.633 292.827,345.916 292.652 C 346.649 292.199,346.580 269.200,345.843 268.190 C 345.181 267.284,323.200 266.676,323.200 267.564 M158.185 268.375 C 158.312 268.582,158.098 268.936,157.708 269.163 C 157.319 269.390,157.180 269.575,157.400 269.575 C 158.027 269.574,159.217 268.550,158.927 268.260 C 158.526 267.859,157.923 267.952,158.185 268.375 M80.896 295.212 C 80.186 296.041,79.376 317.788,80.071 317.356 C 80.220 317.264,80.451 317.532,80.584 317.951 C 80.955 319.117,81.743 319.189,94.271 319.195 C 104.437 319.199,106.025 319.118,106.582 318.561 C 107.497 317.646,107.491 296.000,106.576 296.000 C 106.259 296.000,105.640 295.640,105.200 295.200 C 103.948 293.948,81.970 293.959,80.896 295.212 M296.219 294.900 C 296.052 295.285,295.729 295.600,295.501 295.600 C 293.939 295.600,293.087 316.598,294.568 318.624 C 295.252 319.559,318.880 320.042,319.442 319.131 C 319.629 318.829,319.535 318.784,319.162 318.997 C 318.853 319.173,318.997 318.931,319.483 318.459 C 319.969 317.986,320.509 317.600,320.683 317.600 C 320.857 317.600,320.949 312.832,320.887 307.005 C 320.801 298.939,320.658 296.431,320.287 296.504 C 319.989 296.563,319.839 296.213,319.901 295.600 C 319.980 294.820,319.915 294.732,319.607 295.200 C 319.256 295.733,319.211 295.733,319.200 295.200 C 319.189 294.667,319.145 294.667,318.800 295.200 C 318.455 295.733,318.411 295.733,318.400 295.200 C 318.390 294.698,318.330 294.691,318.034 295.158 C 317.750 295.606,317.643 295.567,317.487 294.958 C 317.318 294.300,317.287 294.292,317.246 294.900 C 317.204 295.547,316.431 295.600,307.029 295.600 C 297.673 295.600,296.845 295.544,296.691 294.900 C 296.532 294.233,296.509 294.233,296.219 294.900 M136.168 317.700 C 136.046 318.085,135.768 318.400,135.549 318.400 C 135.331 318.400,135.262 318.175,135.395 317.900 C 135.528 317.625,135.337 317.805,134.970 318.300 C 134.603 318.795,134.054 319.200,133.751 319.200 C 133.448 319.200,133.200 319.363,133.200 319.563 C 133.200 319.762,132.860 319.836,132.445 319.728 C 132.030 319.619,131.569 319.726,131.422 319.965 C 131.239 320.261,127.663 320.400,120.225 320.400 C 110.548 320.400,109.235 320.476,108.749 321.062 C 108.315 321.584,108.184 324.185,108.125 333.454 C 108.084 339.906,107.965 345.729,107.860 346.392 C 107.726 347.242,107.867 347.714,108.335 347.988 C 108.885 348.308,108.896 348.383,108.400 348.416 C 107.992 348.443,108.056 348.566,108.600 348.800 C 109.304 349.103,109.256 349.158,108.200 349.263 C 107.540 349.328,112.220 349.476,118.600 349.591 L 130.200 349.800 131.000 348.879 C 131.440 348.372,132.070 347.900,132.400 347.828 C 133.399 347.613,135.600 346.639,135.600 346.412 C 135.600 346.296,140.418 346.250,146.307 346.312 C 155.152 346.405,157.152 346.324,157.807 345.845 C 158.654 345.226,159.454 323.547,158.680 322.170 C 158.476 321.805,158.548 321.598,158.880 321.594 C 159.234 321.590,159.260 321.494,158.961 321.294 C 158.190 320.779,158.470 319.601,159.367 319.587 C 160.185 319.575,160.186 319.564,159.424 318.987 C 158.672 318.419,158.678 318.399,159.624 318.366 C 160.541 318.333,160.528 318.304,159.400 317.885 C 157.110 317.033,136.431 316.868,136.168 317.700 M252.933 317.107 C 244.637 317.191,242.231 317.336,241.333 317.804 C 240.444 318.268,240.367 318.396,240.976 318.398 C 241.745 318.400,241.745 318.406,240.976 318.987 C 240.212 319.566,240.212 319.575,241.015 319.587 C 241.887 319.601,242.340 321.195,241.475 321.206 C 241.191 321.210,241.240 321.364,241.597 321.589 C 241.991 321.839,242.059 322.101,241.797 322.362 C 240.957 323.200,241.687 345.183,242.576 345.833 C 243.196 346.285,245.421 346.406,253.576 346.431 C 259.199 346.447,264.160 346.540,264.600 346.637 C 265.040 346.733,265.715 346.848,266.100 346.891 C 266.485 346.935,266.899 347.283,267.021 347.665 C 267.161 348.107,267.475 348.269,267.886 348.112 C 268.313 347.948,268.434 348.021,268.245 348.327 C 268.058 348.630,268.173 348.708,268.577 348.554 C 268.958 348.407,269.311 348.601,269.497 349.058 C 269.785 349.764,270.376 349.790,281.600 349.591 C 288.090 349.476,292.950 349.328,292.400 349.263 C 291.469 349.152,291.455 349.120,292.200 348.800 C 292.739 348.568,292.804 348.445,292.400 348.422 C 292.018 348.400,291.956 348.281,292.229 348.094 C 292.784 347.714,293.213 346.546,292.909 346.243 C 292.780 346.113,292.715 340.708,292.765 334.231 C 292.882 319.107,294.505 320.804,279.900 320.787 C 270.712 320.777,268.458 320.667,267.841 320.200 C 267.424 319.884,266.949 319.708,266.786 319.808 C 266.624 319.909,266.268 319.723,265.996 319.396 C 265.724 319.068,265.296 318.800,265.044 318.800 C 264.792 318.800,264.319 318.395,263.993 317.900 L 263.400 317.000 252.933 317.107 M200.000 343.600 L 210.200 343.821 199.968 343.910 L 189.735 344.000 189.210 344.981 C 188.737 345.865,186.953 346.888,185.728 346.976 C 185.469 346.995,185.109 347.172,184.928 347.369 C 184.737 347.579,184.850 347.592,185.200 347.400 C 185.542 347.213,185.662 347.223,185.479 347.424 C 185.068 347.874,185.624 347.852,173.082 347.932 L 162.364 348.000 161.370 348.994 L 160.376 349.988 160.400 360.294 C 160.414 365.962,160.406 370.690,160.382 370.800 C 160.098 372.116,160.149 372.482,160.644 372.672 C 161.130 372.859,161.115 372.974,160.551 373.386 C 160.098 373.717,160.024 373.967,160.322 374.152 C 160.566 374.302,160.673 374.665,160.561 374.958 C 160.231 375.818,162.179 375.994,173.150 376.090 L 183.400 376.180 172.600 376.400 L 161.800 376.620 172.411 376.710 C 181.907 376.791,183.126 376.727,184.008 376.109 C 184.551 375.729,185.248 375.381,185.557 375.336 C 185.867 375.290,186.257 375.031,186.426 374.759 C 186.980 373.861,210.607 372.938,210.969 373.800 C 211.061 374.020,211.151 373.971,211.168 373.691 C 211.194 373.283,211.379 373.286,212.100 373.707 C 213.120 374.302,213.943 374.339,214.762 373.828 C 215.134 373.595,215.233 373.623,215.055 373.911 C 214.655 374.558,215.631 374.993,216.045 374.351 C 216.321 373.923,216.455 374.001,216.647 374.700 L 216.893 375.600 226.567 375.600 C 236.349 375.600,238.389 375.337,238.397 374.076 C 238.399 373.788,238.561 373.652,238.758 373.774 C 238.955 373.896,239.219 373.726,239.346 373.398 C 239.472 373.069,239.380 372.800,239.141 372.800 C 238.886 372.800,238.969 372.402,239.344 371.830 C 239.820 371.102,239.857 370.810,239.490 370.661 C 239.110 370.508,239.113 370.456,239.500 370.432 C 240.443 370.372,240.194 350.329,239.236 349.144 L 238.471 348.200 227.436 348.200 C 221.366 348.200,216.400 348.044,216.400 347.853 C 216.400 347.663,216.040 347.601,215.600 347.716 C 215.160 347.831,214.800 347.798,214.800 347.642 C 214.800 347.487,213.990 346.966,213.000 346.485 C 212.010 346.004,211.200 345.338,211.200 345.005 C 211.200 344.672,211.020 344.400,210.800 344.400 C 210.580 344.400,210.400 344.130,210.400 343.800 C 210.400 343.280,209.029 343.212,200.100 343.290 L 189.800 343.379 200.000 343.600 " stroke="none" fill="#f4ecd4" fill-rule="evenodd"></path></g></svg>