<svg id="svg" version="1.1" xmlns="http://www.w3.org/2000/svg" xmlns:xlink="http://www.w3.org/1999/xlink" width="400" height="400" viewBox="0, 0, 400,400"><g id="svgg"><path id="path0" d="M0.000 14.000 L 0.000 28.000 55.300 28.003 C 118.647 28.006,179.913 28.329,184.600 28.685 C 191.256 29.190,213.798 29.175,214.822 28.664 C 215.866 28.144,216.187 26.727,215.541 25.500 C 215.302 25.047,215.318 24.800,215.586 24.800 C 215.862 24.800,216.000 20.681,216.000 12.400 L 216.000 0.000 108.000 0.000 L 0.000 0.000 0.000 14.000 M-0.000 93.156 L -0.000 109.219 53.500 109.200 C 82.925 109.189,107.231 109.185,107.512 109.190 C 107.919 109.198,108.002 111.467,107.912 120.181 C 107.851 126.220,107.941 131.020,108.113 130.848 C 108.285 130.675,108.375 125.689,108.313 119.767 L 108.200 109.000 121.014 109.080 C 136.040 109.173,137.311 108.860,135.541 105.500 C 135.296 105.036,135.319 104.800,135.609 104.800 C 135.917 104.800,136.024 101.085,135.971 92.200 C 135.913 82.309,135.788 79.600,135.389 79.600 C 135.071 79.600,134.911 79.147,134.963 78.397 C 135.016 77.627,134.908 77.332,134.662 77.578 C 134.416 77.824,133.975 77.802,133.439 77.516 C 132.659 77.101,132.643 77.121,133.200 77.800 C 133.758 78.480,133.741 78.499,132.953 78.080 C 132.487 77.831,131.992 77.742,131.853 77.881 C 131.714 78.020,131.600 77.968,131.600 77.767 C 131.600 77.547,105.300 77.339,65.800 77.246 L 0.000 77.093 -0.000 93.156 M185.258 77.757 C 185.862 78.428,185.864 78.550,185.277 79.236 C 184.881 79.697,184.539 79.824,184.380 79.568 C 184.239 79.339,184.107 79.722,184.087 80.419 C 184.052 81.649,184.073 81.664,184.774 80.943 C 185.172 80.534,185.433 80.085,185.353 79.945 C 185.021 79.359,186.421 78.661,186.917 79.166 C 187.295 79.551,187.270 79.629,186.800 79.529 C 186.392 79.441,186.202 79.719,186.205 80.400 C 186.207 80.950,186.417 81.400,186.671 81.400 C 186.925 81.400,187.193 81.490,187.267 81.600 C 187.340 81.710,187.328 81.758,187.240 81.706 C 187.151 81.655,186.836 81.925,186.539 82.306 C 186.103 82.865,186.041 82.876,186.217 82.364 C 186.338 82.014,186.125 81.474,185.743 81.164 C 185.128 80.663,185.080 80.681,185.321 81.321 C 185.483 81.754,185.433 81.944,185.195 81.797 C 184.978 81.663,184.800 81.743,184.800 81.976 C 184.800 82.209,185.010 82.400,185.267 82.400 C 185.523 82.400,185.618 82.516,185.476 82.657 C 185.335 82.798,184.990 82.724,184.710 82.491 C 184.299 82.150,184.200 84.214,184.200 93.134 L 184.200 104.200 173.134 104.200 C 164.214 104.200,162.150 104.299,162.491 104.710 C 162.724 104.990,162.798 105.335,162.657 105.476 C 162.516 105.618,162.400 105.523,162.400 105.267 C 162.400 105.010,162.209 104.800,161.976 104.800 C 161.743 104.800,161.663 104.978,161.797 105.195 C 161.944 105.433,161.754 105.483,161.321 105.321 C 160.681 105.080,160.663 105.128,161.164 105.743 C 161.474 106.125,162.014 106.338,162.364 106.217 C 162.876 106.041,162.865 106.103,162.306 106.539 C 161.925 106.836,161.700 107.196,161.806 107.340 C 161.913 107.483,161.865 107.495,161.700 107.367 C 161.535 107.238,161.400 106.925,161.400 106.671 C 161.400 106.417,160.950 106.207,160.400 106.205 C 159.719 106.202,159.441 106.392,159.529 106.800 C 159.629 107.270,159.551 107.295,159.166 106.917 C 158.661 106.421,159.359 105.021,159.945 105.353 C 160.085 105.433,160.534 105.172,160.943 104.774 C 161.664 104.073,161.649 104.052,160.419 104.087 C 159.722 104.107,159.339 104.239,159.568 104.380 C 159.824 104.539,159.697 104.881,159.236 105.277 C 158.550 105.864,158.428 105.862,157.757 105.258 C 157.050 104.621,157.050 104.628,157.753 105.475 C 158.477 106.347,158.314 107.441,157.532 106.958 C 157.281 106.803,157.297 107.035,157.574 107.552 C 158.110 108.553,158.484 108.685,158.124 107.745 C 157.957 107.310,158.049 107.150,158.401 107.267 C 159.012 107.471,159.316 108.800,158.752 108.800 C 158.523 108.800,158.420 113.167,158.488 119.962 C 158.550 126.101,158.474 131.046,158.320 130.951 C 158.166 130.856,157.845 131.143,157.606 131.589 C 157.185 132.376,156.859 132.397,146.486 132.310 L 135.800 132.220 146.600 132.000 L 157.400 131.780 146.600 131.600 L 135.800 131.420 146.600 131.200 L 157.400 130.980 146.687 130.890 C 137.685 130.814,135.940 130.892,135.754 131.375 C 135.633 131.691,135.292 131.857,134.996 131.743 C 134.605 131.593,134.522 131.791,134.691 132.468 L 134.924 133.400 134.162 132.532 L 133.400 131.664 132.505 132.613 L 131.610 133.561 132.505 134.226 L 133.400 134.891 132.468 134.675 C 131.796 134.519,131.594 134.608,131.743 134.996 C 131.857 135.292,131.691 135.633,131.375 135.754 C 130.892 135.940,130.814 137.685,130.890 146.687 L 130.980 157.400 131.200 146.600 L 131.420 135.800 131.600 146.600 L 131.780 157.400 132.000 146.600 L 132.220 135.800 132.310 146.486 C 132.397 156.859,132.376 157.185,131.589 157.606 C 131.143 157.845,130.856 158.166,130.951 158.320 C 131.046 158.474,126.101 158.550,119.962 158.488 C 113.167 158.420,108.800 158.523,108.800 158.752 C 108.800 159.316,107.471 159.012,107.267 158.401 C 107.150 158.049,107.310 157.957,107.745 158.124 C 108.685 158.484,108.553 158.110,107.552 157.574 C 107.035 157.297,106.803 157.281,106.958 157.532 C 107.441 158.314,106.347 158.477,105.475 157.753 C 104.628 157.050,104.621 157.050,105.258 157.757 C 105.862 158.428,105.864 158.550,105.277 159.236 C 104.881 159.697,104.539 159.824,104.380 159.568 C 104.239 159.339,104.107 159.722,104.087 160.419 C 104.052 161.649,104.073 161.664,104.774 160.943 C 105.172 160.534,105.433 160.085,105.353 159.945 C 105.021 159.359,106.421 158.661,106.917 159.166 C 107.295 159.551,107.270 159.629,106.800 159.529 C 106.392 159.441,106.202 159.719,106.205 160.400 C 106.207 160.950,106.417 161.400,106.671 161.400 C 106.925 161.400,107.238 161.535,107.367 161.700 C 107.495 161.865,107.483 161.913,107.340 161.806 C 107.196 161.700,106.836 161.925,106.539 162.306 C 106.103 162.865,106.041 162.876,106.217 162.364 C 106.338 162.014,106.125 161.474,105.743 161.164 C 105.128 160.663,105.080 160.681,105.321 161.321 C 105.483 161.754,105.433 161.944,105.195 161.797 C 104.978 161.663,104.800 161.743,104.800 161.976 C 104.800 162.209,105.010 162.400,105.267 162.400 C 105.523 162.400,105.618 162.516,105.476 162.657 C 105.335 162.798,104.990 162.724,104.710 162.491 C 104.299 162.150,104.200 164.214,104.200 173.134 L 104.200 184.200 93.134 184.200 C 84.214 184.200,82.150 184.299,82.491 184.710 C 82.724 184.990,82.798 185.335,82.657 185.476 C 82.516 185.618,82.400 185.523,82.400 185.267 C 82.400 185.010,82.209 184.800,81.976 184.800 C 81.743 184.800,81.663 184.978,81.797 185.195 C 81.944 185.433,81.754 185.483,81.321 185.321 C 80.681 185.080,80.663 185.128,81.164 185.743 C 81.474 186.125,82.014 186.338,82.364 186.217 C 82.876 186.041,82.865 186.103,82.306 186.539 C 81.925 186.836,81.700 187.196,81.806 187.340 C 81.913 187.483,81.865 187.495,81.700 187.367 C 81.535 187.238,81.400 186.925,81.400 186.671 C 81.400 186.417,80.950 186.207,80.400 186.205 C 79.719 186.202,79.441 186.392,79.529 186.800 C 79.629 187.270,79.551 187.295,79.166 186.917 C 78.661 186.421,79.359 185.021,79.945 185.353 C 80.085 185.433,80.534 185.172,80.943 184.774 C 81.664 184.073,81.649 184.052,80.419 184.087 C 79.722 184.107,79.339 184.239,79.568 184.380 C 79.824 184.539,79.697 184.881,79.236 185.277 C 78.550 185.864,78.428 185.862,77.757 185.258 C 77.050 184.621,77.050 184.628,77.753 185.475 C 78.477 186.347,78.314 187.441,77.532 186.958 C 77.281 186.803,77.297 187.035,77.574 187.552 C 78.110 188.553,78.484 188.685,78.124 187.745 C 77.957 187.310,78.049 187.150,78.401 187.267 C 79.012 187.471,79.316 188.800,78.752 188.800 C 78.523 188.800,78.420 193.167,78.488 199.962 C 78.550 206.101,78.474 211.046,78.320 210.951 C 78.166 210.856,77.845 211.143,77.606 211.589 C 77.185 212.376,76.860 212.397,66.486 212.307 L 55.800 212.214 66.500 212.100 C 75.641 212.003,77.200 211.900,77.200 211.393 C 77.200 210.884,75.732 210.800,66.846 210.800 C 55.816 210.800,54.431 211.006,54.740 212.600 C 54.887 213.363,54.860 213.360,54.147 212.532 L 53.400 211.664 52.505 212.613 L 51.610 213.561 52.505 214.213 C 53.333 214.815,53.340 214.853,52.600 214.724 C 51.005 214.446,50.800 215.826,50.800 226.846 C 50.800 235.732,50.884 237.200,51.393 237.200 C 51.900 237.200,52.003 235.641,52.100 226.500 L 52.214 215.800 52.307 226.486 C 52.397 236.860,52.376 237.185,51.589 237.606 C 51.143 237.845,50.856 238.166,50.951 238.320 C 51.046 238.474,46.101 238.550,39.962 238.488 C 33.167 238.420,28.800 238.523,28.800 238.752 C 28.800 239.316,27.471 239.012,27.267 238.401 C 27.150 238.049,27.310 237.957,27.745 238.124 C 28.685 238.484,28.553 238.110,27.552 237.574 C 27.035 237.297,26.803 237.281,26.958 237.532 C 27.441 238.314,26.347 238.477,25.475 237.753 C 24.628 237.050,24.621 237.050,25.258 237.757 C 25.862 238.428,25.864 238.550,25.277 239.236 C 24.881 239.697,24.539 239.824,24.380 239.568 C 24.239 239.339,24.107 239.722,24.087 240.419 C 24.052 241.649,24.073 241.664,24.774 240.943 C 25.172 240.534,25.433 240.085,25.353 239.945 C 25.021 239.359,26.421 238.661,26.917 239.166 C 27.295 239.551,27.270 239.629,26.800 239.529 C 26.392 239.441,26.202 239.719,26.205 240.400 C 26.207 240.950,26.417 241.400,26.671 241.400 C 26.925 241.400,27.238 241.535,27.367 241.700 C 27.495 241.865,27.483 241.913,27.340 241.806 C 27.196 241.700,26.836 241.925,26.539 242.306 C 26.103 242.865,26.041 242.876,26.217 242.364 C 26.338 242.014,26.125 241.474,25.743 241.164 C 25.128 240.663,25.080 240.681,25.321 241.321 C 25.483 241.754,25.433 241.944,25.195 241.797 C 24.978 241.663,24.800 241.743,24.800 241.976 C 24.800 242.209,25.010 242.400,25.267 242.400 C 25.523 242.400,25.618 242.516,25.476 242.657 C 25.335 242.798,24.990 242.724,24.710 242.491 C 24.299 242.150,24.200 244.214,24.200 253.134 L 24.200 264.200 12.100 264.306 L 0.000 264.412 0.000 306.806 L 0.000 349.200 13.600 349.200 C 21.464 349.200,27.200 349.047,27.200 348.837 C 27.200 348.638,27.605 348.579,28.100 348.707 C 28.884 348.909,28.933 348.857,28.479 348.303 C 28.039 347.767,28.071 347.637,28.679 347.480 C 29.372 347.300,29.372 347.291,28.676 347.246 C 28.278 347.221,28.064 347.020,28.200 346.800 C 28.336 346.580,28.212 346.397,27.924 346.394 C 27.544 346.389,27.565 346.283,28.000 346.007 C 28.759 345.526,28.700 346.516,28.754 333.277 L 28.800 321.954 42.200 322.077 C 54.941 322.194,55.601 322.164,55.600 321.471 C 55.600 320.807,55.544 320.799,54.968 321.375 C 54.344 321.999,53.600 321.897,53.600 321.189 C 53.600 320.989,53.900 320.940,54.266 321.081 C 54.683 321.241,54.833 321.177,54.668 320.910 C 54.523 320.676,54.674 320.381,55.002 320.254 C 55.331 320.128,55.600 319.739,55.600 319.389 C 55.600 319.039,55.420 318.864,55.200 319.000 C 54.980 319.136,54.800 319.057,54.800 318.824 C 54.800 318.591,54.935 318.400,55.100 318.400 C 55.265 318.400,55.400 313.225,55.400 306.900 L 55.400 295.400 66.900 295.400 C 73.225 295.400,78.400 295.265,78.400 295.100 C 78.400 294.935,78.591 294.800,78.824 294.800 C 79.057 294.800,79.136 294.980,79.000 295.200 C 78.864 295.420,79.039 295.600,79.389 295.600 C 79.739 295.600,80.128 295.331,80.254 295.002 C 80.381 294.674,80.676 294.523,80.910 294.668 C 81.177 294.833,81.241 294.683,81.081 294.266 C 80.940 293.900,80.989 293.600,81.189 293.600 C 81.897 293.600,81.999 294.344,81.375 294.968 C 80.799 295.544,80.807 295.600,81.471 295.600 C 82.164 295.601,82.194 294.941,82.077 282.200 L 81.954 268.800 93.153 268.800 C 101.038 268.800,104.435 268.666,104.632 268.349 C 104.821 268.043,105.034 268.118,105.294 268.582 C 105.645 269.210,105.728 269.195,106.281 268.405 L 106.885 267.543 107.479 268.391 C 107.969 269.090,108.178 269.151,108.677 268.736 C 109.209 268.294,109.180 268.151,108.432 267.546 L 107.583 266.858 108.425 266.268 C 109.199 265.725,109.212 265.646,108.582 265.294 C 108.118 265.034,108.043 264.821,108.349 264.632 C 108.666 264.435,108.800 261.038,108.800 253.153 L 108.800 241.954 122.200 242.077 C 134.941 242.194,135.601 242.164,135.600 241.471 C 135.600 240.807,135.544 240.799,134.968 241.375 C 134.344 241.999,133.600 241.897,133.600 241.189 C 133.600 240.989,133.900 240.940,134.266 241.081 C 134.683 241.241,134.833 241.177,134.668 240.910 C 134.523 240.676,134.674 240.381,135.002 240.254 C 135.331 240.128,135.600 239.739,135.600 239.389 C 135.600 239.039,135.420 238.864,135.200 239.000 C 134.980 239.136,134.800 239.057,134.800 238.824 C 134.800 238.591,134.935 238.400,135.100 238.400 C 135.265 238.400,135.400 233.225,135.400 226.900 L 135.400 215.400 146.900 215.400 C 153.225 215.400,158.400 215.265,158.400 215.100 C 158.400 214.935,158.591 214.800,158.824 214.800 C 159.057 214.800,159.136 214.980,159.000 215.200 C 158.864 215.420,159.039 215.600,159.389 215.600 C 159.739 215.600,160.128 215.331,160.254 215.002 C 160.381 214.674,160.676 214.523,160.910 214.668 C 161.177 214.833,161.241 214.683,161.081 214.266 C 160.940 213.900,160.989 213.600,161.189 213.600 C 161.897 213.600,161.999 214.344,161.375 214.968 C 160.799 215.544,160.807 215.600,161.471 215.600 C 162.164 215.601,162.194 214.941,162.077 202.200 L 161.954 188.800 173.153 188.800 C 181.038 188.800,184.435 188.666,184.632 188.349 C 184.821 188.043,185.034 188.118,185.294 188.582 C 185.645 189.210,185.728 189.195,186.281 188.405 L 186.885 187.543 187.479 188.391 C 187.969 189.090,188.178 189.151,188.677 188.736 C 189.209 188.294,189.180 188.151,188.432 187.546 L 187.583 186.858 188.425 186.268 C 189.199 185.725,189.212 185.646,188.582 185.294 C 188.118 185.034,188.043 184.821,188.349 184.632 C 188.666 184.435,188.800 181.038,188.800 173.153 L 188.800 161.954 202.200 162.077 C 214.941 162.194,215.601 162.164,215.600 161.471 C 215.600 160.807,215.544 160.799,214.968 161.375 C 214.344 161.999,213.600 161.897,213.600 161.189 C 213.600 160.989,213.900 160.940,214.266 161.081 C 214.683 161.241,214.833 161.177,214.668 160.910 C 214.523 160.676,214.674 160.381,215.002 160.254 C 215.331 160.128,215.600 159.739,215.600 159.389 C 215.600 159.039,215.420 158.864,215.200 159.000 C 214.980 159.136,214.800 159.057,214.800 158.824 C 214.800 158.591,214.935 158.400,215.100 158.400 C 215.265 158.400,215.400 153.225,215.400 146.900 L 215.400 135.400 226.900 135.400 C 233.225 135.400,238.400 135.265,238.400 135.100 C 238.400 134.935,238.591 134.800,238.824 134.800 C 239.057 134.800,239.136 134.980,239.000 135.200 C 238.864 135.420,239.039 135.600,239.389 135.600 C 239.739 135.600,240.128 135.331,240.254 135.002 C 240.381 134.674,240.676 134.523,240.910 134.668 C 241.177 134.833,241.241 134.683,241.081 134.266 C 240.940 133.900,240.989 133.600,241.189 133.600 C 241.897 133.600,241.999 134.344,241.375 134.968 C 240.799 135.544,240.807 135.600,241.471 135.600 C 242.164 135.601,242.194 134.945,242.076 122.318 C 241.983 112.288,242.074 108.808,242.450 108.106 L 242.948 107.175 253.674 107.288 C 259.574 107.349,264.400 107.286,264.400 107.147 C 264.400 107.007,264.737 106.805,265.149 106.697 C 265.747 106.541,265.857 106.674,265.695 107.351 C 265.528 108.046,265.588 108.109,266.026 107.700 C 266.829 106.948,267.377 107.099,266.749 107.900 C 266.263 108.519,266.273 108.543,266.837 108.103 C 267.187 107.830,267.603 107.736,267.761 107.894 C 267.919 108.053,267.962 107.705,267.856 107.121 C 267.732 106.437,267.864 105.984,268.227 105.845 C 268.853 105.605,268.831 106.430,268.200 106.894 C 267.972 107.061,268.093 107.190,268.479 107.194 C 269.103 107.200,269.161 106.177,269.189 94.600 L 269.219 82.000 268.309 81.972 C 267.809 81.957,261.962 81.968,255.315 81.996 L 243.230 82.049 240.947 80.324 L 238.664 78.600 226.698 78.400 C 220.116 78.290,214.650 78.282,214.551 78.382 C 214.122 78.813,212.158 78.549,211.713 78.000 C 211.280 77.467,211.224 77.467,211.213 78.000 C 211.202 78.521,209.735 78.585,200.000 78.488 C 193.181 78.420,188.800 78.523,188.800 78.752 C 188.800 79.316,187.471 79.012,187.267 78.401 C 187.150 78.049,187.310 77.957,187.745 78.124 C 188.685 78.484,188.553 78.110,187.552 77.574 C 187.035 77.297,186.803 77.281,186.958 77.532 C 187.441 78.314,186.347 78.477,185.475 77.753 C 184.628 77.050,184.621 77.050,185.258 77.757 M188.937 77.694 C 189.191 77.856,194.260 77.954,200.200 77.913 C 211.669 77.834,210.328 77.676,196.737 77.504 C 192.192 77.447,188.682 77.532,188.937 77.694 M205.500 80.699 C 202.475 80.767,197.525 80.767,194.500 80.699 C 191.475 80.631,193.950 80.575,200.000 80.575 C 206.050 80.575,208.525 80.631,205.500 80.699 M157.504 116.737 C 157.676 130.328,157.834 131.669,157.913 120.200 C 157.954 114.260,157.856 109.191,157.694 108.937 C 157.532 108.682,157.447 112.192,157.504 116.737 M160.699 125.500 C 160.631 128.525,160.575 126.050,160.575 120.000 C 160.575 113.950,160.631 111.475,160.699 114.500 C 160.767 117.525,160.767 122.475,160.699 125.500 M373.305 131.077 C 373.693 131.178,373.890 131.455,373.743 131.692 C 373.585 131.949,373.664 132.008,373.938 131.838 C 374.707 131.363,374.457 130.797,373.500 130.846 C 372.815 130.882,372.768 130.937,373.305 131.077 M374.800 131.367 C 374.800 131.715,375.085 132.000,375.433 132.000 C 376.140 132.000,376.017 131.139,375.275 130.892 C 375.014 130.805,374.800 131.018,374.800 131.367 M371.439 131.537 C 371.054 132.160,371.785 132.728,372.282 132.192 C 372.661 131.784,372.642 131.625,372.195 131.453 C 371.882 131.333,371.542 131.371,371.439 131.537 M134.000 133.013 C 134.000 133.657,132.935 134.269,132.526 133.859 C 132.241 133.574,133.145 132.400,133.649 132.400 C 133.842 132.400,134.000 132.676,134.000 133.013 M157.400 133.200 C 157.243 133.454,153.261 133.567,146.476 133.510 L 135.800 133.420 146.600 133.200 C 152.540 133.079,157.456 132.940,157.524 132.890 C 157.592 132.841,157.536 132.980,157.400 133.200 M370.846 133.500 C 370.797 134.457,371.363 134.707,371.838 133.938 C 372.008 133.664,371.949 133.585,371.692 133.743 C 371.455 133.890,371.178 133.693,371.077 133.305 C 370.937 132.768,370.882 132.815,370.846 133.500 M370.892 135.275 C 371.139 136.017,372.000 136.140,372.000 135.433 C 372.000 135.085,371.715 134.800,371.367 134.800 C 371.018 134.800,370.805 135.014,370.892 135.275 M133.307 157.254 C 133.138 157.423,133.090 152.665,133.200 146.681 L 133.399 135.800 133.506 146.373 C 133.565 152.188,133.476 157.085,133.307 157.254 M-0.000 173.171 L -0.000 189.220 26.916 189.189 C 47.320 189.165,54.070 189.039,54.816 188.667 L 55.800 188.176 55.800 173.788 C 55.800 164.026,55.666 159.423,55.383 159.472 C 55.154 159.512,54.941 159.207,54.910 158.795 C 54.869 158.253,55.036 158.116,55.513 158.299 C 56.098 158.523,56.107 158.479,55.587 157.910 C 55.250 157.541,54.846 157.415,54.639 157.615 C 54.434 157.812,53.958 157.792,53.539 157.567 C 53.030 157.295,52.800 157.308,52.800 157.610 C 52.800 157.850,52.659 157.960,52.488 157.854 C 52.316 157.748,40.436 157.540,26.088 157.391 L 0.000 157.121 -0.000 173.171 M108.937 157.694 C 109.191 157.856,114.260 157.954,120.200 157.913 C 131.669 157.834,130.328 157.676,116.737 157.504 C 112.192 157.447,108.682 157.532,108.937 157.694 M265.200 157.500 C 265.200 157.665,260.223 157.747,254.139 157.682 C 248.055 157.616,242.933 157.706,242.758 157.882 C 242.582 158.057,247.230 158.149,253.086 158.087 C 258.943 158.025,263.875 158.115,264.048 158.287 C 264.220 158.459,259.510 158.549,253.581 158.487 C 245.249 158.400,242.800 158.487,242.800 158.867 C 242.800 159.251,242.693 159.253,242.320 158.880 C 242.056 158.616,241.561 158.414,241.220 158.432 C 240.758 158.455,240.736 158.518,241.136 158.677 C 241.508 158.825,241.388 159.032,240.744 159.353 C 240.233 159.608,239.608 160.233,239.353 160.744 C 239.032 161.388,238.825 161.508,238.677 161.136 C 238.518 160.736,238.455 160.758,238.432 161.220 C 238.414 161.561,238.616 162.056,238.880 162.320 C 239.246 162.686,239.248 162.800,238.886 162.800 C 238.536 162.800,238.382 165.592,238.294 173.500 L 238.175 184.200 238.187 173.319 C 238.194 167.335,238.068 162.571,237.907 162.733 C 237.746 162.894,237.566 167.790,237.507 173.613 L 237.400 184.200 226.218 184.282 C 217.447 184.346,214.898 184.481,214.398 184.909 C 214.048 185.208,213.578 185.393,213.353 185.318 C 213.129 185.243,212.705 185.630,212.412 186.177 C 212.119 186.725,211.698 187.061,211.477 186.924 C 211.231 186.772,211.162 187.012,211.300 187.537 C 211.424 188.012,211.362 188.400,211.163 188.400 C 210.954 188.400,210.800 193.171,210.800 199.600 L 210.800 210.800 199.600 210.800 C 193.171 210.800,188.400 210.954,188.400 211.163 C 188.400 211.362,188.012 211.424,187.537 211.300 C 186.975 211.153,186.768 211.225,186.943 211.508 C 187.091 211.748,186.848 212.058,186.399 212.200 C 184.648 212.756,184.369 214.625,184.282 226.392 L 184.200 237.400 173.000 237.499 C 161.933 237.597,161.791 237.609,161.034 238.499 C 160.486 239.143,160.340 239.200,160.521 238.700 C 160.692 238.228,160.576 238.000,160.164 238.000 C 159.828 238.000,159.625 238.135,159.713 238.300 C 159.923 238.693,158.537 240.004,158.233 239.700 C 158.105 239.572,158.000 239.761,158.000 240.121 C 158.000 240.574,158.215 240.697,158.700 240.521 C 159.229 240.329,159.187 240.455,158.529 241.034 L 157.658 241.800 157.602 306.600 C 157.571 342.240,157.616 371.985,157.703 372.700 C 157.789 373.415,157.892 379.850,157.930 387.000 L 158.000 400.000 199.800 400.000 L 241.600 400.000 241.600 388.068 L 241.600 376.135 242.500 375.654 C 243.269 375.243,257.746 375.200,265.900 375.585 L 267.200 375.647 267.291 387.923 L 267.383 400.200 267.600 387.800 L 267.817 375.400 267.909 387.700 C 267.988 398.326,268.082 400.000,268.600 400.000 C 269.120 400.000,269.200 398.400,269.200 388.000 L 269.200 376.000 280.400 376.000 C 293.622 376.000,292.023 376.092,292.993 375.271 C 293.703 374.671,293.733 374.669,293.278 375.259 C 292.836 375.832,292.902 375.910,293.785 375.859 C 294.343 375.826,294.800 375.575,294.800 375.300 C 294.800 375.025,295.025 374.800,295.300 374.800 C 295.575 374.800,295.826 374.343,295.859 373.785 C 295.910 372.902,295.832 372.836,295.259 373.278 C 294.669 373.733,294.671 373.703,295.271 372.993 C 296.092 372.023,296.000 373.622,296.000 360.400 L 296.000 349.200 309.010 349.200 L 322.020 349.200 322.389 348.230 C 322.592 347.696,322.771 341.812,322.788 335.154 C 322.805 328.495,322.871 322.996,322.934 322.933 C 322.997 322.869,328.573 322.805,335.324 322.788 C 342.076 322.772,347.600 322.608,347.600 322.424 C 347.600 322.240,347.915 322.114,348.300 322.144 C 349.169 322.213,349.099 323.325,349.154 308.500 L 349.200 296.000 360.400 296.000 C 368.016 296.000,371.600 295.864,371.600 295.576 C 371.600 295.343,371.813 295.284,372.073 295.445 C 372.934 295.977,374.800 295.902,374.800 295.336 C 374.800 295.041,375.041 294.800,375.336 294.800 C 375.902 294.800,375.977 292.934,375.445 292.073 C 375.284 291.813,375.343 291.600,375.576 291.600 C 375.870 291.600,376.000 284.047,376.000 267.000 L 376.000 242.400 388.000 242.400 L 400.000 242.400 400.000 200.380 L 400.000 158.360 387.500 158.401 C 380.625 158.423,374.820 158.411,374.600 158.374 C 374.380 158.336,374.071 158.324,373.914 158.348 C 373.757 158.372,373.183 158.222,372.640 158.015 C 371.776 157.687,349.459 157.428,346.800 157.715 C 346.250 157.775,345.672 157.640,345.517 157.415 C 345.330 157.146,345.064 157.176,344.737 157.503 C 344.390 157.850,344.377 158.000,344.695 158.000 C 345.249 158.000,345.186 156.878,345.455 171.525 C 345.662 182.769,345.626 183.708,344.967 184.437 C 344.032 185.470,324.415 185.568,320.082 184.561 C 318.120 184.105,315.099 184.000,306.382 184.088 L 295.199 184.200 295.107 173.400 L 295.014 162.600 294.900 173.381 C 294.817 181.293,294.658 184.241,294.302 184.461 C 293.742 184.807,267.158 184.871,265.494 184.531 L 264.387 184.304 264.494 173.452 C 264.579 164.699,264.702 162.621,265.130 162.710 C 265.425 162.771,265.540 162.627,265.389 162.383 C 265.241 162.142,264.876 162.039,264.580 162.152 C 264.226 162.288,264.120 162.152,264.272 161.757 C 264.399 161.425,264.720 161.237,264.985 161.339 C 265.250 161.441,265.474 161.316,265.483 161.062 C 265.492 160.808,265.638 160.078,265.808 159.440 C 266.028 158.615,265.986 158.361,265.663 158.561 C 265.371 158.742,265.294 158.620,265.447 158.221 C 265.690 157.589,267.023 157.404,268.165 157.842 C 268.512 157.975,268.696 158.245,268.574 158.442 C 268.452 158.639,268.543 158.800,268.776 158.800 C 269.440 158.800,269.272 157.713,268.567 157.443 C 267.671 157.099,265.200 157.141,265.200 157.500 M291.978 157.622 C 291.362 158.012,291.888 158.193,293.140 158.021 C 293.471 157.975,293.563 158.136,293.378 158.435 C 293.185 158.747,293.243 158.821,293.538 158.638 C 294.164 158.252,294.123 158.094,293.278 157.642 C 292.838 157.406,292.332 157.398,291.978 157.622 M294.564 158.903 C 294.646 159.730,294.550 160.508,294.350 160.631 C 294.150 160.754,294.092 161.026,294.221 161.234 C 294.608 161.860,295.162 161.242,294.995 160.372 C 294.909 159.925,295.088 159.464,295.394 159.347 C 295.699 159.230,295.852 158.880,295.733 158.569 C 295.614 158.259,295.370 158.095,295.192 158.205 C 295.014 158.315,294.766 158.179,294.642 157.902 C 294.517 157.626,294.483 158.076,294.564 158.903 M318.800 158.200 C 318.800 158.530,318.530 158.800,318.200 158.800 C 317.870 158.800,317.600 158.980,317.600 159.200 C 317.600 159.823,318.211 159.672,318.938 158.869 C 319.692 158.036,319.782 157.600,319.200 157.600 C 318.980 157.600,318.800 157.870,318.800 158.200 M264.906 159.439 C 266.119 160.652,264.654 160.822,253.291 160.787 C 243.983 160.759,241.772 160.856,241.314 161.315 C 240.861 161.767,240.739 164.019,240.688 172.839 L 240.625 183.800 240.506 173.219 C 240.440 167.400,240.255 162.540,240.093 162.419 C 239.932 162.299,240.385 161.630,241.100 160.934 C 241.815 160.238,242.400 159.833,242.400 160.034 C 242.400 160.518,264.280 160.518,264.579 160.034 C 264.703 159.833,264.579 159.577,264.302 159.466 C 264.025 159.354,263.994 159.249,264.233 159.232 C 264.472 159.214,264.774 159.308,264.906 159.439 M125.500 160.699 C 122.475 160.767,117.525 160.767,114.500 160.699 C 111.475 160.631,113.950 160.575,120.000 160.575 C 126.050 160.575,128.525 160.631,125.500 160.699 M77.504 196.737 C 77.676 210.328,77.834 211.669,77.913 200.200 C 77.954 194.260,77.856 189.191,77.694 188.937 C 77.532 188.682,77.447 192.192,77.504 196.737 M80.699 205.500 C 80.631 208.525,80.575 206.050,80.575 200.000 C 80.575 193.950,80.631 191.475,80.699 194.500 C 80.767 197.525,80.767 202.475,80.699 205.500 M53.715 213.645 C 53.056 214.304,52.280 213.699,52.904 213.012 C 53.207 212.679,53.548 212.610,53.780 212.833 C 54.019 213.064,53.995 213.365,53.715 213.645 M28.937 237.694 C 29.191 237.856,34.260 237.954,40.200 237.913 C 51.669 237.834,50.328 237.676,36.737 237.504 C 32.192 237.447,28.682 237.532,28.937 237.694 M45.500 240.699 C 42.475 240.767,37.525 240.767,34.500 240.699 C 31.475 240.631,33.950 240.575,40.000 240.575 C 46.050 240.575,48.525 240.631,45.500 240.699 M135.733 371.800 C 135.733 372.061,139.484 372.134,146.566 372.010 C 157.292 371.822,156.393 371.702,142.766 371.503 C 138.275 371.437,135.732 371.545,135.733 371.800 M131.591 387.966 C 131.780 400.131,131.903 399.117,132.098 383.766 C 132.163 378.609,132.057 375.733,131.800 375.733 C 131.538 375.733,131.466 379.950,131.591 387.966 " stroke="none" fill="#f4ecdb" fill-rule="evenodd"></path><path id="path1" d="M215.200 27.200 C 214.870 27.413,214.780 27.593,215.000 27.600 C 215.220 27.607,215.130 27.806,214.800 28.044 C 214.298 28.405,214.318 28.437,214.921 28.242 C 215.377 28.095,215.544 28.167,215.376 28.439 C 215.229 28.676,214.770 28.781,214.354 28.672 C 213.939 28.564,213.700 28.638,213.823 28.837 C 214.434 29.826,215.968 29.204,215.884 28.001 C 215.838 27.341,215.800 26.804,215.800 26.807 C 215.800 26.810,215.530 26.987,215.200 27.200 M-0.000 41.941 L -0.000 56.011 66.848 55.994 C 109.431 55.983,133.960 55.836,134.423 55.587 C 134.901 55.332,135.237 55.336,135.399 55.599 C 135.795 56.239,185.687 56.142,186.379 55.500 C 186.675 55.225,186.808 55.196,186.675 55.436 C 186.522 55.709,186.947 55.891,187.816 55.924 L 189.200 55.976 189.200 42.615 L 189.200 29.254 188.300 28.964 C 186.693 28.446,185.289 28.435,92.100 28.151 L 0.000 27.871 -0.000 41.941 M210.800 51.320 C 210.800 51.606,211.016 52.056,211.280 52.320 C 211.616 52.656,211.625 52.800,211.311 52.800 C 210.991 52.800,210.850 56.247,210.818 64.880 C 210.793 71.525,210.726 77.007,210.670 77.064 C 210.613 77.120,204.904 77.197,197.984 77.234 C 191.063 77.271,185.040 77.446,184.600 77.623 C 184.160 77.799,184.025 77.956,184.300 77.972 C 184.575 77.987,184.800 78.191,184.800 78.424 C 184.800 78.657,184.639 78.748,184.442 78.626 C 184.246 78.505,184.111 78.847,184.142 79.387 L 184.200 80.369 185.049 79.485 C 185.711 78.795,185.799 78.467,185.449 78.000 C 185.059 77.479,185.092 77.472,185.700 77.949 C 186.271 78.397,186.514 78.403,187.017 77.986 C 187.501 77.584,187.738 77.578,188.117 77.961 C 188.496 78.342,188.437 78.385,187.845 78.160 C 187.313 77.957,187.143 78.028,187.267 78.401 C 187.471 79.012,188.800 79.316,188.800 78.752 C 188.800 78.523,193.181 78.420,200.000 78.488 C 209.735 78.585,211.202 78.521,211.213 78.000 C 211.224 77.467,211.280 77.467,211.713 78.000 C 212.158 78.549,214.122 78.813,214.551 78.382 C 214.650 78.282,220.116 78.290,226.698 78.400 L 238.664 78.600 240.940 80.319 L 243.215 82.037 256.215 81.969 L 269.215 81.900 269.191 66.353 L 269.166 50.807 240.983 50.814 C 219.682 50.819,212.800 50.936,212.800 51.290 C 212.800 51.644,212.681 51.641,212.320 51.280 C 211.684 50.644,210.800 50.668,210.800 51.320 M110.900 77.499 C 114.585 77.565,120.615 77.565,124.300 77.499 C 127.985 77.433,124.970 77.379,117.600 77.379 C 110.230 77.379,107.215 77.433,110.900 77.499 M131.600 77.671 C 131.600 77.925,131.714 78.020,131.853 77.881 C 131.992 77.742,132.463 77.820,132.901 78.054 C 133.436 78.340,133.612 78.344,133.440 78.064 C 133.291 77.823,133.523 77.674,133.991 77.709 C 134.701 77.763,135.002 78.321,134.847 79.300 C 134.821 79.465,135.070 79.600,135.400 79.600 C 135.730 79.600,136.000 79.330,136.000 79.000 C 136.000 78.670,135.775 78.397,135.500 78.394 C 135.139 78.389,135.154 78.290,135.553 78.037 C 135.961 77.779,135.804 77.635,134.953 77.487 C 132.885 77.129,131.600 77.200,131.600 77.671 M205.500 77.899 C 202.475 77.967,197.525 77.967,194.500 77.899 C 191.475 77.831,193.950 77.775,200.000 77.775 C 206.050 77.775,208.525 77.831,205.500 77.899 M185.600 79.400 C 185.326 79.730,185.221 80.000,185.367 80.000 C 185.512 80.000,185.275 80.383,184.839 80.850 C 184.091 81.653,184.045 82.316,184.012 92.728 C 183.993 98.793,183.928 103.806,183.867 103.867 C 183.806 103.928,178.793 103.993,172.728 104.012 C 162.513 104.044,161.641 104.102,160.893 104.799 C 160.449 105.213,160.002 105.468,159.900 105.366 C 159.798 105.264,159.480 105.463,159.194 105.807 C 158.783 106.303,158.777 106.535,159.166 106.917 C 159.551 107.295,159.629 107.270,159.529 106.800 C 159.441 106.392,159.719 106.202,160.400 106.205 C 160.950 106.207,161.400 106.417,161.400 106.671 C 161.400 106.925,161.535 107.238,161.700 107.367 C 161.865 107.495,161.913 107.483,161.806 107.340 C 161.700 107.196,161.925 106.836,162.306 106.539 C 162.865 106.103,162.876 106.041,162.364 106.217 C 162.014 106.338,161.474 106.125,161.164 105.743 C 160.663 105.128,160.681 105.080,161.321 105.321 C 161.754 105.483,161.944 105.433,161.797 105.195 C 161.663 104.978,161.728 104.800,161.943 104.800 C 162.158 104.800,162.409 104.935,162.501 105.100 C 162.593 105.265,162.615 105.178,162.549 104.906 C 162.457 104.526,164.927 104.388,173.315 104.306 L 184.200 104.200 184.306 93.315 C 184.388 84.927,184.526 82.457,184.906 82.549 C 185.178 82.615,185.265 82.593,185.100 82.501 C 184.935 82.409,184.800 82.158,184.800 81.943 C 184.800 81.728,184.978 81.663,185.195 81.797 C 185.433 81.944,185.483 81.754,185.321 81.321 C 185.080 80.681,185.128 80.663,185.743 81.164 C 186.125 81.474,186.338 82.014,186.217 82.364 C 186.041 82.876,186.103 82.865,186.539 82.306 C 186.836 81.925,187.196 81.700,187.340 81.806 C 187.483 81.913,187.495 81.865,187.367 81.700 C 187.238 81.535,186.925 81.400,186.671 81.400 C 186.417 81.400,186.207 80.950,186.205 80.400 C 186.202 79.780,186.401 79.442,186.730 79.510 C 187.021 79.570,187.145 79.435,187.006 79.210 C 186.651 78.636,186.182 78.699,185.600 79.400 M194.500 80.699 C 197.525 80.767,202.475 80.767,205.500 80.699 C 208.525 80.631,206.050 80.575,200.000 80.575 C 193.950 80.575,191.475 80.631,194.500 80.699 M157.477 105.000 C 157.343 105.660,157.252 106.830,157.273 107.600 C 157.295 108.370,157.287 114.011,157.256 120.135 L 157.200 131.269 145.000 131.135 C 138.290 131.061,132.800 131.137,132.800 131.303 C 132.800 131.470,132.448 131.387,132.018 131.119 C 131.011 130.490,130.490 131.011,131.119 132.018 C 131.387 132.448,131.470 132.800,131.303 132.800 C 131.137 132.800,131.061 138.290,131.135 145.000 L 131.269 157.200 120.135 157.258 C 114.011 157.291,108.238 157.295,107.306 157.269 C 105.840 157.228,102.950 157.906,104.300 157.975 C 104.575 157.989,104.800 158.191,104.800 158.424 C 104.800 158.657,104.639 158.748,104.442 158.626 C 104.246 158.505,104.111 158.847,104.142 159.387 L 104.200 160.369 105.049 159.485 C 105.711 158.795,105.799 158.467,105.449 158.000 C 105.059 157.479,105.092 157.472,105.700 157.949 C 106.271 158.397,106.514 158.403,107.017 157.986 C 107.501 157.584,107.738 157.578,108.117 157.961 C 108.496 158.342,108.437 158.385,107.845 158.160 C 107.313 157.957,107.143 158.028,107.267 158.401 C 107.471 159.012,108.800 159.316,108.800 158.752 C 108.800 158.523,113.167 158.420,119.962 158.488 C 126.101 158.550,131.046 158.474,130.951 158.320 C 130.856 158.166,131.143 157.845,131.589 157.606 C 132.376 157.185,132.397 156.859,132.310 146.486 L 132.220 135.800 132.006 146.600 L 131.793 157.400 131.597 146.500 C 131.488 140.505,131.529 135.600,131.687 135.600 C 131.846 135.600,131.876 135.343,131.756 135.029 C 131.591 134.601,131.769 134.516,132.468 134.691 L 133.400 134.924 132.532 134.162 L 131.664 133.400 132.613 132.505 L 133.561 131.610 134.226 132.505 L 134.891 133.400 134.675 132.468 C 134.513 131.773,134.603 131.592,135.029 131.756 C 135.343 131.876,135.600 131.846,135.600 131.687 C 135.600 131.529,140.505 131.488,146.500 131.597 L 157.400 131.793 146.600 132.006 L 135.800 132.220 146.486 132.310 C 156.859 132.397,157.185 132.376,157.606 131.589 C 157.845 131.143,158.166 130.856,158.320 130.951 C 158.474 131.046,158.550 126.101,158.488 119.962 C 158.420 113.167,158.523 108.800,158.752 108.800 C 159.316 108.800,159.012 107.471,158.401 107.267 C 158.028 107.143,157.957 107.313,158.160 107.845 C 158.376 108.414,158.334 108.487,157.986 108.143 C 157.480 107.641,158.369 105.926,159.719 104.800 C 160.397 104.235,160.380 104.197,159.422 104.142 C 158.863 104.111,158.505 104.246,158.626 104.442 C 158.748 104.639,158.672 104.800,158.457 104.800 C 158.242 104.800,157.989 104.575,157.893 104.300 C 157.798 104.025,157.611 104.340,157.477 105.000 M268.131 105.877 C 267.859 105.975,267.743 106.497,267.855 107.114 C 267.962 107.701,267.919 108.053,267.761 107.894 C 267.603 107.736,267.187 107.830,266.837 108.103 C 266.273 108.543,266.263 108.519,266.749 107.900 C 267.377 107.099,266.829 106.948,266.026 107.700 C 265.588 108.109,265.528 108.046,265.695 107.351 C 265.857 106.674,265.747 106.541,265.149 106.697 C 264.737 106.805,264.400 107.007,264.400 107.147 C 264.400 107.286,259.574 107.349,253.674 107.288 L 242.948 107.175 242.450 108.106 C 242.074 108.808,241.983 112.288,242.076 122.318 C 242.194 134.945,242.164 135.601,241.471 135.600 C 240.807 135.600,240.799 135.544,241.375 134.968 C 241.999 134.344,241.897 133.600,241.189 133.600 C 240.989 133.600,240.940 133.900,241.081 134.266 C 241.241 134.683,241.177 134.833,240.910 134.668 C 240.676 134.523,240.381 134.674,240.254 135.002 C 240.128 135.331,239.739 135.600,239.389 135.600 C 239.039 135.600,238.864 135.420,239.000 135.200 C 239.136 134.980,239.057 134.800,238.824 134.800 C 238.591 134.800,238.400 134.935,238.400 135.100 C 238.400 135.265,233.225 135.400,226.900 135.400 L 215.400 135.400 215.400 146.900 C 215.400 153.225,215.265 158.400,215.100 158.400 C 214.935 158.400,214.800 158.591,214.800 158.824 C 214.800 159.057,214.980 159.136,215.200 159.000 C 215.420 158.864,215.600 159.039,215.600 159.389 C 215.600 159.739,215.331 160.128,215.002 160.254 C 214.674 160.381,214.523 160.676,214.668 160.910 C 214.833 161.177,214.683 161.241,214.266 161.081 C 213.900 160.940,213.600 160.989,213.600 161.189 C 213.600 161.897,214.344 161.999,214.968 161.375 C 215.544 160.799,215.600 160.807,215.600 161.471 C 215.601 162.164,214.941 162.194,202.200 162.077 L 188.800 161.954 188.800 173.153 C 188.800 181.038,188.666 184.435,188.349 184.632 C 188.043 184.821,188.118 185.034,188.582 185.294 C 189.212 185.646,189.199 185.725,188.425 186.268 L 187.583 186.858 188.432 187.546 C 189.180 188.151,189.209 188.294,188.677 188.736 C 188.178 189.151,187.969 189.090,187.479 188.391 L 186.885 187.543 186.281 188.405 C 185.728 189.195,185.645 189.210,185.294 188.582 C 185.034 188.118,184.821 188.043,184.632 188.349 C 184.435 188.666,181.038 188.800,173.153 188.800 L 161.954 188.800 162.077 202.200 C 162.194 214.941,162.164 215.601,161.471 215.600 C 160.807 215.600,160.799 215.544,161.375 214.968 C 161.999 214.344,161.897 213.600,161.189 213.600 C 160.989 213.600,160.940 213.900,161.081 214.266 C 161.241 214.683,161.177 214.833,160.910 214.668 C 160.676 214.523,160.381 214.674,160.254 215.002 C 160.128 215.331,159.739 215.600,159.389 215.600 C 159.039 215.600,158.864 215.420,159.000 215.200 C 159.136 214.980,159.057 214.800,158.824 214.800 C 158.591 214.800,158.400 214.935,158.400 215.100 C 158.400 215.265,153.225 215.400,146.900 215.400 L 135.400 215.400 135.400 226.900 C 135.400 233.225,135.265 238.400,135.100 238.400 C 134.935 238.400,134.800 238.591,134.800 238.824 C 134.800 239.057,134.980 239.136,135.200 239.000 C 135.420 238.864,135.600 239.039,135.600 239.389 C 135.600 239.739,135.331 240.128,135.002 240.254 C 134.674 240.381,134.523 240.676,134.668 240.910 C 134.833 241.177,134.683 241.241,134.266 241.081 C 133.900 240.940,133.600 240.989,133.600 241.189 C 133.600 241.897,134.344 241.999,134.968 241.375 C 135.544 240.799,135.600 240.807,135.600 241.471 C 135.601 242.164,134.941 242.194,122.200 242.077 L 108.800 241.954 108.800 253.153 C 108.800 261.038,108.666 264.435,108.349 264.632 C 108.043 264.821,108.118 265.034,108.582 265.294 C 109.212 265.646,109.199 265.725,108.425 266.268 L 107.583 266.858 108.432 267.546 C 109.180 268.151,109.209 268.294,108.677 268.736 C 108.178 269.151,107.969 269.090,107.479 268.391 L 106.885 267.543 106.281 268.405 C 105.728 269.195,105.645 269.210,105.294 268.582 C 105.034 268.118,104.821 268.043,104.632 268.349 C 104.435 268.666,101.038 268.800,93.153 268.800 L 81.954 268.800 82.077 282.200 C 82.194 294.941,82.164 295.601,81.471 295.600 C 80.807 295.600,80.799 295.544,81.375 294.968 C 81.999 294.344,81.897 293.600,81.189 293.600 C 80.989 293.600,80.940 293.900,81.081 294.266 C 81.241 294.683,81.177 294.833,80.910 294.668 C 80.676 294.523,80.381 294.674,80.254 295.002 C 80.128 295.331,79.739 295.600,79.389 295.600 C 79.039 295.600,78.864 295.420,79.000 295.200 C 79.136 294.980,79.057 294.800,78.824 294.800 C 78.591 294.800,78.400 294.935,78.400 295.100 C 78.400 295.265,73.225 295.400,66.900 295.400 L 55.400 295.400 55.400 306.900 C 55.400 313.225,55.265 318.400,55.100 318.400 C 54.935 318.400,54.800 318.591,54.800 318.824 C 54.800 319.057,54.980 319.136,55.200 319.000 C 55.420 318.864,55.600 319.039,55.600 319.389 C 55.600 319.739,55.331 320.128,55.002 320.254 C 54.674 320.381,54.523 320.676,54.668 320.910 C 54.833 321.177,54.683 321.241,54.266 321.081 C 53.900 320.940,53.600 320.989,53.600 321.189 C 53.600 321.897,54.344 321.999,54.968 321.375 C 55.544 320.799,55.600 320.807,55.600 321.471 C 55.601 322.164,54.941 322.194,42.200 322.077 L 28.800 321.954 28.754 333.277 C 28.700 346.516,28.759 345.526,28.000 346.007 C 27.565 346.283,27.544 346.389,27.924 346.394 C 28.212 346.397,28.344 346.566,28.219 346.770 C 28.093 346.973,28.307 347.222,28.695 347.323 C 29.332 347.490,29.328 347.512,28.651 347.554 C 28.000 347.594,27.974 347.687,28.451 348.269 C 28.940 348.866,28.902 348.913,28.100 348.707 C 27.605 348.579,27.200 348.647,27.200 348.857 C 27.200 349.655,54.272 349.100,55.086 348.286 C 55.734 347.638,55.812 346.434,55.934 335.225 L 56.069 322.877 68.134 322.711 C 74.770 322.619,80.520 322.401,80.911 322.225 C 82.455 321.532,82.582 320.550,82.732 308.134 L 82.877 296.069 95.225 295.934 C 106.434 295.812,107.638 295.734,108.286 295.086 C 108.936 294.437,109.011 293.238,109.121 281.807 L 109.242 269.242 121.807 269.121 C 133.238 269.011,134.437 268.936,135.086 268.286 C 135.734 267.638,135.812 266.432,135.935 255.186 L 136.069 242.800 146.633 242.800 L 157.197 242.800 157.300 296.100 L 157.403 349.400 157.501 295.523 L 157.600 241.645 158.500 240.973 C 159.108 240.520,159.173 240.378,158.700 240.538 C 158.236 240.695,158.000 240.569,158.000 240.164 C 158.000 239.828,158.135 239.625,158.300 239.713 C 158.693 239.923,160.004 238.537,159.700 238.233 C 159.572 238.105,159.761 238.000,160.121 238.000 C 160.574 238.000,160.697 238.215,160.521 238.700 C 160.340 239.200,160.486 239.143,161.034 238.499 C 161.791 237.609,161.933 237.597,173.000 237.499 L 184.200 237.400 184.282 226.392 C 184.369 214.625,184.648 212.756,186.399 212.200 C 186.848 212.058,187.091 211.748,186.943 211.508 C 186.773 211.232,186.957 211.148,187.449 211.276 C 189.085 211.704,189.200 210.950,189.200 199.817 L 189.200 189.200 199.817 189.200 C 210.950 189.200,211.704 189.085,211.276 187.449 C 211.156 186.990,211.238 186.776,211.477 186.924 C 211.698 187.061,212.119 186.725,212.412 186.177 C 212.705 185.630,213.129 185.243,213.353 185.318 C 213.578 185.393,214.048 185.208,214.398 184.909 C 214.898 184.481,217.447 184.346,226.218 184.282 L 237.400 184.200 237.507 173.613 C 237.566 167.790,237.746 162.894,237.907 162.733 C 238.068 162.571,238.194 167.335,238.187 173.319 L 238.175 184.200 238.294 173.500 C 238.382 165.592,238.536 162.800,238.886 162.800 C 239.248 162.800,239.246 162.686,238.880 162.320 C 238.616 162.056,238.414 161.561,238.432 161.220 C 238.455 160.758,238.518 160.736,238.677 161.136 C 238.825 161.508,239.032 161.388,239.353 160.744 C 239.608 160.233,240.233 159.608,240.744 159.353 C 241.388 159.032,241.508 158.825,241.136 158.677 C 240.736 158.518,240.758 158.455,241.220 158.432 C 241.561 158.414,242.056 158.616,242.320 158.880 C 242.693 159.253,242.800 159.251,242.800 158.867 C 242.800 158.487,245.249 158.400,253.581 158.487 C 259.510 158.549,264.220 158.459,264.048 158.287 C 263.875 158.115,258.943 158.025,253.086 158.087 C 247.230 158.149,242.582 158.057,242.758 157.882 C 242.933 157.706,248.055 157.616,254.139 157.682 C 260.223 157.747,265.200 157.665,265.200 157.500 C 265.200 157.335,260.160 157.200,254.000 157.200 L 242.800 157.200 242.800 146.635 L 242.800 136.069 255.186 135.935 C 266.432 135.812,267.638 135.734,268.286 135.086 C 269.377 133.995,269.625 107.200,268.543 107.200 C 267.902 107.200,267.905 107.158,268.584 106.661 C 269.326 106.119,269.004 105.562,268.131 105.877 M135.200 107.200 C 134.870 107.413,134.780 107.593,135.000 107.600 C 135.220 107.607,135.130 107.806,134.800 108.044 C 134.298 108.405,134.318 108.437,134.921 108.242 C 135.377 108.095,135.544 108.167,135.376 108.439 C 135.229 108.676,134.770 108.781,134.354 108.672 C 133.939 108.564,133.700 108.638,133.823 108.837 C 134.434 109.826,135.968 109.204,135.884 108.001 C 135.838 107.341,135.800 106.804,135.800 106.807 C 135.800 106.810,135.530 106.987,135.200 107.200 M52.100 109.101 L 0.000 109.203 0.000 122.611 L 0.000 136.020 53.786 135.910 C 104.787 135.806,107.609 135.763,108.286 135.086 C 109.224 134.149,109.644 108.800,108.721 108.800 C 108.303 108.800,108.222 110.950,108.313 119.667 C 108.375 125.644,108.285 130.675,108.113 130.848 C 107.941 131.020,107.851 126.220,107.912 120.181 C 107.974 114.141,107.884 109.183,107.712 109.163 C 106.517 109.020,98.488 109.011,52.100 109.101 M157.899 125.500 C 157.831 128.525,157.775 126.050,157.775 120.000 C 157.775 113.950,157.831 111.475,157.899 114.500 C 157.967 117.525,157.967 122.475,157.899 125.500 M160.575 120.000 C 160.575 126.050,160.631 128.525,160.699 125.500 C 160.767 122.475,160.767 117.525,160.699 114.500 C 160.631 111.475,160.575 113.950,160.575 120.000 M370.805 131.500 C 370.816 132.838,371.294 133.990,371.745 133.766 C 371.995 133.642,371.851 133.824,371.424 134.170 C 370.743 134.722,370.731 134.800,371.324 134.800 C 371.696 134.800,372.000 135.070,372.000 135.400 C 372.000 135.730,371.809 136.000,371.576 136.000 C 371.343 136.000,371.281 135.792,371.438 135.538 C 371.615 135.252,371.548 135.185,371.262 135.362 C 370.931 135.566,370.800 138.709,370.800 146.424 L 370.800 157.200 359.900 157.286 L 349.000 157.371 360.800 157.635 C 371.943 157.885,373.659 157.982,374.607 158.419 C 374.823 158.519,380.625 158.548,387.500 158.484 L 400.000 158.367 400.000 144.584 L 400.000 130.800 387.824 130.800 C 379.051 130.800,375.567 130.929,375.362 131.262 C 375.185 131.548,375.252 131.615,375.538 131.438 C 375.792 131.281,376.000 131.343,376.000 131.576 C 376.000 131.809,375.730 132.000,375.400 132.000 C 375.070 132.000,374.800 131.696,374.800 131.324 C 374.800 130.731,374.722 130.743,374.170 131.424 C 373.824 131.851,373.642 131.995,373.766 131.745 C 373.890 131.495,373.588 131.183,373.096 131.051 C 371.524 130.630,370.800 130.772,370.805 131.500 M372.282 132.192 C 371.945 132.555,371.718 132.580,371.526 132.275 C 371.141 131.659,371.519 131.194,372.195 131.453 C 372.642 131.625,372.661 131.784,372.282 132.192 M132.792 133.010 C 132.514 133.345,132.394 133.727,132.526 133.859 C 132.935 134.269,134.000 133.657,134.000 133.013 C 134.000 132.229,133.441 132.228,132.792 133.010 M146.600 133.200 L 135.800 133.420 146.476 133.510 C 153.261 133.567,157.243 133.454,157.400 133.200 C 157.536 132.980,157.592 132.841,157.524 132.890 C 157.456 132.940,152.540 133.079,146.600 133.200 M133.200 146.681 C 133.090 152.665,133.138 157.423,133.307 157.254 C 133.476 157.085,133.565 152.188,133.506 146.373 L 133.399 135.800 133.200 146.681 M32.100 157.499 C 35.565 157.566,41.235 157.566,44.700 157.499 C 48.165 157.433,45.330 157.378,38.400 157.378 C 31.470 157.378,28.635 157.433,32.100 157.499 M268.700 157.460 C 269.307 157.711,269.369 158.800,268.776 158.800 C 268.543 158.800,268.452 158.639,268.574 158.442 C 268.696 158.245,268.512 157.975,268.165 157.842 C 267.023 157.404,265.690 157.589,265.447 158.221 C 265.294 158.620,265.371 158.742,265.663 158.561 C 265.986 158.361,266.028 158.615,265.808 159.440 C 265.638 160.078,265.492 160.808,265.483 161.062 C 265.474 161.316,265.250 161.441,264.985 161.339 C 264.720 161.237,264.399 161.425,264.272 161.757 C 264.120 162.152,264.226 162.288,264.580 162.152 C 264.876 162.039,265.241 162.142,265.389 162.383 C 265.540 162.627,265.425 162.771,265.130 162.710 C 264.702 162.621,264.579 164.699,264.494 173.452 L 264.387 184.304 265.494 184.531 C 267.158 184.871,293.742 184.807,294.302 184.461 C 294.658 184.241,294.817 181.293,294.900 173.381 L 295.014 162.600 295.107 173.524 C 295.170 180.875,295.334 184.364,295.611 184.193 C 296.235 183.807,296.103 162.002,295.476 161.994 C 295.177 161.990,295.149 161.879,295.400 161.694 C 295.959 161.283,295.999 159.134,295.444 159.319 C 295.200 159.400,295.000 159.857,295.000 160.333 C 295.000 160.810,294.865 161.200,294.700 161.200 C 294.535 161.200,294.274 161.200,294.120 161.200 C 293.966 161.200,294.034 161.006,294.272 160.768 C 294.509 160.531,294.626 159.676,294.531 158.868 C 294.403 157.772,294.464 157.552,294.774 158.000 C 295.001 158.330,295.193 158.420,295.200 158.200 C 295.207 157.980,295.387 158.070,295.600 158.400 C 295.937 158.921,295.989 158.913,295.994 158.343 C 295.997 157.982,295.595 157.586,295.100 157.462 C 293.970 157.181,268.018 157.178,268.700 157.460 M319.395 158.100 C 319.178 158.595,318.595 159.178,318.100 159.395 L 317.200 159.790 317.200 171.860 L 317.200 183.931 319.700 184.507 C 324.061 185.512,344.044 185.456,344.967 184.436 C 345.626 183.708,345.662 182.765,345.455 171.525 C 345.187 156.970,345.241 158.000,344.752 158.000 C 344.532 158.000,344.464 157.820,344.600 157.600 C 344.763 157.337,340.569 157.200,332.318 157.200 L 319.790 157.200 319.395 158.100 M345.600 157.545 C 345.600 157.735,346.066 157.839,346.635 157.776 C 348.166 157.608,348.330 157.200,346.867 157.200 C 346.170 157.200,345.600 157.355,345.600 157.545 M55.149 157.700 C 54.831 158.323,55.031 159.467,55.458 159.467 C 55.756 159.467,56.000 159.227,56.000 158.933 C 56.000 158.640,55.775 158.397,55.500 158.394 C 55.167 158.390,55.200 158.258,55.600 158.000 C 56.000 157.742,56.033 157.610,55.700 157.606 C 55.425 157.603,55.177 157.645,55.149 157.700 M125.500 157.899 C 122.475 157.967,117.525 157.967,114.500 157.899 C 111.475 157.831,113.950 157.775,120.000 157.775 C 126.050 157.775,128.525 157.831,125.500 157.899 M293.814 158.022 C 293.923 158.200,293.802 158.475,293.545 158.634 C 293.231 158.828,293.184 158.749,293.404 158.394 C 293.635 158.020,293.554 157.932,293.129 158.095 C 292.798 158.222,292.300 158.185,292.021 158.013 C 291.698 157.813,291.894 157.700,292.565 157.700 C 293.142 157.700,293.704 157.845,293.814 158.022 M317.733 158.267 C 317.733 158.560,317.973 158.800,318.267 158.800 C 318.560 158.800,318.800 158.560,318.800 158.267 C 318.800 157.973,318.560 157.733,318.267 157.733 C 317.973 157.733,317.733 157.973,317.733 158.267 M105.600 159.400 C 105.326 159.730,105.221 160.000,105.367 160.000 C 105.512 160.000,105.275 160.383,104.839 160.850 C 104.091 161.653,104.045 162.316,104.012 172.728 C 103.993 178.793,103.928 183.806,103.867 183.867 C 103.806 183.928,98.793 183.993,92.728 184.012 C 82.513 184.044,81.641 184.102,80.893 184.799 C 80.449 185.213,80.002 185.468,79.900 185.366 C 79.798 185.264,79.480 185.463,79.194 185.807 C 78.783 186.303,78.777 186.535,79.166 186.917 C 79.551 187.295,79.629 187.270,79.529 186.800 C 79.441 186.392,79.719 186.202,80.400 186.205 C 80.950 186.207,81.400 186.417,81.400 186.671 C 81.400 186.925,81.535 187.238,81.700 187.367 C 81.865 187.495,81.913 187.483,81.806 187.340 C 81.700 187.196,81.925 186.836,82.306 186.539 C 82.865 186.103,82.876 186.041,82.364 186.217 C 82.014 186.338,81.474 186.125,81.164 185.743 C 80.663 185.128,80.681 185.080,81.321 185.321 C 81.754 185.483,81.944 185.433,81.797 185.195 C 81.663 184.978,81.728 184.800,81.943 184.800 C 82.158 184.800,82.409 184.935,82.501 185.100 C 82.593 185.265,82.615 185.178,82.549 184.906 C 82.457 184.526,84.927 184.388,93.315 184.306 L 104.200 184.200 104.306 173.315 C 104.388 164.927,104.526 162.457,104.906 162.549 C 105.178 162.615,105.265 162.593,105.100 162.501 C 104.935 162.409,104.800 162.158,104.800 161.943 C 104.800 161.728,104.978 161.663,105.195 161.797 C 105.433 161.944,105.483 161.754,105.321 161.321 C 105.080 160.681,105.128 160.663,105.743 161.164 C 106.125 161.474,106.338 162.014,106.217 162.364 C 106.041 162.876,106.103 162.865,106.539 162.306 C 106.836 161.925,107.196 161.700,107.340 161.806 C 107.483 161.913,107.495 161.865,107.367 161.700 C 107.238 161.535,106.925 161.400,106.671 161.400 C 106.417 161.400,106.207 160.950,106.205 160.400 C 106.202 159.780,106.401 159.442,106.730 159.510 C 107.021 159.570,107.145 159.435,107.006 159.210 C 106.651 158.636,106.182 158.699,105.600 159.400 M264.302 159.466 C 264.579 159.577,264.703 159.833,264.579 160.034 C 264.280 160.518,242.400 160.518,242.400 160.034 C 242.400 159.833,241.815 160.238,241.100 160.934 C 240.385 161.630,239.932 162.299,240.093 162.419 C 240.255 162.540,240.440 167.400,240.506 173.219 L 240.625 183.800 240.688 172.839 C 240.739 164.019,240.861 161.767,241.314 161.315 C 241.772 160.856,243.983 160.759,253.291 160.787 C 262.843 160.817,264.742 160.729,264.925 160.250 C 265.172 159.608,264.883 159.184,264.233 159.232 C 263.994 159.249,264.025 159.354,264.302 159.466 M114.500 160.699 C 117.525 160.767,122.475 160.767,125.500 160.699 C 128.525 160.631,126.050 160.575,120.000 160.575 C 113.950 160.575,111.475 160.631,114.500 160.699 M237.200 173.400 L 237.200 184.000 226.600 184.000 L 216.000 184.000 216.000 173.400 L 216.000 162.800 226.600 162.800 L 237.200 162.800 237.200 173.400 M77.477 185.000 C 77.343 185.660,77.252 186.830,77.273 187.600 C 77.295 188.370,77.287 194.172,77.256 200.493 L 77.200 211.987 66.500 212.100 L 55.800 212.214 66.486 212.307 C 76.860 212.397,77.185 212.376,77.606 211.589 C 77.845 211.143,78.166 210.856,78.320 210.951 C 78.474 211.046,78.550 206.101,78.488 199.962 C 78.420 193.167,78.523 188.800,78.752 188.800 C 79.316 188.800,79.012 187.471,78.401 187.267 C 78.028 187.143,77.957 187.313,78.160 187.845 C 78.376 188.414,78.334 188.487,77.986 188.143 C 77.480 187.641,78.369 185.926,79.719 184.800 C 80.397 184.235,80.380 184.197,79.422 184.142 C 78.863 184.111,78.505 184.246,78.626 184.442 C 78.748 184.639,78.672 184.800,78.457 184.800 C 78.242 184.800,77.989 184.575,77.893 184.300 C 77.798 184.025,77.611 184.340,77.477 185.000 M55.200 187.200 C 54.870 187.413,54.780 187.593,55.000 187.600 C 55.220 187.607,55.130 187.806,54.800 188.044 C 54.298 188.405,54.318 188.437,54.921 188.242 C 55.377 188.095,55.544 188.167,55.376 188.439 C 55.229 188.676,54.770 188.781,54.354 188.672 C 53.939 188.564,53.700 188.638,53.823 188.837 C 54.434 189.826,55.968 189.204,55.884 188.001 C 55.838 187.341,55.800 186.804,55.800 186.807 C 55.800 186.810,55.530 186.987,55.200 187.200 M77.899 205.500 C 77.831 208.525,77.775 206.050,77.775 200.000 C 77.775 193.950,77.831 191.475,77.899 194.500 C 77.967 197.525,77.967 202.475,77.899 205.500 M80.575 200.000 C 80.575 206.050,80.631 208.525,80.699 205.500 C 80.767 202.475,80.767 197.525,80.699 194.500 C 80.631 191.475,80.575 193.950,80.575 200.000 M50.800 211.320 C 50.800 211.606,51.016 212.056,51.280 212.320 C 51.585 212.625,51.605 212.800,51.335 212.800 C 51.101 212.800,50.909 213.515,50.909 214.390 C 50.909 215.264,51.065 215.884,51.255 215.766 C 51.445 215.649,51.600 215.310,51.600 215.014 C 51.600 214.655,51.901 214.550,52.500 214.699 L 53.400 214.924 52.532 214.162 L 51.664 213.400 52.613 212.505 L 53.561 211.610 54.226 212.505 L 54.891 213.400 54.683 212.500 C 54.546 211.909,54.660 211.600,55.014 211.600 C 55.310 211.600,55.649 211.445,55.766 211.255 C 55.884 211.065,55.264 210.909,54.390 210.909 C 53.515 210.909,52.800 211.101,52.800 211.335 C 52.800 211.605,52.625 211.585,52.320 211.280 C 51.684 210.644,50.800 210.668,50.800 211.320 M52.904 213.012 C 52.559 213.392,52.539 213.639,52.839 213.824 C 53.431 214.190,54.271 213.307,53.780 212.833 C 53.548 212.610,53.207 212.679,52.904 213.012 M52.093 226.500 L 52.000 237.200 40.500 237.258 C 34.175 237.291,28.238 237.295,27.306 237.269 C 25.840 237.228,22.950 237.906,24.300 237.975 C 24.575 237.989,24.800 238.191,24.800 238.424 C 24.800 238.657,24.639 238.748,24.442 238.626 C 24.246 238.505,24.111 238.847,24.142 239.387 L 24.200 240.369 25.049 239.485 C 25.711 238.795,25.799 238.467,25.449 238.000 C 25.059 237.479,25.092 237.472,25.700 237.949 C 26.271 238.397,26.514 238.403,27.017 237.986 C 27.501 237.584,27.738 237.578,28.117 237.961 C 28.496 238.342,28.437 238.385,27.845 238.160 C 27.313 237.957,27.143 238.028,27.267 238.401 C 27.471 239.012,28.800 239.316,28.800 238.752 C 28.800 238.523,33.168 238.420,39.967 238.488 C 46.109 238.550,51.104 238.478,51.067 238.328 C 51.030 238.179,51.318 237.819,51.707 237.528 C 52.357 237.042,52.405 236.147,52.300 226.400 L 52.186 215.800 52.093 226.500 M184.000 226.600 L 184.000 237.200 173.400 237.200 L 162.800 237.200 162.800 226.600 L 162.800 216.000 173.400 216.000 L 184.000 216.000 184.000 226.600 M45.500 237.899 C 42.475 237.967,37.525 237.967,34.500 237.899 C 31.475 237.831,33.950 237.775,40.000 237.775 C 46.050 237.775,48.525 237.831,45.500 237.899 M25.600 239.400 C 25.326 239.730,25.212 240.000,25.347 240.000 C 25.482 240.000,25.279 240.366,24.896 240.813 C 24.023 241.832,24.108 240.589,24.050 253.194 L 24.000 263.988 11.900 264.103 L -0.200 264.218 12.000 264.209 L 24.200 264.200 24.306 253.315 C 24.388 244.927,24.526 242.457,24.906 242.549 C 25.178 242.615,25.265 242.593,25.100 242.501 C 24.935 242.409,24.800 242.158,24.800 241.943 C 24.800 241.728,24.978 241.663,25.195 241.797 C 25.433 241.944,25.483 241.754,25.321 241.321 C 25.080 240.681,25.128 240.663,25.743 241.164 C 26.125 241.474,26.338 242.014,26.217 242.364 C 26.041 242.876,26.103 242.865,26.539 242.306 C 26.836 241.925,27.196 241.700,27.340 241.806 C 27.483 241.913,27.495 241.865,27.367 241.700 C 27.238 241.535,26.925 241.400,26.671 241.400 C 26.417 241.400,26.207 240.950,26.205 240.400 C 26.202 239.780,26.401 239.442,26.730 239.510 C 27.021 239.570,27.145 239.435,27.006 239.210 C 26.651 238.636,26.182 238.699,25.600 239.400 M34.500 240.699 C 37.525 240.767,42.475 240.767,45.500 240.699 C 48.525 240.631,46.050 240.575,40.000 240.575 C 33.950 240.575,31.475 240.631,34.500 240.699 M381.900 242.699 C 385.255 242.766,390.745 242.766,394.100 242.699 C 397.455 242.632,394.710 242.578,388.000 242.578 C 381.290 242.578,378.545 242.632,381.900 242.699 M375.411 292.018 C 375.553 292.247,375.428 292.742,375.134 293.118 C 374.653 293.732,374.670 293.745,375.300 293.251 C 376.070 292.647,376.245 291.600,375.576 291.600 C 375.343 291.600,375.269 291.788,375.411 292.018 M372.983 295.227 C 372.838 295.462,372.467 295.558,372.160 295.440 C 371.852 295.322,371.600 295.399,371.600 295.613 C 371.600 296.210,372.643 296.071,373.200 295.400 C 373.474 295.070,373.597 294.800,373.473 294.800 C 373.349 294.800,373.128 294.992,372.983 295.227 M374.800 295.433 C 374.800 295.782,375.014 295.995,375.275 295.908 C 376.017 295.661,376.140 294.800,375.433 294.800 C 375.085 294.800,374.800 295.085,374.800 295.433 M130.800 371.320 C 130.800 371.606,131.016 372.056,131.280 372.320 C 131.620 372.660,131.628 372.800,131.308 372.800 C 130.983 372.800,130.845 376.588,130.816 386.400 C 130.788 395.735,130.908 400.000,131.199 400.000 C 131.490 400.000,131.588 396.213,131.511 387.866 C 131.439 379.970,131.540 375.733,131.800 375.733 C 132.060 375.733,132.161 379.970,132.089 387.866 L 131.977 400.000 145.011 400.000 L 158.045 400.000 157.974 386.157 C 157.935 378.543,157.812 371.967,157.701 371.544 C 157.460 370.622,132.800 370.391,132.800 371.311 C 132.800 371.626,132.657 371.617,132.320 371.280 C 131.684 370.644,130.800 370.668,130.800 371.320 M153.600 371.713 C 155.690 371.771,152.525 371.905,146.566 372.010 C 139.484 372.134,135.733 372.061,135.733 371.800 C 135.732 371.428,142.372 371.396,153.600 371.713 M294.800 375.433 C 294.800 375.782,295.014 375.995,295.275 375.908 C 296.017 375.661,296.140 374.800,295.433 374.800 C 295.085 374.800,294.800 375.085,294.800 375.433 M242.300 375.749 C 241.661 376.241,241.600 377.325,241.600 388.144 L 241.600 400.000 254.400 400.000 L 267.200 400.000 267.200 387.823 L 267.200 375.647 265.900 375.585 C 257.332 375.177,242.913 375.278,242.300 375.749 M267.778 387.800 C 267.778 394.620,267.832 397.466,267.899 394.125 C 267.966 390.784,267.966 385.204,267.899 381.725 C 267.833 378.246,267.778 380.980,267.778 387.800 " stroke="none" fill="#f4efe4" fill-rule="evenodd"></path></g></svg>