<svg id="svg" version="1.1" xmlns="http://www.w3.org/2000/svg" xmlns:xlink="http://www.w3.org/1999/xlink" width="400" height="400" viewBox="0, 0, 400,400"><g id="svgg"><path id="path0" d="M55.486 51.486 C 54.967 52.005,54.800 52.037,54.800 51.619 C 54.800 51.315,54.682 51.185,54.537 51.329 C 54.393 51.474,54.762 52.044,55.358 52.596 L 56.441 53.600 67.249 53.600 C 76.802 53.600,77.988 53.531,77.464 53.007 C 76.976 52.519,75.005 52.393,66.335 52.300 L 55.800 52.186 66.620 52.093 C 73.656 52.033,77.585 52.145,77.853 52.413 C 78.138 52.698,78.267 52.635,78.267 52.213 C 78.267 51.679,76.821 51.588,67.033 51.509 L 55.800 51.419 67.200 51.200 L 78.600 50.981 67.386 50.891 C 57.254 50.809,56.105 50.866,55.486 51.486 M53.090 52.050 C 53.732 52.692,52.804 53.687,52.100 53.111 C 51.464 52.591,51.472 53.200,52.113 54.035 C 52.381 54.384,52.809 54.600,53.063 54.514 C 53.318 54.428,53.643 54.545,53.784 54.774 C 53.939 55.025,53.794 55.096,53.421 54.953 C 53.079 54.822,52.800 54.894,52.800 55.114 C 52.800 55.334,53.070 55.618,53.400 55.745 C 53.913 55.941,54.000 57.545,54.000 66.787 C 54.000 76.029,54.085 77.600,54.587 77.600 C 54.911 77.600,55.120 77.825,55.053 78.100 C 54.986 78.375,55.007 78.464,55.100 78.298 C 55.192 78.131,55.461 78.114,55.696 78.259 C 55.949 78.416,56.007 78.335,55.838 78.062 C 55.625 77.717,58.346 77.600,66.576 77.600 L 77.600 77.600 77.600 66.576 C 77.600 58.346,77.717 55.625,78.062 55.838 C 78.335 56.007,78.416 55.949,78.259 55.696 C 78.114 55.461,78.131 55.192,78.298 55.100 C 78.464 55.007,78.375 54.986,78.100 55.053 C 77.825 55.120,77.600 54.911,77.600 54.587 C 77.600 54.085,76.033 54.000,66.820 54.000 C 58.521 54.000,55.966 53.883,55.720 53.490 C 55.370 52.933,53.405 51.600,52.934 51.600 C 52.772 51.600,52.842 51.802,53.090 52.050 M51.519 54.741 C 51.933 55.004,51.913 55.174,51.419 55.584 C 50.883 56.029,50.812 57.609,50.891 67.349 L 50.981 78.600 51.200 67.200 L 51.419 55.800 51.509 67.033 C 51.588 76.821,51.679 78.267,52.213 78.267 C 52.635 78.267,52.698 78.138,52.413 77.853 C 52.145 77.585,52.033 73.656,52.093 66.620 L 52.186 55.800 52.300 66.335 C 52.393 75.005,52.519 76.976,53.007 77.464 C 53.531 77.988,53.600 76.802,53.600 67.249 L 53.600 56.441 52.654 55.421 C 52.134 54.859,51.549 54.403,51.354 54.406 C 51.159 54.409,51.234 54.560,51.519 54.741 M131.904 78.324 C 131.742 78.942,131.842 79.082,132.311 78.902 C 132.671 78.764,132.827 78.832,132.683 79.065 C 132.547 79.286,132.667 79.467,132.951 79.467 C 133.235 79.467,133.467 79.235,133.467 78.951 C 133.467 78.667,133.328 78.521,133.158 78.626 C 132.988 78.731,132.684 78.523,132.483 78.163 C 132.160 77.586,132.092 77.605,131.904 78.324 M265.200 78.000 L 263.800 78.295 265.076 78.347 C 265.778 78.376,266.464 78.220,266.600 78.000 C 266.736 77.780,266.792 77.624,266.724 77.653 C 266.656 77.682,265.970 77.838,265.200 78.000 M81.818 81.818 L 80.775 82.861 80.940 93.930 C 81.143 107.606,81.089 106.800,81.804 106.800 C 82.132 106.800,82.400 107.081,82.400 107.424 C 82.400 107.793,82.212 107.931,81.938 107.762 C 81.650 107.584,81.585 107.652,81.766 107.945 C 81.925 108.202,82.223 108.309,82.428 108.183 C 82.632 108.056,82.800 108.143,82.800 108.376 C 82.800 108.664,86.328 108.800,93.812 108.800 L 104.824 108.800 104.712 120.000 C 104.650 126.160,104.735 131.200,104.900 131.200 C 105.065 131.200,105.200 131.391,105.200 131.624 C 105.200 131.857,105.002 131.925,104.760 131.775 C 104.441 131.578,104.441 131.730,104.761 132.327 C 105.083 132.929,105.082 133.226,104.758 133.426 C 104.448 133.617,104.478 133.803,104.857 134.044 C 105.221 134.275,105.243 134.390,104.923 134.394 C 104.661 134.397,104.515 134.760,104.600 135.200 C 104.685 135.640,104.584 136.000,104.377 136.000 C 104.149 136.000,104.000 140.763,104.000 148.024 C 104.000 155.937,104.137 159.963,104.400 159.800 C 104.620 159.664,104.814 159.878,104.832 160.276 C 104.856 160.834,104.917 160.864,105.096 160.407 C 105.666 158.956,106.088 158.907,118.418 158.855 C 135.436 158.783,134.123 157.514,134.400 174.304 C 134.572 184.722,134.515 186.521,134.000 187.071 C 133.670 187.424,133.625 187.587,133.900 187.433 C 134.742 186.961,134.457 187.588,133.406 188.519 L 132.412 189.400 132.306 200.462 C 132.248 206.546,132.335 211.441,132.500 211.339 C 132.665 211.236,132.800 211.354,132.800 211.600 C 132.800 211.846,132.980 211.936,133.200 211.800 C 133.420 211.664,133.600 211.833,133.600 212.176 C 133.600 212.519,133.750 212.800,133.933 212.800 C 134.117 212.800,134.295 213.025,134.330 213.300 C 134.611 215.534,134.718 215.797,135.333 215.767 C 135.700 215.748,140.854 215.703,146.787 215.667 C 156.194 215.609,157.545 215.523,157.345 215.000 C 157.148 214.487,155.506 214.400,145.957 214.400 C 138.786 214.400,134.800 214.257,134.800 214.000 C 134.800 213.780,134.935 213.629,135.100 213.664 C 135.265 213.698,135.673 213.605,136.006 213.457 C 136.340 213.308,141.380 213.234,147.206 213.293 L 157.800 213.400 157.675 214.300 C 157.602 214.821,157.761 215.200,158.051 215.200 C 158.357 215.200,158.286 215.396,157.870 215.700 C 157.237 216.163,157.195 217.959,157.293 240.200 L 157.400 264.200 133.065 264.094 C 113.581 264.009,108.763 264.089,108.898 264.494 C 109.026 264.879,111.692 265.049,120.033 265.206 L 131.000 265.413 120.000 265.613 L 109.000 265.813 121.000 265.939 C 131.556 266.050,132.856 266.131,131.800 266.614 L 130.600 267.164 131.800 267.210 C 132.838 267.250,132.892 267.303,132.200 267.600 C 131.760 267.789,131.580 267.959,131.800 267.978 C 132.020 267.997,131.930 268.187,131.600 268.400 C 131.124 268.708,131.207 268.790,132.000 268.800 C 132.618 268.808,132.816 268.929,132.519 269.118 C 131.627 269.685,131.614 291.522,132.506 291.289 C 133.010 291.156,133.145 291.277,132.979 291.711 C 132.850 292.046,132.966 292.455,133.235 292.621 C 133.546 292.814,133.621 292.757,133.441 292.466 C 133.258 292.171,133.377 292.093,133.777 292.246 C 134.117 292.377,134.318 292.609,134.224 292.761 C 134.130 292.913,134.218 293.300,134.420 293.619 C 134.715 294.085,134.789 294.042,134.794 293.400 C 134.801 292.480,154.505 292.331,161.000 293.203 C 161.220 293.232,161.040 293.403,160.600 293.583 C 160.156 293.765,165.212 293.936,171.958 293.969 C 183.530 294.025,184.171 294.067,185.269 294.849 L 186.423 295.671 186.387 306.866 C 186.362 314.937,186.484 318.219,186.825 318.630 C 187.195 319.076,187.179 319.201,186.749 319.206 C 186.318 319.211,186.329 319.295,186.800 319.600 C 187.130 319.813,187.243 319.991,187.051 319.994 C 186.859 319.997,186.933 320.278,187.215 320.618 C 187.497 320.958,187.958 321.148,188.239 321.040 C 188.541 320.925,188.801 321.204,188.875 321.722 C 189.000 322.598,189.020 322.600,199.900 322.706 L 210.800 322.813 210.800 333.606 L 210.800 344.400 199.800 344.400 L 188.800 344.400 188.772 333.700 C 188.756 327.815,188.621 322.730,188.472 322.400 C 188.113 321.608,187.158 321.424,187.457 322.205 C 187.583 322.532,187.846 322.800,188.043 322.800 C 188.244 322.800,188.400 327.608,188.400 333.790 L 188.400 344.780 187.419 344.407 C 186.629 344.107,186.482 344.148,186.662 344.617 C 186.814 345.014,186.617 345.200,186.043 345.200 C 185.579 345.200,185.200 345.001,185.200 344.757 C 185.200 344.514,184.921 344.422,184.579 344.553 C 184.223 344.689,184.063 344.622,184.203 344.395 C 184.337 344.178,184.797 344.000,185.224 344.000 C 185.973 344.000,186.000 343.624,186.000 333.255 L 186.000 322.511 185.000 322.702 L 184.000 322.893 184.000 333.447 L 184.000 344.000 159.700 344.091 C 140.948 344.161,138.003 344.230,146.800 344.397 L 158.200 344.612 147.000 344.813 L 135.800 345.013 147.100 345.107 C 154.304 345.166,158.400 345.345,158.400 345.600 C 158.400 345.820,158.985 346.025,159.700 346.054 C 160.640 346.094,160.751 346.157,160.100 346.282 C 158.933 346.507,158.933 347.192,160.100 347.225 L 161.000 347.251 160.141 347.597 C 158.973 348.068,158.583 348.793,159.476 348.832 C 159.896 348.850,159.990 348.948,159.700 349.065 C 159.317 349.219,159.200 351.794,159.200 360.033 C 159.200 373.895,160.672 372.400,147.026 372.400 C 137.186 372.400,134.033 372.682,134.548 373.516 C 134.656 373.691,134.393 373.860,133.964 373.893 C 133.484 373.929,133.289 373.780,133.457 373.508 C 133.648 373.199,133.499 373.173,132.966 373.423 C 131.819 373.960,108.789 374.149,108.265 373.625 C 107.729 373.089,107.070 373.067,107.397 373.595 C 107.537 373.822,107.377 373.889,107.021 373.753 C 106.679 373.622,106.400 373.343,106.400 373.134 C 106.400 372.924,106.220 372.864,106.000 373.000 C 105.780 373.136,105.600 373.085,105.600 372.888 C 105.600 372.690,105.142 372.320,104.581 372.064 C 103.266 371.465,82.000 371.404,82.000 372.000 C 82.000 372.220,81.685 372.406,81.300 372.413 C 80.713 372.424,80.752 372.553,81.544 373.213 C 82.317 373.857,82.364 374.000,81.802 374.000 C 81.362 374.000,81.196 374.211,81.340 374.587 C 81.464 374.910,81.438 375.253,81.283 375.349 C 81.127 375.445,81.050 381.030,81.111 387.762 L 81.223 400.000 240.611 400.000 L 400.000 400.000 400.000 240.811 L 400.000 81.623 387.749 81.511 C 378.105 81.424,375.456 81.509,375.302 81.910 C 375.153 82.298,374.974 82.310,374.553 81.961 C 374.084 81.572,374.000 83.216,374.000 92.727 C 374.000 98.901,373.865 104.036,373.700 104.139 C 373.535 104.241,373.451 99.385,373.512 93.347 C 373.608 84.012,373.533 82.240,373.012 81.496 C 372.457 80.703,372.400 81.722,372.400 92.511 C 372.400 99.050,372.265 104.400,372.100 104.400 C 371.935 104.400,371.807 99.495,371.816 93.500 L 371.833 82.600 371.606 93.400 L 371.380 104.200 371.197 93.400 L 371.014 82.600 370.900 93.175 L 370.786 103.750 371.970 104.832 C 372.621 105.426,373.209 105.857,373.277 105.790 C 373.538 105.529,373.651 108.190,373.843 119.163 C 374.002 128.233,373.937 130.593,373.521 130.857 C 373.234 131.039,373.187 131.191,373.416 131.194 C 373.916 131.201,373.922 133.424,373.424 133.879 C 373.230 134.056,373.193 133.988,373.342 133.728 C 373.491 133.468,373.446 133.152,373.242 133.026 C 372.822 132.766,372.870 133.556,373.318 134.272 C 373.480 134.532,373.411 134.870,373.164 135.022 C 372.846 135.219,372.873 135.400,373.257 135.644 C 373.657 135.897,373.668 135.989,373.300 135.994 C 372.912 135.999,372.800 138.495,372.800 147.125 L 372.800 158.250 371.692 159.312 L 370.583 160.374 359.706 160.487 C 349.098 160.597,348.825 160.580,348.686 159.800 C 348.565 159.123,348.466 159.184,348.043 160.200 C 347.586 161.299,347.509 161.337,347.125 160.652 C 346.787 160.049,346.639 160.010,346.359 160.452 C 346.095 160.869,346.008 160.809,345.993 160.200 C 345.970 159.222,344.815 157.541,344.772 158.424 C 344.755 158.777,344.611 158.691,344.400 158.200 C 344.198 157.731,344.045 162.903,344.028 170.700 L 344.000 184.000 333.447 184.000 L 322.893 184.000 322.702 185.000 L 322.511 186.000 333.255 186.000 C 343.624 186.000,344.000 185.973,344.000 185.224 C 344.000 184.797,344.178 184.337,344.395 184.203 C 344.622 184.063,344.689 184.223,344.553 184.579 C 344.422 184.921,344.514 185.200,344.757 185.200 C 345.001 185.200,345.200 185.579,345.200 186.043 C 345.200 186.617,345.014 186.814,344.617 186.662 C 344.148 186.482,344.107 186.629,344.407 187.419 L 344.780 188.400 333.790 188.400 C 327.608 188.400,322.800 188.244,322.800 188.043 C 322.800 187.846,322.532 187.583,322.205 187.457 C 321.424 187.158,321.608 188.113,322.400 188.472 C 322.730 188.621,327.815 188.756,333.700 188.772 L 344.400 188.800 344.400 199.800 L 344.400 210.800 333.606 210.800 L 322.813 210.800 322.706 199.900 L 322.600 189.000 321.694 188.871 C 321.196 188.801,320.896 188.568,321.029 188.354 C 321.382 187.782,320.473 186.858,319.683 186.987 C 319.307 187.047,318.740 186.895,318.423 186.649 C 317.990 186.312,317.917 186.317,318.130 186.672 C 318.286 186.932,318.230 187.258,318.007 187.396 C 317.783 187.534,317.600 187.459,317.600 187.230 C 317.600 186.953,313.882 186.777,306.532 186.706 L 295.465 186.600 294.762 185.400 C 294.141 184.340,294.055 182.955,294.029 173.543 C 294.004 164.457,293.912 162.852,293.400 162.655 C 293.070 162.529,292.800 162.245,292.800 162.025 C 292.800 161.805,293.115 161.744,293.500 161.890 C 294.167 162.143,294.167 162.122,293.500 161.449 C 292.695 160.637,292.556 159.806,293.300 160.253 C 293.684 160.484,293.681 160.407,293.288 159.921 C 292.896 159.438,292.775 156.424,292.775 147.170 C 292.775 139.645,292.623 134.869,292.374 134.568 C 292.153 134.302,292.023 133.840,292.086 133.542 C 292.149 133.244,291.975 133.045,291.700 133.100 C 291.272 133.186,291.063 132.789,291.120 132.000 C 291.154 131.524,269.428 132.031,269.122 132.513 C 268.927 132.819,268.808 132.628,268.800 132.000 C 268.790 131.207,268.708 131.124,268.400 131.600 C 268.187 131.930,267.997 132.020,267.978 131.800 C 267.959 131.580,267.789 131.760,267.600 132.200 C 267.303 132.892,267.250 132.838,267.210 131.800 L 267.164 130.600 266.614 131.800 C 266.131 132.855,266.050 131.554,265.942 121.000 L 265.819 109.000 265.603 120.000 L 265.387 131.000 265.194 120.033 C 265.046 111.683,264.879 109.026,264.494 108.898 C 264.089 108.763,264.009 113.581,264.094 133.065 L 264.200 157.400 240.200 157.293 C 217.959 157.195,216.163 157.237,215.700 157.870 C 215.396 158.286,215.200 158.357,215.200 158.051 C 215.200 157.761,214.821 157.602,214.300 157.675 L 213.400 157.800 213.293 147.206 C 213.234 141.380,213.308 136.340,213.457 136.006 C 213.605 135.673,213.698 135.265,213.664 135.100 C 213.629 134.935,213.780 134.800,214.000 134.800 C 214.257 134.800,214.400 138.786,214.400 145.957 C 214.400 155.506,214.487 157.148,215.000 157.345 C 215.523 157.545,215.609 156.194,215.667 146.787 C 215.703 140.854,215.748 135.700,215.767 135.333 C 215.797 134.718,215.534 134.611,213.300 134.330 C 213.025 134.295,212.800 134.117,212.800 133.933 C 212.800 133.750,212.519 133.600,212.176 133.600 C 211.833 133.600,211.664 133.420,211.800 133.200 C 211.936 132.980,211.846 132.800,211.600 132.800 C 211.354 132.800,211.236 132.665,211.339 132.500 C 211.441 132.335,206.546 132.248,200.462 132.306 L 189.400 132.412 188.519 133.406 C 187.594 134.450,186.941 134.753,187.453 133.900 C 187.657 133.560,187.537 133.576,187.077 133.949 C 186.503 134.414,186.399 134.414,186.394 133.949 C 186.390 133.618,186.271 133.559,186.094 133.800 C 185.903 134.059,181.527 134.130,173.666 134.000 L 161.533 133.800 160.366 132.494 L 159.200 131.187 159.168 120.294 C 159.150 114.302,159.099 108.905,159.054 108.300 C 159.010 107.695,159.137 107.200,159.336 107.200 C 159.535 107.200,159.474 106.930,159.200 106.600 C 158.791 106.107,158.822 106.000,159.375 106.000 C 159.745 106.000,159.944 105.834,159.819 105.630 C 159.693 105.427,159.907 105.178,160.295 105.077 C 160.897 104.920,160.883 104.885,160.200 104.840 C 159.533 104.796,159.500 104.723,160.000 104.400 C 160.395 104.145,156.389 104.010,148.300 104.006 C 140.862 104.002,136.000 104.149,136.000 104.377 C 136.000 104.584,135.640 104.685,135.200 104.600 C 134.760 104.515,134.397 104.661,134.394 104.923 C 134.390 105.243,134.275 105.221,134.044 104.857 C 133.803 104.478,133.617 104.448,133.426 104.758 C 133.226 105.082,132.929 105.083,132.327 104.761 C 131.730 104.441,131.578 104.441,131.775 104.760 C 131.925 105.002,131.857 105.200,131.624 105.200 C 131.391 105.200,131.200 105.065,131.200 104.900 C 131.200 104.735,126.160 104.650,120.000 104.712 L 108.800 104.824 108.800 93.812 C 108.800 86.328,108.664 82.800,108.376 82.800 C 108.143 82.800,108.056 82.632,108.183 82.428 C 108.309 82.223,108.202 81.925,107.945 81.766 C 107.652 81.585,107.584 81.650,107.762 81.938 C 107.931 82.212,107.793 82.400,107.424 82.400 C 107.081 82.400,106.800 82.132,106.800 81.804 C 106.800 81.089,107.606 81.143,93.930 80.940 L 82.861 80.775 81.818 81.818 M133.890 81.843 C 133.756 81.977,133.669 87.062,133.695 93.143 C 133.721 99.224,133.799 103.120,133.867 101.800 C 133.979 99.633,134.247 81.599,134.167 81.600 C 134.148 81.600,134.024 81.709,133.890 81.843 M134.975 93.400 C 134.975 99.340,135.031 101.826,135.099 98.924 C 135.167 96.022,135.167 91.162,135.099 88.124 C 135.031 85.086,134.975 87.460,134.975 93.400 M264.067 107.026 C 264.017 107.782,264.050 108.400,264.142 108.400 C 264.427 108.400,264.681 105.974,264.413 105.808 C 264.274 105.722,264.118 106.270,264.067 107.026 M294.800 119.977 L 294.999 131.000 295.106 120.219 C 295.185 112.263,295.341 109.360,295.702 109.137 C 296.014 108.944,295.903 108.857,295.395 108.895 C 294.617 108.953,294.604 109.192,294.800 119.977 M293.775 120.000 C 293.775 126.050,293.831 128.525,293.899 125.500 C 293.967 122.475,293.967 117.525,293.899 114.500 C 293.831 111.475,293.775 113.950,293.775 120.000 M189.062 131.100 C 188.960 131.265,193.882 131.400,200.000 131.400 C 206.118 131.400,211.040 131.265,210.938 131.100 C 210.836 130.935,205.914 130.800,200.000 130.800 C 194.086 130.800,189.164 130.935,189.062 131.100 M78.229 131.958 C 77.520 132.236,77.514 132.281,78.155 132.527 C 78.537 132.674,78.757 132.946,78.643 133.131 C 78.529 133.315,78.667 133.467,78.951 133.467 C 79.235 133.467,79.467 133.235,79.467 132.951 C 79.467 132.667,79.286 132.547,79.065 132.683 C 78.826 132.831,78.767 132.662,78.919 132.266 C 79.060 131.900,79.136 131.613,79.087 131.628 C 79.039 131.644,78.653 131.792,78.229 131.958 M210.800 133.600 C 210.800 133.857,206.933 134.000,200.000 134.000 C 193.067 134.000,189.200 133.857,189.200 133.600 C 189.200 133.343,193.067 133.200,200.000 133.200 C 206.933 133.200,210.800 133.343,210.800 133.600 M81.847 133.924 C 81.686 134.183,96.515 134.140,101.800 133.867 C 103.120 133.799,99.209 133.721,93.109 133.695 C 87.009 133.669,81.941 133.772,81.847 133.924 M88.124 135.099 C 91.162 135.167,96.022 135.167,98.924 135.099 C 101.826 135.031,99.340 134.975,93.400 134.975 C 87.460 134.975,85.086 135.031,88.124 135.099 M213.775 146.600 C 213.775 152.540,213.831 155.026,213.899 152.124 C 213.967 149.222,213.967 144.362,213.899 141.324 C 213.831 138.286,213.775 140.660,213.775 146.600 M259.100 158.299 C 256.075 158.367,251.125 158.367,248.100 158.299 C 245.075 158.231,247.550 158.175,253.600 158.175 C 259.650 158.175,262.125 158.231,259.100 158.299 M130.884 199.876 C 130.838 205.858,130.935 210.837,131.100 210.939 C 131.265 211.041,131.354 207.857,131.298 203.862 C 131.106 190.304,130.968 188.969,130.884 199.876 M134.000 200.000 C 134.000 206.933,133.857 210.800,133.600 210.800 C 133.343 210.800,133.200 206.933,133.200 200.000 C 133.200 193.067,133.343 189.200,133.600 189.200 C 133.857 189.200,134.000 193.067,134.000 200.000 M141.324 213.899 C 144.362 213.967,149.222 213.967,152.124 213.899 C 155.026 213.831,152.540 213.775,146.600 213.775 C 140.660 213.775,138.286 213.831,141.324 213.899 M77.968 265.300 C 77.849 266.160,77.910 266.650,78.112 266.448 C 78.305 266.255,78.398 265.581,78.319 264.949 C 78.187 263.891,78.159 263.919,77.968 265.300 M105.808 264.413 C 105.974 264.681,108.400 264.427,108.400 264.142 C 108.400 264.050,107.782 264.017,107.026 264.067 C 106.270 264.118,105.722 264.274,105.808 264.413 M114.500 293.899 C 117.525 293.967,122.475 293.967,125.500 293.899 C 128.525 293.831,126.050 293.775,120.000 293.775 C 113.950 293.775,111.475 293.831,114.500 293.899 M108.895 295.395 C 108.855 295.931,108.938 296.025,109.149 295.682 C 109.393 295.287,111.878 295.200,120.312 295.287 C 126.279 295.349,131.032 295.271,130.873 295.113 C 130.067 294.308,108.956 294.579,108.895 295.395 M104.363 344.200 C 104.343 344.200,104.293 344.875,104.252 345.700 C 104.166 347.422,104.683 347.755,104.873 346.100 C 104.973 345.236,105.236 344.973,106.100 344.873 C 107.678 344.692,107.458 344.200,105.800 344.200 C 105.030 344.200,104.384 344.200,104.363 344.200 M114.500 344.299 C 117.525 344.367,122.475 344.367,125.500 344.299 C 128.525 344.231,126.050 344.175,120.000 344.175 C 113.950 344.175,111.475 344.231,114.500 344.299 M104.090 359.894 L 104.000 370.788 92.700 370.894 L 81.400 371.001 92.939 371.200 C 99.285 371.310,104.505 371.310,104.539 371.200 C 104.572 371.090,104.506 366.050,104.390 360.000 L 104.181 349.000 104.090 359.894 " stroke="none" fill="#f4e4d4" fill-rule="evenodd"></path><path id="path1" d="M50.993 64.993 C 50.997 73.835,51.148 79.122,51.400 79.330 C 51.658 79.544,51.619 79.734,51.289 79.868 C 50.886 80.030,50.785 83.167,50.815 94.664 L 50.853 109.255 51.926 109.185 C 52.517 109.147,58.445 109.134,65.100 109.158 L 77.200 109.200 77.200 119.920 C 77.200 127.724,77.331 130.771,77.680 131.120 C 78.005 131.445,78.018 131.600,77.720 131.600 C 77.203 131.600,77.131 134.179,77.615 135.373 C 77.828 135.899,77.961 135.982,77.981 135.600 C 78.009 135.067,78.055 135.067,78.394 135.600 C 78.717 136.108,78.907 136.118,79.630 135.670 C 80.099 135.379,80.374 135.318,80.241 135.534 C 80.084 135.788,84.388 135.945,92.379 135.979 C 104.635 136.030,104.758 136.022,104.603 135.215 C 104.516 134.765,104.659 134.397,104.923 134.394 C 105.243 134.390,105.221 134.275,104.857 134.044 C 104.478 133.803,104.448 133.617,104.758 133.426 C 105.082 133.226,105.083 132.929,104.761 132.327 C 104.441 131.730,104.441 131.578,104.760 131.775 C 105.002 131.925,105.200 131.857,105.200 131.624 C 105.200 131.391,105.065 131.200,104.900 131.200 C 104.735 131.200,104.650 126.160,104.712 120.000 L 104.824 108.800 93.812 108.800 C 86.328 108.800,82.800 108.664,82.800 108.376 C 82.800 108.143,82.632 108.056,82.428 108.183 C 82.223 108.309,81.925 108.202,81.766 107.945 C 81.585 107.652,81.650 107.584,81.938 107.762 C 82.212 107.931,82.400 107.793,82.400 107.424 C 82.400 107.081,82.132 106.800,81.804 106.800 C 81.089 106.800,81.143 107.606,80.940 93.930 L 80.775 82.861 81.818 81.818 L 82.861 80.775 93.930 80.940 C 107.606 81.143,106.800 81.089,106.800 81.804 C 106.800 82.132,107.081 82.400,107.424 82.400 C 107.793 82.400,107.931 82.212,107.762 81.938 C 107.584 81.650,107.652 81.585,107.945 81.766 C 108.202 81.925,108.309 82.223,108.183 82.428 C 108.056 82.632,108.143 82.800,108.376 82.800 C 108.664 82.800,108.800 86.328,108.800 93.812 L 108.800 104.824 120.000 104.712 C 126.160 104.650,131.200 104.735,131.200 104.900 C 131.200 105.065,131.391 105.200,131.624 105.200 C 131.857 105.200,131.925 105.002,131.775 104.760 C 131.578 104.441,131.730 104.441,132.327 104.761 C 132.929 105.083,133.226 105.082,133.426 104.758 C 133.617 104.448,133.803 104.478,134.044 104.857 C 134.275 105.221,134.390 105.243,134.394 104.923 C 134.397 104.659,134.765 104.516,135.215 104.603 C 136.022 104.758,136.030 104.635,135.979 92.379 C 135.945 84.388,135.788 80.084,135.534 80.241 C 135.318 80.374,135.379 80.099,135.670 79.630 C 136.118 78.907,136.108 78.717,135.600 78.394 C 135.067 78.055,135.067 78.009,135.600 77.981 C 135.982 77.961,135.899 77.828,135.373 77.615 C 134.179 77.131,131.600 77.203,131.600 77.720 C 131.600 78.018,131.445 78.005,131.120 77.680 C 130.771 77.331,127.724 77.200,119.920 77.200 L 109.200 77.200 109.158 65.100 C 109.134 58.445,109.147 52.517,109.185 51.926 L 109.255 50.853 94.664 50.815 C 83.167 50.785,80.030 50.886,79.868 51.289 C 79.734 51.619,79.544 51.658,79.330 51.400 C 79.122 51.148,73.835 50.997,64.993 50.993 L 50.985 50.985 50.993 64.993 M370.810 59.918 C 370.787 64.913,370.910 76.920,371.084 86.600 L 371.400 104.200 371.616 93.400 L 371.833 82.600 371.816 93.500 C 371.807 99.495,371.935 104.400,372.100 104.400 C 372.265 104.400,372.400 99.050,372.400 92.511 C 372.400 81.722,372.457 80.703,373.012 81.496 C 373.533 82.240,373.608 84.012,373.512 93.347 C 373.451 99.385,373.535 104.241,373.700 104.139 C 373.865 104.036,374.000 98.901,374.000 92.727 C 374.000 83.141,374.082 81.570,374.561 81.968 C 374.960 82.299,375.165 82.306,375.269 81.994 C 375.371 81.687,379.111 81.565,387.707 81.588 L 400.000 81.621 400.000 66.203 L 400.000 50.784 385.426 50.810 L 370.852 50.836 370.810 59.918 M55.311 51.743 C 55.726 51.070,78.267 51.544,78.267 52.225 C 78.267 52.639,78.138 52.698,77.853 52.413 C 77.585 52.145,73.656 52.033,66.620 52.093 L 55.800 52.186 66.335 52.300 C 75.005 52.393,76.976 52.519,77.464 53.007 C 77.988 53.531,76.802 53.600,67.249 53.600 L 56.441 53.600 55.421 52.654 C 54.859 52.134,54.403 51.549,54.406 51.354 C 54.409 51.159,54.567 51.244,54.756 51.543 C 54.945 51.841,55.195 51.931,55.311 51.743 M54.314 52.290 C 54.911 52.670,55.544 53.210,55.720 53.490 C 55.966 53.883,58.521 54.000,66.820 54.000 C 76.033 54.000,77.600 54.085,77.600 54.587 C 77.600 54.911,77.825 55.120,78.100 55.053 C 78.375 54.986,78.464 55.007,78.298 55.100 C 78.131 55.192,78.114 55.461,78.259 55.696 C 78.416 55.949,78.335 56.007,78.062 55.838 C 77.717 55.625,77.600 58.346,77.600 66.576 L 77.600 77.600 66.576 77.600 C 58.346 77.600,55.625 77.717,55.838 78.062 C 56.007 78.335,55.949 78.416,55.696 78.259 C 55.461 78.114,55.192 78.131,55.100 78.298 C 55.007 78.464,54.986 78.375,55.053 78.100 C 55.120 77.825,54.911 77.600,54.587 77.600 C 54.085 77.600,54.000 76.029,54.000 66.787 C 54.000 57.545,53.913 55.941,53.400 55.745 C 53.070 55.618,52.800 55.334,52.800 55.114 C 52.800 54.894,53.079 54.822,53.421 54.953 C 53.794 55.096,53.939 55.025,53.784 54.774 C 53.643 54.545,53.318 54.428,53.063 54.514 C 52.809 54.600,52.381 54.384,52.113 54.035 C 51.472 53.200,51.464 52.591,52.100 53.111 C 52.804 53.687,53.732 52.692,53.090 52.050 C 52.417 51.377,53.083 51.508,54.314 52.290 M52.654 55.421 L 53.600 56.441 53.600 67.249 C 53.600 76.802,53.531 77.988,53.007 77.464 C 52.519 76.976,52.393 75.005,52.300 66.335 L 52.186 55.800 52.093 66.620 C 52.033 73.656,52.145 77.585,52.413 77.853 C 52.698 78.138,52.639 78.267,52.225 78.267 C 51.544 78.267,51.070 55.726,51.743 55.311 C 51.931 55.195,51.841 54.945,51.543 54.756 C 51.244 54.567,51.159 54.409,51.354 54.406 C 51.549 54.403,52.134 54.859,52.654 55.421 M266.655 77.800 C 266.522 78.148,265.923 78.400,265.231 78.400 L 264.037 78.400 264.042 91.991 C 264.044 99.465,264.197 105.674,264.381 105.788 C 264.566 105.902,264.577 106.616,264.406 107.373 C 264.175 108.397,264.237 108.806,264.648 108.963 C 265.096 109.135,265.217 111.237,265.290 120.087 L 265.381 131.000 265.600 120.000 L 265.819 109.000 265.942 121.000 C 266.050 131.554,266.131 132.855,266.614 131.800 L 267.164 130.600 267.210 131.800 C 267.250 132.838,267.303 132.892,267.600 132.200 C 267.789 131.760,267.959 131.580,267.978 131.800 C 267.997 132.020,268.187 131.930,268.400 131.600 C 268.708 131.124,268.790 131.207,268.800 132.000 C 268.808 132.628,268.927 132.819,269.122 132.513 C 269.428 132.031,291.154 131.524,291.120 132.000 C 291.063 132.789,291.272 133.186,291.700 133.100 C 291.975 133.045,292.149 133.244,292.086 133.542 C 292.023 133.840,292.153 134.302,292.374 134.568 C 292.623 134.869,292.775 139.645,292.775 147.170 C 292.775 156.424,292.896 159.438,293.288 159.921 C 293.681 160.407,293.684 160.484,293.300 160.253 C 292.556 159.806,292.695 160.637,293.500 161.449 C 294.167 162.122,294.167 162.143,293.500 161.890 C 293.115 161.744,292.800 161.805,292.800 162.025 C 292.800 162.245,293.070 162.529,293.400 162.655 C 293.912 162.852,294.004 164.457,294.029 173.543 C 294.055 182.955,294.141 184.340,294.762 185.400 L 295.465 186.600 306.532 186.706 C 313.882 186.777,317.600 186.953,317.600 187.230 C 317.600 187.459,317.783 187.534,318.007 187.396 C 318.230 187.258,318.286 186.932,318.130 186.672 C 317.917 186.317,317.990 186.312,318.423 186.649 C 318.740 186.895,319.307 187.047,319.683 186.987 C 320.473 186.858,321.382 187.782,321.029 188.354 C 320.896 188.568,321.196 188.801,321.694 188.871 L 322.600 189.000 322.706 199.900 L 322.813 210.800 333.606 210.800 L 344.400 210.800 344.400 199.800 L 344.400 188.800 333.700 188.772 C 327.815 188.756,322.730 188.621,322.400 188.472 C 321.608 188.113,321.424 187.158,322.205 187.457 C 322.532 187.583,322.800 187.846,322.800 188.043 C 322.800 188.244,327.608 188.400,333.790 188.400 L 344.780 188.400 344.407 187.419 C 344.107 186.629,344.148 186.482,344.617 186.662 C 345.014 186.814,345.200 186.617,345.200 186.043 C 345.200 185.579,345.001 185.200,344.757 185.200 C 344.514 185.200,344.422 184.921,344.553 184.579 C 344.689 184.223,344.622 184.063,344.395 184.203 C 344.178 184.337,344.000 184.797,344.000 185.224 C 344.000 185.973,343.625 186.000,333.300 186.000 L 322.600 186.000 322.691 172.730 C 322.743 165.093,322.625 159.272,322.414 159.017 C 322.190 158.747,322.191 158.344,322.417 157.987 C 322.984 157.090,322.909 135.469,322.337 134.897 C 321.991 134.551,321.989 134.295,322.327 133.887 C 322.667 133.478,322.658 133.208,322.290 132.812 C 321.902 132.393,321.904 132.342,322.300 132.565 C 322.842 132.871,322.941 132.434,322.557 131.433 C 322.280 130.709,320.000 130.545,320.000 131.249 C 320.000 131.563,319.849 131.573,319.500 131.283 C 318.860 130.752,320.081 130.800,307.200 130.800 L 296.000 130.800 296.000 120.000 C 296.000 113.184,295.855 109.200,295.606 109.200 C 295.361 109.200,295.173 113.291,295.106 120.100 L 294.999 131.000 294.800 119.933 C 294.690 113.846,294.690 108.873,294.800 108.880 C 294.910 108.888,295.188 108.873,295.418 108.847 C 296.103 108.770,296.214 82.144,295.534 81.305 C 295.239 80.941,295.206 80.770,295.460 80.922 C 295.772 81.109,295.920 80.746,295.920 79.799 C 295.920 78.562,295.797 78.395,294.860 78.360 L 293.800 78.320 294.800 78.000 L 295.800 77.680 294.733 77.640 C 294.147 77.618,293.576 77.825,293.465 78.100 C 293.344 78.399,293.250 78.318,293.232 77.900 C 293.187 76.906,267.036 76.807,266.655 77.800 M133.158 78.626 C 133.328 78.521,133.467 78.667,133.467 78.951 C 133.467 79.235,133.235 79.467,132.951 79.467 C 132.667 79.467,132.547 79.286,132.683 79.065 C 132.827 78.832,132.671 78.764,132.311 78.902 C 131.842 79.082,131.742 78.942,131.904 78.324 C 132.092 77.605,132.160 77.586,132.483 78.163 C 132.684 78.523,132.988 78.731,133.158 78.626 M134.096 90.500 C 134.038 95.395,133.935 100.480,133.867 101.800 C 133.799 103.120,133.721 99.224,133.695 93.143 C 133.655 83.926,133.750 81.605,134.167 81.600 C 134.185 81.599,134.153 85.604,134.096 90.500 M135.099 98.924 C 135.031 101.826,134.975 99.340,134.975 93.400 C 134.975 87.460,135.031 85.086,135.099 88.124 C 135.167 91.162,135.167 96.022,135.099 98.924 M160.042 104.355 C 159.591 104.649,159.630 104.756,160.242 104.913 C 160.936 105.091,160.939 105.111,160.276 105.154 C 159.878 105.179,159.664 105.380,159.800 105.600 C 159.936 105.820,159.745 106.000,159.375 106.000 C 158.822 106.000,158.791 106.107,159.200 106.600 C 159.474 106.930,159.535 107.200,159.336 107.200 C 159.137 107.200,159.010 107.695,159.054 108.300 C 159.099 108.905,159.150 114.302,159.168 120.294 L 159.200 131.187 160.366 132.494 L 161.533 133.800 173.666 134.000 C 181.527 134.130,185.903 134.059,186.094 133.800 C 186.271 133.559,186.390 133.618,186.394 133.949 C 186.399 134.414,186.503 134.414,187.077 133.949 C 187.537 133.576,187.657 133.560,187.453 133.900 C 186.941 134.753,187.594 134.450,188.519 133.406 L 189.400 132.412 200.462 132.306 C 206.546 132.248,211.441 132.335,211.339 132.500 C 211.236 132.665,211.354 132.800,211.600 132.800 C 211.846 132.800,211.936 132.980,211.800 133.200 C 211.664 133.420,211.833 133.600,212.176 133.600 C 212.519 133.600,212.800 133.750,212.800 133.933 C 212.800 134.253,213.059 134.327,214.778 134.495 C 215.333 134.550,215.442 134.708,215.158 135.050 C 214.894 135.369,214.901 135.615,215.181 135.788 C 215.924 136.248,215.745 157.631,215.000 157.345 C 214.487 157.148,214.400 155.506,214.400 145.957 C 214.400 138.786,214.257 134.800,214.000 134.800 C 213.780 134.800,213.629 134.935,213.664 135.100 C 213.698 135.265,213.605 135.673,213.457 136.006 C 213.308 136.340,213.234 141.380,213.293 147.206 L 213.400 157.800 214.300 157.675 C 214.838 157.600,215.202 157.761,215.206 158.075 C 215.211 158.458,215.317 158.438,215.600 158.000 C 216.158 157.137,216.125 136.285,215.565 135.725 C 215.252 135.412,215.252 135.215,215.565 135.022 C 215.804 134.874,216.000 134.279,216.000 133.700 C 216.000 132.678,215.981 132.670,215.358 133.424 C 214.768 134.136,214.768 134.111,215.358 133.114 C 216.475 131.226,216.231 130.800,214.033 130.800 C 212.834 130.800,211.988 130.995,211.865 131.300 C 211.704 131.700,211.657 131.700,211.632 131.300 C 211.614 131.025,211.409 130.800,211.176 130.800 C 210.943 130.800,210.836 130.935,210.938 131.100 C 211.040 131.265,206.146 131.400,200.062 131.400 L 189.000 131.400 189.110 117.751 L 189.220 104.102 174.910 104.046 C 166.871 104.015,160.355 104.150,160.042 104.355 M344.480 104.480 C 343.853 105.107,343.865 106.279,344.500 106.535 C 344.866 106.683,344.871 106.745,344.521 106.768 C 343.801 106.816,343.771 131.597,344.491 131.606 C 344.817 131.610,344.851 131.718,344.587 131.906 C 344.110 132.245,344.084 132.798,344.513 133.472 C 344.678 133.732,344.648 134.047,344.447 134.171 C 343.973 134.464,343.921 157.135,344.391 158.200 C 344.610 158.696,344.754 158.781,344.772 158.424 C 344.815 157.541,345.970 159.222,345.993 160.200 C 346.008 160.809,346.095 160.869,346.359 160.452 C 346.639 160.010,346.787 160.049,347.125 160.652 C 347.509 161.337,347.586 161.299,348.043 160.200 C 348.466 159.184,348.565 159.123,348.686 159.800 C 348.825 160.580,349.098 160.597,359.706 160.487 L 370.583 160.374 371.692 159.312 L 372.800 158.250 372.800 147.125 C 372.800 138.495,372.912 135.999,373.300 135.994 C 373.668 135.989,373.657 135.897,373.257 135.644 C 372.873 135.400,372.846 135.219,373.164 135.022 C 373.411 134.870,373.480 134.532,373.318 134.272 C 372.870 133.556,372.822 132.766,373.242 133.026 C 373.446 133.152,373.491 133.468,373.342 133.728 C 373.193 133.988,373.230 134.056,373.424 133.879 C 373.922 133.424,373.916 131.201,373.416 131.194 C 373.187 131.191,373.234 131.039,373.521 130.857 C 373.937 130.593,374.002 128.233,373.843 119.163 C 373.650 108.171,373.538 105.528,373.275 105.791 C 373.207 105.860,372.681 105.481,372.107 104.949 L 371.064 103.982 358.958 104.012 C 349.953 104.034,346.803 104.164,346.658 104.521 C 346.512 104.879,346.455 104.874,346.432 104.500 C 346.391 103.863,345.110 103.850,344.480 104.480 M293.899 125.500 C 293.831 128.525,293.775 126.050,293.775 120.000 C 293.775 113.950,293.831 111.475,293.899 114.500 C 293.967 117.525,293.967 122.475,293.899 125.500 M78.919 132.266 C 78.767 132.662,78.826 132.831,79.065 132.683 C 79.286 132.547,79.467 132.667,79.467 132.951 C 79.467 133.235,79.235 133.467,78.951 133.467 C 78.667 133.467,78.529 133.315,78.643 133.131 C 78.757 132.946,78.537 132.674,78.155 132.527 C 77.475 132.266,77.661 132.087,79.087 131.628 C 79.136 131.613,79.060 131.900,78.919 132.266 M189.200 133.600 C 189.200 133.857,193.067 134.000,200.000 134.000 C 206.933 134.000,210.800 133.857,210.800 133.600 C 210.800 133.343,206.933 133.200,200.000 133.200 C 193.067 133.200,189.200 133.343,189.200 133.600 M101.800 133.867 C 96.515 134.140,81.686 134.183,81.847 133.924 C 81.941 133.772,87.009 133.669,93.109 133.695 C 99.209 133.721,103.120 133.799,101.800 133.867 M98.924 135.099 C 96.022 135.167,91.162 135.167,88.124 135.099 C 85.086 135.031,87.460 134.975,93.400 134.975 C 99.340 134.975,101.826 135.031,98.924 135.099 M213.899 152.124 C 213.831 155.026,213.775 152.540,213.775 146.600 C 213.775 140.660,213.831 138.286,213.899 141.324 C 213.967 144.362,213.967 149.222,213.899 152.124 M248.100 158.299 C 251.125 158.367,256.075 158.367,259.100 158.299 C 262.125 158.231,259.650 158.175,253.600 158.175 C 247.550 158.175,245.075 158.231,248.100 158.299 M105.758 159.369 C 105.518 159.626,105.218 160.098,105.092 160.418 C 104.920 160.855,104.855 160.819,104.832 160.276 C 104.814 159.878,104.611 159.669,104.381 159.812 C 104.099 159.986,103.984 164.839,104.031 174.635 L 104.101 189.200 117.638 189.200 L 131.175 189.200 131.288 200.162 C 131.349 206.191,131.265 211.041,131.100 210.939 C 130.935 210.836,130.800 210.928,130.800 211.143 C 130.800 211.358,131.025 211.624,131.300 211.735 C 131.700 211.896,131.700 211.943,131.300 211.968 C 130.971 211.989,130.800 212.684,130.800 214.000 C 130.800 216.233,131.219 216.479,133.114 215.358 C 134.111 214.768,134.136 214.768,133.424 215.358 C 132.670 215.981,132.678 216.000,133.700 216.000 C 134.279 216.000,134.874 215.804,135.022 215.565 C 135.215 215.252,135.412 215.252,135.725 215.565 C 136.285 216.125,157.137 216.158,158.000 215.600 C 158.438 215.317,158.458 215.211,158.075 215.206 C 157.761 215.202,157.600 214.838,157.675 214.300 L 157.800 213.400 147.206 213.293 C 141.380 213.234,136.340 213.308,136.006 213.457 C 135.673 213.605,135.265 213.698,135.100 213.664 C 134.935 213.629,134.800 213.780,134.800 214.000 C 134.800 214.257,138.786 214.400,145.957 214.400 C 155.506 214.400,157.148 214.487,157.345 215.000 C 157.631 215.745,136.248 215.924,135.788 215.181 C 135.615 214.901,135.369 214.894,135.050 215.158 C 134.708 215.442,134.550 215.333,134.495 214.778 C 134.327 213.059,134.253 212.800,133.933 212.800 C 133.750 212.800,133.600 212.519,133.600 212.176 C 133.600 211.833,133.420 211.664,133.200 211.800 C 132.980 211.936,132.800 211.846,132.800 211.600 C 132.800 211.354,132.665 211.236,132.500 211.339 C 132.335 211.441,132.248 206.546,132.306 200.462 L 132.412 189.400 133.406 188.519 C 134.457 187.588,134.742 186.961,133.900 187.433 C 133.625 187.587,133.670 187.424,134.000 187.071 C 134.515 186.521,134.572 184.722,134.400 174.304 C 134.123 157.514,135.440 158.785,118.397 158.853 C 109.656 158.887,106.071 159.034,105.758 159.369 M133.200 200.000 C 133.200 206.933,133.343 210.800,133.600 210.800 C 133.857 210.800,134.000 206.933,134.000 200.000 C 134.000 193.067,133.857 189.200,133.600 189.200 C 133.343 189.200,133.200 193.067,133.200 200.000 M152.124 213.899 C 149.222 213.967,144.362 213.967,141.324 213.899 C 138.286 213.831,140.660 213.775,146.600 213.775 C 152.540 213.775,155.026 213.831,152.124 213.899 M78.400 265.231 C 78.400 265.923,78.148 266.522,77.800 266.655 C 76.807 267.036,76.906 293.187,77.900 293.232 C 78.318 293.250,78.399 293.344,78.100 293.465 C 77.825 293.576,77.618 294.147,77.640 294.733 L 77.680 295.800 78.000 294.800 L 78.320 293.800 78.360 294.860 C 78.395 295.797,78.562 295.920,79.799 295.920 C 80.746 295.920,81.109 295.772,80.922 295.460 C 80.770 295.206,80.941 295.239,81.305 295.534 C 82.144 296.214,108.770 296.103,108.847 295.418 C 108.873 295.188,108.888 294.910,108.880 294.800 C 108.858 294.484,130.553 294.793,130.873 295.113 C 131.032 295.271,126.220 295.349,120.181 295.288 C 112.835 295.212,109.200 295.312,109.200 295.588 C 109.200 295.861,112.851 296.000,120.000 296.000 L 130.800 296.000 130.832 307.500 C 130.873 322.023,130.883 322.223,131.500 322.100 C 131.775 322.045,132.000 322.183,132.000 322.407 C 132.000 322.978,160.637 322.915,161.708 322.342 C 162.284 322.034,162.421 322.042,162.218 322.372 C 162.012 322.704,165.111 322.794,173.969 322.712 L 186.000 322.600 186.000 333.300 C 186.000 343.625,185.973 344.000,185.224 344.000 C 184.797 344.000,184.337 344.178,184.203 344.395 C 184.063 344.622,184.223 344.689,184.579 344.553 C 184.921 344.422,185.200 344.514,185.200 344.757 C 185.200 345.001,185.579 345.200,186.043 345.200 C 186.617 345.200,186.814 345.014,186.662 344.617 C 186.482 344.148,186.629 344.107,187.419 344.407 L 188.400 344.780 188.400 333.790 C 188.400 327.608,188.244 322.800,188.043 322.800 C 187.846 322.800,187.583 322.532,187.457 322.205 C 187.158 321.424,188.113 321.608,188.472 322.400 C 188.621 322.730,188.756 327.815,188.772 333.700 L 188.800 344.400 199.800 344.400 L 210.800 344.400 210.800 333.606 L 210.800 322.813 199.900 322.706 C 189.020 322.600,189.000 322.598,188.875 321.722 C 188.801 321.204,188.541 320.925,188.239 321.040 C 187.958 321.148,187.497 320.958,187.215 320.618 C 186.933 320.278,186.859 319.997,187.051 319.994 C 187.243 319.991,187.130 319.813,186.800 319.600 C 186.329 319.295,186.318 319.211,186.749 319.206 C 187.179 319.201,187.195 319.076,186.825 318.630 C 186.484 318.219,186.362 314.937,186.387 306.866 L 186.423 295.671 185.269 294.849 C 184.171 294.067,183.530 294.025,171.958 293.969 C 165.212 293.936,160.156 293.765,160.600 293.583 C 161.040 293.403,161.220 293.232,161.000 293.203 C 154.505 292.331,134.801 292.480,134.794 293.400 C 134.789 294.042,134.715 294.085,134.420 293.619 C 134.218 293.300,134.130 292.913,134.224 292.761 C 134.318 292.609,134.117 292.377,133.777 292.246 C 133.377 292.093,133.258 292.171,133.441 292.466 C 133.621 292.757,133.546 292.814,133.235 292.621 C 132.966 292.455,132.850 292.046,132.979 291.711 C 133.145 291.277,133.010 291.156,132.506 291.289 C 131.614 291.522,131.627 269.685,132.519 269.118 C 132.816 268.929,132.618 268.808,132.000 268.800 C 131.207 268.790,131.124 268.708,131.600 268.400 C 131.930 268.187,132.020 267.997,131.800 267.978 C 131.580 267.959,131.760 267.789,132.200 267.600 C 132.892 267.303,132.838 267.250,131.800 267.210 L 130.600 267.164 131.800 266.614 C 132.855 266.131,131.554 266.050,121.000 265.942 L 109.000 265.819 120.000 265.600 L 131.000 265.381 120.087 265.290 C 111.237 265.217,109.135 265.096,108.963 264.648 C 108.806 264.237,108.397 264.175,107.373 264.406 C 106.616 264.577,105.902 264.566,105.788 264.381 C 105.674 264.197,99.465 264.044,91.991 264.042 L 78.400 264.037 78.400 265.231 M125.500 293.899 C 122.475 293.967,117.525 293.967,114.500 293.899 C 111.475 293.831,113.950 293.775,120.000 293.775 C 126.050 293.775,128.525 293.831,125.500 293.899 M107.200 344.373 C 107.200 344.579,106.705 344.804,106.100 344.873 C 105.236 344.973,104.973 345.236,104.873 346.100 C 104.804 346.705,104.579 347.200,104.373 347.200 C 104.168 347.200,104.000 347.391,104.000 347.624 C 104.000 347.857,104.150 347.955,104.333 347.841 C 104.517 347.728,104.667 347.889,104.667 348.200 C 104.667 348.511,104.486 348.653,104.265 348.517 C 104.026 348.369,103.967 348.538,104.120 348.936 C 104.477 349.867,104.515 371.225,104.161 371.542 C 104.002 371.684,103.973 371.620,104.096 371.400 C 104.245 371.136,95.249 370.952,77.578 370.859 L 50.836 370.718 50.810 385.359 L 50.784 400.000 66.003 400.000 L 81.221 400.000 81.188 387.756 C 81.170 381.021,81.243 375.424,81.350 375.317 C 81.457 375.209,81.448 374.869,81.330 374.561 C 81.196 374.214,81.376 374.000,81.802 374.000 C 82.364 374.000,82.317 373.857,81.544 373.213 C 80.752 372.553,80.713 372.424,81.300 372.413 C 81.685 372.406,82.000 372.220,82.000 372.000 C 82.000 371.404,103.266 371.465,104.581 372.064 C 105.142 372.320,105.600 372.690,105.600 372.888 C 105.600 373.085,105.780 373.136,106.000 373.000 C 106.220 372.864,106.400 372.924,106.400 373.134 C 106.400 373.343,106.679 373.622,107.021 373.753 C 107.377 373.889,107.537 373.822,107.397 373.595 C 107.070 373.067,107.729 373.089,108.265 373.625 C 108.789 374.149,131.819 373.960,132.966 373.423 C 133.499 373.173,133.648 373.199,133.457 373.508 C 133.289 373.780,133.484 373.929,133.964 373.893 C 134.393 373.860,134.656 373.691,134.548 373.516 C 134.033 372.682,137.186 372.400,147.026 372.400 C 160.672 372.400,159.200 373.895,159.200 360.033 C 159.200 351.794,159.317 349.219,159.700 349.065 C 159.990 348.948,159.896 348.850,159.476 348.832 C 158.583 348.793,158.973 348.068,160.141 347.597 L 161.000 347.251 160.100 347.225 C 159.605 347.211,159.200 347.033,159.200 346.828 C 159.200 346.623,159.605 346.378,160.100 346.282 C 160.751 346.157,160.640 346.094,159.700 346.054 C 158.985 346.025,158.400 345.820,158.400 345.600 C 158.400 345.345,154.306 345.167,147.100 345.110 L 135.800 345.019 147.000 344.800 L 158.200 344.581 146.800 344.455 C 124.695 344.212,108.480 344.203,108.621 344.433 C 108.700 344.562,108.511 344.667,108.200 344.667 C 107.889 344.667,107.728 344.517,107.841 344.333 C 107.955 344.150,107.857 344.000,107.624 344.000 C 107.391 344.000,107.200 344.168,107.200 344.373 " stroke="none" fill="#f4ecd9" fill-rule="evenodd"></path></g></svg>