<svg id="svg" version="1.1" xmlns="http://www.w3.org/2000/svg" xmlns:xlink="http://www.w3.org/1999/xlink" width="400" height="400" viewBox="0, 0, 400,400"><g id="svgg"><path id="path0" d="M0.000 14.400 L 0.000 28.800 12.200 28.800 L 24.400 28.800 24.400 39.813 C 24.400 49.232,24.487 50.858,25.000 51.055 C 25.330 51.182,25.600 51.457,25.600 51.666 C 25.600 51.876,25.403 51.925,25.162 51.776 C 24.892 51.610,24.776 51.781,24.862 52.219 C 24.938 52.612,25.270 53.007,25.600 53.097 C 26.129 53.242,26.130 53.212,25.605 52.848 C 25.120 52.512,25.170 52.447,25.877 52.501 C 26.354 52.537,26.656 52.709,26.549 52.883 C 26.316 53.260,25.449 53.231,39.400 53.303 L 50.600 53.360 39.800 53.590 L 29.000 53.819 39.891 53.910 L 50.782 54.000 51.424 54.980 C 52.329 56.362,52.011 80.923,51.075 81.859 C 50.625 82.309,50.746 105.920,51.200 106.200 C 51.420 106.336,51.621 106.932,51.646 107.524 C 51.680 108.302,51.747 108.390,51.887 107.842 C 52.036 107.260,52.158 107.208,52.410 107.616 C 52.665 108.028,52.867 108.042,53.306 107.678 C 53.618 107.419,53.982 107.315,54.115 107.448 C 54.247 107.580,59.559 107.660,65.919 107.625 L 77.482 107.561 78.152 108.583 C 79.049 109.952,79.090 130.319,78.202 133.727 C 77.661 135.806,77.209 159.012,77.693 159.849 C 77.805 160.042,77.844 160.529,77.779 160.931 C 77.697 161.441,77.844 161.592,78.264 161.431 C 78.595 161.304,78.951 161.200,79.056 161.200 C 79.161 161.200,79.119 160.992,78.962 160.738 C 78.780 160.444,78.853 160.385,79.161 160.576 C 79.427 160.740,85.195 160.851,91.978 160.821 L 104.310 160.767 104.755 162.043 C 105.248 163.458,105.351 184.716,104.877 187.326 L 104.600 188.851 93.800 188.913 L 83.000 188.975 93.500 189.094 L 104.000 189.213 104.000 200.007 C 104.000 205.943,104.150 210.800,104.333 210.800 C 104.517 210.800,104.676 211.025,104.687 211.300 C 104.698 211.575,104.823 212.340,104.966 213.000 C 105.398 215.004,105.215 237.624,104.760 238.475 C 104.367 239.208,103.790 239.241,91.874 239.196 C 85.014 239.171,79.175 239.161,78.900 239.175 C 78.625 239.189,78.382 239.515,78.360 239.900 C 78.334 240.367,78.214 240.267,78.000 239.600 C 77.758 238.843,77.329 262.530,77.547 264.600 C 77.575 264.858,73.729 264.994,66.695 264.984 L 55.800 264.967 66.600 265.184 L 77.400 265.400 77.658 267.200 C 77.800 268.190,77.941 273.900,77.970 279.889 L 78.023 290.777 65.773 290.889 C 59.035 290.950,53.367 290.904,53.177 290.786 C 52.988 290.669,52.809 285.451,52.781 279.190 C 52.737 269.280,52.657 267.908,52.165 268.580 C 51.709 269.204,51.600 271.613,51.600 281.100 C 51.600 288.830,51.463 292.763,51.200 292.600 C 50.658 292.265,50.657 317.171,51.199 318.598 C 51.419 319.175,51.724 320.312,51.878 321.124 C 52.330 323.505,52.449 343.726,52.016 344.400 C 51.196 345.677,25.845 345.578,24.560 344.293 C 24.399 344.132,18.807 344.000,12.133 344.000 L 0.000 344.000 0.000 372.000 L 0.000 400.000 200.000 400.000 L 400.000 400.000 400.000 372.000 L 400.000 344.000 388.049 344.000 C 378.475 344.000,375.820 344.116,374.700 344.584 C 373.931 344.905,373.201 345.067,373.077 344.944 C 372.954 344.821,372.661 344.838,372.427 344.983 C 371.595 345.498,349.059 345.217,348.716 344.688 C 348.247 343.964,348.391 320.943,348.880 318.516 C 349.169 317.083,349.190 308.970,348.950 292.516 C 348.619 269.898,348.589 269.219,348.391 280.000 L 348.181 291.400 347.997 279.800 L 347.813 268.200 347.700 279.460 C 347.581 291.355,347.582 291.349,345.743 291.002 C 345.334 290.924,339.904 290.847,333.676 290.831 L 322.351 290.800 322.432 278.433 C 322.476 271.631,322.630 265.875,322.775 265.640 C 322.948 265.360,326.679 265.174,333.619 265.100 L 344.200 264.986 333.500 264.893 L 322.800 264.800 322.800 252.624 C 322.800 244.807,322.654 240.357,322.393 240.196 C 322.170 240.058,322.114 239.732,322.270 239.472 C 322.426 239.213,322.214 239.270,321.800 239.600 C 321.361 239.950,321.172 239.991,321.347 239.700 C 321.516 239.419,321.451 239.200,321.200 239.200 C 320.949 239.200,320.884 238.981,321.053 238.700 C 321.267 238.343,321.164 238.353,320.694 238.734 C 320.332 239.028,319.860 239.160,319.645 239.028 C 319.431 238.895,319.137 238.979,318.992 239.213 C 318.809 239.509,318.557 239.496,318.164 239.170 C 317.854 238.913,317.600 238.859,317.600 239.051 C 317.601 239.720,295.622 239.082,295.185 238.400 C 294.659 237.579,294.716 213.183,295.246 212.545 C 295.635 212.075,295.589 205.668,294.977 175.415 C 294.733 163.322,294.842 161.423,295.801 161.055 C 296.236 160.888,319.527 160.649,321.800 160.788 C 322.020 160.801,321.930 160.987,321.600 161.200 C 321.081 161.535,321.090 161.589,321.667 161.594 C 322.033 161.597,322.414 161.825,322.512 162.100 C 322.610 162.375,322.677 161.925,322.661 161.100 C 322.644 160.275,322.444 159.597,322.216 159.594 C 321.987 159.591,322.049 159.430,322.354 159.237 C 322.705 159.015,322.819 158.532,322.666 157.921 C 322.533 157.391,322.407 152.021,322.387 145.989 C 322.365 139.418,322.192 134.831,321.955 134.546 C 321.217 133.657,321.500 109.325,322.262 108.162 L 322.907 107.177 333.896 107.213 C 339.940 107.233,344.979 107.155,345.093 107.040 C 345.208 106.926,345.909 107.085,346.651 107.395 C 347.836 107.891,348.000 107.886,348.000 107.356 C 348.000 107.024,348.168 106.857,348.374 106.984 C 349.116 107.442,349.274 103.470,348.999 91.339 C 348.550 71.610,348.551 54.888,349.000 54.444 C 349.241 54.206,354.010 54.017,361.000 53.968 C 371.658 53.893,372.641 53.828,373.106 53.167 C 373.405 52.742,373.953 52.514,374.449 52.609 C 375.123 52.739,375.244 52.613,375.074 51.961 C 374.946 51.471,375.087 51.065,375.431 50.933 C 375.904 50.751,376.000 48.862,376.000 39.757 L 376.000 28.800 388.000 28.800 L 400.000 28.800 400.000 14.400 L 400.000 0.000 200.000 0.000 L 0.000 0.000 0.000 14.400 M290.800 39.911 C 290.800 49.650,290.883 51.140,291.469 51.977 C 291.837 52.503,291.940 52.810,291.697 52.660 C 291.454 52.510,291.142 52.570,291.004 52.793 C 290.866 53.017,290.924 53.200,291.134 53.200 C 291.866 53.200,292.021 54.497,291.346 54.990 C 290.877 55.333,290.815 55.562,291.139 55.763 C 291.469 55.966,291.600 59.230,291.600 67.247 C 291.600 75.090,291.472 78.368,291.173 78.183 C 290.752 77.923,290.793 84.381,291.426 118.530 C 291.591 127.403,291.526 130.607,291.175 131.030 C 290.788 131.497,288.806 131.600,280.251 131.600 C 263.917 131.601,264.834 130.750,264.814 145.926 C 264.805 152.770,264.643 157.146,264.380 157.638 C 263.977 158.390,263.503 158.422,253.138 158.387 C 247.186 158.367,242.215 158.452,242.091 158.575 C 241.968 158.699,241.556 158.800,241.176 158.800 C 240.796 158.800,240.382 159.070,240.255 159.400 C 240.129 159.730,239.719 160.000,239.346 160.000 C 238.972 160.000,238.786 160.119,238.931 160.264 C 239.076 160.409,238.846 160.772,238.421 161.071 C 237.688 161.584,237.644 162.209,237.613 172.662 C 237.594 178.739,237.491 183.853,237.383 184.028 C 237.275 184.202,237.349 184.445,237.548 184.568 C 238.399 185.094,238.919 211.633,238.132 214.400 C 237.754 215.731,237.325 238.102,237.669 238.549 C 237.817 238.741,237.831 239.175,237.701 239.514 C 237.532 239.954,237.627 240.046,238.032 239.836 C 238.344 239.674,238.289 239.796,237.910 240.107 C 237.324 240.588,237.299 240.783,237.749 241.398 C 238.132 241.922,238.360 241.989,238.575 241.641 C 238.804 241.269,239.005 241.272,239.466 241.655 C 239.821 241.949,240.170 241.997,240.330 241.774 C 240.675 241.296,242.065 241.171,241.772 241.645 C 241.651 241.840,241.743 242.000,241.976 242.000 C 242.209 242.000,242.400 241.865,242.400 241.700 C 242.399 241.062,264.305 241.575,264.552 242.219 C 264.678 242.547,264.794 248.541,264.811 255.541 C 264.836 266.186,264.933 268.267,265.403 268.267 C 265.712 268.267,265.852 268.072,265.714 267.833 C 265.576 267.595,265.808 267.696,266.231 268.057 C 266.903 268.632,268.508 268.723,279.000 268.780 C 285.600 268.815,291.145 268.989,291.323 269.165 C 291.500 269.342,291.546 274.776,291.425 281.243 C 290.805 314.203,290.760 321.600,291.176 321.600 C 291.465 321.600,291.600 325.201,291.600 332.900 L 291.600 344.200 200.178 344.098 L 108.755 343.997 108.878 318.898 C 108.945 305.094,108.959 288.231,108.909 281.424 C 108.859 274.618,108.867 269.000,108.927 268.939 C 108.988 268.879,114.654 268.807,121.519 268.779 C 129.058 268.748,134.000 268.578,134.000 268.350 C 134.000 268.142,134.405 268.188,134.900 268.451 C 135.661 268.857,135.731 268.844,135.351 268.365 C 135.105 268.054,134.970 267.440,135.052 267.000 C 135.134 266.560,135.196 260.948,135.191 254.529 C 135.185 246.874,135.324 242.770,135.597 242.602 C 135.826 242.460,135.913 242.183,135.791 241.985 C 135.485 241.490,157.528 241.287,158.021 241.780 C 158.260 242.020,158.400 241.983,158.400 241.680 C 158.400 241.416,158.771 241.200,159.224 241.200 C 159.677 241.200,159.948 241.361,159.826 241.558 C 159.704 241.755,159.883 242.023,160.223 242.154 C 160.563 242.284,160.739 242.225,160.614 242.023 C 160.489 241.821,160.570 241.542,160.793 241.404 C 161.017 241.266,161.200 241.327,161.200 241.541 C 161.200 242.227,162.595 241.750,162.738 241.015 C 162.837 240.509,162.722 240.399,162.338 240.629 C 161.956 240.859,161.974 240.738,162.400 240.212 C 162.860 239.643,162.883 239.430,162.498 239.301 C 162.221 239.208,162.097 238.967,162.221 238.766 C 162.550 238.233,162.651 215.600,162.325 215.600 C 161.960 215.600,161.957 215.551,161.765 205.400 C 161.674 200.560,161.554 194.755,161.499 192.499 C 161.445 190.244,161.490 188.399,161.600 188.399 C 161.963 188.401,162.055 186.324,162.224 174.275 L 162.391 162.350 173.040 162.387 C 180.449 162.413,183.855 162.286,184.236 161.970 C 184.624 161.648,189.051 161.522,199.403 161.538 C 208.557 161.553,213.935 161.419,213.788 161.181 C 213.659 160.971,213.743 160.800,213.976 160.800 C 214.209 160.800,214.400 161.016,214.400 161.280 C 214.400 161.643,214.522 161.638,214.900 161.260 C 215.273 160.888,215.429 157.682,215.516 148.680 C 215.579 142.036,215.705 136.385,215.794 136.123 C 215.913 135.774,219.054 135.597,227.479 135.465 C 239.634 135.274,240.000 135.253,240.000 134.746 C 240.000 134.569,240.272 134.529,240.605 134.657 C 241.037 134.823,241.139 134.706,240.962 134.245 C 240.826 133.890,240.896 133.600,241.118 133.600 C 241.380 133.600,241.538 129.342,241.567 121.500 C 241.607 110.910,241.698 109.238,242.297 108.100 L 242.982 106.800 253.411 106.800 C 260.989 106.800,263.971 106.931,264.320 107.280 C 264.693 107.653,264.800 107.653,264.800 107.280 C 264.800 106.998,265.378 106.800,266.200 106.800 C 266.970 106.800,267.600 106.609,267.600 106.376 C 267.600 106.143,267.392 106.081,267.138 106.238 C 266.843 106.421,266.785 106.347,266.979 106.035 C 267.145 105.766,267.530 105.641,267.834 105.758 C 268.999 106.205,269.200 104.397,269.200 93.476 C 269.200 82.567,269.024 79.815,268.351 80.230 C 268.158 80.350,267.986 80.122,267.968 79.724 C 267.950 79.300,267.853 79.208,267.734 79.502 C 267.623 79.779,267.367 79.903,267.166 79.779 C 266.965 79.655,266.800 79.713,266.800 79.910 C 266.800 80.209,265.478 80.260,264.800 79.986 C 264.690 79.942,264.480 79.922,264.333 79.942 C 263.028 80.119,241.918 79.956,241.000 79.761 C 240.340 79.621,239.440 79.477,239.000 79.441 C 238.560 79.406,238.002 79.253,237.761 79.102 C 237.079 78.676,162.802 78.771,162.003 79.199 C 160.653 79.921,137.057 80.453,135.977 79.786 C 135.807 79.681,135.202 79.771,134.634 79.987 C 133.964 80.242,133.600 80.243,133.600 79.990 C 133.600 79.411,132.407 79.517,132.360 80.100 C 132.338 80.375,132.176 80.150,132.000 79.600 C 131.714 78.708,131.675 78.761,131.640 80.100 C 131.618 80.925,131.420 81.600,131.200 81.600 C 130.943 81.600,130.800 85.708,130.800 93.125 L 130.800 104.650 132.100 105.625 L 133.400 106.600 145.414 106.716 C 156.703 106.825,157.456 106.878,157.901 107.591 C 158.235 108.126,158.400 112.149,158.460 121.274 C 158.550 134.877,158.594 135.200,160.371 135.200 C 160.827 135.200,161.200 135.362,161.200 135.559 C 161.200 135.762,166.206 135.945,172.685 135.978 C 179.002 136.011,184.211 136.078,184.260 136.127 C 184.531 136.398,184.547 159.601,184.276 159.600 C 184.098 159.600,184.081 159.392,184.238 159.138 C 184.398 158.879,184.349 158.784,184.126 158.922 C 183.908 159.057,178.750 159.190,172.665 159.219 C 163.426 159.262,161.600 159.363,161.600 159.835 C 161.600 160.146,161.870 160.400,162.200 160.400 C 162.530 160.400,162.800 160.220,162.800 160.000 C 162.800 159.533,183.560 159.442,184.213 159.906 C 184.441 160.068,184.621 160.470,184.613 160.800 C 184.593 161.697,163.054 161.911,162.166 161.023 C 161.842 160.699,161.267 160.533,160.888 160.655 C 160.304 160.842,160.291 160.810,160.800 160.444 C 161.372 160.032,160.671 159.768,159.500 159.953 C 159.335 159.979,159.221 159.865,159.247 159.700 C 159.435 158.512,159.037 158.467,147.704 158.418 C 141.381 158.390,136.077 158.237,135.916 158.076 C 135.756 157.916,135.574 152.748,135.512 146.592 C 135.391 134.523,135.391 134.526,134.200 133.594 C 132.044 131.907,131.320 131.806,120.000 131.600 L 109.000 131.400 108.981 93.993 C 108.971 73.420,108.837 56.384,108.684 56.135 C 108.176 55.313,109.573 55.200,120.233 55.200 C 127.011 55.200,130.800 55.057,130.800 54.800 C 130.800 54.543,126.859 54.400,119.776 54.400 C 112.529 54.400,108.837 54.537,109.000 54.800 C 109.136 55.020,109.057 55.200,108.824 55.200 C 108.591 55.200,108.400 54.930,108.400 54.600 C 108.400 54.270,108.625 53.997,108.900 53.994 C 109.233 53.990,109.200 53.858,108.800 53.600 C 108.416 53.352,108.377 53.210,108.690 53.206 C 109.047 53.202,109.077 52.929,108.800 52.200 C 108.556 51.557,108.559 51.200,108.810 51.200 C 109.054 51.200,109.200 47.011,109.200 40.000 L 109.200 28.800 200.000 28.800 L 290.800 28.800 290.800 39.911 M365.500 53.499 C 362.475 53.567,357.525 53.567,354.500 53.499 C 351.475 53.431,353.950 53.375,360.000 53.375 C 366.050 53.375,368.525 53.431,365.500 53.499 M290.962 53.938 C 291.175 54.283,288.454 54.400,280.224 54.400 C 273.141 54.400,269.200 54.543,269.200 54.800 C 269.200 55.490,290.594 55.330,291.170 54.636 C 291.529 54.203,291.526 54.002,291.158 53.774 C 290.853 53.585,290.781 53.645,290.962 53.938 M375.893 54.700 C 376.135 55.328,400.000 55.439,400.000 54.811 C 400.000 54.571,395.371 54.380,387.851 54.311 C 378.259 54.223,375.742 54.305,375.893 54.700 M0.000 54.800 C 0.000 55.058,4.341 55.200,12.224 55.200 C 20.271 55.200,24.363 55.063,24.200 54.800 C 24.044 54.548,19.529 54.400,11.976 54.400 C 4.259 54.400,0.000 54.542,0.000 54.800 M292.299 72.300 C 292.231 75.325,292.175 72.850,292.175 66.800 C 292.175 60.750,292.231 58.275,292.299 61.300 C 292.367 64.325,292.367 69.275,292.299 72.300 M188.975 200.000 C 188.975 206.050,189.031 208.525,189.099 205.500 C 189.167 202.475,189.167 197.525,189.099 194.500 C 189.031 191.475,188.975 193.950,188.975 200.000 M210.975 200.000 C 210.975 206.050,211.031 208.525,211.099 205.500 C 211.167 202.475,211.167 197.525,211.099 194.500 C 211.031 191.475,210.975 193.950,210.975 200.000 M344.000 267.593 C 344.000 267.839,339.971 268.030,333.300 268.100 L 322.600 268.214 333.500 268.307 C 342.964 268.388,344.400 268.321,344.400 267.800 C 344.400 267.470,344.310 267.200,344.200 267.200 C 344.090 267.200,344.000 267.377,344.000 267.593 M61.324 268.299 C 64.362 268.367,69.222 268.367,72.124 268.299 C 75.026 268.231,72.540 268.175,66.600 268.175 C 60.660 268.175,58.286 268.231,61.324 268.299 M52.299 285.676 C 52.232 288.824,52.176 286.360,52.176 280.200 C 52.176 274.040,52.231 271.464,52.299 274.476 C 52.367 277.487,52.367 282.527,52.299 285.676 M105.499 338.924 C 105.431 341.826,105.375 339.340,105.375 333.400 C 105.375 327.460,105.431 325.086,105.499 328.124 C 105.567 331.162,105.567 336.022,105.499 338.924 M108.299 339.100 C 108.231 342.125,108.175 339.650,108.175 333.600 C 108.175 327.550,108.231 325.075,108.299 328.100 C 108.367 331.125,108.367 336.075,108.299 339.100 M292.299 338.924 C 292.231 341.826,292.175 339.340,292.175 333.400 C 292.175 327.460,292.231 325.086,292.299 328.124 C 292.367 331.162,292.367 336.022,292.299 338.924 " stroke="none" fill="#f4f4e4" fill-rule="evenodd"></path><path id="path1" d="M0.000 41.600 L 0.000 54.400 11.976 54.400 C 19.529 54.400,24.044 54.548,24.200 54.800 C 24.363 55.063,20.271 55.200,12.224 55.200 C 4.341 55.200,0.000 55.342,0.000 55.600 C 0.000 55.858,4.267 56.000,12.000 56.000 L 24.000 56.000 24.047 66.700 C 24.073 72.585,24.064 77.564,24.026 77.763 C 23.989 77.963,24.192 78.275,24.479 78.457 C 24.774 78.645,24.812 78.790,24.565 78.794 C 23.986 78.802,23.900 81.598,24.459 82.270 C 25.041 82.972,27.768 83.000,27.347 82.300 C 27.112 81.908,27.174 81.903,27.635 82.276 C 28.723 83.155,50.630 83.001,51.008 82.111 C 51.608 80.703,51.672 79.629,51.868 67.880 C 52.042 57.392,51.988 55.842,51.424 54.980 L 50.782 54.000 39.891 53.910 L 29.000 53.819 39.800 53.590 L 50.600 53.360 39.400 53.303 C 25.449 53.231,26.316 53.260,26.549 52.883 C 26.656 52.709,26.354 52.537,25.877 52.501 C 25.170 52.447,25.120 52.512,25.605 52.848 C 26.130 53.212,26.129 53.242,25.600 53.097 C 25.270 53.007,24.938 52.612,24.862 52.219 C 24.776 51.781,24.892 51.610,25.162 51.776 C 25.403 51.925,25.600 51.876,25.600 51.666 C 25.600 51.457,25.330 51.182,25.000 51.055 C 24.487 50.858,24.400 49.232,24.400 39.813 L 24.400 28.800 12.200 28.800 L 0.000 28.800 0.000 41.600 M109.200 40.000 C 109.200 47.011,109.054 51.200,108.810 51.200 C 108.559 51.200,108.556 51.557,108.800 52.200 C 109.077 52.929,109.047 53.202,108.690 53.206 C 108.377 53.210,108.416 53.352,108.800 53.600 C 109.200 53.858,109.233 53.990,108.900 53.994 C 108.625 53.997,108.400 54.270,108.400 54.600 C 108.400 54.930,108.591 55.200,108.824 55.200 C 109.057 55.200,109.136 55.020,109.000 54.800 C 108.837 54.537,112.529 54.400,119.776 54.400 C 126.859 54.400,130.800 54.543,130.800 54.800 C 130.800 55.057,126.963 55.202,120.100 55.206 C 114.215 55.209,109.220 55.344,109.000 55.506 C 108.741 55.696,108.674 59.817,108.809 67.200 L 109.019 78.600 109.109 67.300 L 109.200 56.000 120.000 56.000 L 130.800 56.000 130.800 68.800 C 130.800 77.067,130.942 81.600,131.200 81.600 C 131.420 81.600,131.618 80.925,131.640 80.100 C 131.675 78.761,131.714 78.708,132.000 79.600 C 132.176 80.150,132.338 80.375,132.360 80.100 C 132.407 79.517,133.600 79.411,133.600 79.990 C 133.600 80.243,133.964 80.242,134.634 79.987 C 135.202 79.771,135.807 79.681,135.977 79.786 C 137.057 80.453,160.653 79.921,162.003 79.199 C 162.802 78.771,237.079 78.676,237.761 79.102 C 238.002 79.253,238.560 79.406,239.000 79.441 C 239.440 79.477,240.340 79.621,241.000 79.761 C 241.918 79.956,263.028 80.119,264.333 79.942 C 264.480 79.922,264.690 79.942,264.800 79.986 C 265.478 80.260,266.800 80.209,266.800 79.910 C 266.800 79.713,266.965 79.655,267.166 79.779 C 267.367 79.903,267.623 79.779,267.734 79.502 C 267.853 79.208,267.950 79.300,267.968 79.724 C 267.986 80.122,268.167 80.344,268.371 80.218 C 268.576 80.091,268.821 80.396,268.917 80.894 C 269.013 81.392,269.116 75.995,269.146 68.900 L 269.200 56.000 280.000 56.000 L 290.800 56.000 290.800 66.976 C 290.800 73.863,290.949 78.045,291.200 78.200 C 291.463 78.363,291.600 74.612,291.600 67.247 C 291.600 59.230,291.469 55.966,291.139 55.763 C 290.815 55.562,290.877 55.333,291.346 54.990 C 292.021 54.497,291.866 53.200,291.134 53.200 C 290.924 53.200,290.866 53.017,291.004 52.793 C 291.142 52.570,291.454 52.510,291.697 52.660 C 291.940 52.810,291.837 52.503,291.469 51.977 C 290.883 51.140,290.800 49.650,290.800 39.911 L 290.800 28.800 200.000 28.800 L 109.200 28.800 109.200 40.000 M376.000 39.757 C 376.000 48.862,375.904 50.751,375.431 50.933 C 375.087 51.065,374.946 51.471,375.074 51.961 C 375.244 52.613,375.123 52.739,374.449 52.609 C 373.953 52.514,373.405 52.742,373.106 53.167 C 372.641 53.828,371.658 53.893,361.000 53.968 C 353.993 54.017,349.242 54.206,349.000 54.445 C 348.523 54.918,348.440 80.028,348.910 81.711 L 349.221 82.821 360.784 82.788 C 369.342 82.763,372.399 82.631,372.543 82.277 C 372.687 81.923,372.745 81.929,372.768 82.300 C 372.811 82.982,374.990 82.935,375.567 82.240 C 375.822 81.932,375.994 80.987,375.949 80.140 C 375.903 79.293,375.896 73.515,375.933 67.300 L 376.000 56.000 388.000 56.000 C 395.733 56.000,400.000 55.858,400.000 55.600 C 400.000 55.342,395.748 55.200,388.043 55.200 C 378.846 55.200,376.041 55.085,375.893 54.700 C 375.742 54.305,378.259 54.223,387.851 54.311 L 400.000 54.423 400.000 41.611 L 400.000 28.800 388.000 28.800 L 376.000 28.800 376.000 39.757 M354.500 53.499 C 357.525 53.567,362.475 53.567,365.500 53.499 C 368.525 53.431,366.050 53.375,360.000 53.375 C 353.950 53.375,351.475 53.431,354.500 53.499 M291.170 54.636 C 290.594 55.330,269.200 55.490,269.200 54.800 C 269.200 54.543,273.141 54.400,280.224 54.400 C 288.454 54.400,291.175 54.283,290.962 53.938 C 290.781 53.645,290.853 53.585,291.158 53.774 C 291.526 54.002,291.529 54.203,291.170 54.636 M292.175 66.800 C 292.175 72.850,292.231 75.325,292.299 72.300 C 292.367 69.275,292.367 64.325,292.299 61.300 C 292.231 58.275,292.175 60.750,292.175 66.800 M108.996 104.900 C 108.875 105.395,108.827 111.560,108.888 118.600 L 109.000 131.400 120.000 131.600 C 136.465 131.899,135.354 130.825,135.512 146.592 C 135.574 152.748,135.756 157.916,135.916 158.076 C 136.077 158.237,141.381 158.390,147.704 158.418 C 159.037 158.467,159.435 158.512,159.247 159.700 C 159.221 159.865,159.335 159.979,159.500 159.953 C 160.671 159.768,161.372 160.032,160.800 160.444 C 160.291 160.810,160.304 160.842,160.888 160.655 C 161.267 160.533,161.842 160.699,162.166 161.023 C 163.054 161.911,184.593 161.697,184.613 160.800 C 184.621 160.470,184.441 160.068,184.213 159.906 C 183.560 159.442,162.800 159.533,162.800 160.000 C 162.800 160.220,162.530 160.400,162.200 160.400 C 161.870 160.400,161.600 160.146,161.600 159.835 C 161.600 159.363,163.426 159.262,172.665 159.219 C 178.750 159.190,183.908 159.057,184.126 158.922 C 184.349 158.784,184.398 158.879,184.238 159.138 C 184.081 159.392,184.098 159.600,184.276 159.600 C 184.547 159.601,184.531 136.398,184.260 136.127 C 184.211 136.078,179.002 136.011,172.685 135.978 C 166.206 135.945,161.200 135.762,161.200 135.559 C 161.200 135.362,160.827 135.200,160.371 135.200 C 158.594 135.200,158.550 134.877,158.460 121.274 C 158.399 111.993,158.238 108.130,157.891 107.574 C 157.431 106.838,156.847 106.800,145.930 106.800 C 133.895 106.800,133.284 106.726,131.479 105.044 L 130.359 104.000 119.787 104.000 L 109.215 104.000 108.996 104.900 M268.876 104.992 C 268.599 105.602,268.204 105.900,267.853 105.765 C 267.538 105.644,267.145 105.766,266.979 106.035 C 266.785 106.347,266.843 106.421,267.138 106.238 C 267.392 106.081,267.600 106.143,267.600 106.376 C 267.600 106.609,266.970 106.800,266.200 106.800 C 265.378 106.800,264.800 106.998,264.800 107.280 C 264.800 107.653,264.693 107.653,264.320 107.280 C 263.971 106.931,260.989 106.800,253.411 106.800 L 242.982 106.800 242.297 108.100 C 241.698 109.238,241.607 110.910,241.567 121.500 C 241.538 129.342,241.380 133.600,241.118 133.600 C 240.896 133.600,240.826 133.890,240.962 134.245 C 241.139 134.706,241.037 134.823,240.605 134.657 C 240.272 134.529,240.000 134.569,240.000 134.746 C 240.000 135.253,239.634 135.274,227.479 135.465 C 219.054 135.597,215.913 135.774,215.794 136.123 C 215.705 136.385,215.579 142.036,215.516 148.680 C 215.429 157.682,215.273 160.888,214.900 161.260 C 214.522 161.638,214.400 161.643,214.400 161.280 C 214.400 161.016,214.209 160.800,213.976 160.800 C 213.743 160.800,213.659 160.971,213.788 161.181 C 213.935 161.419,208.557 161.553,199.403 161.538 C 189.051 161.522,184.624 161.648,184.236 161.970 C 183.855 162.286,180.449 162.413,173.040 162.387 L 162.391 162.350 162.224 174.275 C 162.055 186.324,161.963 188.401,161.600 188.399 C 161.490 188.399,161.445 190.244,161.499 192.499 C 161.554 194.755,161.674 200.560,161.765 205.400 C 161.957 215.551,161.960 215.600,162.325 215.600 C 162.476 215.600,162.594 220.505,162.587 226.500 L 162.575 237.400 162.694 226.700 L 162.813 216.000 174.430 216.000 C 183.617 216.000,185.984 215.895,185.747 215.500 C 185.529 215.137,185.625 215.145,186.099 215.529 C 186.458 215.820,187.258 216.000,187.876 215.929 L 189.000 215.800 188.858 202.500 L 188.716 189.200 200.000 189.200 L 211.284 189.200 211.142 202.500 L 211.000 215.800 212.400 215.866 C 213.170 215.902,219.065 215.947,225.500 215.966 L 237.200 216.000 237.285 226.900 L 237.370 237.800 237.607 226.600 C 237.737 220.440,237.972 214.950,238.130 214.400 C 238.566 212.879,238.466 187.199,238.018 185.651 C 237.189 182.786,237.524 161.698,238.409 161.079 C 238.841 160.776,239.076 160.409,238.931 160.264 C 238.786 160.119,238.972 160.000,239.346 160.000 C 239.719 160.000,240.129 159.730,240.255 159.400 C 240.382 159.070,240.796 158.800,241.176 158.800 C 241.556 158.800,241.968 158.699,242.091 158.575 C 242.215 158.452,247.186 158.367,253.138 158.387 C 263.503 158.422,263.977 158.390,264.380 157.638 C 264.643 157.146,264.805 152.770,264.814 145.926 C 264.834 130.750,263.917 131.601,280.251 131.600 C 288.952 131.600,290.784 131.502,291.189 131.013 C 291.743 130.346,291.595 105.955,291.030 104.700 C 290.741 104.059,289.818 104.000,280.021 104.000 L 269.328 104.000 268.876 104.992 M348.800 106.424 C 348.800 106.877,348.620 107.136,348.400 107.000 C 348.180 106.864,348.000 107.024,348.000 107.356 C 348.000 107.886,347.836 107.891,346.651 107.395 C 345.909 107.085,345.208 106.926,345.093 107.040 C 344.979 107.155,339.940 107.233,333.896 107.213 L 322.907 107.177 322.262 108.162 C 321.499 109.326,321.217 133.657,321.956 134.547 C 322.193 134.833,322.366 139.478,322.387 146.190 C 322.407 152.332,322.508 157.442,322.612 157.545 C 322.715 157.649,322.800 152.843,322.800 146.867 L 322.800 136.000 335.100 135.956 C 341.865 135.931,347.797 135.943,348.283 135.982 L 349.166 136.053 349.190 120.826 C 349.204 112.452,349.121 105.600,349.007 105.600 C 348.893 105.600,348.800 105.971,348.800 106.424 M50.810 120.998 L 50.834 136.053 51.717 135.982 C 52.203 135.943,58.135 135.931,64.900 135.956 L 77.200 136.000 77.286 147.100 L 77.371 158.200 77.613 146.400 C 77.751 139.682,78.049 133.918,78.304 133.017 C 79.098 130.219,78.971 109.832,78.152 108.583 L 77.482 107.561 65.919 107.625 C 59.559 107.660,54.247 107.580,54.115 107.448 C 53.982 107.315,53.618 107.419,53.306 107.678 C 52.867 108.042,52.665 108.028,52.410 107.616 C 52.158 107.208,52.036 107.260,51.887 107.842 C 51.747 108.390,51.680 108.302,51.646 107.524 C 51.621 106.932,51.417 106.334,51.193 106.195 C 50.919 106.026,50.793 110.878,50.810 120.998 M77.205 173.476 C 77.212 189.709,77.145 189.200,79.270 189.200 C 80.360 189.200,80.759 189.057,80.562 188.738 C 80.378 188.441,80.453 188.385,80.772 188.583 C 81.045 188.751,86.518 188.870,92.934 188.845 L 104.600 188.802 104.877 187.301 C 105.351 184.733,105.248 163.458,104.755 162.043 L 104.310 160.767 91.978 160.821 C 85.195 160.851,79.427 160.740,79.161 160.576 C 78.870 160.396,78.780 160.444,78.936 160.696 C 79.079 160.927,78.912 161.225,78.565 161.358 C 77.660 161.705,77.630 161.684,77.798 160.808 C 77.882 160.373,77.782 159.912,77.575 159.785 C 77.344 159.642,77.202 164.902,77.205 173.476 M307.333 160.800 C 300.916 160.910,295.516 161.150,295.333 161.333 C 294.961 161.705,294.992 178.497,295.400 198.718 C 295.580 207.661,295.533 212.198,295.256 212.532 C 294.717 213.182,294.649 237.564,295.185 238.400 C 295.622 239.082,317.601 239.720,317.600 239.051 C 317.600 238.859,317.854 238.913,318.164 239.170 C 318.557 239.496,318.809 239.509,318.992 239.213 C 319.137 238.979,319.431 238.895,319.645 239.028 C 319.860 239.160,320.332 239.028,320.694 238.734 C 321.164 238.353,321.267 238.343,321.053 238.700 C 320.884 238.981,320.949 239.200,321.200 239.200 C 321.451 239.200,321.516 239.419,321.347 239.700 C 321.172 239.991,321.361 239.950,321.800 239.600 C 322.214 239.270,322.426 239.213,322.270 239.472 C 322.114 239.732,322.170 240.058,322.393 240.196 C 322.619 240.335,322.800 240.080,322.800 239.624 C 322.800 239.171,322.598 238.800,322.351 238.800 C 322.026 238.800,322.030 238.646,322.366 238.241 C 323.031 237.440,322.935 213.873,322.268 214.273 C 321.922 214.480,321.913 214.403,322.234 213.977 C 322.954 213.018,322.708 211.036,321.848 210.868 C 321.434 210.787,320.942 210.964,320.754 211.261 C 320.479 211.695,320.411 211.698,320.406 211.274 C 320.402 210.948,319.983 210.781,319.300 210.835 C 318.695 210.882,313.205 210.893,307.100 210.860 L 296.000 210.800 296.000 200.000 L 296.000 189.200 307.300 189.142 C 324.408 189.054,322.578 189.228,322.727 187.674 C 322.797 186.944,322.654 186.106,322.408 185.809 C 322.088 185.424,322.084 185.195,322.396 185.003 C 322.694 184.818,322.815 181.066,322.782 173.013 L 322.734 161.292 321.867 161.481 C 321.165 161.634,321.114 161.588,321.600 161.241 C 321.930 161.005,322.110 160.796,322.000 160.777 C 321.114 160.622,317.389 160.628,307.333 160.800 M184.000 173.400 L 184.000 184.000 173.400 184.000 L 162.800 184.000 162.800 173.400 L 162.800 162.800 173.400 162.800 L 184.000 162.800 184.000 173.400 M237.287 173.500 L 237.400 184.200 226.700 184.087 L 216.000 183.975 216.000 173.387 L 216.000 162.800 226.587 162.800 L 237.175 162.800 237.287 173.500 M77.436 211.451 C 77.031 212.505,77.164 213.267,77.700 212.965 C 78.100 212.739,78.100 212.790,77.700 213.221 C 77.311 213.640,77.200 219.338,77.200 238.880 L 77.200 264.000 66.500 264.063 C 60.615 264.097,55.128 264.119,54.306 264.110 C 53.309 264.100,52.896 264.246,53.065 264.548 C 53.210 264.808,53.088 264.787,52.779 264.500 C 51.301 263.129,50.203 264.538,51.240 266.475 C 51.560 267.072,51.560 267.222,51.240 267.025 C 50.924 266.829,50.800 270.347,50.800 279.553 C 50.800 287.655,50.947 292.444,51.200 292.600 C 51.463 292.763,51.600 288.830,51.600 281.100 C 51.600 271.613,51.709 269.204,52.165 268.580 C 52.657 267.908,52.737 269.280,52.781 279.190 C 52.809 285.451,52.988 290.669,53.177 290.786 C 53.367 290.904,59.035 290.950,65.773 290.889 L 78.023 290.777 77.970 279.889 C 77.941 273.900,77.800 268.190,77.658 267.200 L 77.400 265.400 66.600 265.184 L 55.800 264.967 66.695 264.984 C 73.729 264.994,77.575 264.858,77.547 264.600 C 77.329 262.530,77.758 238.843,78.000 239.600 C 78.214 240.267,78.334 240.367,78.360 239.900 C 78.382 239.515,78.625 239.189,78.900 239.175 C 79.175 239.161,85.014 239.171,91.874 239.196 C 103.790 239.241,104.367 239.208,104.760 238.475 C 105.215 237.624,105.398 215.004,104.966 213.000 C 104.823 212.340,104.698 211.572,104.687 211.293 C 104.654 210.457,77.757 210.613,77.436 211.451 M237.200 239.376 C 237.200 240.442,237.745 240.737,238.238 239.938 C 238.428 239.631,238.346 239.586,237.994 239.804 C 237.611 240.040,237.534 239.950,237.715 239.478 C 237.852 239.119,237.793 238.719,237.583 238.589 C 237.372 238.459,237.200 238.813,237.200 239.376 M237.200 252.724 C 237.200 259.366,237.335 264.800,237.500 264.799 C 237.665 264.799,237.800 265.744,237.800 266.899 L 237.800 269.000 250.900 269.105 L 264.000 269.211 264.063 280.305 C 264.098 286.407,264.101 292.075,264.070 292.900 C 264.035 293.849,264.196 294.402,264.507 294.406 C 264.826 294.410,264.790 294.545,264.403 294.789 C 263.918 295.096,263.902 295.262,264.320 295.680 C 264.738 296.098,264.904 296.082,265.211 295.597 C 265.441 295.232,265.590 295.187,265.594 295.480 C 265.601 296.029,290.760 296.257,290.852 295.709 C 291.192 293.670,291.290 291.340,291.459 281.247 C 291.567 274.784,291.508 269.349,291.327 269.170 C 291.147 268.991,285.600 268.815,279.000 268.780 C 268.508 268.723,266.903 268.632,266.231 268.057 C 265.808 267.696,265.576 267.595,265.714 267.833 C 265.852 268.072,265.712 268.267,265.403 268.267 C 264.933 268.267,264.836 266.186,264.811 255.541 C 264.794 248.541,264.678 242.547,264.552 242.219 C 264.305 241.575,242.399 241.062,242.400 241.700 C 242.400 241.865,242.209 242.000,241.976 242.000 C 241.743 242.000,241.651 241.840,241.772 241.645 C 242.065 241.171,240.675 241.296,240.330 241.774 C 240.170 241.997,239.821 241.949,239.466 241.655 C 239.005 241.272,238.804 241.269,238.575 241.641 C 238.360 241.988,238.129 241.917,237.739 241.384 C 237.283 240.760,237.200 242.499,237.200 252.724 M146.400 241.610 C 140.350 241.725,135.557 241.860,135.749 241.910 C 135.941 241.959,135.892 242.249,135.639 242.553 C 135.317 242.940,135.184 246.545,135.191 254.653 C 135.197 261.004,135.134 266.560,135.052 267.000 C 134.970 267.440,135.105 268.054,135.351 268.365 C 135.731 268.844,135.661 268.857,134.900 268.451 C 134.405 268.188,134.000 268.142,134.000 268.350 C 134.000 268.578,129.058 268.748,121.519 268.779 C 114.654 268.807,108.988 268.879,108.927 268.939 C 108.769 269.097,108.804 293.206,108.964 294.400 C 109.038 294.950,109.121 295.539,109.149 295.709 C 109.240 296.257,134.399 296.029,134.406 295.480 C 134.410 295.187,134.559 295.232,134.789 295.597 C 135.096 296.082,135.262 296.098,135.680 295.680 C 136.098 295.262,136.082 295.096,135.597 294.789 C 135.160 294.513,135.141 294.411,135.525 294.406 C 135.814 294.403,136.018 294.085,135.979 293.700 C 135.940 293.315,135.929 287.645,135.954 281.100 L 136.000 269.200 149.010 269.200 L 162.020 269.200 162.410 268.174 C 163.275 265.897,162.898 241.627,162.000 241.800 C 161.560 241.885,161.200 241.774,161.200 241.553 C 161.200 241.333,161.017 241.266,160.793 241.404 C 160.570 241.542,160.489 241.821,160.614 242.023 C 160.739 242.225,160.563 242.284,160.223 242.154 C 159.883 242.023,159.704 241.755,159.826 241.558 C 159.948 241.361,159.677 241.200,159.224 241.200 C 158.771 241.200,158.400 241.402,158.400 241.649 C 158.400 241.928,158.210 241.966,157.900 241.749 C 157.625 241.557,152.450 241.494,146.400 241.610 M322.800 264.400 C 322.800 264.654,326.695 264.834,333.500 264.893 L 344.200 264.986 333.619 265.100 C 326.679 265.174,322.948 265.360,322.775 265.640 C 322.630 265.875,322.476 271.631,322.432 278.433 L 322.351 290.800 333.676 290.831 C 339.904 290.847,345.334 290.924,345.743 291.002 C 347.598 291.352,347.595 291.369,347.691 279.457 L 347.782 268.200 348.000 279.800 L 348.218 291.400 348.400 280.000 L 348.582 268.600 348.800 280.600 L 349.018 292.600 349.109 279.874 C 349.171 271.218,349.059 266.884,348.760 266.325 C 348.440 265.728,348.440 265.578,348.760 265.775 C 349.036 265.946,349.200 265.666,349.200 265.024 C 349.200 263.892,348.170 263.619,347.221 264.500 C 346.925 264.775,346.791 264.805,346.924 264.567 C 347.073 264.299,346.713 264.133,345.982 264.133 C 344.684 264.133,344.547 264.350,345.300 265.214 C 345.575 265.530,345.338 265.386,344.774 264.894 C 343.644 263.909,322.800 263.440,322.800 264.400 M344.400 267.800 C 344.400 268.321,342.964 268.388,333.500 268.307 L 322.600 268.214 333.300 268.100 C 339.971 268.030,344.000 267.839,344.000 267.593 C 344.000 267.377,344.090 267.200,344.200 267.200 C 344.310 267.200,344.400 267.470,344.400 267.800 M72.124 268.299 C 69.222 268.367,64.362 268.367,61.324 268.299 C 58.286 268.231,60.660 268.175,66.600 268.175 C 72.540 268.175,75.026 268.231,72.124 268.299 M52.176 280.200 C 52.176 286.360,52.232 288.824,52.299 285.676 C 52.367 282.527,52.367 277.487,52.299 274.476 C 52.231 271.464,52.176 274.040,52.176 280.200 M24.700 317.476 C 24.165 317.616,24.000 318.080,24.000 319.453 C 24.000 320.782,24.130 321.169,24.500 320.947 C 24.895 320.709,24.898 320.772,24.513 321.248 C 24.018 321.861,23.755 345.179,24.249 344.684 C 24.372 344.561,25.222 344.672,26.137 344.930 C 28.764 345.672,51.498 345.207,52.016 344.400 C 52.443 343.736,52.334 323.485,51.891 321.241 C 51.744 320.493,51.424 319.278,51.181 318.541 L 50.738 317.200 39.402 317.200 C 30.708 317.200,28.020 317.317,27.865 317.700 C 27.704 318.100,27.657 318.100,27.632 317.700 C 27.601 317.212,26.137 317.100,24.700 317.476 M348.963 317.893 C 348.526 318.831,348.284 344.061,348.705 344.688 C 349.053 345.207,371.587 345.503,372.400 345.000 C 372.620 344.864,372.937 344.837,373.104 344.941 C 373.271 345.044,373.994 344.882,374.710 344.581 L 376.013 344.033 375.989 331.000 L 375.965 317.967 375.007 317.603 C 372.992 316.836,349.331 317.100,348.963 317.893 M108.977 332.600 C 108.977 338.980,109.032 341.534,109.099 338.276 C 109.167 335.017,109.166 329.797,109.099 326.676 C 109.031 323.554,108.976 326.220,108.977 332.600 M290.800 332.776 C 290.800 339.796,290.949 344.045,291.200 344.200 C 291.463 344.363,291.600 340.537,291.600 333.024 C 291.600 325.675,291.457 321.600,291.200 321.600 C 290.943 321.600,290.800 325.592,290.800 332.776 M105.375 333.400 C 105.375 339.340,105.431 341.826,105.499 338.924 C 105.567 336.022,105.567 331.162,105.499 328.124 C 105.431 325.086,105.375 327.460,105.375 333.400 M108.175 333.600 C 108.175 339.650,108.231 342.125,108.299 339.100 C 108.367 336.075,108.367 331.125,108.299 328.100 C 108.231 325.075,108.175 327.550,108.175 333.600 M292.175 333.400 C 292.175 339.340,292.231 341.826,292.299 338.924 C 292.367 336.022,292.367 331.162,292.299 328.124 C 292.231 325.086,292.175 327.460,292.175 333.400 " stroke="none" fill="#fcfaf4" fill-rule="evenodd"></path></g></svg>