<svg id="svg" version="1.1" xmlns="http://www.w3.org/2000/svg" xmlns:xlink="http://www.w3.org/1999/xlink" width="400" height="400" viewBox="0, 0, 400,400"><g id="svgg"><path id="path0" d="M158.186 24.640 C 158.517 24.881,158.665 25.202,158.516 25.351 C 158.097 25.769,158.023 26.833,158.429 26.582 C 158.838 26.329,158.731 130.535,158.321 131.800 C 158.178 132.240,158.047 132.915,158.031 133.300 C 158.002 133.949,157.209 134.000,147.231 134.000 L 136.462 134.000 135.231 135.231 L 134.000 136.462 134.000 147.231 C 134.000 157.209,133.949 158.002,133.300 158.031 C 132.915 158.047,132.240 158.178,131.800 158.321 C 130.535 158.731,26.329 158.838,26.582 158.429 C 26.833 158.023,25.769 158.097,25.351 158.516 C 25.202 158.665,24.881 158.517,24.640 158.186 C 24.122 157.479,24.008 159.849,24.520 160.672 C 24.681 160.932,24.627 161.260,24.400 161.400 C 24.120 161.573,23.993 174.606,24.007 201.865 C 24.026 237.424,24.097 242.017,24.624 241.580 C 24.951 241.308,25.333 241.200,25.473 241.340 C 25.612 241.479,26.003 241.370,26.340 241.097 C 26.843 240.690,26.892 240.701,26.615 241.162 C 26.393 241.530,26.426 241.631,26.710 241.456 C 27.920 240.708,131.378 241.185,132.400 241.943 L 133.400 242.686 133.507 253.604 C 133.600 263.172,133.694 264.581,134.268 265.000 C 134.628 265.263,134.822 265.641,134.699 265.839 C 134.568 266.051,139.225 266.192,145.938 266.180 L 157.400 266.160 146.700 266.287 C 139.809 266.368,136.000 266.557,136.000 266.819 C 136.000 267.087,139.668 267.187,146.749 267.113 C 157.522 267.000,157.931 267.046,158.400 268.416 C 158.711 269.324,159.035 372.020,158.729 372.516 C 158.579 372.757,158.849 373.160,159.329 373.410 C 159.808 373.661,160.170 374.031,160.133 374.233 C 160.097 374.435,160.502 374.600,161.033 374.600 C 161.565 374.600,162.000 374.443,162.000 374.251 C 162.000 374.059,162.232 374.095,162.516 374.330 C 162.874 374.627,174.637 374.759,201.032 374.763 L 239.033 374.768 240.111 373.626 L 241.188 372.484 241.197 320.832 L 241.206 269.180 242.103 267.795 L 243.000 266.410 253.600 266.358 C 259.430 266.329,264.438 266.337,264.730 266.377 C 265.489 266.480,266.440 265.588,266.369 264.839 C 266.335 264.487,266.331 259.430,266.359 253.600 L 266.410 243.000 267.788 242.107 L 269.167 241.214 320.870 241.184 C 356.806 241.163,372.730 241.024,373.087 240.728 C 373.369 240.494,373.601 240.459,373.602 240.651 C 373.604 240.843,373.872 240.488,374.199 239.862 C 374.947 238.427,375.113 161.200,374.367 161.200 C 374.134 161.200,374.001 160.724,374.071 160.141 C 374.247 158.692,378.435 158.806,320.664 158.697 C 292.249 158.644,268.737 158.510,268.416 158.400 C 267.046 157.931,267.000 157.522,267.113 146.749 C 267.187 139.668,267.087 136.000,266.819 136.000 C 266.557 136.000,266.368 139.809,266.287 146.700 L 266.160 157.400 266.180 145.938 C 266.192 139.225,266.051 134.568,265.839 134.699 C 265.641 134.822,265.263 134.628,265.000 134.268 C 264.581 133.694,263.172 133.600,253.604 133.507 L 242.686 133.400 241.943 132.400 C 241.185 131.378,240.708 27.920,241.456 26.710 C 241.631 26.426,241.530 26.393,241.162 26.615 C 240.701 26.892,240.690 26.843,241.097 26.340 C 241.370 26.003,241.479 25.612,241.340 25.473 C 241.200 25.333,241.308 24.951,241.580 24.624 C 242.017 24.097,237.424 24.026,201.865 24.007 C 174.606 23.993,161.573 24.120,161.400 24.400 C 161.260 24.627,160.932 24.681,160.672 24.520 C 159.849 24.008,157.479 24.122,158.186 24.640 M265.573 24.417 C 265.321 24.573,265.584 24.700,266.157 24.700 C 266.731 24.700,267.200 24.573,267.200 24.417 C 267.200 24.261,266.937 24.133,266.616 24.133 C 266.294 24.133,265.825 24.261,265.573 24.417 M24.369 265.500 C 24.353 265.665,24.278 266.115,24.205 266.500 C 24.131 266.885,24.212 267.200,24.385 267.200 C 24.558 267.200,24.700 266.750,24.700 266.200 C 24.700 265.300,24.445 264.760,24.369 265.500 M375.481 267.066 C 375.672 267.565,375.594 267.646,375.168 267.389 C 374.696 267.105,374.700 267.178,375.187 267.823 C 375.510 268.250,375.797 268.648,375.826 268.706 C 375.854 268.764,375.893 268.269,375.912 267.606 C 375.931 266.943,375.784 266.400,375.586 266.400 C 375.387 266.400,375.340 266.700,375.481 267.066 " stroke="none" fill="#f4e4d4" fill-rule="evenodd"></path><path id="path1" d="M131.300 24.265 C 131.025 24.376,130.800 24.887,130.800 25.400 C 130.800 25.913,131.025 26.424,131.300 26.535 C 131.691 26.693,131.692 26.744,131.306 26.768 C 130.916 26.793,130.810 37.787,130.803 78.669 C 130.798 107.198,130.737 130.596,130.667 130.667 C 130.596 130.737,107.212 130.798,78.701 130.803 C 37.935 130.810,26.820 130.917,26.663 131.306 C 26.506 131.694,26.456 131.693,26.432 131.300 C 26.386 130.573,24.529 130.686,24.243 131.433 C 23.820 132.535,23.980 134.725,24.500 134.935 C 24.900 135.096,24.900 135.143,24.500 135.168 C 23.755 135.215,23.805 157.109,24.552 158.094 C 24.842 158.475,25.202 158.665,25.351 158.516 C 25.769 158.097,26.833 158.023,26.582 158.429 C 26.329 158.838,130.535 158.731,131.800 158.321 C 132.240 158.178,132.915 158.047,133.300 158.031 C 133.949 158.002,134.000 157.209,134.000 147.231 L 134.000 136.462 135.231 135.231 L 136.462 134.000 147.231 134.000 C 157.209 134.000,158.002 133.949,158.031 133.300 C 158.047 132.915,158.178 132.240,158.321 131.800 C 158.731 130.535,158.838 26.329,158.429 26.582 C 158.023 26.833,158.097 25.769,158.516 25.351 C 158.665 25.202,158.475 24.842,158.094 24.552 C 157.111 23.806,135.365 23.757,135.065 24.500 C 134.904 24.900,134.857 24.900,134.832 24.500 C 134.800 24.004,132.350 23.841,131.300 24.265 M241.599 24.601 C 241.317 24.941,241.200 25.333,241.340 25.473 C 241.479 25.612,241.370 26.003,241.097 26.340 C 240.690 26.843,240.701 26.892,241.162 26.615 C 241.530 26.393,241.631 26.426,241.456 26.710 C 240.708 27.920,241.185 131.378,241.943 132.400 L 242.686 133.400 253.604 133.507 C 263.172 133.600,264.581 133.694,265.000 134.268 C 265.263 134.628,265.641 134.822,265.839 134.699 C 266.051 134.568,266.192 139.225,266.180 145.938 L 266.160 157.400 266.287 146.700 C 266.368 139.809,266.557 136.000,266.819 136.000 C 267.087 136.000,267.187 139.668,267.113 146.749 C 267.000 157.522,267.046 157.931,268.416 158.400 C 268.737 158.510,292.249 158.644,320.664 158.697 C 378.435 158.806,374.247 158.692,374.071 160.141 C 374.001 160.724,374.134 161.200,374.367 161.200 C 375.113 161.200,374.947 238.427,374.199 239.862 C 373.872 240.488,373.604 240.843,373.602 240.651 C 373.601 240.459,373.369 240.494,373.087 240.728 C 372.730 241.024,356.806 241.163,320.870 241.184 L 269.167 241.214 267.788 242.107 L 266.410 243.000 266.359 253.600 C 266.331 259.430,266.335 264.487,266.369 264.839 C 266.440 265.588,265.489 266.480,264.730 266.377 C 264.438 266.337,259.430 266.329,253.600 266.358 L 243.000 266.410 242.103 267.795 L 241.206 269.180 241.197 320.832 L 241.188 372.484 240.111 373.626 L 239.033 374.768 201.032 374.763 C 174.637 374.759,162.874 374.627,162.516 374.330 C 162.232 374.095,162.000 374.059,162.000 374.251 C 162.000 374.443,161.565 374.600,161.033 374.600 C 160.502 374.600,160.097 374.435,160.133 374.233 C 160.170 374.031,159.808 373.661,159.329 373.410 C 158.849 373.160,158.579 372.757,158.729 372.516 C 159.035 372.020,158.711 269.324,158.400 268.416 C 157.931 267.046,157.522 267.000,146.749 267.113 C 139.668 267.187,136.000 267.087,136.000 266.819 C 136.000 266.557,139.809 266.368,146.700 266.287 L 157.400 266.160 145.938 266.180 C 139.225 266.192,134.568 266.051,134.699 265.839 C 134.822 265.641,134.628 265.263,134.268 265.000 C 133.694 264.581,133.600 263.172,133.507 253.604 L 133.400 242.686 132.400 241.943 C 131.378 241.185,27.920 240.708,26.710 241.456 C 26.426 241.631,26.393 241.530,26.615 241.162 C 26.892 240.701,26.843 240.690,26.340 241.097 C 26.003 241.370,25.612 241.479,25.473 241.340 C 24.215 240.082,23.983 242.119,24.012 254.146 C 24.031 261.755,24.179 265.963,24.415 265.590 C 24.620 265.265,24.791 265.189,24.794 265.420 C 24.797 265.651,24.575 266.082,24.300 266.379 C 23.900 266.810,23.900 266.861,24.300 266.635 C 24.575 266.480,24.800 266.543,24.800 266.776 C 24.800 267.009,24.607 267.200,24.372 267.200 C 24.137 267.200,24.002 267.605,24.072 268.100 C 24.230 269.212,17.381 269.082,79.500 269.147 L 130.800 269.200 130.800 320.167 C 130.800 360.566,130.904 371.175,131.300 371.335 C 131.700 371.496,131.700 371.543,131.300 371.568 C 131.025 371.586,130.800 371.945,130.800 372.367 C 130.800 372.788,131.025 373.224,131.300 373.335 C 131.700 373.496,131.700 373.543,131.300 373.568 C 130.573 373.614,130.686 375.471,131.433 375.757 C 132.379 376.120,134.878 376.050,134.641 375.667 C 134.528 375.483,134.689 375.333,135.000 375.333 C 135.311 375.333,135.469 375.489,135.351 375.679 C 135.233 375.871,140.085 375.975,146.269 375.912 L 157.400 375.800 157.289 387.900 L 157.177 400.000 199.989 400.000 L 242.800 400.000 242.800 388.000 L 242.800 376.000 254.500 375.994 C 262.202 375.990,265.995 375.855,265.600 375.600 C 265.270 375.387,265.189 375.209,265.420 375.206 C 265.651 375.203,266.056 375.416,266.320 375.680 C 266.693 376.053,266.801 376.031,266.806 375.580 C 266.811 375.105,266.874 375.098,267.154 375.539 C 267.342 375.836,267.834 376.014,268.248 375.934 C 269.112 375.767,269.378 373.034,268.628 372.023 C 268.306 371.589,268.324 371.521,268.700 371.747 C 269.099 371.987,269.200 361.656,269.200 320.624 L 269.200 269.200 307.824 269.200 C 338.616 269.200,346.386 269.099,346.147 268.700 C 345.913 268.310,345.975 268.304,346.429 268.671 C 347.293 269.369,372.963 269.394,372.544 268.696 C 372.324 268.328,372.412 268.334,372.884 268.717 C 373.406 269.139,373.560 269.139,373.731 268.717 C 373.899 268.299,374.011 268.302,374.314 268.734 C 375.139 269.909,376.234 268.444,375.536 267.100 C 375.302 266.650,375.320 266.400,375.586 266.400 C 375.814 266.400,375.979 266.265,375.953 266.100 C 375.927 265.935,375.927 260.625,375.953 254.300 L 376.000 242.800 388.000 242.800 L 400.000 242.800 400.000 200.000 L 400.000 157.200 388.000 157.200 L 376.000 157.200 376.000 146.176 C 376.000 140.113,375.850 135.245,375.667 135.359 C 375.483 135.472,375.333 135.311,375.333 135.000 C 375.333 134.689,375.483 134.528,375.667 134.641 C 376.050 134.878,376.120 132.379,375.757 131.433 C 375.469 130.682,373.754 130.583,373.465 131.300 C 373.304 131.700,373.257 131.700,373.232 131.300 C 373.214 131.025,372.855 130.800,372.433 130.800 C 372.012 130.800,371.576 131.025,371.465 131.300 C 371.304 131.700,371.257 131.700,371.232 131.300 C 371.206 130.903,360.716 130.800,320.200 130.800 L 269.200 130.800 269.147 79.500 C 269.082 17.381,269.212 24.230,268.100 24.072 C 267.605 24.002,267.200 24.137,267.200 24.372 C 267.200 24.607,267.009 24.800,266.776 24.800 C 266.543 24.800,266.480 24.575,266.635 24.300 C 266.861 23.900,266.810 23.900,266.379 24.300 C 266.082 24.575,265.651 24.797,265.420 24.794 C 265.189 24.791,265.265 24.620,265.590 24.415 C 265.963 24.179,261.755 24.031,254.146 24.012 C 243.755 23.987,242.042 24.067,241.599 24.601 " stroke="none" fill="#f4f4e4" fill-rule="evenodd"></path></g></svg>