<svg id="svg" version="1.1" xmlns="http://www.w3.org/2000/svg" xmlns:xlink="http://www.w3.org/1999/xlink" width="400" height="400" viewBox="0, 0, 400,400"><g id="svgg"><path id="path0" d="M185.200 24.504 C 185.200 24.855,184.885 25.224,184.500 25.324 C 183.844 25.496,183.845 25.510,184.513 25.554 C 185.236 25.601,185.906 24.573,185.449 24.116 C 185.312 23.979,185.200 24.153,185.200 24.504 M189.055 24.600 C 188.929 24.930,188.549 25.200,188.213 25.200 C 187.876 25.200,187.600 25.380,187.600 25.600 C 187.600 25.820,187.851 26.000,188.157 26.000 C 188.464 26.000,188.820 26.274,188.948 26.609 C 189.142 27.115,189.040 27.143,188.343 26.769 C 187.881 26.522,187.596 26.473,187.710 26.660 C 187.983 27.111,186.969 28.030,186.588 27.676 C 186.425 27.524,186.500 27.801,186.755 28.291 C 187.145 29.040,187.121 29.145,186.609 28.948 C 186.274 28.820,186.000 28.464,186.000 28.157 C 186.000 27.851,185.820 27.600,185.600 27.600 C 185.380 27.600,185.200 27.876,185.200 28.213 C 185.200 28.549,184.930 28.929,184.600 29.055 C 184.087 29.252,184.000 30.850,184.000 40.043 L 184.000 50.800 172.700 50.847 C 166.485 50.873,161.265 50.873,161.100 50.847 C 160.935 50.821,160.800 51.149,160.800 51.576 C 160.800 52.003,160.601 52.476,160.357 52.626 C 160.048 52.818,160.078 53.017,160.457 53.288 C 160.871 53.583,160.833 53.622,160.300 53.450 C 159.510 53.196,159.327 53.823,160.100 54.135 C 160.416 54.262,160.358 54.348,159.943 54.368 C 159.581 54.386,159.182 54.130,159.055 53.800 C 158.929 53.470,158.984 53.200,159.177 53.200 C 159.371 53.200,159.489 52.925,159.440 52.589 C 159.390 52.253,159.182 52.028,158.978 52.089 C 158.773 52.150,158.652 52.401,158.708 52.647 C 158.764 52.892,158.504 53.342,158.130 53.647 C 157.524 54.140,157.483 54.113,157.749 53.400 C 157.983 52.773,157.942 52.704,157.561 53.083 C 157.193 53.448,157.186 53.701,157.533 54.120 C 157.786 54.424,157.894 54.773,157.772 54.895 C 157.428 55.238,157.544 77.704,157.892 78.053 C 158.061 78.224,158.156 76.346,158.102 73.882 C 157.814 60.657,157.831 55.294,158.162 55.499 C 158.361 55.623,158.395 55.516,158.238 55.262 C 158.081 55.008,158.098 54.800,158.276 54.800 C 158.454 54.800,158.572 60.332,158.537 67.093 C 158.485 77.319,158.563 79.266,158.999 78.669 C 159.347 78.193,159.615 78.101,159.796 78.394 C 159.946 78.636,159.894 79.052,159.681 79.318 C 159.467 79.583,159.171 80.430,159.022 81.200 C 158.848 82.098,158.884 82.409,159.120 82.066 C 159.419 81.633,159.534 81.651,159.730 82.162 C 159.874 82.538,159.776 82.752,159.486 82.695 C 159.116 82.623,158.974 85.226,158.893 93.561 C 158.798 103.415,158.717 104.575,158.093 105.048 C 157.559 105.453,154.838 105.577,146.257 105.587 C 136.093 105.599,135.137 105.658,135.366 106.257 C 135.587 106.831,135.532 106.843,134.932 106.357 C 134.478 105.988,134.348 105.969,134.547 106.300 C 134.726 106.598,134.635 106.802,134.324 106.806 C 133.928 106.811,133.941 106.901,134.374 107.176 C 134.808 107.450,134.838 107.672,134.499 108.081 C 134.193 108.450,134.038 112.107,134.013 119.570 C 133.961 135.000,134.930 134.000,120.022 134.000 C 109.895 134.000,109.530 134.027,108.384 134.875 L 107.200 135.750 107.200 146.449 C 107.200 157.458,107.028 158.885,105.574 159.903 C 105.141 160.206,104.863 160.577,104.955 160.727 C 105.048 160.877,100.011 160.950,93.762 160.888 C 86.390 160.815,82.400 160.916,82.400 161.175 C 82.400 161.395,82.130 161.471,81.800 161.345 C 81.452 161.211,81.200 161.338,81.200 161.646 C 81.200 161.939,80.914 161.769,80.564 161.270 C 80.129 160.649,79.781 160.484,79.464 160.747 C 78.979 161.149,78.792 161.200,77.794 161.200 C 76.971 161.200,77.077 184.168,77.900 184.250 C 78.175 184.278,78.580 184.322,78.800 184.350 C 79.020 184.378,79.200 184.597,79.200 184.837 C 79.200 185.354,80.625 187.242,80.847 187.019 C 81.636 186.226,80.510 213.144,79.700 214.447 L 78.800 215.894 78.800 240.114 L 78.800 264.334 79.700 266.267 C 80.863 268.765,81.288 291.897,80.188 292.810 C 79.864 293.079,79.600 293.666,79.600 294.116 C 79.600 294.565,79.499 294.832,79.376 294.709 C 79.252 294.586,78.712 294.924,78.176 295.461 L 77.200 296.436 77.200 307.185 C 77.200 317.724,77.321 319.420,78.042 318.974 C 78.239 318.852,78.400 318.916,78.400 319.116 C 78.400 319.325,83.886 319.516,91.295 319.564 C 101.872 319.633,104.304 319.751,104.826 320.224 C 105.177 320.541,105.656 320.800,105.892 320.800 C 106.919 320.800,107.200 323.592,107.200 333.804 L 107.200 344.288 108.176 345.021 C 108.713 345.424,109.090 345.854,109.014 345.977 C 108.938 346.100,113.809 346.149,119.838 346.088 C 128.538 345.998,130.801 346.081,130.806 346.488 C 130.811 346.903,130.874 346.903,131.138 346.486 C 131.481 345.946,132.800 346.229,132.800 346.843 C 132.800 347.039,133.067 347.200,133.392 347.200 C 133.718 347.200,134.098 347.650,134.236 348.200 C 134.374 348.750,134.737 349.200,135.043 349.200 C 135.764 349.200,135.882 370.579,135.164 371.022 C 134.904 371.183,134.828 371.826,134.976 372.615 C 135.133 373.449,135.050 374.046,134.752 374.230 C 134.416 374.438,134.499 374.692,135.039 375.111 C 135.770 375.676,135.764 375.691,134.900 375.488 C 134.406 375.371,133.897 375.443,133.770 375.648 C 133.630 375.875,138.294 376.008,145.735 375.989 L 157.929 375.957 158.595 374.554 C 159.150 373.385,159.359 373.234,159.853 373.644 C 160.330 374.040,160.421 374.025,160.323 373.568 C 160.219 373.087,162.376 372.987,174.400 372.918 C 184.033 372.862,188.568 372.702,188.500 372.418 C 188.445 372.188,188.580 372.000,188.800 372.000 C 189.020 372.000,189.200 372.180,189.200 372.400 C 189.200 372.657,193.067 372.800,200.000 372.800 C 205.940 372.800,210.800 372.650,210.800 372.467 C 210.800 372.283,211.062 372.133,211.382 372.133 C 211.703 372.133,211.885 372.263,211.786 372.422 C 211.579 372.758,211.247 372.750,227.500 372.767 C 238.583 372.778,240.000 372.851,240.000 373.407 C 240.000 373.783,240.281 373.988,240.700 373.918 C 241.122 373.847,241.354 374.018,241.284 374.349 C 241.210 374.697,241.391 374.812,241.779 374.663 C 242.115 374.534,242.371 374.557,242.348 374.714 C 242.160 375.973,242.401 376.000,253.777 376.000 C 264.826 376.000,265.150 375.978,265.004 375.223 C 264.900 374.681,265.027 374.512,265.425 374.665 C 265.739 374.785,265.879 375.073,265.736 375.304 C 265.592 375.537,265.667 375.606,265.904 375.459 C 266.139 375.314,266.404 375.412,266.493 375.678 C 266.612 376.037,266.727 376.042,266.938 375.700 C 267.100 375.438,266.874 375.054,266.411 374.806 C 265.965 374.567,265.600 374.108,265.600 373.786 C 265.600 373.464,265.409 373.200,265.176 373.200 C 264.943 373.200,264.866 373.017,265.004 372.793 C 265.142 372.570,265.422 372.490,265.626 372.616 C 265.840 372.748,265.828 372.400,265.599 371.797 C 265.135 370.577,265.044 349.200,265.502 349.200 C 265.669 349.200,266.048 348.650,266.346 347.977 C 266.644 347.304,266.979 346.846,267.091 346.958 C 267.203 347.070,267.558 346.899,267.880 346.577 C 268.201 346.256,268.630 346.095,268.832 346.220 C 269.035 346.345,269.200 346.249,269.200 346.006 C 269.200 345.692,272.429 345.598,280.405 345.682 C 289.185 345.775,291.568 345.693,291.419 345.305 C 291.314 345.032,291.357 344.829,291.514 344.852 C 292.773 345.040,292.800 344.799,292.800 333.400 C 292.800 318.077,291.541 319.262,307.911 319.179 C 315.591 319.139,319.795 319.263,320.127 319.539 C 320.498 319.848,320.772 319.736,321.157 319.121 C 321.580 318.442,321.748 318.389,322.034 318.841 C 322.244 319.173,322.390 314.679,322.394 307.796 L 322.400 296.192 321.391 295.104 C 320.837 294.506,320.406 293.917,320.435 293.797 C 320.464 293.676,320.358 293.177,320.200 292.689 C 320.043 292.200,319.933 291.665,319.957 291.500 C 319.981 291.335,319.865 291.200,319.700 291.200 C 319.083 291.201,319.751 268.281,320.400 267.200 C 321.030 266.151,321.095 216.481,320.468 216.003 C 320.003 215.649,318.824 213.200,319.119 213.200 C 319.273 213.200,319.363 207.314,319.317 200.121 C 319.267 192.320,319.387 186.857,319.613 186.584 C 319.822 186.332,319.860 185.979,319.697 185.799 C 319.533 185.619,319.625 185.601,319.900 185.759 C 320.175 185.918,320.400 185.852,320.400 185.614 C 320.400 185.375,320.850 185.009,321.400 184.800 L 322.400 184.420 322.445 173.710 C 322.470 167.819,322.534 162.424,322.587 161.719 C 322.641 161.015,322.575 160.451,322.442 160.467 C 322.309 160.482,322.110 160.458,322.000 160.414 C 321.182 160.084,320.000 160.220,320.000 160.643 C 320.000 160.923,319.792 161.281,319.538 161.438 C 319.270 161.604,319.184 161.549,319.334 161.307 C 319.475 161.078,319.313 160.660,318.973 160.378 C 318.633 160.095,318.386 160.030,318.425 160.232 C 318.637 161.349,318.386 161.734,317.888 161.053 C 317.417 160.409,316.463 160.363,306.088 160.476 C 299.879 160.544,294.799 160.454,294.800 160.276 C 294.800 160.098,295.025 160.067,295.300 160.207 C 295.575 160.347,295.426 160.129,294.969 159.722 C 294.512 159.316,294.212 158.763,294.303 158.492 C 294.393 158.222,294.227 157.908,293.933 157.796 C 293.503 157.631,293.422 155.526,293.513 146.935 C 293.626 136.317,293.623 136.276,292.713 135.307 C 292.211 134.773,291.860 134.245,291.933 134.134 C 292.007 134.024,291.962 133.828,291.833 133.700 C 291.705 133.572,291.600 133.767,291.600 134.133 C 291.600 134.500,291.420 134.800,291.200 134.800 C 290.980 134.800,290.800 134.620,290.800 134.400 C 290.800 134.143,286.950 134.000,280.049 134.000 C 270.980 134.000,269.220 133.906,268.800 133.400 C 268.526 133.070,268.073 132.800,267.794 132.800 C 266.788 132.800,266.613 131.228,266.349 119.800 C 266.048 106.840,266.069 107.088,265.338 107.368 C 265.047 107.480,264.852 107.353,264.905 107.086 C 264.977 106.718,262.269 106.551,253.741 106.400 C 239.196 106.142,240.800 107.711,240.800 93.738 C 240.800 85.917,240.672 82.800,240.351 82.800 C 240.028 82.800,240.023 82.654,240.334 82.280 C 240.571 81.994,240.724 81.019,240.673 80.112 C 240.622 79.206,240.720 78.551,240.890 78.656 C 241.270 78.890,241.242 79.987,241.200 66.603 C 241.177 59.033,241.297 55.537,241.571 55.811 C 241.824 56.064,241.991 60.341,242.013 67.151 C 242.032 73.165,242.139 77.995,242.249 77.884 C 242.800 77.333,242.363 56.223,241.788 55.586 C 241.106 54.833,241.015 54.000,241.614 54.000 C 241.895 54.000,241.890 53.742,241.600 53.200 C 241.365 52.760,240.962 52.400,240.706 52.400 C 240.362 52.400,240.357 52.517,240.689 52.849 C 241.269 53.429,240.895 54.400,240.091 54.400 C 239.747 54.400,239.585 54.282,239.730 54.137 C 239.875 53.992,239.778 53.587,239.516 53.237 C 239.116 52.704,239.130 52.681,239.599 53.100 C 240.470 53.876,241.004 53.689,240.261 52.868 C 239.897 52.465,239.734 51.986,239.899 51.803 C 240.065 51.621,239.975 51.601,239.700 51.759 C 239.391 51.937,239.200 51.809,239.200 51.424 C 239.200 51.081,239.008 50.800,238.773 50.800 C 238.534 50.800,238.453 51.138,238.589 51.566 C 238.723 51.988,238.653 52.444,238.434 52.579 C 238.214 52.715,238.148 53.119,238.285 53.478 C 238.454 53.917,238.381 54.036,238.065 53.840 C 237.806 53.680,237.673 53.110,237.770 52.574 L 237.947 51.600 226.874 51.594 C 220.783 51.591,215.592 51.456,215.337 51.294 C 215.082 51.132,220.032 51.008,226.337 51.017 L 237.800 51.035 226.900 50.911 L 216.000 50.787 216.000 40.036 C 216.000 30.849,215.913 29.252,215.400 29.055 C 215.070 28.929,214.800 28.527,214.800 28.164 C 214.800 27.613,214.697 27.588,214.183 28.014 C 213.755 28.369,213.694 28.654,213.983 28.943 C 214.257 29.217,214.369 33.149,214.310 40.380 L 214.219 51.400 214.010 40.200 C 213.830 30.620,213.715 29.019,213.211 29.130 C 212.747 29.232,212.768 29.098,213.312 28.497 C 213.691 28.078,213.882 27.616,213.737 27.470 C 213.591 27.324,213.220 27.564,212.913 28.003 C 212.606 28.441,212.140 28.786,211.877 28.768 C 211.534 28.746,211.541 28.680,211.902 28.534 C 212.179 28.423,212.285 28.122,212.138 27.866 C 211.992 27.610,212.018 27.532,212.196 27.694 C 212.375 27.855,212.760 27.675,213.053 27.294 C 213.444 26.783,213.669 26.726,213.903 27.079 C 214.078 27.342,214.421 27.432,214.666 27.279 C 214.973 27.087,214.911 26.814,214.466 26.400 C 213.693 25.682,213.851 25.694,213.116 26.304 C 212.605 26.728,212.357 26.585,211.554 25.407 L 210.600 24.005 199.943 24.003 C 190.837 24.000,189.252 24.087,189.055 24.600 M214.528 24.595 C 214.575 25.062,214.938 25.425,215.405 25.472 C 215.981 25.532,216.014 25.499,215.525 25.352 C 215.153 25.242,214.758 24.847,214.648 24.475 C 214.501 23.986,214.468 24.019,214.528 24.595 M186.305 25.229 C 185.347 25.787,184.549 27.271,185.378 26.953 C 185.706 26.827,185.935 26.516,185.887 26.262 C 185.839 26.008,186.008 25.839,186.262 25.887 C 186.516 25.935,186.826 25.710,186.950 25.387 C 187.213 24.702,187.211 24.701,186.305 25.229 M205.500 26.299 C 202.475 26.367,197.525 26.367,194.500 26.299 C 191.475 26.231,193.950 26.175,200.000 26.175 C 206.050 26.175,208.525 26.231,205.500 26.299 M186.299 45.500 C 186.231 48.525,186.175 46.050,186.175 40.000 C 186.175 33.950,186.231 31.475,186.299 34.500 C 186.367 37.525,186.367 42.475,186.299 45.500 M184.898 51.066 C 184.621 51.177,184.469 51.388,184.560 51.534 C 184.650 51.680,179.746 51.793,173.662 51.784 L 162.600 51.768 173.400 51.994 L 184.200 52.220 173.733 52.310 C 167.976 52.359,162.981 52.291,162.633 52.157 C 160.751 51.435,163.058 51.202,173.100 51.100 C 179.205 51.038,184.470 50.959,184.800 50.925 C 185.179 50.886,185.215 50.938,184.898 51.066 M232.124 52.299 C 229.222 52.367,224.362 52.367,221.324 52.299 C 218.286 52.231,220.660 52.175,226.600 52.175 C 232.540 52.175,235.026 52.231,232.124 52.299 M226.827 53.906 C 221.012 53.965,216.115 53.876,215.946 53.707 C 215.777 53.538,220.535 53.490,226.519 53.600 L 237.400 53.799 226.827 53.906 M178.924 53.899 C 176.022 53.967,171.162 53.967,168.124 53.899 C 165.086 53.831,167.460 53.775,173.400 53.775 C 179.340 53.775,181.826 53.831,178.924 53.899 M238.299 72.300 C 238.231 75.325,238.175 72.850,238.175 66.800 C 238.175 60.750,238.231 58.275,238.299 61.300 C 238.367 64.325,238.367 69.275,238.299 72.300 M133.003 77.595 C 132.862 77.823,133.024 77.889,133.384 77.751 C 133.854 77.570,133.949 77.695,133.767 78.255 C 133.574 78.849,133.608 78.882,133.936 78.419 C 134.367 77.810,134.199 77.200,133.600 77.200 C 133.406 77.200,133.137 77.378,133.003 77.595 M348.656 184.600 C 348.529 184.929,348.588 185.604,348.787 186.100 C 349.102 186.881,349.153 186.802,349.175 185.500 C 349.202 183.909,349.033 183.617,348.656 184.600 M104.171 374.341 C 104.171 374.742,104.423 375.306,104.731 375.594 C 105.204 376.035,105.246 375.968,105.000 375.158 C 104.611 373.873,104.171 373.440,104.171 374.341 M294.900 374.500 C 294.955 374.775,294.745 374.945,294.432 374.877 C 293.963 374.776,293.954 374.863,294.381 375.377 C 295.006 376.130,295.234 376.169,295.100 375.500 C 295.045 375.225,295.255 375.055,295.568 375.123 C 296.037 375.224,296.046 375.137,295.619 374.623 C 294.994 373.870,294.766 373.831,294.900 374.500 " stroke="none" fill="#f4e4d4" fill-rule="evenodd"></path><path id="path1" d="M184.267 24.267 C 183.806 24.727,183.975 25.200,184.600 25.200 C 184.930 25.200,185.200 24.930,185.200 24.600 C 185.200 23.975,184.727 23.806,184.267 24.267 M185.600 24.680 C 185.600 25.007,185.260 25.364,184.844 25.472 C 184.106 25.666,183.805 27.599,184.514 27.600 C 184.687 27.600,184.635 27.960,184.400 28.400 C 184.089 28.980,184.096 29.200,184.423 29.200 C 184.672 29.200,184.969 28.840,185.084 28.400 C 185.322 27.491,186.000 27.312,186.000 28.157 C 186.000 28.464,186.274 28.820,186.609 28.948 C 187.121 29.145,187.145 29.040,186.755 28.291 C 186.500 27.801,186.425 27.524,186.588 27.676 C 186.969 28.030,187.983 27.111,187.710 26.660 C 187.596 26.473,187.881 26.522,188.343 26.769 C 189.040 27.143,189.142 27.115,188.948 26.609 C 188.820 26.274,188.464 26.000,188.157 26.000 C 187.312 26.000,187.491 25.322,188.400 25.084 C 188.840 24.969,189.200 24.672,189.200 24.423 C 189.200 24.096,188.980 24.089,188.400 24.400 C 187.960 24.635,187.600 24.687,187.600 24.514 C 187.600 24.341,187.150 24.174,186.600 24.142 C 185.956 24.105,185.600 24.296,185.600 24.680 M210.800 24.229 C 210.800 24.850,212.594 26.726,212.964 26.490 C 213.589 26.092,214.133 26.124,214.656 26.592 C 214.989 26.890,214.992 27.075,214.666 27.279 C 214.421 27.432,214.078 27.342,213.903 27.079 C 213.669 26.726,213.444 26.783,213.053 27.294 C 212.760 27.675,212.375 27.855,212.196 27.694 C 212.018 27.532,211.992 27.610,212.138 27.866 C 212.285 28.122,212.179 28.423,211.902 28.534 C 211.541 28.680,211.534 28.746,211.877 28.768 C 212.140 28.786,212.606 28.441,212.913 28.003 C 213.220 27.564,213.591 27.324,213.737 27.470 C 213.882 27.616,213.691 28.078,213.312 28.497 C 212.768 29.098,212.747 29.232,213.211 29.130 C 213.715 29.019,213.830 30.620,214.010 40.200 L 214.219 51.400 214.310 40.324 C 214.370 32.934,214.260 29.161,213.981 28.988 C 213.697 28.813,213.722 28.535,214.059 28.129 C 214.492 27.607,214.596 27.638,214.865 28.365 C 215.035 28.824,215.405 29.197,215.687 29.194 C 216.046 29.190,216.020 29.071,215.600 28.800 C 215.067 28.455,215.067 28.411,215.600 28.400 C 216.133 28.389,216.133 28.345,215.600 28.000 C 215.270 27.787,215.203 27.609,215.450 27.606 C 215.697 27.603,215.900 27.150,215.900 26.600 C 215.900 25.987,215.672 25.600,215.313 25.600 C 214.989 25.600,214.632 25.246,214.519 24.812 C 214.277 23.888,212.882 23.880,212.070 24.800 C 211.779 25.130,211.643 25.194,211.768 24.942 C 211.893 24.690,211.726 24.381,211.398 24.254 C 211.069 24.128,210.800 24.117,210.800 24.229 M214.800 24.567 C 214.800 24.915,215.085 25.200,215.433 25.200 C 216.140 25.200,216.017 24.339,215.275 24.092 C 215.014 24.005,214.800 24.218,214.800 24.567 M186.950 25.387 C 186.826 25.710,186.516 25.935,186.262 25.887 C 186.008 25.839,185.839 26.008,185.887 26.262 C 185.935 26.516,185.706 26.827,185.378 26.953 C 184.549 27.271,185.347 25.787,186.305 25.229 C 187.211 24.701,187.213 24.702,186.950 25.387 M194.500 26.299 C 197.525 26.367,202.475 26.367,205.500 26.299 C 208.525 26.231,206.050 26.175,200.000 26.175 C 193.950 26.175,191.475 26.231,194.500 26.299 M186.175 40.000 C 186.175 46.050,186.231 48.525,186.299 45.500 C 186.367 42.475,186.367 37.525,186.299 34.500 C 186.231 31.475,186.175 33.950,186.175 40.000 M157.495 51.300 C 157.391 51.575,157.272 57.465,157.231 64.388 C 157.190 71.312,157.113 77.020,157.059 77.074 C 157.006 77.128,151.794 77.193,145.477 77.218 C 139.161 77.244,134.073 77.394,134.170 77.552 C 134.268 77.709,134.162 78.100,133.936 78.419 C 133.600 78.894,133.565 78.873,133.748 78.304 C 134.034 77.415,132.372 76.927,131.329 77.594 C 130.642 78.033,130.645 78.046,131.378 77.813 C 132.098 77.584,132.109 77.618,131.517 78.283 C 130.965 78.903,130.871 80.671,130.821 91.385 C 130.789 98.197,130.722 103.812,130.672 103.862 C 130.621 103.912,124.645 104.009,117.390 104.077 L 104.200 104.200 104.077 117.390 C 104.009 124.645,103.908 130.625,103.853 130.680 C 103.798 130.735,98.600 130.795,92.302 130.812 C 83.822 130.836,80.802 130.968,80.658 131.322 C 80.513 131.678,80.455 131.672,80.432 131.300 C 80.372 130.358,77.600 130.675,77.600 131.624 C 77.600 132.080,77.781 132.335,78.007 132.196 C 78.230 132.058,78.292 131.749,78.145 131.511 C 77.973 131.232,78.066 131.193,78.403 131.402 C 78.810 131.654,78.731 131.888,78.054 132.437 C 77.129 133.186,76.847 156.491,77.738 158.600 C 78.003 159.227,77.982 159.270,77.644 158.800 C 77.305 158.329,77.211 158.526,77.206 159.714 C 77.200 161.258,78.007 161.603,79.473 160.683 C 79.751 160.508,80.203 160.754,80.573 161.282 C 80.918 161.775,81.200 161.939,81.200 161.646 C 81.200 161.338,81.452 161.211,81.800 161.345 C 82.130 161.471,82.400 161.395,82.400 161.175 C 82.400 160.916,86.390 160.815,93.762 160.888 C 100.011 160.950,105.048 160.877,104.955 160.727 C 104.863 160.577,105.141 160.206,105.574 159.903 C 107.028 158.885,107.200 157.458,107.200 146.449 L 107.200 135.750 108.384 134.875 C 109.530 134.027,109.895 134.000,120.022 134.000 C 134.930 134.000,133.961 135.000,134.013 119.570 C 134.038 112.107,134.193 108.450,134.499 108.081 C 134.838 107.672,134.808 107.450,134.374 107.176 C 133.941 106.901,133.928 106.811,134.324 106.806 C 134.635 106.802,134.726 106.598,134.547 106.300 C 134.348 105.969,134.478 105.988,134.932 106.357 C 135.532 106.843,135.587 106.831,135.366 106.257 C 135.137 105.658,136.093 105.599,146.257 105.587 C 154.838 105.577,157.559 105.453,158.093 105.048 C 158.717 104.575,158.798 103.415,158.893 93.561 C 158.974 85.226,159.116 82.623,159.486 82.695 C 159.776 82.752,159.874 82.538,159.730 82.162 C 159.534 81.651,159.419 81.633,159.120 82.066 C 158.884 82.409,158.848 82.098,159.022 81.200 C 159.171 80.430,159.467 79.583,159.681 79.318 C 159.894 79.052,159.946 78.636,159.796 78.394 C 159.615 78.101,159.347 78.193,158.999 78.669 C 158.563 79.266,158.485 77.319,158.537 67.093 C 158.572 60.332,158.454 54.800,158.276 54.800 C 158.098 54.800,158.082 55.025,158.241 55.300 C 158.399 55.575,158.374 55.660,158.186 55.488 C 157.657 55.007,157.623 54.042,158.139 54.162 C 158.393 54.221,158.457 54.191,158.283 54.096 C 158.109 54.000,158.160 53.689,158.397 53.403 C 158.634 53.118,158.777 52.730,158.714 52.542 C 158.651 52.354,158.769 52.150,158.975 52.089 C 159.181 52.028,159.390 52.253,159.440 52.589 C 159.489 52.925,159.371 53.200,159.177 53.200 C 158.984 53.200,158.929 53.470,159.055 53.800 C 159.182 54.130,159.581 54.386,159.943 54.368 C 160.358 54.348,160.416 54.262,160.100 54.135 C 159.327 53.823,159.510 53.196,160.300 53.450 C 160.833 53.622,160.871 53.583,160.457 53.288 C 160.078 53.017,160.048 52.818,160.357 52.626 C 160.601 52.476,160.800 52.042,160.800 51.662 C 160.800 50.744,159.239 50.641,158.294 51.496 C 157.616 52.109,157.584 52.108,157.826 51.478 C 157.969 51.105,157.996 50.800,157.886 50.800 C 157.776 50.800,157.600 51.025,157.495 51.300 M173.100 51.100 C 163.058 51.202,160.751 51.435,162.633 52.157 C 162.981 52.291,167.976 52.359,173.733 52.310 L 184.200 52.220 173.400 51.994 L 162.600 51.768 173.662 51.784 C 179.746 51.793,184.650 51.680,184.560 51.534 C 184.469 51.388,184.621 51.177,184.898 51.066 C 185.215 50.938,185.179 50.886,184.800 50.925 C 184.470 50.959,179.205 51.038,173.100 51.100 M215.337 51.294 C 215.592 51.456,220.783 51.591,226.874 51.594 L 237.947 51.600 237.770 52.574 C 237.673 53.110,237.806 53.680,238.065 53.840 C 238.376 54.032,238.455 53.921,238.299 53.514 C 238.169 53.175,238.247 52.713,238.473 52.487 C 239.784 51.176,238.374 51.000,226.537 51.000 C 220.123 51.000,215.083 51.132,215.337 51.294 M239.200 51.254 C 239.200 51.526,239.591 52.165,240.070 52.674 C 240.971 53.634,240.587 53.981,239.599 53.100 C 239.130 52.681,239.116 52.704,239.516 53.237 C 239.778 53.587,239.875 53.992,239.730 54.137 C 239.585 54.282,239.747 54.400,240.091 54.400 C 240.895 54.400,241.269 53.429,240.689 52.849 C 240.357 52.517,240.362 52.400,240.706 52.400 C 240.962 52.400,241.365 52.760,241.600 53.200 C 241.890 53.742,241.895 54.000,241.614 54.000 C 240.998 54.000,241.114 55.030,241.794 55.595 C 242.285 56.002,242.407 57.890,242.505 66.544 L 242.622 77.000 242.689 65.415 C 242.738 56.939,242.628 53.670,242.278 53.238 C 241.897 52.767,241.908 52.712,242.331 52.966 C 242.730 53.206,242.829 53.012,242.731 52.178 C 242.589 50.976,239.200 50.089,239.200 51.254 M221.324 52.299 C 224.362 52.367,229.222 52.367,232.124 52.299 C 235.026 52.231,232.540 52.175,226.600 52.175 C 220.660 52.175,218.286 52.231,221.324 52.299 M215.946 53.707 C 216.115 53.876,221.012 53.965,226.827 53.906 L 237.400 53.799 226.519 53.600 C 220.535 53.490,215.777 53.538,215.946 53.707 M168.124 53.899 C 171.162 53.967,176.022 53.967,178.924 53.899 C 181.826 53.831,179.340 53.775,173.400 53.775 C 167.460 53.775,165.086 53.831,168.124 53.899 M241.200 66.603 C 241.242 79.987,241.270 78.890,240.890 78.656 C 240.720 78.551,240.622 79.206,240.673 80.112 C 240.724 81.019,240.571 81.994,240.334 82.280 C 240.023 82.654,240.028 82.800,240.351 82.800 C 240.672 82.800,240.800 85.917,240.800 93.738 C 240.800 107.711,239.196 106.142,253.741 106.400 C 262.269 106.551,264.977 106.718,264.905 107.086 C 264.852 107.353,265.047 107.480,265.338 107.368 C 266.069 107.088,266.048 106.840,266.349 119.800 C 266.613 131.228,266.788 132.800,267.794 132.800 C 268.073 132.800,268.526 133.070,268.800 133.400 C 269.220 133.906,270.980 134.000,280.049 134.000 C 286.950 134.000,290.800 134.143,290.800 134.400 C 290.800 134.620,290.980 134.800,291.200 134.800 C 291.420 134.800,291.600 134.519,291.600 134.176 C 291.600 133.833,291.792 133.671,292.027 133.816 C 292.261 133.961,292.350 134.184,292.223 134.310 C 292.096 134.437,292.360 134.932,292.809 135.410 C 293.596 136.247,293.622 136.676,293.513 146.935 C 293.422 155.526,293.503 157.631,293.933 157.796 C 294.227 157.908,294.393 158.222,294.303 158.492 C 294.212 158.763,294.512 159.316,294.969 159.722 C 295.426 160.129,295.575 160.347,295.300 160.207 C 295.025 160.067,294.800 160.098,294.800 160.276 C 294.799 160.454,299.879 160.544,306.088 160.476 C 316.463 160.363,317.417 160.409,317.888 161.053 C 318.386 161.734,318.637 161.349,318.425 160.232 C 318.386 160.030,318.633 160.095,318.973 160.378 C 319.313 160.660,319.475 161.078,319.334 161.307 C 319.184 161.549,319.270 161.604,319.538 161.438 C 319.792 161.281,320.000 160.923,320.000 160.643 C 320.000 160.019,321.436 160.076,322.086 160.726 C 322.451 161.091,322.450 161.200,322.080 161.200 C 321.445 161.200,321.463 161.862,322.106 162.109 C 322.708 162.340,322.803 160.118,322.228 159.224 C 321.985 158.844,322.019 158.594,322.329 158.490 C 322.942 158.286,323.013 132.000,322.400 132.000 C 322.180 132.000,322.045 131.775,322.100 131.500 C 322.178 131.110,319.344 130.975,309.221 130.888 C 302.083 130.826,296.194 130.728,296.135 130.669 C 296.076 130.610,295.977 124.630,295.914 117.381 L 295.800 104.200 282.610 104.077 C 275.355 104.009,269.377 103.910,269.325 103.858 C 269.272 103.806,269.207 98.146,269.179 91.280 C 269.145 82.989,268.993 78.881,268.724 79.047 C 268.475 79.201,268.486 78.987,268.753 78.488 C 269.095 77.850,269.054 77.630,268.560 77.440 C 267.671 77.099,266.717 77.143,266.947 77.514 C 267.054 77.687,266.808 77.829,266.400 77.829 C 265.992 77.829,265.737 77.702,265.833 77.547 C 266.138 77.053,243.178 77.120,242.582 77.615 C 242.139 77.982,242.042 76.195,242.013 67.138 C 241.991 60.337,241.824 56.064,241.571 55.811 C 241.297 55.537,241.177 59.033,241.200 66.603 M158.098 70.867 C 158.165 75.811,158.065 78.221,157.800 78.001 C 157.543 77.787,157.468 73.772,157.590 66.734 C 157.780 55.804,157.905 56.823,158.098 70.867 M238.175 66.800 C 238.175 72.850,238.231 75.325,238.299 72.300 C 238.367 69.275,238.367 64.325,238.299 61.300 C 238.231 58.275,238.175 60.750,238.175 66.800 M322.493 173.510 L 322.400 184.420 321.400 184.800 C 320.850 185.009,320.400 185.375,320.400 185.614 C 320.400 185.852,320.175 185.918,319.900 185.759 C 319.625 185.601,319.533 185.619,319.697 185.799 C 319.860 185.979,319.822 186.332,319.613 186.584 C 319.387 186.857,319.267 192.320,319.317 200.121 C 319.363 207.314,319.273 213.200,319.119 213.200 C 318.824 213.200,320.003 215.649,320.468 216.003 C 321.095 216.481,321.030 266.151,320.400 267.200 C 319.751 268.281,319.083 291.201,319.700 291.200 C 319.865 291.200,319.981 291.335,319.957 291.500 C 319.933 291.665,320.043 292.200,320.200 292.689 C 320.358 293.177,320.502 293.717,320.520 293.889 C 320.538 294.060,320.969 294.648,321.477 295.196 C 322.397 296.189,322.400 296.225,322.394 307.796 C 322.390 314.679,322.244 319.173,322.034 318.841 C 321.748 318.389,321.580 318.442,321.157 319.121 C 320.772 319.736,320.498 319.848,320.127 319.539 C 319.795 319.263,315.591 319.139,307.911 319.179 C 291.541 319.262,292.800 318.077,292.800 333.400 C 292.800 344.799,292.773 345.040,291.514 344.852 C 291.357 344.829,291.314 345.032,291.419 345.305 C 291.568 345.693,289.185 345.775,280.405 345.682 C 272.429 345.598,269.200 345.692,269.200 346.006 C 269.200 346.249,269.035 346.345,268.832 346.220 C 268.630 346.095,268.201 346.256,267.880 346.577 C 267.558 346.899,267.203 347.070,267.091 346.958 C 266.979 346.846,266.644 347.304,266.346 347.977 C 266.048 348.650,265.669 349.200,265.502 349.200 C 265.044 349.200,265.135 370.577,265.599 371.797 C 265.828 372.400,265.840 372.748,265.626 372.616 C 265.422 372.490,265.142 372.570,265.004 372.793 C 264.866 373.017,264.943 373.200,265.176 373.200 C 265.409 373.200,265.600 373.464,265.600 373.786 C 265.600 374.108,265.965 374.567,266.411 374.806 C 266.857 375.045,267.119 375.408,266.992 375.613 C 266.850 375.842,272.371 375.951,281.281 375.893 L 295.800 375.800 295.932 362.602 C 296.004 355.343,296.102 349.364,296.150 349.316 C 296.198 349.268,302.169 349.177,309.419 349.114 L 322.600 349.000 322.711 322.622 C 322.772 308.114,322.872 296.195,322.932 296.134 C 322.993 296.074,328.930 296.004,336.126 295.979 L 349.210 295.934 349.049 240.867 C 348.860 175.808,349.202 183.946,346.659 184.029 C 345.526 184.066,339.698 184.074,333.707 184.048 L 322.813 184.000 322.700 173.300 L 322.586 162.600 322.493 173.510 M50.800 240.025 L 50.800 295.963 64.372 295.989 C 77.537 296.015,77.960 295.992,78.508 295.211 C 78.818 294.768,79.191 294.524,79.336 294.669 C 79.481 294.814,79.600 294.565,79.600 294.116 C 79.600 293.666,79.864 293.079,80.188 292.810 C 81.288 291.897,80.863 268.765,79.700 266.267 L 78.800 264.334 78.800 240.114 L 78.800 215.894 79.700 214.447 C 80.510 213.144,81.636 186.226,80.847 187.019 C 80.636 187.231,79.200 185.366,79.200 184.880 C 79.200 184.089,77.701 184.005,64.372 184.045 L 50.800 184.087 50.800 240.025 M77.256 333.150 C 77.260 341.373,77.355 348.338,77.467 348.630 C 77.629 349.053,80.282 349.165,90.711 349.189 C 97.884 349.206,103.804 349.271,103.866 349.333 C 103.929 349.395,103.993 354.746,104.009 361.223 C 104.034 371.124,104.141 373.234,104.682 374.467 L 105.325 375.934 119.430 375.981 C 127.872 376.009,133.629 375.877,133.768 375.652 C 133.896 375.445,134.406 375.371,134.900 375.488 C 135.764 375.691,135.770 375.676,135.039 375.111 C 134.499 374.692,134.416 374.438,134.752 374.230 C 135.050 374.046,135.133 373.449,134.976 372.615 C 134.828 371.826,134.904 371.183,135.164 371.022 C 135.882 370.579,135.764 349.200,135.043 349.200 C 134.737 349.200,134.374 348.750,134.236 348.200 C 134.098 347.650,133.718 347.200,133.392 347.200 C 133.067 347.200,132.800 347.039,132.800 346.843 C 132.800 346.229,131.481 345.946,131.138 346.486 C 130.874 346.903,130.811 346.903,130.806 346.488 C 130.801 346.081,128.538 345.998,119.838 346.088 C 113.809 346.149,108.938 346.100,109.014 345.977 C 109.090 345.854,108.713 345.424,108.176 345.021 L 107.200 344.288 107.200 333.804 C 107.200 323.592,106.919 320.800,105.892 320.800 C 105.656 320.800,105.177 320.541,104.826 320.224 C 104.304 319.751,101.872 319.633,91.295 319.564 C 83.886 319.516,78.400 319.325,78.400 319.116 C 78.400 318.916,78.235 318.855,78.034 318.979 C 77.833 319.103,77.574 318.979,77.459 318.702 C 77.343 318.426,77.252 324.928,77.256 333.150 M188.500 372.500 C 188.555 372.775,188.350 372.947,188.044 372.881 C 187.031 372.665,160.704 372.812,160.342 373.036 C 160.147 373.157,160.114 373.468,160.270 373.728 C 160.448 374.025,160.313 374.005,159.907 373.676 C 159.345 373.221,159.172 373.339,158.586 374.573 C 158.216 375.354,157.752 375.894,157.556 375.773 C 157.351 375.646,157.200 380.734,157.200 387.776 L 157.200 400.000 200.011 400.000 L 242.823 400.000 242.666 387.700 C 242.495 374.225,242.506 374.384,241.717 374.687 C 241.392 374.812,241.215 374.674,241.284 374.349 C 241.354 374.018,241.122 373.847,240.700 373.918 C 240.281 373.988,240.000 373.783,240.000 373.407 C 240.000 372.851,238.583 372.778,227.500 372.767 C 211.247 372.750,211.579 372.758,211.786 372.422 C 211.885 372.263,211.703 372.133,211.382 372.133 C 211.062 372.133,210.800 372.283,210.800 372.467 C 210.800 372.650,205.940 372.800,200.000 372.800 C 193.067 372.800,189.200 372.657,189.200 372.400 C 189.200 372.180,189.020 372.000,188.800 372.000 C 188.580 372.000,188.445 372.225,188.500 372.500 M264.974 375.105 C 265.030 375.487,265.374 375.858,265.738 375.929 C 266.646 376.107,266.574 375.321,265.636 374.819 C 265.013 374.486,264.891 374.538,264.974 375.105 " stroke="none" fill="#f4ecda" fill-rule="evenodd"></path></g></svg>