<?xml version="1.0" standalone="no"?>
<!DOCTYPE svg PUBLIC "-//W3C//DTD SVG 20010904//EN"
 "http://www.w3.org/TR/2001/REC-SVG-20010904/DTD/svg10.dtd">
<svg version="1.0" xmlns="http://www.w3.org/2000/svg"
 width="187.000000pt" height="340.000000pt" viewBox="0 0 187.000000 340.000000"
 preserveAspectRatio="xMidYMid meet">

<g transform="translate(0.000000,340.000000) scale(0.100000,-0.100000)"
fill="#000000" stroke="none">
<path d="M992 3195 c-7 -32 -12 -101 -12 -154 1 -90 3 -99 33 -151 29 -47 44
-60 112 -96 88 -47 208 -143 274 -218 l44 -50 -5 66 c-11 130 -93 255 -252
383 -97 78 -126 120 -169 239 l-14 38 -11 -57z"/>
<path d="M767 3133 c-3 -17 -21 -66 -39 -109 -26 -63 -45 -90 -105 -149 -40
-40 -73 -78 -73 -84 0 -6 16 -11 35 -11 55 0 105 53 165 174 l51 103 -14 54
c-13 53 -14 53 -20 22z"/>
<path d="M659 2769 c-38 -37 -87 -76 -112 -87 -24 -11 -48 -25 -51 -31 -9 -14
-63 -15 -71 -1 -10 17 -83 -31 -137 -90 -82 -88 -219 -402 -218 -500 0 -20 6
-15 31 30 16 30 40 66 53 80 12 14 45 54 72 90 83 110 171 202 259 270 228
177 265 219 247 283 -7 23 -11 20 -73 -44z"/>
<path d="M940 2735 c0 -16 -16 -72 -36 -124 -41 -104 -75 -145 -198 -236 -93
-69 -143 -125 -206 -232 -34 -56 -59 -88 -64 -83 -6 6 3 29 21 58 27 44 29 51
17 73 -20 35 -17 87 7 125 12 21 16 34 9 34 -16 0 -250 -241 -250 -258 0 -21
-20 -55 -45 -77 -23 -19 -24 -26 -26 -175 -2 -137 1 -162 20 -220 28 -80 73
-148 152 -226 l60 -59 -3 177 c-3 168 -2 177 18 200 12 12 31 41 42 63 25 50
143 165 197 192 22 11 84 31 138 43 81 19 116 22 195 17 88 -5 103 -9 177 -47
114 -60 140 -82 199 -174 88 -134 100 -165 93 -248 -7 -87 -68 -221 -125 -278
-42 -42 -169 -116 -180 -105 -4 4 1 12 12 19 10 6 42 30 71 53 75 60 93 120
56 191 -62 117 -194 227 -309 257 -65 17 -132 20 -132 5 0 -5 -6 -10 -12 -10
-7 0 -40 -13 -73 -29 -42 -20 -83 -53 -137 -108 -92 -95 -128 -163 -128 -241
0 -50 2 -54 58 -110 31 -32 75 -72 97 -88 69 -52 201 -113 260 -120 47 -6 62
-3 117 24 35 17 112 54 172 82 90 42 125 65 197 131 83 75 92 88 145 197 l57
117 4 120 c5 135 9 124 -98 299 -55 91 -76 115 -252 285 -53 52 -97 99 -97
105 0 6 -13 24 -30 39 -19 18 -36 49 -46 85 -29 105 -78 217 -111 252 l-32 35
-1 -30z m88 -1210 c48 -15 136 -74 175 -117 39 -45 6 -152 -67 -214 -70 -61
-87 -66 -200 -62 -86 3 -111 8 -166 33 -85 39 -140 97 -140 149 0 20 6 49 14
64 21 40 116 128 156 145 46 20 163 21 228 2z"/>
<path d="M852 1353 c-23 -15 -42 -31 -42 -34 0 -16 86 -69 112 -69 35 0 76 20
103 50 20 22 20 22 0 37 -29 22 -81 43 -108 43 -13 0 -42 -12 -65 -27z"/>
<path d="M1227 2558 c-5 -36 -1 -48 35 -102 23 -34 71 -93 107 -133 148 -162
186 -217 256 -369 51 -110 52 -116 59 -231 l7 -118 -41 -124 c-22 -68 -52
-145 -66 -170 -70 -122 -210 -217 -444 -301 -47 -17 -103 -43 -125 -57 -26
-17 -58 -28 -90 -31 -45 -4 -56 0 -105 33 -30 21 -70 44 -88 51 -30 13 -108
62 -172 109 -81 58 -254 221 -319 300 -22 27 -55 85 -72 129 -18 45 -36 83
-40 86 -9 6 -39 120 -40 151 0 23 -1 23 -9 4 -5 -11 -9 -120 -9 -242 l-1 -222
75 -78 75 -77 0 -75 0 -75 73 -71 c40 -38 84 -85 98 -103 23 -32 25 -33 54
-21 43 19 46 28 22 70 -24 42 -14 68 11 29 9 -14 37 -46 63 -72 38 -40 52 -48
82 -48 20 0 40 -6 44 -13 4 -6 29 -22 56 -34 37 -18 47 -28 47 -47 0 -50 -51
-81 -105 -65 -6 2 -23 -5 -39 -16 l-29 -19 -49 27 -49 28 6 -48 c14 -106 37
-126 112 -98 l45 17 28 -33 c28 -34 30 -55 5 -45 -17 6 -24 -65 -12 -119 7
-29 20 -49 50 -72 l41 -32 15 22 c8 12 27 36 44 54 30 32 33 62 12 116 -6 15
1 17 78 17 80 0 116 -12 90 -29 -6 -3 -13 -18 -16 -32 -5 -20 1 -33 28 -62 19
-20 38 -37 42 -37 4 0 17 -12 29 -28 l23 -27 21 21 c18 18 20 25 11 42 -7 13
-8 50 -3 109 l7 88 42 3 c33 2 44 -1 57 -20 9 -12 16 -31 16 -41 0 -13 18 0
60 45 54 57 60 67 60 106 0 40 -3 44 -36 58 -35 15 -58 13 -101 -8 -17 -8 -26
-8 -39 3 -9 7 -23 14 -32 16 -28 4 -53 44 -50 77 3 28 7 31 52 39 27 4 60 17
74 27 16 13 40 20 67 20 31 0 46 5 56 20 8 10 27 22 43 26 26 6 29 5 23 -15
-3 -11 -3 -21 -1 -21 9 0 171 120 193 143 21 23 24 36 25 115 l1 89 43 54
c115 144 122 156 122 223 0 54 -4 66 -31 99 l-31 38 6 102 c3 56 8 130 12 164
5 51 3 69 -15 106 -11 24 -21 52 -21 63 0 11 -36 78 -81 150 -72 116 -124 176
-180 209 -92 54 -163 111 -198 158 -22 31 -45 58 -49 61 -5 3 -12 -13 -15 -36z"/>
<path d="M1613 2317 c112 -151 170 -247 187 -309 l17 -63 13 45 c18 66 8 160
-24 214 -34 58 -118 129 -189 161 l-57 25 53 -73z"/>
<path d="M845 268 c-37 -44 -43 -64 -37 -130 4 -57 5 -58 53 -88 59 -36 95
-37 168 -7 l54 22 4 70 4 70 -52 47 c-48 46 -53 48 -109 48 -53 0 -61 -3 -85
-32z"/>
</g>
</svg>
